<?xml version="1.0" encoding="utf-8"?>
<!-- Generator: Adobe Illustrator 21.1.0, SVG Export Plug-In . SVG Version: 6.00 Build 0)  -->
<svg version="1.1" id="Guides" xmlns="http://www.w3.org/2000/svg" xmlns:xlink="http://www.w3.org/1999/xlink" x="0px" y="0px"
	 viewBox="0 0 150 150" style="enable-background:new 0 0 150 150;" xml:space="preserve">
<style type="text/css">
	.st0{fill:#6B996B;}
	.st1{fill:#FFFFFF;}
</style>
<circle class="st0" cx="75" cy="75" r="75"/>
<g>
	<path class="st1" d="M142.5,75.1c0,37.2-30.2,67.4-67.6,67.4c-37.3,0-67.5-30.2-67.5-67.6c0-37.1,30.1-67.1,67-67.3
		C112.1,7.3,142.6,37.7,142.5,75.1z M75,141.5c37,0,67-30.4,66.6-67.4c-0.5-36.1-30.1-65.7-66.8-65.6C38.2,8.6,8.4,38.5,8.4,75.1
		C8.5,111.7,38.4,141.6,75,141.5z"/>
	<path class="st1" d="M75.2,123.5c-26.2,0-47.5-21.4-47.4-47.6c0-26.2,21.4-47.5,47.6-47.4c26.4,0,47.6,21.3,47.5,47.7
		C122.8,102.4,101.5,123.5,75.2,123.5z M75.3,122.5c25.8-0.1,46.6-20.9,46.5-46.6c0-25.7-21-46.5-46.8-46.4
		C49.6,29.5,28.7,50.5,28.7,76C28.7,101.6,49.7,122.6,75.3,122.5z"/>
	<path class="st1" d="M26.1,103.3c0.3-0.2,0.4-0.3,0.6-0.3c0.3,0,0.6,0,0.8,0.1c-0.1,0.3-0.1,0.7-0.2,0.8c-0.5,0.4-1,0.8-1.6,1.1
		c-0.3,0.1-0.6,0.1-1,0.1c0.1-0.3,0.2-0.7,0.3-1c0-0.1,0.1-0.1,0.3-0.2c-5.2-9-7.8-18.6-7.8-28.9c0-10.3,2.6-19.9,7.7-28.8
		c0-0.1,0-0.2-0.1-0.2c-0.3-0.3-0.9-0.6-0.5-1.1c0.5-0.5,0.9,0,1.2,0.3c0.4,0.2,0.8,0.5,1.1,0.8c0.2,0.2,0.5,0.7,0.4,0.9
		c-0.2,0.5-0.6,0.3-1,0.1c-0.1-0.1-0.2-0.1-0.4-0.2c-4.9,8.5-7.5,17.7-7.6,27.5C18.4,84.5,20.9,94.2,26.1,103.3z"/>
	<path class="st1" d="M124,47.2c-0.6-0.1-1.3,0-1.4-0.2c-0.4-0.6,0.3-0.8,0.7-1.1c0.4-0.3,0.7-0.6,1.1-0.8c0.3-0.1,0.6-0.1,1-0.1
		c-0.1,0.3-0.2,0.7-0.3,1c0,0.1-0.2,0.2-0.2,0.2C135,65.5,135,84.7,124.7,104c0.2,0.2,0.5,0.3,0.6,0.6c0.1,0.2,0.2,0.6,0.1,0.7
		c-0.1,0.1-0.5,0.3-0.7,0.2c-0.6-0.3-1.2-0.7-1.7-1.2c-0.2-0.2-0.3-0.6-0.4-0.9c0.3,0,0.6,0,1-0.1c0.1,0,0.2,0,0.2,0.1
		C134,86.6,134,63.5,124,47.2z"/>
	<path class="st1" d="M103.6,24c0,2.7-2.2,4.9-4.8,4.8c-2.9,0-5.2-2.3-5.2-5c0.1-2.7,2.2-4.8,4.9-4.8
		C101.4,19.1,103.6,21.3,103.6,24z M95.4,24.3c0,1.6,1.4,3,3,3.1c1.8,0,3.4-1.8,3.4-3.8c0-1.7-1.3-3-3-3
		C97,20.5,95.5,22.3,95.4,24.3z"/>
	<path class="st1" d="M113.1,27.1c0.5,0.3,0.9,0.6,1.3,0.9c-1.8,2.5-3.5,4.9-5.2,7.4c-0.8-0.3-1.1-0.7-1.2-1.6
		c-0.1-2.2-0.2-4.3-0.6-6.6c-1.1,1.6-2.2,3.1-3.4,4.7c-0.4-0.3-0.9-0.6-1.3-0.9c1.8-2.5,3.5-4.9,5.2-7.4c0.8,0.2,1.1,0.7,1.2,1.6
		c0.1,2.2,0.2,4.3,0.3,6.5c0.1,0,0.1,0.1,0.2,0.1C110.8,30.3,111.9,28.7,113.1,27.1z"/>
	<path class="st1" d="M48.7,26.8c0.5,1.1,1,2.1,1.6,3.2c-0.6,0.3-1,0.5-1.6,0.8c-1.4-2.7-2.7-5.4-4.1-8.2c1.3-0.6,2.6-1.3,3.9-1.8
		c1.2-0.5,2.3-0.1,3,0.9c0.8,1.1,0.8,2.3,0,3.4c-0.1,0.1-0.1,0.2-0.2,0.3c1.3,1.4,2.4,1.8,3.7,1.2c0.1,0.3,0.3,0.6,0.4,0.9
		c-1.1,1.1-2.3,1.3-3.5,0.5c-0.5-0.3-1-0.7-1.5-1.1C49.6,26.2,49.6,26.2,48.7,26.8z M46.8,23c0.5,0.9,0.9,1.7,1.3,2.6
		c0.5-0.3,1-0.5,1.5-0.8c0.8-0.5,1-1.1,0.6-1.9c-0.4-0.8-1-1-1.9-0.7C47.8,22.4,47.4,22.7,46.8,23z"/>
	<path class="st1" d="M84.5,24.4c-0.6-0.2-1.1-0.3-1.7-0.4c0.6-3,1.2-5.9,1.9-8.9c0.6,0.1,1.1,0.2,1.7,0.3c-0.2,1.2-0.4,2.3-0.7,3.5
		c1.4,0.3,2.8,0.6,4.3,0.9c0.3-1.2,0.5-2.3,0.8-3.5c0.6,0.1,1.1,0.2,1.7,0.4c-0.6,3-1.2,5.9-1.9,8.9c-0.6-0.1-1.1-0.2-1.8-0.3
		c0.3-1.3,0.5-2.6,0.8-4c-1.4-0.3-2.7-0.6-4-0.9c-0.1,0-0.4,0.4-0.4,0.6C85,22.1,84.7,23.2,84.5,24.4z"/>
	<path class="st1" d="M118.9,37.1c-0.4,0.4-0.7,0.7-1.2,1.2c-0.8-0.9-1.5-1.7-2.3-2.6c-0.6,0.7-1.2,1.4-1.8,2.1
		c0.9,0.8,1.9,1.6,3,2.6c-0.6,0.5-0.9,0.8-1.2,1.1c-1.4-1.4-2.8-2.7-4.1-4c2.1-2.2,4.2-4.4,6.3-6.5c1.4,1.4,2.8,2.7,4.3,4.2
		c-0.3,0.3-0.6,0.6-1,1c-1-1.1-1.9-2-2.8-3.1c-0.6,0.6-1.1,1.1-1.7,1.8C117.2,35.7,118,36.4,118.9,37.1z"/>
	<path class="st1" d="M45.7,31c0.3,0.4,0.5,0.7,0.8,1.1c-1.6,1.2-3.2,2.3-4.8,3.5c-1.8-2.5-3.6-4.9-5.4-7.4c1.6-1.2,3.1-2.3,4.8-3.5
		c0.3,0.4,0.5,0.7,0.8,1.1c-1.1,0.8-2.2,1.6-3.3,2.5c0.4,0.6,0.8,1.2,1.3,1.8c0.9-0.6,1.8-1.3,2.7-1.9c0.3,0.3,0.5,0.7,0.8,1.1
		c-0.9,0.7-1.7,1.3-2.7,2c0.5,0.7,1,1.4,1.6,2.2C43.4,32.6,44.5,31.9,45.7,31z"/>
	<path class="st1" d="M71.3,22.3c0.1,0.5,0.1,0.9,0.2,1.3c-1,0.1-2,0.3-3,0.4c-0.9,0.1-1.9,0.2-2.9,0.4c-0.4-3-0.8-6-1.2-9
		c2-0.3,3.9-0.5,5.8-0.8c0.1,0.5,0.1,0.9,0.2,1.3c-1.2,0.2-2.2,0.4-3.3,0.5c-0.6,0.1-0.8,0.3-0.7,0.9c0.3,1.4-0.1,1.5,1.6,1.2
		c0.6-0.1,1.2-0.2,1.9-0.2c0.1,0.4,0.1,0.8,0.2,1.3c-0.9,0.1-1.8,0.3-2.7,0.4c-0.5,0-0.6,0.3-0.6,0.8c0.1,2.1,0.1,2.1,2.2,1.8
		C69.8,22.5,70.5,22.4,71.3,22.3z"/>
	<path class="st1" d="M34.4,38.2c0.8,0.7,1.6,1.5,2.4,2.2c-0.4,0.5-0.8,0.9-1.3,1.4c-2.1-2.3-4.1-4.5-6.2-6.8c0.9-0.8,1.9-2,3.1-2.9
		c1-0.8,2.4-0.4,3.4,0.5c1,1,1.2,2.3,0.4,3.4C35.7,36.8,35.1,37.4,34.4,38.2z M33.5,37.1c0.6-0.8,1.7-1.2,1.4-2.4
		c-0.2-0.7-0.7-1.2-1.4-1.3c-1.2-0.2-1.6,0.9-2.3,1.4C32,35.6,32.7,36.3,33.5,37.1z"/>
	<path class="st1" d="M75.9,20.4c0,1.1,0,2.1,0,3.2c-0.7,0-1.2,0-1.8,0c0.1-3,0.2-6,0.3-9.2c1.6,0.1,3.1,0.1,4.5,0.4
		c1.4,0.2,2,1.4,2,2.8c0,1.4-0.8,2.4-2.2,2.6C77.8,20.4,76.9,20.3,75.9,20.4z M76,17.4C76,17.4,76,17.4,76,17.4c0,0.2,0,0.4,0,0.6
		c0,1.1,0,1.1,1.1,1.1c0.1,0,0.2,0,0.3,0c1.1,0,1.6-0.6,1.6-1.6c0-1.2-0.6-1.6-2.1-1.7c-1.3-0.1-0.7,0.9-0.9,1.5
		C76,17.3,76,17.4,76,17.4z"/>
	<path class="st1" d="M56.8,24.9c1,0,2,0.1,2.9,0c0.7-0.1,1.3-0.6,1.3-1.4c0-0.7-0.6-1.2-1.6-1.2c-0.6,0-1.2,0-1.9,0
		c-1.3-0.1-2.1-0.9-2.4-2c-0.2-1.2,0.2-2.2,1.4-2.8c0.8-0.3,1.7-0.5,2.5-0.6c1.2-0.1,1.3,0.1,1.1,1.4c-0.7,0-1.4-0.1-2.1,0
		c-0.9,0.1-1.5,0.7-1.4,1.3c0.2,0.9,0.9,0.9,1.6,1c0.8,0,1.6,0,2.4,0.2c1.2,0.3,1.8,1.2,1.9,2.3c0.2,1.1-0.3,1.9-1.2,2.5
		c-1.1,0.7-2.2,1-3.5,0.8C56.7,26.1,56.6,26,56.8,24.9z"/>
	<path class="st1" d="M62.6,130.1c0,1.3-1,2.2-2.2,2.2c-1.3,0-2.4-1-2.4-2.2c0-1.3,1-2.3,2.2-2.2C61.5,127.9,62.6,128.9,62.6,130.1z
		 M59.1,130.3c0,0.7,0.5,1.2,1.1,1.2c0.6,0,1.3-0.8,1.3-1.6c0-0.7-0.5-1.2-1.2-1.2C59.7,128.8,59.1,129.5,59.1,130.3z"/>
	<path class="st1" d="M107.2,124.4c-0.3-0.5-0.6-0.9-1-1.4c-0.5,0.3-0.9,0.6-1.4,0.9c0.3,0.5,0.6,1,0.9,1.5
		c-0.3,0.2-0.5,0.4-0.9,0.6c-0.8-1.2-1.5-2.3-2.3-3.5c0.3-0.2,0.6-0.4,0.9-0.6c0.3,0.4,0.6,0.8,0.9,1.2c0.5-0.3,0.9-0.6,1.4-0.9
		c-0.3-0.4-0.5-0.8-0.7-1.3c0.3-0.2,0.5-0.4,0.8-0.6c0.8,1.2,1.5,2.3,2.3,3.5C107.8,124,107.5,124.2,107.2,124.4z"/>
	<path class="st1" d="M67.5,131.7c0.1-0.7,0.2-1.4,0.4-2.2c0.3,0,0.6,0.1,0.9,0.1c-0.2,1.4-0.4,2.7-0.6,4.1
		c-1.6-0.2-1.4-1.9-2.4-2.6c-0.1,0.7-0.2,1.4-0.4,2.1c-0.3,0-0.6-0.1-0.9-0.1c0.2-1.4,0.4-2.7,0.6-4.1
		C66.6,129.3,66.5,130.9,67.5,131.7z"/>
	<path class="st1" d="M116.9,116.2c-1.1,0.9-2.3-0.1-3.6,0.3c0.7,0.5,1.3,0.9,1.9,1.4c-0.4,0.4-0.6,0.6-0.7,0.8c-1-1-2-2-3-2.9
		c0.4-0.8,1.1-0.4,1.6-0.4c0.6,0,1.2,0.1,2,0.2c-0.7-0.7-1.2-1.2-1.7-1.8c0.2-0.2,0.4-0.4,0.5-0.6
		C114.9,114.2,115.9,115.1,116.9,116.2z"/>
	<path class="st1" d="M88.7,132.4c-1.4,0.9-1.9-0.6-3-1c0,0.3-0.1,0.6-0.1,0.9c0.3,0.8-0.1,1-0.9,0.9c-0.3-1.3-0.5-2.6-0.8-4
		c0.4-0.1,0.7-0.2,1-0.2c0.1,0.5,0.2,1,0.3,1.5c0.9-0.5,0.8-2.1,2.3-2c-0.3,0.6-0.7,1-0.9,1.6c-0.1,0.2,0,0.7,0.1,0.8
		C87.4,131.5,88.1,131.9,88.7,132.4z"/>
	<path class="st1" d="M50.7,128.8c-0.7-0.1-1-0.3-0.9-1c0-0.6-1.2-1.2-1.7-0.8c-0.5,0.3-0.5,0.3-1.2-0.2c1-0.9,2.1-1.8,3.1-2.6
		c0.4-0.4,1.1-0.1,1.1,0.5C50.9,126,50.8,127.4,50.7,128.8z M50,125.5c-0.1,0-0.1,0-0.2-0.1c-0.3,0.2-0.5,0.5-0.9,0.8
		c0.4,0.2,0.6,0.3,1,0.5C49.9,126.2,50,125.8,50,125.5z"/>
	<path class="st1" d="M45.3,125.1c-0.2,0.2-0.3,0.4-0.5,0.6c-0.8-0.5-1.6-1-2.4-1.5c0.8-1.2,1.5-2.3,2.3-3.5c0.8,0.5,1.6,1,2.4,1.5
		c-0.1,0.2-0.3,0.4-0.4,0.7c-0.5-0.3-1-0.6-1.5-0.9c-0.7,1,0.5,0.9,0.7,1.5c-0.1,0.1-0.2,0.3-0.3,0.6c-0.4-0.2-0.8-0.4-1.2-0.7
		c-0.2,0.3-0.3,0.5-0.5,0.8C44.3,124.5,44.8,124.8,45.3,125.1z"/>
	<path class="st1" d="M107.5,118.9c0.8-0.7,1.5-1.2,2.2-1.8c0.2,0.2,0.4,0.4,0.5,0.6c-0.5,0.4-0.9,0.7-1.3,1.1
		c0.2,0.8,0.5,0.6,0.9,0.2c0.4-0.3,0.7-0.6,1,0.2c-0.3,0.3-0.6,0.6-1,0.9c0.2,0.2,0.4,0.5,0.6,0.7c0.5-0.4,0.9-0.7,1.4-1
		c0.2,0.2,0.3,0.3,0.5,0.6c-0.8,0.6-1.5,1.2-2.2,1.8C109.3,121.1,108.4,120,107.5,118.9z"/>
	<path class="st1" d="M70.4,133.9c0.6-1.3,1.1-2.5,1.7-3.7c0.2-0.5,1-0.4,1.2,0.1c0.5,1.2,0.9,2.5,1.4,3.8c-0.6,0.1-1,0.2-1.2-0.5
		c-0.2-0.6-1.6-0.6-1.9,0C71.4,134.2,71,134.2,70.4,133.9z M72.8,131.4c-0.1,0-0.1,0-0.2,0c-0.1,0.3-0.3,0.7-0.5,1.1
		c0.4,0,0.7,0,1,0C73,132.1,72.9,131.8,72.8,131.4z"/>
	<path class="st1" d="M34.6,117.7c-0.6-0.3-0.9-0.6-0.5-1.2c0.3-0.5-0.7-1.4-1.4-1.4c-0.4,0-0.7-0.1-1.1-0.2c0-0.1,0-0.2,0-0.3
		c1.3-0.5,2.6-1,3.9-1.5c0.4-0.2,0.9,0.4,0.7,0.9C35.7,115.2,35.1,116.4,34.6,117.7z M35.1,114.3c0-0.1-0.1-0.1-0.1-0.2
		c-0.3,0.1-0.7,0.3-1.2,0.5c0.3,0.3,0.5,0.5,0.8,0.8C34.7,115,34.9,114.7,35.1,114.3z"/>
	<path class="st1" d="M42.4,120.2c-0.4-0.5-0.7-0.8-0.9-1.1c-0.1-0.1-0.3,0-0.5,0c0,0.2-0.1,0.4,0,0.5c0.1,0.3,0.5,0.6,0.5,0.9
		c0,0.5,0.1,1.1-0.2,1.4c-0.3,0.3-1,0.5-1.4,0.3c-0.5-0.2-0.9-0.7-1.3-1.1c-0.3-0.4-0.2-0.7,0.3-0.9c0.3,0.4,0.5,0.8,0.8,1.1
		c0.2,0.1,0.5,0.1,0.7,0.2c0-0.2,0-0.5,0-0.7c0-0.1-0.1-0.2-0.2-0.3c-0.4-0.5-0.7-1.1-0.2-1.7c0.2-0.3,0.8-0.6,1.1-0.5
		c0.6,0.3,1.1,0.8,1.6,1.2C42.7,119.5,42.5,119.9,42.4,120.2z"/>
	<path class="st1" d="M56.2,127.6c-0.3-0.2-0.6-0.4-0.9-0.6c-0.1-0.1-0.4,0-0.5,0.1c0,0.2,0,0.4,0.1,0.5c0.2,0.3,0.5,0.4,0.8,0.7
		c0.5,0.5,0.6,1.1,0.2,1.5c-0.3,0.3-0.8,0.6-1.2,0.6c-0.5,0-1-0.4-1.5-0.6c-0.5-0.3-0.5-0.7,0-1c0.3,0.3,0.6,0.6,0.9,0.7
		c0.2,0.1,0.6,0,0.8,0c-0.1-0.3-0.1-0.5-0.3-0.8c-0.2-0.2-0.6-0.4-0.6-0.6c-0.1-0.4-0.3-1-0.1-1.4c0.2-0.3,0.8-0.6,1.2-0.6
		c0.4,0,0.9,0.3,1.3,0.6c0.2,0.1,0.1,0.5,0.2,0.8C56.4,127.6,56.3,127.6,56.2,127.6z"/>
	<path class="st1" d="M102,126.3c0.5,0.5,0.4,0.9-0.1,1.3c-0.8,0.6-2,0.8-2.8,0.4c-0.8-0.5-1.3-1.5-1-2.4c0.2-0.9,1.1-1.6,2.1-1.8
		c0.6-0.1,0.6,0,0.9,0.7c-0.8,0.1-1.8,0.2-1.9,1.3c0,0.5,0.4,1.2,0.8,1.4C100.9,127.6,101.4,126.9,102,126.3z"/>
	<path class="st1" d="M95.9,125.8c0.1,0.2,0.2,0.4,0.3,0.7c-0.4,0.2-0.7,0.4-1.2,0.6c0.4,1,0.8,2,1.2,3.1c-0.4,0.1-0.6,0.2-1,0.4
		c-0.3-0.8-0.7-1.5-0.9-2.3c-0.2-0.8-0.6-1-1.3-0.6c-0.1,0.1-0.2,0.1-0.4,0.1c-0.1-0.2-0.1-0.4-0.2-0.7
		C93.6,126.6,94.8,126.2,95.9,125.8z"/>
	<path class="st1" d="M79.9,133.5c-0.2,0.2-0.4,0.4-0.6,0.5c0,0-0.1,0-0.1,0c-2.3,0.2-2.3,0.2-2.4-2c0-0.6-0.1-1.2-0.1-2
		c0.3,0,0.6-0.1,1-0.1c0,0.8,0.1,1.6,0.1,2.4c0,0.8,0.2,1.2,1.1,1c0.2,0,0.5,0,0.7,0C79.8,133.4,79.8,133.4,79.9,133.5z"/>
	<path class="st1" d="M90.9,131.9c-0.4-1.4-0.8-2.6-1.2-4c0.3-0.1,0.6-0.2,1-0.4c0.4,1.3,0.8,2.6,1.2,4
		C91.6,131.7,91.3,131.8,90.9,131.9z"/>
	<path class="st1" d="M72.8,131.4c0.1,0.4,0.2,0.7,0.3,1.1c-0.4,0-0.6,0-1,0c0.2-0.4,0.3-0.8,0.5-1.1
		C72.7,131.4,72.7,131.4,72.8,131.4z"/>
	<path class="st1" d="M95,76.3c0.1,0.2,0.2,0.4,0.3,0.5c1.8,2.3,0.3,5.3-2.1,6.1c-1.2,0.4-2.4,0.6-3.6,0.7c-2.7,0.3-3.2,0.6-3.6,3.2
		c-0.3,2.1-0.4,4.3-0.5,6.5c0,0.3,0.3,0.7,0.6,0.9c2.7,1.4,5.3,2.8,8,4.2c1.5,0.8,3.1,1.5,4.7,2.2c0.6,0.3,0.7,0.7,0.6,1.3
		c-0.4,1.8-1.2,3.3-2.3,4.7c-3.9,5.1-9.1,8.1-15.3,9.3c-11.6,2.2-21.3-1.6-29.7-9.5c-0.9-0.9-1.6-2-2.3-3.1
		c-0.4-0.7-0.3-1.3,0.5-1.8c0.5-0.3,1-0.7,1.5-1.1c0.5-0.4,1-0.7,0.8-1.5c-0.1-0.3,0.4-1,0.8-1.3c0.7-0.6,1.5-1,2.3-1.5
		c-0.4-1-0.9-1.8-1.3-2.8c-0.6-1.7-0.8-3.4-0.6-5.2c0.1-0.6-0.1-1-0.5-1.4c-2.5-2.8-3.3-6.1-3-9.7c0.1-1.5,0.6-2.9,0.8-4.3
		c0.1-0.3,0.1-0.8-0.1-1c-2.7-4.8-3.3-10-2.7-15.5c0.5-3.7,1.4-7.2,3.3-10.4c2.4-4.2,6-7.2,10.6-8.8c6.1-2.1,12.3-2.8,18.6-1
		c2.2,0.6,4.3,1.8,6.5,2.7c0.7,0.3,1.5,0.6,2.3,0.8c2.1,0.4,4.1,1,5.8,2.2c3.4,2.2,4.5,5.5,4.2,9.4c-0.2,2.7-1.1,5.1-3.3,6.8
		c-0.2,0.1-0.3,0.7-0.2,0.9c0.9,2.1,1.8,4.1,2.7,6.1c0.2,0.5,0.4,1,0.6,1.6c0.3,1.3-0.2,2.3-1.5,2.8c-0.1,0-0.2,0.1-0.3,0.1
		c-1.6,0.5-1.5,0.4-1,2c0.2,0.5-0.3,1.2-0.4,1.8c-0.1,0.3-0.2,0.6-0.2,0.9c0.2,1,0,1.4-0.8,1.9C95.4,76,95.3,76.1,95,76.3z
		 M80.8,56.9c1.6,0,3.1-0.2,4.4-1.2c0.2-0.1,0.5-0.1,0.8-0.1c-0.1,0.3-0.2,0.6-0.4,0.8c-0.6,0.4-1.3,0.8-1.9,1.2
		c0.2,0.3,0.4,0.6,0.6,0.8c6-1.9,10.2-7.4,9.4-13.9c0-0.3,0.2-0.6,0.3-0.9c0.2,0.3,0.5,0.5,0.6,0.8c0.3,1.7,0.2,3.4-0.2,5.1
		c-0.1,0.3-0.2,0.6-0.1,0.9c0.7,1.8,1.4,3.6,2.1,5.5c0.7-2.4,0.8-4.7-0.1-7c-0.1-0.3,0-0.6,0-0.9c0.3,0.2,0.6,0.3,0.8,0.6
		c0.8,1.6,0.8,3.3,0.7,5.1c-0.1,0.7-0.2,1.5-0.3,2.3c0.2-0.1,0.2-0.2,0.3-0.2c2-2.7,2.4-8.9-1.1-12.1c-2.1-1.9-4.6-2.7-7.2-3.1
		c-1.1-0.2-2.2-0.2-3.3-0.3c-0.2,0-0.4-0.3-0.6-0.4c0.2-0.2,0.3-0.3,0.5-0.5c0.1-0.1,0.2-0.1,0.4-0.1c-0.2-0.1-0.2-0.2-0.3-0.3
		c-2-0.7-3.9-1.6-5.9-2.2c-4.3-1.2-8.7-0.8-13,0.1c-4.7,0.9-8.9,2.9-12,6.7c-4.8,5.8-6.1,12.6-5.3,19.9c0.6,6,3.8,10.8,8.3,14.7
		c1.5,1.3,3.1,2.4,4.8,3.7c0.3-0.8,0.6-1.3,0.8-1.8c0.2-0.5,0.5-1.1,0.7-1.5c-0.1-0.1-0.1-0.1-0.1-0.2c-0.4-0.2-0.8-0.4-1.1-0.6
		c-8.4-4.2-12.3-11.1-12.3-20.3c0-0.4-0.3-1,0.4-1.1c0.1,0,0.3,0.7,0.3,1.1c-0.1,6.4,1.9,12,6.9,16.4c1.9,1.7,4,2.9,6.4,3.9
		c0.5-0.9,1-1.7,1.5-2.6c-0.2-0.1-0.4-0.3-0.6-0.3c-6.2-2.8-9.9-7.7-11.5-14.3c-0.9-3.9-0.6-7.8,0.7-11.6c0.1-0.3,0.2-0.8,0.7-0.4
		c0.1,0.1,0,0.5-0.1,0.8c-1,3.1-1.5,6.2-0.9,9.5c1,5.9,3.7,10.8,8.9,14c1,0.6,2,1.1,3,1.6c0.1-0.1,0.1-0.1,0.2-0.2
		c-1.3-0.7-2-1.7-1.9-3.1c0-0.1-0.4-0.4-0.6-0.4c-1.8-0.4-2.7-1.9-2.4-3.6c0.1-0.3-0.1-0.7-0.3-0.9c-0.9-1.2-2-2.4-2.6-3.7
		c-2.8-6.7-1.3-12.9,2.7-18.7c0.1-0.2,0.5-0.2,0.7-0.4c0,0.3,0,0.6-0.1,0.8c-0.7,1.2-1.5,2.3-2.1,3.6c-2,4.3-2.6,8.7-1,13.2
		c0.7,1.9,1.7,3.6,3.3,4.9c0.5-0.3,0.9-0.5,1.3-0.7c0.4-0.2,0.9-0.3,1.5-0.6c-0.7-0.2-1.3-0.2-1.9-0.4c-2-0.6-2.7-2.3-1.8-4.2
		c0.1-0.3,0.2-0.7,0.1-1c-0.6-1.8-0.7-3.7-0.4-5.5c0.6-3.7,2.3-7,4.5-10c0.2-0.3,0.6-0.4,0.9-0.6c-0.1,0.4-0.1,0.8-0.3,1.1
		c-2.1,3.1-3.9,6.3-4.4,10.1c-0.2,1.7-0.2,3.3,0.5,4.9c0.8-0.2,1.3-0.3,1.1-1.4c-0.2-1,0.3-1.9,1.1-2.5c0.2-0.2,0.4-0.5,0.4-0.8
		c0.2-1.2,0.2-2.4,0.6-3.5c0.7-1.5,1.6-2.9,2.5-4.4c0.1-0.2,0.5-0.2,0.7-0.3c0,0.2,0,0.5-0.1,0.7c-0.1,0.2-0.2,0.3-0.3,0.5
		c-0.7,1.3-1.6,2.6-2.2,4c-0.4,0.9-0.4,2-0.6,3c0.9,0.2,1.6,0.4,2.3,0.6c0-0.2,0.1-0.4,0.1-0.6c0-2.2,0.9-4,2.1-5.7
		c0.2-0.2,0.5-0.3,0.8-0.4c-0.1,0.3-0.1,0.6-0.2,0.8c0,0.1-0.1,0.2-0.2,0.3c-1.2,1.8-2.1,3.7-1.7,6c0.1,0.5,0.4,1,0.6,1.5
		c0.1,0,0.1-0.1,0.2-0.1c-0.1-0.4-0.2-0.8-0.2-1.1c-0.3-2.1,0.7-3.7,2.5-3.7c0.7,0,1.1-0.3,1.4-0.9c0.7-1.6,1.5-3.1,2.2-4.7
		c0.1-0.2,0.4-0.3,0.6-0.5c0,0.3,0.1,0.5,0.1,0.8c0,0.2-0.1,0.3-0.2,0.5c-0.8,1.7-1.6,3.4-2.4,5.1c0.2,0.2,0.5,0.5,1,0.9
		c0.7-0.9,1.4-1.7,1.9-2.6c0.9-1.9,1.6-3.8,2.4-5.7c0.1-0.2,0.4-0.4,0.5-0.6c0.1,0.3,0.2,0.6,0.2,0.9c-0.7,2.5-1.7,4.9-3.2,7.1
		c-0.1,0.1-0.2,0.3-0.3,0.5c0.5,0,0.9,0,1.2,0.1c0.7,0.3,1.1,0,1.6-0.6c2.1-2.3,3.4-5,4.3-8c0.1-0.3,0.4-0.5,0.6-0.7
		c0.1,0.3,0.3,0.6,0.2,0.9c-0.8,3.1-2.2,5.8-4.3,8.2c-0.7,0.8-0.7,1.4,0.1,2.3c1.4-1.1,2.7-2.2,4.1-3.3c0.2-0.2,0.6-0.2,0.8-0.3
		c-0.1,0.3-0.1,0.7-0.3,0.8c-1.4,1.2-2.8,2.3-4.3,3.4c-0.4,0.3-0.8,0.6-0.6,1.4c1.2-0.6,2.4-1.1,3.5-1.7c2.8-1.6,5-3.9,6.5-6.8
		c0.1-0.3,0.6-0.6,0.8-0.6c0.6,0.2,0.2,0.6,0.1,1c-0.1,0.3-0.3,0.6-0.4,0.8c-2,3.4-4.8,5.8-8.3,7.4C81.2,56.5,81,56.7,80.8,56.9
		c-1.2-0.1-2.3,0.5-2.7,1.3C79,57.7,79.9,57.3,80.8,56.9z M93.6,51.6c-0.1,0-0.2,0-0.2,0c-1.8,3.7-4.8,6.1-8.6,7.6
		c-0.2,0.1-0.4,0.3-0.4,0.5c-0.2,0.7-0.4,1.3-0.6,2.1c1.3,0.9,1.9,2.2,1.2,3.8c-1,2.1-2.9,1.6-4.8,1.3c0.6,0.5,1,0.9,1.5,1.3
		c1,1.1,1.2,2.3,0.6,3.3c-0.6,1.1-1.7,1.6-3.1,1.4c-0.5-0.1-0.7,0.1-0.8,0.5c-0.5,1.4-1.6,2-3,2c-0.2,0-0.4,0-0.5,0
		c-0.1,0.1-0.1,0.1-0.1,0.2c-0.2,3-1.1,5.8-2.5,8.4c-0.1,0.2-0.1,0.6,0,0.8c1.4,2.8,1.5,5.7,0.3,8.6c-0.1,0.2-0.1,0.6,0,0.9
		c1.4,2.5,1.9,5.2,1.5,8c-0.1,0.9,1,2.7,1.8,2.9c3,0.9,6,1.9,9.1,2.6c3.1,0.7,6.3,0.8,9.5,0.3c0.3,0,0.7-0.1,0.8-0.3
		c1.4-1.6,2.6-3.2,3.3-5.3c0.2-0.7,0-0.9-0.6-1.2c-3.5-1.6-7-3.3-10.5-5c-0.6-0.3-1.1-0.6-1.8-1c0,0.6,0.1,1,0,1.4
		c0,0.2-0.3,0.5-0.4,0.7c-0.2-0.2-0.4-0.4-0.4-0.6c-0.1-1.1-0.2-2.2-0.2-3.3c0-2.8,0.1-5.5,0.9-8.2c0.4-1.3,1.2-2.1,2.6-2.3
		c0.7-0.1,1.4-0.1,2.1-0.3c1-0.2,2.1-0.4,3.1-0.8c1.9-0.9,2.4-2.8,1.2-4.6c-0.7-1-0.6-1.4,0.5-2.1c0.2-0.1,0.5-0.5,0.4-0.7
		c-0.1-0.2-0.5-0.5-0.7-0.5c-0.6-0.1-1.3,0-1.9,0c-0.3,0-0.6-0.2-0.8-0.3c0.8-0.3,1.5-0.4,2.2-0.7c0.7-0.3,1.3-0.7,2-1
		c-0.1-0.2-0.1-0.3-0.1-0.4c-0.8-1.6-0.4-2.5,1.3-2.9c0.3-0.1,0.6-0.1,0.9-0.3c0.6-0.3,1-0.9,0.7-1.6c-0.1-0.3-0.2-0.7-0.4-1
		c-0.9-2-1.9-4.1-2.7-6.1c-0.5-1.1-1-2.2-0.6-3.5c0.1-0.2,0-0.4-0.1-0.6C94.6,54.2,94.1,52.9,93.6,51.6z M53.4,100.4
		c-0.6,0.4-1.1,0.8-1.5,1.2c-1.4,1.1-1.5,1.2-0.3,2.6c2.8,3.5,6.5,6,10.5,8c1.3,0.6,2.6,1.1,3.8,1.7c-0.8-1.2-1.5-2.5-2.3-3.7
		c-0.1-0.2-0.4-0.4-0.6-0.6c-2.7-1.7-5.1-3.8-7.1-6.2C55.1,102.4,54.3,101.4,53.4,100.4z M63.4,92.2c0.1,0,0.2,0.1,0.2,0.1
		c0-0.1,0.1-0.2,0.1-0.2c0.5-3.4,2.4-6,4.3-8.7c1.2-1.7,2.3-3.4,3.1-5.2c1.3-2.6,1.9-5.3,1.3-8.2c0-0.2-0.1-0.4-0.2-0.6
		c-0.3,0.2-0.5,0.5-0.6,0.8c-0.4,1.1-0.8,2.2-1.3,3.2c-1.5,3.3-3.2,6.5-4.7,9.8c-1.2,2.6-2.1,5.3-2.3,8.2
		C63.3,91.6,63.4,91.9,63.4,92.2z M75,67.4c-0.5,0.6-1,1-1.4,1.6c-0.1,0.1-0.3,0.3-0.2,0.5c0.2,1.2,0.2,2.4,0.5,3.6
		c0.3,1,1,1.5,1.8,1.4c0.9-0.1,1.7-0.7,1.9-1.7c0.1-0.4,0.1-0.9,0.2-1.4c0.3,0.1,0.5,0.2,0.7,0.3c1.3,0.6,2.4,0.4,3-0.6
		c0.5-0.8,0.3-1.8-0.8-2.7c-0.9-0.7-1.9-1.4-2.8-2c-0.1-0.1-0.4-0.2-0.5-0.1c-0.6,0.2-1.2,0.4-1.8,0.6c0.4,0.7,0.8,1.4,1.2,2.1
		c0.1,0.2,0,0.4,0,0.6c-0.2-0.1-0.4-0.2-0.5-0.3C75.7,68.6,75.3,68,75,67.4z M75.9,61.1c0.7,0.4,1.3,1,2,1.1
		c0.7,0.2,1.4-0.1,2.1-0.1c0,0.1,0,0.2,0.1,0.4c-0.3,0.1-0.5,0.2-0.8,0.3c-0.3,0.1-0.6,0.2-0.9,0.2c0,0.8-0.1,1.5-0.1,2.4
		c1.4,0.3,2.8,0.6,4.2,0.7c0.8,0.1,1.5-0.3,1.8-1.2c0.2-0.8-0.1-1.7-0.8-2.2c-0.4-0.3-0.9-0.5-1.3-0.8c0.3-0.3,0.5-0.5,0.7-0.7
		c0.8-0.9,0.9-1.9,0.3-2.8c-0.6-0.8-1.5-1-2.6-0.4C78.9,58.9,77.4,60,75.9,61.1z M70.5,60.5c0-0.4,0-0.8-0.1-1
		c-0.9-1.3-1.8-2.6-2.8-3.7c-0.8-0.9-1.7-1-2.5-0.5c-0.9,0.6-1.1,1.6-0.6,2.7c0.1,0.3,0.3,0.6,0.4,0.9c-0.6,0.1-1,0.1-1.5,0.2
		c-0.9,0.2-1.5,1.1-1.5,1.9c0,0.9,0.6,1.5,1.4,1.7c1.2,0.3,2.4,0.4,3.5,0.6c0.4-0.9,0.7-1.6,1.1-2.4c-0.2-0.1-0.5-0.2-0.7-0.4
		c-0.1-0.1-0.2-0.4-0.3-0.5c0.2,0,0.5-0.1,0.6,0C68.3,60.7,69.3,60.6,70.5,60.5z M69.3,65.9c-0.7-0.4-1.2-0.8-1.8-1.1
		c-0.1-0.1-0.3-0.2-0.4-0.2c-1.2,0.4-2.4,0.7-3.6,1.2c-0.9,0.4-1.2,1.2-1,2c0.2,0.8,0.9,1.5,1.8,1.6c0.5,0,1,0,1.6,0
		c-0.1,0.4-0.2,0.7-0.3,1.1c-0.2,1.1,0.2,2,1.1,2.4c0.8,0.4,1.7,0.1,2.3-0.8c0.6-0.9,1-1.8,1.4-2.8c0.1-0.1,0.1-0.3,0-0.5
		c-0.4-0.6-0.8-1.3-1.2-1.9c-0.4,0.3-0.8,0.7-1.2,1c-0.2,0.1-0.4,0.1-0.6,0.1c0.1-0.2,0-0.5,0.2-0.6C68.2,66.8,68.8,66.4,69.3,65.9z
		 M73.9,56.3c0.1,0,0.2,0,0.3,0c0,0.3,0,0.6,0,0.9c0,0.2,0,0.5,0.1,0.7c0.5,0.6,1,1.1,1.6,1.7c0.8-1.3,1.7-2.6,2.4-4
		c0.5-0.9,0.2-1.7-0.5-2.2c-0.7-0.5-1.7-0.5-2.4,0c-0.4,0.3-0.7,0.6-1.1,1c-0.2-0.4-0.4-0.7-0.5-1c-0.6-1-1.5-1.4-2.4-1.1
		c-0.9,0.2-1.4,1-1.2,2.1c0.2,1.3,0.6,2.7,0.9,4c0.6-0.3,1-0.5,1.4-0.6c0.7-0.1,1.2-0.3,1.2-1.1C73.6,56.6,73.8,56.4,73.9,56.3z
		 M75.4,110.3c0.6,1.1,1,2,1.5,2.8c0.1,0.2,0.4,0.3,0.6,0.3c4.3,0.5,8.5,0,12.4-2.1c0.5-0.3,1-0.6,1.6-1c0-0.1-0.1-0.1-0.1-0.2
		C86.2,111.3,80.9,111.5,75.4,110.3z M75.5,106c0.1,0.9,0.2,1.6,0.1,2.3c-0.1,0.9,0.3,1.1,1,1.2c3.7,0.7,7.4,0.7,11.1,0.2
		c1-0.1,1.9-0.3,2.9-0.5c0-0.1,0-0.2,0-0.2C85.4,109.2,80.5,107.9,75.5,106z M64.4,92.1c1.2-1.5,2.2-2.9,3.3-4.2
		c0.8-1,1.6-1.9,2.4-2.8c2.2-2.8,3.4-6,3.5-9.5c0-0.4-0.1-0.8-0.1-1.2c-0.1,0-0.2,0-0.3,0c-0.2,0.8-0.4,1.6-0.7,2.4
		c-0.9,2.8-2.5,5.1-4.2,7.5c-1.2,1.7-2.2,3.5-3.2,5.4C64.8,90.3,64.7,91.1,64.4,92.1z M52.8,74c0.8,4.5,5.1,9.7,8.9,10.9
		c0.1-0.5,0.2-1.1,0.4-1.6c0.2-0.6,0.1-0.9-0.4-1.2c-2.7-1.7-5.2-3.7-7.4-6.2C53.9,75.3,53.4,74.6,52.8,74z M55.6,97.3
		c-0.4,0.3-0.9,0.5-1.3,0.8c-0.7,0.4-0.8,0.9-0.3,1.5c1.9,2.1,3.7,4.2,5.6,6.2c1,1.1,2.3,1.9,3.5,2.8c0.1-0.1,0.2-0.2,0.3-0.3
		c-0.2-0.3-0.3-0.6-0.6-0.8c-2.1-1.6-3.6-3.6-4.1-6.3c0-0.2-0.1-0.4-0.2-0.5C57.7,99.6,56.6,98.5,55.6,97.3z M62.5,91.5
		c0.2-0.9,0.3-1.9,0.5-2.8c0.8-3.8,2.6-7.2,4.3-10.7c0.8-1.6,1.6-3.2,2.3-4.7c-1.9,0.2-2.4,1.8-3.2,3.1c-1.5,2.5-2.7,5-3.4,7.8
		C62.3,86.5,62,89,62.5,91.5z M52.6,76.2c0,4.7,4.9,11.4,8.7,12.1c0.1-0.6,0.1-1.1,0.2-1.7c0.1-0.6,0-0.9-0.6-1.2
		c-3.1-1.5-5.4-3.8-7.1-6.8C53.4,77.9,53,77.1,52.6,76.2z M51.7,76.5c-0.1,0.1-0.2,0.2-0.2,0.2c-0.3,3.9,0.5,7.4,3.5,10
		c1.8,1.6,4,2.8,6,4.1c0.1,0,0.2,0,0.2,0c0.1-1.4,0.1-1.4-0.6-1.8C56,86.7,53.1,83,52,77.9C51.9,77.5,51.8,77,51.7,76.5z
		 M65.8,101.1c0.1,0,0.2,0,0.3,0c0-0.1,0.1-0.2,0.1-0.4c0-2.8,1.2-5.1,2.8-7.2c0.8-1.1,1.6-2.3,2.2-3.5c0.5-1,0.8-2,0.4-3.2
		c-1.3,2-2.6,3.9-3.8,5.8c-1.4,2.3-2.2,4.8-2.1,7.5C65.7,100.5,65.7,100.8,65.8,101.1z M69,109c1.7-4.1,2.6-8.3,2.7-12.9
		C70.2,98.4,68.5,106.5,69,109z M64.8,99.4c0-0.1,0.1-0.2,0.1-0.3c0.1-2.2,0.8-4.3,1.9-6.2c1.1-1.9,2.3-3.7,3.5-5.5
		c0.3-0.4,0.4-0.9,0.6-1.4c-0.1,0-0.1-0.1-0.2-0.1c-1.3,1.5-2.6,2.9-3.8,4.4c-1.2,1.4-2,3.1-2.3,4.9C64.4,96.6,64.4,98,64.8,99.4z
		 M56,90.3c0.6,3,4.8,6.9,7.5,7.5c0-0.3,0-0.6,0-0.9c0.1-0.8-0.2-1.2-0.9-1.5c-1.1-0.5-2.1-1.2-3.1-1.9C58.3,92.4,57.2,91.3,56,90.3
		z M63.8,100.2c0-0.9-0.3-1.4-1.1-1.8c-3-1.4-5.3-3.5-6.8-6.4c-0.3-0.5-0.5-1.1-0.9-1.8C55.2,94.8,58.2,98,63.8,100.2z M74.3,105.7
		c-0.7,2.2-1.3,4.4-1.9,6.6c-0.2,0.8-0.3,1.6-0.3,2.3c0,0.2,0.3,0.5,0.4,0.7c0.2-0.2,0.5-0.3,0.6-0.5c0.5-1.5,1.1-3,1.5-4.5
		C74.9,108.8,74.9,107.3,74.3,105.7z M72.2,90c-1.1,1.6-2.1,3-3,4.4c-0.7,1.2-1.4,2.4-1.9,3.7c-0.4,1-0.6,2.2-0.4,3.5
		c0.1-0.2,0.2-0.3,0.2-0.4c0.6-2.3,1.6-4.4,3.1-6.3C71.4,93.5,72.1,91.9,72.2,90z M70,109.4c2.3-1.5,4-10,2.4-12.1
		C72.3,101.5,71.3,105.5,70,109.4z M63.6,94.9c0.5-0.8,0.4-1.2-0.4-1.7C61.1,92,59,90.7,57,89.5c-0.1-0.1-0.3-0.1-0.4-0.2
		C58.4,91.7,60.7,93.7,63.6,94.9z M66.5,108.3c0.2-0.6,0.1-1-0.5-1.2c-2.4-1.2-4.3-3-5.7-5.3c-0.1-0.2-0.2-0.3-0.4-0.6
		C60,104.1,63.1,107.3,66.5,108.3z M71,115c0.4-1.7,0.7-3.3,1.2-4.8c0.4-1.6,1.1-3.1,1.1-4.8c-0.7,1.5-1.5,3-2.1,4.5
		c-0.5,1.3-0.7,2.8-0.9,4.2C70.2,114.7,70.5,115.1,71,115z M72.7,65.2c0.9,0,1.7-0.8,1.6-1.7c0-0.9-0.8-1.7-1.7-1.7
		c-0.9,0-1.7,0.8-1.7,1.8C71,64.5,71.8,65.2,72.7,65.2z M70.4,96.7c-2.1,2.3-3.7,10.2-2.4,12.1C68.3,104.6,68.9,100.6,70.4,96.7z
		 M70.8,65.8c-0.3,0.4-0.4,1.1,0,1.8c0.4,0.6,1,0.9,1.7,0.7c0.7-0.2,1.2-0.7,1.3-1.5c0-0.4,0.1-0.8-0.5-0.8
		C72.6,66,71.7,65.9,70.8,65.8z M71.6,60.8c1,0.1,1.9,0.3,2.9,0.4c0.5-0.7,0.5-1.5-0.2-2.1c-0.6-0.6-1.4-0.7-2.1-0.2
		C71.5,59.4,71.3,60.1,71.6,60.8z M61.5,101.8c1.3,2,2.9,3.5,5.1,4.5c0.3-1.7,0.3-1.6-1.1-2.2c-0.5-0.2-0.9-0.4-1.4-0.7
		C63.2,102.9,62.3,102.4,61.5,101.8z M74.9,65.3c0.7,0.5,1.4,0.4,2-0.3c0.5-0.6,0.6-1.5,0.1-2.1c-0.5-0.7-1.2-0.8-1.7-0.5
		C75.2,63.4,75.1,64.3,74.9,65.3z M70,110.4c-1.7-0.5-3.2-1.1-5-1.6c1.3,1.6,2.7,2.7,4.6,3.4C69.7,111.6,69.8,111.1,70,110.4z
		 M70.4,61.7c-0.6-0.4-1.3-0.4-1.9,0.2c-0.6,0.5-0.7,1.4-0.3,2.1c0.4,0.7,1.1,0.9,1.8,0.7C70.1,63.7,70.2,62.7,70.4,61.7z
		 M66.7,103.8c0-0.6,0.6-1.1-0.2-1.4c-2-0.8-3.9-1.7-6.1-2.6C62.4,101.6,64.4,102.9,66.7,103.8z M64.6,109.7c0.5,2.1,3,4.5,4.8,4.6
		c-0.1-0.5-0.1-1.2-0.4-1.4C67.4,112.2,65.9,111.2,64.6,109.7z M77.3,115.6c2.1-0.3,4.1-0.6,6.2-0.9c0-0.1,0-0.1,0-0.2
		c-2,0-4.1,0-6.2,0C77.2,114.8,77.2,115.1,77.3,115.6z M75,113.3c-0.1,0-0.1,0-0.2,0c-0.3,0.7-0.6,1.4-0.9,2.1
		c0.8,0.3,1.1,0.1,1.1-0.6C75,114.3,75,113.8,75,113.3z M76,113.2c-0.1,0-0.1,0-0.2,0c0,0.6-0.1,1.3-0.1,1.9c0,0.1,0.2,0.2,0.3,0.4
		c0.1-0.1,0.3-0.2,0.3-0.4C76.2,114.5,76.1,113.9,76,113.2z M58.6,99.3c0.1-0.1,0.2-0.1,0.3-0.2c-0.3-1-1.4-1.3-2.1-1.9
		C57.4,97.9,58,98.6,58.6,99.3z"/>
	<path class="st1" d="M86.2,60.5c1.2-0.8,2.4-1.7,3.7-2.3c0.7-0.3,1.6-0.3,2.4-0.3c0.1,0,0.3,0.3,0.4,0.4c-0.1,0.1-0.3,0.2-0.4,0.4
		c-0.2,0.3-0.4,0.5-0.5,0.8c-0.2,0.8-0.5,1.5-1.5,1.9c0-0.5,0-0.8,0-1.1c0-1-0.3-1.2-1.2-0.8c-0.6,0.3-1.1,0.6-1.7,0.9
		c-0.4,0.2-0.9,0.2-1.3,0.3C86.2,60.6,86.2,60.5,86.2,60.5z"/>
	<path class="st1" d="M93.2,66.3c0,0.4-0.1,0.9,0,1.3c0.1,0.3,0.5,0.7,0.8,0.9c0.1,0.1,0.4-0.4,0.7-0.4c0.5-0.2,1.1-0.3,1.7-0.5
		c0,0.1,0,0.1,0.1,0.2c-0.7,0.4-1.4,0.9-2.2,1.2c-1,0.4-1.9-0.5-1.7-1.7c0.1-0.4,0.3-0.7,0.4-1.1C93.1,66.3,93.1,66.3,93.2,66.3z"/>
</g>
</svg>
