<?xml version="1.0" encoding="utf-8"?>
<!-- Generator: Adobe Illustrator 21.1.0, SVG Export Plug-In . SVG Version: 6.00 Build 0)  -->
<svg version="1.1" id="Guides" xmlns="http://www.w3.org/2000/svg" xmlns:xlink="http://www.w3.org/1999/xlink" x="0px" y="0px"
	 viewBox="0 0 410 490" style="enable-background:new 0 0 410 490;" xml:space="preserve">
<style type="text/css">
	.st0{fill:#F4DF87;}
</style>
<g>
	<g>
		<g>
			<g>
				<g>
					<path class="st0" d="M203.4,376.6c-5.3,10-10.1,20.6-9.5,32.2c0.5,9.2,5.6,18.5,14.1,22.8c4,2,8.5,2.6,12.8,1.5
						c5.1-1.3,11.4-5.2,15.5,0.2c2.2,2.9,3.3,6.9,6.7,8.8c3.6,2,7.2-0.3,10.3-2.2c2-1.2,4.3-2.5,6.8-1.8c2.7,0.7,4.6,3.2,6.3,5.3
						c3.1,3.7,6.3,6.8,10.7,8.9c8.8,4.2,19.1,4.5,28.7,4.4c4.6,0,9.5-0.6,12.5-4.4c1.4-1.7,2.2-3.9,3.5-5.6c2-2.7,5-3.1,8.1-3.2
						c4.3,0,9.1,0.2,11.9-3.6c2.5-3.3,2.4-7.8,1.8-11.7c-0.9-6.3-3.3-13.4,3.1-17.5c4.5-2.9,8-5.6,9.8-10.8
						c4.2-11.9-2.5-23.5-8.6-33.3c-0.5,0.5-0.9,0.9-1.4,1.4c11.6,8.4,27.9,13.5,41.4,6.4c5.7-3,10.5-7.8,13-13.8
						c1.2-2.8,1.9-5.8,1.9-8.9c0-4-1.7-7.9-1.7-11.9c-0.1-8,8.2-8.5,13.5-11.7c5.6-3.4,6-9.7,3.5-15.3c-1.7-3.8-4.4-7.2-5.6-11.2
						c-1.3-4.5-0.4-9.1,0.1-13.6c0.6-5.6,0.1-12.6-4.9-16.2c-2.6-1.9-5.6-1.9-8.7-1.1c-2.9,0.7-9.8,3.4-11-1.4
						c-0.8-3.4,4.3-5.7,6.6-7c2.9-1.5,5.4-3.2,7.5-5.7c8.2-10.2,5-25.3-6.9-30.9c-2.7-1.3-5.6-1.9-8.6-1.9c-3.2,0-9,1-10.2-3.1
						c-1-3.7,3-7.6,5.3-9.9c2.5-2.6,4.7-5.3,6.5-8.4c6.8-11.8,5.7-27.6-6.6-35.3c-5.1-3.2-11.5-3.9-17.1-1.6
						c-5.4,2.3-9.3,6.9-12,11.9c-3.1,5.6-4.9,11.9-6.1,18.2c-1.2,6.4-1.3,13.4-4.1,19.4c-1.5,3.2-3.7,5.7-6.6,7.7
						c-1,0.7,0,2.5,1,1.7c10.8-7.6,9.7-20.7,12.4-32.3c2.6-11,9-26.3,22.5-26.2c7,0,13.3,4.8,16.5,10.8c3.7,6.8,2.9,15.1-0.3,22
						c-1.6,3.5-3.8,6.6-6.4,9.4c-2.1,2.2-4.4,4.4-5.9,7.2c-2.6,4.9-0.3,9.7,5.3,10.3c3.2,0.4,6.4-0.3,9.7,0.4
						c3.3,0.8,6.4,2.5,8.9,4.9c5.1,4.9,6.7,12.2,4.3,18.9c-1.1,3.1-3.1,5.9-5.6,8c-2.5,2-5.6,3.1-8.2,5c-1.7,1.2-3.5,2.9-3.8,5.1
						c-0.3,2.3,1,4.4,3,5.3c6.2,3,13.5-4.6,18.7,1.3c5.3,6,2.2,14.5,2,21.5c-0.1,3.6,0.8,7,2.5,10.2c1.7,3.3,4,6.4,4.9,10
						c1,3.9,0.2,7.8-3.4,10.1c-2.3,1.5-5,2.3-7.4,3.4c-5.6,2.5-8,6.8-7,13c0.6,3.8,1.7,7.5,1.3,11.4c-0.4,3.4-1.7,6.6-3.5,9.4
						c-8.9,13.5-26.2,14.6-39.9,8.5c-3.4-1.5-6.7-3.5-9.7-5.7c-0.8-0.6-1.9,0.6-1.4,1.4c5.6,8.9,11.8,19.1,8.9,30
						c-1.4,5.3-4.6,8.3-9.1,11.1c-3.7,2.3-5.6,5.5-5.7,9.8c-0.1,4.7,1.6,9.1,1.6,13.7c0,2.3-0.4,4.9-1.9,6.7
						c-1.9,2.2-4.8,2.5-7.6,2.5c-4,0-8.4-0.3-11.4,2.9c-1.4,1.4-2.2,3.3-3.2,4.9c-1.6,2.7-3.6,4.3-6.7,4.9c-4.7,1-10,0.5-14.7,0.2
						c-4.8-0.3-9.7-0.9-14.3-2.3c-4.6-1.5-8.9-3.8-12.1-7.5c-2.7-2.9-4.9-6.9-8.8-8.3c-3.8-1.4-7.1,0.8-10.3,2.7
						c-1.8,1.1-3.9,2.3-6.1,1.6c-2.1-0.7-3.2-2.7-4.3-4.5c-1.7-2.9-3.3-6-6.6-7.2c-4.4-1.6-9,1-13.2,2.1c-11.4,3.2-21.4-6.9-24-17.2
						c-3.2-12.6,2.7-25.3,8.4-36.2C205.7,376.4,204,375.4,203.4,376.6L203.4,376.6z"/>
				</g>
			</g>
			<g>
				<g>
					<path class="st0" d="M349.6,225.8c-5.5-1.7-11.8-1.8-16.4-5.7c-3.8-3.2-6.6-7.3-11-9.9c-8.1-5-18.5-6-27.4-2.3
						c-4.2,1.8-8,4.5-11,7.8c-1.5,1.7-2.9,3.6-4,5.6c-1.2,2.2-1.9,4.6-3.2,6.6c-3.4,5.2-9.9,3.9-15.2,3.9c-4.7,0-9.3,0.9-13.7,2.5
						c-18.8,6.8-30.5,25.6-28.1,45.5c0.6,4.8,2,9.5,4.1,13.8c1.2,2.5,3.2,4.4,4.1,7.1c1.9,5.7-3.1,8.4-6.9,11.5
						c-4,3.2-8.9,5.7-12.4,9.5c-1.3,1.5-2.4,3.1-3,5c-0.9,2.8-0.3,5.7-1,8.6c-0.9,3.9-4.4,6-7.8,7.7c-6.8,3.4-14.7,6.9-13.4,16.1
						c0.7,4.7,3.7,8.6,7.3,11.6c4,3.3,8.7,6.1,13.8,7.3c5.3,1.2,10.5,0.2,15.5-1.4c5.3-1.7,10.9-3.4,15.6-6.4
						c3.9-2.5,7.3-6,8.7-10.4c1.7-5.1-0.5-9.4-1.5-14.3c-1.3-6.3,3.3-8.9,8.4-10.9c3.6-1.4,7.1-2.8,9.8-5.6
						c6.1-6.3,7.5-15.5,11.8-22.9c2.7-4.7,6.8-8.2,11.4-11.1c4.7-3,9.7-5.7,14.8-8.2c5.5-2.6,11.3-4.6,17.4-4.5
						c5.9,0.2,11.6,2,17.5,2.5c8.8,0.7,17.7-2.4,24.4-8.1c6.7-5.6,11-13.9,11-22.7c0-8.4-3.6-16.8-9.7-22.6
						C356.8,229.1,353.4,227,349.6,225.8c-1.2-0.4-1.7,1.5-0.5,1.9c8.5,2.8,14.7,10.1,17.2,18.6c2.6,8.9,0.6,18.2-5.3,25.3
						c-5.9,7-14.8,11.4-24,11.6c-5.5,0.1-10.8-1.5-16.2-2.2c-5.2-0.7-10.2-0.3-15.2,1.3c-4.8,1.5-9.3,3.9-13.7,6.3
						c-4.3,2.4-8.7,4.7-12.6,7.8c-7.1,5.5-10,13-13.4,21c-1.6,3.9-3.5,7.9-6.6,10.9c-3,2.9-7.1,4-10.8,5.6c-3.1,1.3-6.1,3.1-7.2,6.4
						c-1.6,4.5,1,8.8,1.7,13.2c2.2,12.8-13.1,18.1-22.5,21.1c-5.7,1.9-11.5,3-17.4,1.1c-5.1-1.7-10.1-5-13.7-8.9
						c-3.6-4-5.8-10.4-2.1-15.2c2.2-2.9,5.8-4.4,9-5.9c2.9-1.4,5.9-2.8,8-5.2c3.1-3.6,2-7.7,3-11.9c1.1-5.1,5.8-7.9,9.9-10.6
						c2-1.3,3.8-2.9,5.7-4.4c1.9-1.6,4.3-3,5.9-5c2-2.5,2.2-5.8,1.1-8.7c-0.8-2.1-2.1-3.6-3.3-5.4c-5.4-8.6-6.2-20.4-3.8-30.1
						c2.4-9.6,8.4-17.9,16.6-23.4c4.1-2.7,8.6-4.7,13.3-5.9c4.6-1.1,9.2-1.1,13.9-1c4,0.1,8.3-0.5,11-3.7c3-3.5,3.9-8.4,6.9-12
						c6.3-7.9,16.5-12,26.6-10.3c5,0.9,9.7,3,13.6,6.3c3.7,3.1,6.4,7.4,10.8,9.6c4.3,2.1,9.2,2.5,13.8,3.8
						C350.3,228.1,350.8,226.2,349.6,225.8z"/>
				</g>
			</g>
			<g>
				<g>
					<path class="st0" d="M294.6,209.2c1.7-8.9-1.4-17.5-6.8-24.6c-6.2-8.1-14.8-13.5-23.8-18.1c-4.8-2.5-9.8-4.7-14.6-7.3
						c-4.6-2.4-9.7-5.1-13.5-8.8c-2-2-3.5-4.6-3.3-7.6c0.2-3.2,2.8-4.6,5-6.4c3.2-2.6,4.9-6.4,6.3-10.2c1.6-4.4,2.6-9,5.1-13.1
						c2.7-4.4,6.7-7.7,10.9-10.6c4.2-2.8,8.6-5.2,13-7.6c5.1-2.7,10.5-5.2,16.3-5.9c5.3-0.6,10.7,0,15.6,1.9c5.1,1.9,9.4,5.3,14.1,8
						c4,2.3,8.1,3.5,12.6,4.1c5,0.7,10.1,1.5,12.5,6.5c1.1,2.4,1.7,5,3,7.3c1.2,2.2,3,4,5,5.5c4.1,3.3,8.6,5.7,12.2,9.7
						c7.4,8.2,10.8,19.8,9,30.7c-0.2,1.3,1.7,1.8,1.9,0.5c1.5-9.2-0.3-18.8-5.2-26.8c-2.4-4-5.5-7.5-9.2-10.4
						c-4.1-3.2-9.3-5.6-11.9-10.3c-2.3-4.1-2.6-9-6.8-11.9c-3.7-2.5-8.4-2.6-12.7-3.3c-5.6-1-10.2-4-14.9-6.9
						c-4.5-2.8-9.1-5.2-14.3-6.2c-11.3-2.2-21.2,1.8-30.9,7.2c-8.4,4.7-17.7,9.7-22.5,18.4c-2.2,4-3.3,8.6-4.8,12.9
						c-0.8,2.2-1.8,4.5-3.2,6.4c-1.5,2.1-3.8,3.3-5.6,5.1c-3.2,3.2-3,8.1-0.7,11.7c2.6,4.1,7.3,6.8,11.4,9.2
						c11.1,6.5,23.6,10.7,33.7,18.7c9.5,7.4,17.5,19,15.2,31.6C292.5,210,294.4,210.5,294.6,209.2L294.6,209.2z"/>
				</g>
			</g>
			<g>
				<g>
					<path class="st0" d="M225.5,254.2c-10.3-4.9-14.9-15.8-18.8-25.9c-3.7-9.7-7.6-19.4-15.8-26.2c-6.8-5.7-15.3-9.2-24-10.1
						c-4.4-0.5-9-0.2-13.3,0.7c-3.6,0.8-8.9,2-10.5,5.8c-2,4.6,3.6,8.9,0.2,13.3c-2.3,2.9-6.1,4.7-6.7,8.7c-0.3,2.3,0.6,4.5,1.2,6.7
						c0.8,2.8,0.6,5.1-0.7,7.7c-1.9,3.7-5,6.7-6.1,10.8c-1,4,0.6,7.9,3.7,10.5c3.9,3.3,9,3.8,14,3.8c5.7-0.1,12-1,17.2,1.9
						c4.7,2.6,6.5,7.9,7.9,12.7c1.5,5,3,9.9,6.2,14.2c3.2,4.4,7.6,7.8,12.3,10.4c11.4,6,24.6,6.4,37.2,5.6c1.3-0.1,1.3-2.1,0-2
						c-11.3,0.7-23.2,0.6-33.8-4.2c-9.3-4.2-15.9-11.3-18.9-21.1c-2.4-7.9-4.6-16.5-13.6-18.9c-9.1-2.5-23.9,3.3-29.5-6.8
						c-2.5-4.5,0.7-8.9,3.1-12.6c2-3,3.9-6.3,3.5-10c-0.3-2.2-1.3-4.2-1.6-6.4c-0.5-3,1.1-4.9,3.1-6.8c2.5-2.4,5.3-4.7,4.8-8.5
						c-0.3-2.1-1.5-3.8-1.8-5.9c-0.5-3.5,2.7-5,5.4-5.9c4.3-1.5,8.8-2.1,13.4-2c8.8,0.2,17.6,3.3,24.7,8.6
						c9.9,7.5,13.6,18.7,18,29.8c3.7,9.4,8.9,19.2,18.4,23.8C225.7,256.5,226.7,254.8,225.5,254.2L225.5,254.2z"/>
				</g>
			</g>
			<g>
				<g>
					<path class="st0" d="M181.5,289.7c-5.4,1.3-7.7,6.9-8.3,11.9c-0.4,3.8-0.1,7.7-1.2,11.4c-1.1,3.6-4.5,5.8-5.8,9.3
						c-0.7,1.9-0.7,4.4,0.7,6.1c0.7,0.9,1.6,1.3,2.7,1.5c1.9,0.4,4.2-0.4,4.9,2.1c0.3,1.2-0.2,2.8,0,4.1c0.3,1.4,0.8,2.8,1.7,4
						c1.5,2.2,3.8,3.9,6.3,5c6.7,2.8,14.7,0.2,20.5-3.7c1.1-0.7,0.1-2.5-1-1.7c-6.3,4.3-15.6,7-22,1.6c-1.4-1.2-2.7-2.8-3.2-4.6
						c-0.5-1.8,0-3.5-0.3-5.2c-0.4-2.4-2.2-3.1-4.4-3.3c-2.1-0.1-4.1-0.3-4.3-2.9c-0.2-2.2,1.4-4,2.7-5.7c2.2-2.8,3.6-5.5,4.1-9.1
						c0.8-6.1-0.6-16.9,7.4-18.7C183.3,291.3,182.8,289.4,181.5,289.7L181.5,289.7z"/>
				</g>
			</g>
			<g>
				<g>
					<path class="st0" d="M178.7,288.7c-4.8,7.1-14.2,7.5-21.9,6.9c-7.8-0.6-15.7-2-23.1,1.2c-5.2,2.3-9.5,7-9,13
						c0.4,5,3.7,9.6,8.9,10c-0.3-0.5-0.6-1-0.9-1.5c-3.6,5.3-4.9,11.8-3.8,18c1.3,7.1,5.9,12.2,11.3,16.7c2.8,2.3,5.6,4.7,8.1,7.3
						c2.6,2.7,5,5.5,8,7.7c4.6,3.6,10.5,5.7,16.2,6.2c6.1,0.6,12.3-1.1,15.9-6.3c0.7-1.1-1-2.1-1.7-1c-4.3,6.1-12.4,6.2-18.9,4.4
						c-3.2-0.9-6.3-2.2-9.1-4c-3.5-2.3-6.2-5.5-9-8.5c-5.4-5.6-12.9-9.8-16.7-16.8c-3.9-7.2-3.2-16.2,1.4-22.9
						c0.5-0.7-0.2-1.5-0.9-1.5c-6.1-0.4-8.4-8.4-6-13.2c3.1-6,10.8-7.9,17.1-7.9c11.8,0,27.6,4.9,35.7-7
						C181.2,288.6,179.4,287.6,178.7,288.7L178.7,288.7z"/>
				</g>
			</g>
			<g>
				<g>
					<path class="st0" d="M133.3,297c-5.3-0.7-10.8-2.5-13.9-7.1c-3.1-4.6-1.6-10,1.4-14.1c5.1-7.1,13.7-10.8,17.5-18.9
						c0.6-1.2-1.2-2.2-1.7-1c-4.6,9.7-16.6,13.5-20.2,24c-1.5,4.5-0.6,9.2,2.6,12.7c3.6,4.1,9,5.7,14.3,6.4
						C134.6,299.2,134.6,297.2,133.3,297L133.3,297z"/>
				</g>
			</g>
			<g>
				<g>
					<path class="st0" d="M138.7,215.4c-6.9,3.7-13.2-3.5-13.9-10c-0.7-7.5,3-14.3,5.2-21.1c1.7-5.3,2-12.1,5.9-16.4
						c4.6-4.9,13.6-2.5,19.3-1.1c24.2,5.8,43.8,23.6,52.8,46.7c5.1,13.1,8.2,27.2,17.3,38.3c0.8,1,2.2-0.4,1.4-1.4
						c-9.6-11.6-12.4-26.9-18.1-40.5c-5.1-12.2-13.3-22.8-23.7-30.8c-10.6-8.2-23.2-13.7-36.5-15.5c-6.1-0.8-12.2-0.6-15.7,5.2
						c-1.5,2.5-2.2,5.3-2.9,8.1c-0.9,3.7-1.9,7.3-3.3,10.9c-2.8,7.4-6.1,16.1-2.2,23.8c2.7,5.4,9.6,8.6,15.2,5.7
						C140.9,216.5,139.9,214.7,138.7,215.4L138.7,215.4z"/>
				</g>
			</g>
			<g>
				<g>
					<path class="st0" d="M197.4,109.9c4.3,5.3,1.8,12.8-1.7,17.8c-3.5,4.9-8.4,8.6-12.1,13.3c-7.1,9.1-6.2,20.4,0,29.7
						c7,10.6,18.7,15.8,29.8,21c12.1,5.5,23.2,12.2,32.5,21.8c2.6,2.7,5.1,5.6,7.3,8.6c2,2.6,3.6,5.5,5.9,7.9
						c3.4,3.7,9.8,6.1,13.6,1.6c0.3-0.3,0.4-0.8,0.2-1.2c-11.4-16.6-22.8-33.4-31.1-51.9c-4.2-9.5-7.1-19.2-9.7-29.2
						c-2.4-9.1-5.1-18.5-10.8-26.1c-5.2-7.1-12.6-12.5-21.5-13.4c-1.3-0.1-1.3,1.9,0,2c19.6,2,26.7,23.7,30.9,39.8
						c2.4,9.2,5.1,18.1,8.9,26.8c3.9,8.8,8.5,17.3,13.5,25.5c5.7,9.4,11.9,18.5,18.1,27.6c0.1-0.4,0.1-0.8,0.2-1.2
						c-2.1,2.4-5.5,2.2-8.1,0.7c-3-1.8-4.9-5.1-6.8-7.9c-3.4-4.8-7.2-9.2-11.5-13.3c-8.8-8.5-19.1-14.6-30.2-19.6
						c-11.3-5.2-23.4-10.4-30.1-21.4c-3.1-5-5-11-4-16.9c1-5.9,4.9-10.5,9-14.6c4.2-4.3,8.5-8.3,10.7-14c1.9-5,2-10.5-1.5-14.8
						C198,107.5,196.6,108.9,197.4,109.9L197.4,109.9z"/>
				</g>
			</g>
			<g>
				<g>
					<path class="st0" d="M201.3,110.2c-11.5-2.7-23.6-1.6-34.3,3.3c-5.5,2.5-10.5,6.4-16.2,8.5c-2.9,1.1-6.1,1.6-9.1,0.7
						c-2.7-0.7-5-2.4-7.2-4c-3.7-2.6-7.9-5.2-12.6-4.1c-4.3,1.1-7.8,4.7-9.3,8.8c-2.1,5.6-1.1,11.8,0.5,17.3
						c1.9,6.8,4.1,13.2,3.7,20.3c-0.5,10.3-3.5,26,8.7,31.2c1.2,0.5,2.2-1.2,1-1.7c-10.9-4.7-8.5-18.7-7.8-28.1
						c0.4-6-0.5-11.5-2.2-17.3c-1.7-5.8-3.8-11.9-2.8-18c0.9-5.3,4.8-10.7,10.6-10.9c4.8-0.1,8.7,4,12.5,6.3
						c9.3,5.6,18.2-0.2,26.4-4.9c11.5-6.5,24.8-8.7,37.7-5.6C202,112.5,202.6,110.5,201.3,110.2L201.3,110.2z"/>
				</g>
			</g>
			<g>
				<g>
					<path class="st0" d="M117.6,167.7c-9.8-4.4-19.5-8.8-29.3-13.2c-4.7-2.1-9.4-4.2-14.1-6.4c-3.8-1.7-8.2-3.9-9.9-7.9
						c-1.8-4.2-0.2-8.8,4.6-9.6c3.3-0.5,7.1,0.2,9.9-2c6.9-5.4-1.9-14.1-1.9-20.3c0-4.1,2.2-8.3,5.6-10.6c2.9-1.9,6.9-2,9.5-4.6
						c2.7-2.8,1.6-6.5,0.6-9.8c-1.2-4.1-1.2-8.3,0.4-12.3c1.6-4,4.4-7.2,8.2-9.2c3.6-1.9,7.6-2.8,11.3-4.5
						c7.5-3.6,9.4-10.7,12.6-17.7c2-4.2,4.7-7.7,9-9.8c4.3-2.1,9.2-2.6,13.9-2c10.4,1.4,18.9,8.7,26.4,15.5c0.8,0.7,1.9,0,1.7-1
						c-1.7-8.5,3-17.8,11.3-20.9c8.5-3.2,18,0.3,22.6,8c5,8.2,4.5,18.2,3.5,27.4c-1.1,10.1-2,20.1-1.6,30.3c0.4,11.1,2,22.2,4.5,33
						c0.3,1.3,2.2,0.7,1.9-0.5c-2.8-11.6-4.3-23.4-4.5-35.3c-0.1-5.7,0.1-11.4,0.6-17c0.5-5.8,1.4-11.7,1.7-17.5
						c0.4-9-1.1-18.9-7.7-25.6c-5.9-5.9-15.2-7.5-22.8-4.1C177,24,172.4,33.9,174.2,43c0.6-0.3,1.1-0.6,1.7-1
						c-6.8-6.2-14.2-12.5-23.3-15.1c-7.4-2.2-16.1-1.5-22.4,3.1c-6.9,5-7.6,13.6-12.1,20.3c-5.2,7.7-16,7-22.3,13.3
						C90.2,69,88.7,77,90.9,84.3c0.8,2.7,1.9,5.9-0.8,7.9c-1.8,1.3-4.1,1.7-6.1,2.5c-3.3,1.3-5.9,3.9-7.5,7.1
						c-1.5,3.2-1.9,7-0.9,10.4c1.3,4,6.3,10.2,2.5,14.2c-2.8,2.9-8.1,1.2-11.7,2.6c-2.9,1.1-4.6,3.8-4.8,6.8
						c-0.7,10.3,12,14,19.4,17.3c11.9,5.4,23.7,10.7,35.6,16.1C117.8,169.9,118.8,168.2,117.6,167.7L117.6,167.7z"/>
				</g>
			</g>
			<g>
				<g>
					<path class="st0" d="M218.4,38.7c-3-8.8,4.1-18.1,13.6-16.6c3.5,0.6,6.4,2.5,9.9,0.9c2.8-1.3,4.6-3.9,6.4-6.3
						c2.3-3.2,4.4-6.1,7.8-8.3c3.1-2,6.6-3.3,10.3-3.8c7.5-1.2,15.1,0.8,21.2,5.2c7.4,5.3,12.4,13.4,14.9,22.1
						c0.2,0.5,0.7,0.8,1.2,0.7c14.7-3.4,28.9,7.3,29.7,22.3c0,1,1.3,1.4,1.9,0.5c4-6.9,11.5-11.6,19.5-11.8
						c8.1-0.2,16.1,4.2,20.3,11.2c8.6,14.5,0.8,33-7.4,45.8c-4.8,7.5-9.9,14.8-12.2,23.6c-0.3,1.2,1.6,1.8,1.9,0.5
						c2.3-9.1,7.9-16.6,12.8-24.5c4.7-7.5,8.5-15.7,9.9-24.6c1.2-8,0.5-16.7-4.4-23.5c-4.6-6.6-12.5-10.6-20.6-10.6
						c-8.9,0-17.2,5.1-21.6,12.8c0.6,0.2,1.2,0.3,1.9,0.5c-0.8-16.4-16.3-28-32.2-24.2c0.4,0.2,0.8,0.5,1.2,0.7
						C299.9,15.8,287,1.7,269.8,2.1c-7.7,0.2-15.4,3.3-20.3,9.3c-2.5,3.1-4.3,7.2-7.8,9.3c-2.4,1.4-4.6,0.6-7.1-0.1
						c-2-0.6-4.1-0.9-6.2-0.7c-9.3,1-15,10.5-12,19.2C216.9,40.4,218.8,39.9,218.4,38.7L218.4,38.7z"/>
				</g>
			</g>
			<g>
				<g>
					<path class="st0" d="M390.7,225.5c15.2,0.8,30.6-5.3,43.6-12.9c5.2-3,10-6.9,12.5-12.6c2.5-5.8,2.5-12.7,0.7-18.7
						c-2.1-6.9-6.7-12.9-13.2-16.2c0.1,0.5,0.2,0.9,0.4,1.4c9.1-16.7,12.7-36.9,6.3-55.1c-5.7-16.4-18.9-30-36.2-33.8
						c-9.6-2.1-19.7-1.1-28.5,3.2c-1.2,0.6-0.1,2.3,1,1.7c15.6-7.6,34.9-3.9,47.6,7.7c12.6,11.4,18.4,28.6,17.2,45.3
						c-0.7,10.6-4.1,20.8-9.2,30.1c-0.2,0.4-0.1,1.1,0.4,1.4c11.1,5.5,16.4,20.2,11.9,31.8c-2.2,5.7-7.1,9.5-12.2,12.4
						c-5.8,3.4-11.9,6.3-18.3,8.5c-7.7,2.6-15.8,4.4-24,4C389.4,223.4,389.4,225.4,390.7,225.5L390.7,225.5z"/>
				</g>
			</g>
			<g>
				<g>
					<path class="st0" d="M397.5,228c12-4.9,25.3-6.3,38.1-3.9c11,2.1,23.9,6.9,29.5,17.4c3.1,5.8,1.7,11,0.4,17
						c-1.1,4.8-0.7,9.1,1.8,13.4c5,8.3,14.8,14,12.5,24.9c-0.6,2.9-1.7,5.7-2.1,8.6c-0.5,3-0.1,6,0.7,8.9c1.5,5.7,4.2,10.9,4.6,16.9
						c0.7,10.4-4,21-12.1,27.5c-8.3,6.7-19.4,7.3-29,11.3c-4.1,1.7-7.8,4.2-10.6,7.7c-3.3,4.4-4.6,9.8-7.5,14.4
						c-7.7,11.8-25,7.1-36,3.6c-13.3-4.3-25.6-11.4-36.1-20.7c-1-0.9-2.4,0.6-1.4,1.4c9.4,8.5,20.4,15.1,32.2,19.6
						c5.9,2.2,12,4,18.3,4.9c5.2,0.8,10.8,1.1,15.9-0.7c5-1.8,8.3-5.6,10.6-10.3c2.5-5.1,4.3-10.6,8.9-14.3c8.7-7,21-6.9,30.7-11.9
						c9.1-4.7,15.6-13.9,17.5-23.9c1-5,0.8-10.2-0.5-15.1c-1.9-6.9-5.5-13.2-3.9-20.6c1.2-5.6,3.5-10.8,1.2-16.5
						c-1.7-4.3-5-7.8-8-11.2c-3.5-4.1-6.9-8.6-6.3-14.3c0.6-6.1,3.4-11.4,1.6-17.5c-3.5-12.3-17.2-18.7-28.6-21.5
						c-14.2-3.5-29.4-2.4-43,3.1C395.8,226.5,396.3,228.5,397.5,228L397.5,228z"/>
				</g>
			</g>
			<g>
				<g>
					<path class="st0" d="M462.1,235.1c4.1,2.4,9.1,2.2,13.3,0.1c4.6-2.3,7.6-6.8,9.3-11.6c2.1-6,2.1-12.4,2.5-18.6
						c0.4-6.8,1.9-13.4,3.5-20c2.8-11.5,4.9-23.6-2.1-34c-3.2-4.8-7.5-8.8-11.2-13.2c-4.2-4.9-7.3-10.5-10.8-15.8
						c-6.1-9.3-15.6-20.8-28.1-17.9c-1.3,0.3-0.7,2.2,0.5,1.9c11-2.6,19.6,7.8,25.1,15.9c3.1,4.6,5.8,9.4,9.1,13.8
						c3,4.1,6.6,7.6,9.9,11.4c3.7,4.2,6.7,8.8,7.9,14.4c1.1,5.6,0.4,11.5-0.8,17c-1.1,5.4-2.7,10.8-3.7,16.3
						c-1.1,5.6-1.2,11.3-1.6,17c-0.4,6.2-1.5,12.8-5.5,17.8c-3.8,4.7-10.7,7.3-16.2,4C462,232.7,461,234.4,462.1,235.1L462.1,235.1z
						"/>
				</g>
			</g>
			<g>
				<g>
					<path class="st0" d="M209.7,432.4c-2.7,17-0.7,36.6,14.4,47.4c6.9,4.9,14.8,6.2,23,4.4c5.2-1.1,10.2-3.1,15.5-3.6
						c5.5-0.5,11,0.3,16.3,1.5c9,2,17.9,5.1,27.3,4.9c8.7-0.1,16.2-3.3,21.9-10c2.9-3.4,5.4-7.1,8.5-10.4c3.2-3.4,7.2-5.9,11.3-8.1
						c7.8-4.1,15.5-7.8,21.6-14.5c13.5-15,15.8-37.2,5.8-54.7c-0.6-1.1-2.4-0.1-1.7,1c8.9,15.6,7.7,35.1-3.1,49.4
						c-5.2,6.8-12,11.2-19.5,15c-3.8,1.9-7.6,3.8-11,6.3c-3.2,2.3-5.8,5.2-8.3,8.3c-5.3,6.7-10.2,13-19.1,14.9
						c-8.8,1.8-17.8-0.4-26.3-2.5c-8.7-2.2-17.6-4.4-26.6-2.8c-9,1.6-17.5,5.9-26.7,3c-8.5-2.6-15.2-9.6-18.7-17.6
						c-4.3-9.9-4.2-21-2.6-31.5C211.8,431.7,209.9,431.1,209.7,432.4L209.7,432.4z"/>
				</g>
			</g>
			<g>
				<g>
					<path class="st0" d="M127.6,302.2c-19.4,0.7-38.2,8.7-52.5,21.7c-7.2,6.5-13.3,14.2-17.7,22.8c-4.7,9-8.7,20-6.8,30.3
						c1.8,9.8,11.7,19,22.1,15.2c-0.4-0.5-0.8-1-1.1-1.5c-6.1,13.5,3.9,28.4,17.8,30.8c15.9,2.7,29.6-8,36.1-21.8
						c-0.6-0.1-1.2-0.2-1.8-0.2c4,10.6,16.6,15.8,26.9,11.2c3.8-1.7,7.1-3.6,11.4-2.5c3.2,0.8,6.1,2.2,9.4,1.8
						c4.7-0.5,8.3-3.9,11.4-7.1c4-4.2,8-9.3,14.1-10.4c1.3-0.2,0.7-2.1-0.5-1.9c-5.9,1-10,5.7-13.9,9.8c-2,2.1-4,4.3-6.5,5.8
						c-3.3,2.1-6.5,2.1-10.2,1c-4.1-1.2-7.4-2-11.5-0.3c-3.6,1.4-6.7,3.4-10.7,3.6c-7.6,0.3-15.2-4.3-18-11.5
						c-0.3-0.7-1.4-1.1-1.8-0.2c-5.8,12.3-17.5,22.4-31.9,21.1c-6.9-0.6-13.3-4-17-9.9c-3.4-5.4-4.3-12.3-1.6-18.2
						c0.3-0.7-0.2-1.8-1.1-1.5c-10.2,3.8-18.9-6.2-19.9-15.6c-1-9.8,3.1-20,7.7-28.5c8.5-15.4,22.3-27.8,38.3-35
						c9.3-4.2,19.3-6.6,29.4-6.9C128.8,304.2,128.8,302.2,127.6,302.2L127.6,302.2z"/>
				</g>
			</g>
			<g>
				<g>
					<path class="st0" d="M127.7,405c-5.9,4.9-8.5,13.4-5.9,20.8c2.6,7.2,9.5,12.2,17,12.6c-0.3-0.4-0.6-0.8-1-1.3
						c-2.9,13.7,5.6,27.5,19.4,30.4c3.2,0.7,6.4,0.7,9.6,0.2c4.3-0.8,8.8-3.3,13.2-1.3c3.1,1.4,5.5,4,8.8,5.2c2.6,1,5.6,1.4,8.4,1.1
						c6.3-0.5,12.3-3.8,15.6-9.3c0.7-1.1-1.1-2.1-1.7-1c-3.8,6.2-11.5,9.4-18.7,8.1c-3.8-0.7-6.3-2.8-9.4-4.8
						c-3.4-2.2-6.8-2.4-10.7-1.4c-4.5,1.1-8.6,2.3-13.4,1.5c-4.1-0.7-8.1-2.4-11.3-5c-6.7-5.5-9.6-14.7-7.8-23.1
						c0.1-0.7-0.3-1.2-1-1.3c-6.9-0.4-13.3-5.2-15.3-11.8c-2-6.6,0.4-13.8,5.6-18.1C130.1,405.6,128.7,404.2,127.7,405L127.7,405z"
						/>
				</g>
			</g>
			<g>
				<g>
					<path class="st0" d="M67.5,143.6c-13-11.7-34.3-11.1-45.9,2.3c-5.5,6.4-8.6,14.8-8.2,23.2c0.2,4.7,1.8,9.1,3,13.6
						c1.7,6,1.8,11.3-2.9,15.8c-3.4,3.3-6.6,6.3-8.6,10.7c-1.7,3.9-2.5,8.1-2.6,12.3c-0.1,10.3,5.1,19,9.6,27.9
						c2.5,4.9,4.2,10,5.7,15.3c1.3,4.7,2.6,9.5,4.9,13.8c4.2,8.3,12,13.9,20.8,16.7c25.2,8.2,50.3-6.8,75.4-7.7c1.3,0,1.3-2,0-2
						c-21.9,0.8-42.5,11.7-64.5,9.9c-9.3-0.8-18.7-4.3-25.2-11.1c-6.8-7.2-8.2-17.1-11.2-26.1c-3.2-9.7-9.7-17.9-12.4-27.7
						c-2.3-8.5-1.3-18.6,4.4-25.6c2.7-3.4,6.7-5.6,8.6-9.6c1.8-3.9,1.1-8.3,0.1-12.3c-1.2-4.5-2.9-8.8-3.2-13.5
						c-0.2-4.2,0.4-8.3,1.9-12.2c3.4-9.4,11.1-16.8,20.9-19.1c9.8-2.3,20.5,0.2,28,7C67,145.8,68.4,144.4,67.5,143.6L67.5,143.6z"/>
				</g>
			</g>
			<g>
				<g>
					<path class="st0" d="M34.4,289.5c-6.4-0.1-10.7,5.6-13.3,10.7c-2.9,5.9-4.2,12.7-3.6,19.2c1.1,12.9,9.1,23.9,21,29
						c6.4,2.8,13.5,3.7,20.4,2.5c1.3-0.2,0.7-2.1-0.5-1.9c-14.3,2.4-29.5-5.1-35.8-18.3c-3.2-6.8-4-14.8-2.3-22.2
						c1.5-6.6,6-17.3,14.2-17.1C35.7,291.6,35.7,289.6,34.4,289.5L34.4,289.5z"/>
				</g>
			</g>
		</g>
		<g>
			<g>
				<g>
					<path class="st0" d="M221.1,283.8c-6.6,1.8-13.4,1.9-20,0.4c-1.3-0.3-1.8,1.6-0.5,1.9c7,1.6,14.1,1.5,21.1-0.4
						C222.9,285.4,222.4,283.5,221.1,283.8L221.1,283.8z"/>
				</g>
			</g>
			<g>
				<g>
					<path class="st0" d="M199.9,280.7c-1.9-0.8-4-0.7-5.1,1.2c-0.9,1.5-0.9,3.6,0,5.2c1.1,1.9,3.6,2.4,5.4,1.2
						C203,286.6,202.8,282.2,199.9,280.7c-1.1-0.6-2.2,1.1-1,1.7c2,1,1.7,4.3-0.8,4.4c-0.9,0-1.6-0.5-1.9-1.4c-0.6-1.9,0.5-4,2.6-3
						C200,283,201,281.3,199.9,280.7z"/>
				</g>
			</g>
			<g>
				<g>
					<path class="st0" d="M207.3,260.6c-1.9-0.8-4-0.7-5.1,1.2c-0.9,1.5-0.9,3.6,0,5.2c1.1,1.9,3.6,2.4,5.4,1.2
						C210.4,266.5,210.2,262.1,207.3,260.6c-1.1-0.6-2.2,1.1-1,1.7c2,1,1.7,4.3-0.8,4.4c-0.9,0-1.6-0.5-1.9-1.4
						c-0.6-1.9,0.5-4,2.6-3C207.4,262.8,208.5,261.1,207.3,260.6z"/>
				</g>
			</g>
			<g>
				<g>
					<path class="st0" d="M190.1,265.2c-1.9-0.8-4-0.7-5.1,1.2c-0.9,1.5-0.9,3.6,0,5.2c1.1,1.9,3.6,2.4,5.4,1.2
						C193.3,271.1,193,266.7,190.1,265.2c-1.1-0.6-2.2,1.1-1,1.7c2,1,1.7,4.3-0.8,4.4c-0.9,0-1.6-0.5-1.9-1.4c-0.6-1.9,0.5-4,2.6-3
						C190.3,267.5,191.3,265.8,190.1,265.2z"/>
				</g>
			</g>
			<g>
				<g>
					<path class="st0" d="M211.7,289.1c-1.9-0.8-4-0.7-5.1,1.2c-0.9,1.5-0.9,3.6,0,5.2c1.1,1.9,3.6,2.4,5.4,1.2
						C214.8,294.9,214.6,290.6,211.7,289.1c-1.1-0.6-2.2,1.1-1,1.7c2,1,1.7,4.3-0.8,4.4c-0.9,0-1.6-0.5-1.9-1.4
						c-0.6-1.9,0.5-4,2.6-3C211.8,291.3,212.8,289.6,211.7,289.1z"/>
				</g>
			</g>
			<g>
				<g>
					<path class="st0" d="M216,296.2c-1.9-0.8-4-0.7-5.1,1.2c-0.9,1.5-0.9,3.6,0,5.2c1.1,1.9,3.6,2.4,5.4,1.2
						C219.2,302,219,297.7,216,296.2c-1.1-0.6-2.2,1.1-1,1.7c2,1,1.7,4.3-0.8,4.4c-0.9,0-1.6-0.5-1.9-1.4c-0.6-1.9,0.5-4,2.6-3
						C216.2,298.4,217.2,296.7,216,296.2z"/>
				</g>
			</g>
			<g>
				<g>
					<path class="st0" d="M221,274.5c-11.1,1.3-22.3-0.8-32.1-6.2c-1.1-0.6-2.1,1.1-1,1.7c10.1,5.5,21.7,7.8,33.2,6.5
						C222.2,276.3,222.3,274.3,221,274.5L221,274.5z"/>
				</g>
			</g>
			<g>
				<g>
					<path class="st0" d="M221.8,266.1c-5.3,0.1-10.4-0.9-15.4-2.9c-1.2-0.5-1.7,1.5-0.5,1.9c5.1,2,10.4,3,15.9,2.9
						C223.1,268.1,223.1,266.1,221.8,266.1L221.8,266.1z"/>
				</g>
			</g>
			<g>
				<g>
					<path class="st0" d="M223.2,260.2c-13-2.8-25.1-8.4-35.7-16.4c-1-0.8-2,1-1,1.7c10.7,8.1,23,13.8,36.1,16.6
						C224,262.4,224.5,260.5,223.2,260.2L223.2,260.2z"/>
				</g>
			</g>
			<g>
				<g>
					<path class="st0" d="M223.9,258.2c-8.6-5-16.7-10.8-24.2-17.4c-1-0.9-2.4,0.6-1.4,1.4c7.6,6.7,15.8,12.6,24.6,17.7
						C224,260.6,225,258.9,223.9,258.2L223.9,258.2z"/>
				</g>
			</g>
			<g>
				<g>
					<path class="st0" d="M222.5,289.6c-3.5,1.7-7.3,2.5-11.2,2.4c-1.3,0-1.3,2,0,2c4.3,0.1,8.3-0.8,12.2-2.7
						C224.7,290.8,223.7,289.1,222.5,289.6L222.5,289.6z"/>
				</g>
			</g>
			<g>
				<g>
					<path class="st0" d="M223,292.6c-1.4,3.5-4.8,5.9-8.6,6.2c-1.3,0.1-1.3,2.1,0,2c4.8-0.4,8.7-3.3,10.5-7.7
						C225.4,292,223.4,291.5,223,292.6L223,292.6z"/>
				</g>
			</g>
			<g>
				<g>
					<path class="st0" d="M226.1,253.1c-9.9-10.6-20.8-20.2-32.6-28.6c-1.1-0.7-2.1,1-1,1.7c11.7,8.3,22.5,17.8,32.2,28.3
						C225.6,255.4,227,254,226.1,253.1L226.1,253.1z"/>
				</g>
			</g>
			<g>
				<g>
					<path class="st0" d="M229.1,249.3c-5.9-9.9-13-19-21.4-26.9c-0.9-0.9-2.3,0.5-1.4,1.4c8.2,7.9,15.3,16.8,21,26.5
						C228.1,251.4,229.8,250.4,229.1,249.3L229.1,249.3z"/>
				</g>
			</g>
			<g>
				<g>
					<path class="st0" d="M232.6,245.9c-6.4-16.3-17.1-30.7-31-41.5c-1-0.8-2.4,0.6-1.4,1.4c13.6,10.5,24.2,24.6,30.5,40.6
						C231.1,247.7,233.1,247.1,232.6,245.9L232.6,245.9z"/>
				</g>
			</g>
			<g>
				<g>
					<path class="st0" d="M238.4,239.9c-3.7-6.2-8.5-11.7-14-16.3c-1-0.8-2.4,0.6-1.4,1.4c5.5,4.5,10.1,9.8,13.7,15.9
						C237.3,242.1,239.1,241,238.4,239.9L238.4,239.9z"/>
				</g>
			</g>
			<g>
				<g>
					<path class="st0" d="M242.5,238.5c-8-15.9-19.8-29.6-34.4-39.8c-1.1-0.7-2.1,1-1,1.7c14.3,10.1,25.8,23.5,33.6,39.1
						C241.4,240.7,243.1,239.7,242.5,238.5L242.5,238.5z"/>
				</g>
			</g>
			<g>
				<g>
					<path class="st0" d="M246.9,234.6c-1.6-6.9-4.9-13.2-9.5-18.5c-0.8-1-2.3,0.4-1.4,1.4c4.4,5.1,7.5,11.1,9,17.6
						C245.3,236.4,247.2,235.9,246.9,234.6L246.9,234.6z"/>
				</g>
			</g>
			<g>
				<g>
					<path class="st0" d="M252.5,233.8c-5.3-14-13.1-26.8-23-38c-0.9-1-2.3,0.5-1.4,1.4c9.7,10.9,17.3,23.5,22.5,37.1
						C251,235.5,253,235,252.5,233.8L252.5,233.8z"/>
				</g>
			</g>
			<g>
				<g>
					<path class="st0" d="M259.2,232.7c-2.1-16.6-8.4-32.5-18.5-45.8c-0.8-1-2.5,0-1.7,1c9.9,13.1,16.2,28.5,18.3,44.8
						C257.4,234,259.4,234,259.2,232.7L259.2,232.7z"/>
				</g>
			</g>
			<g>
				<g>
					<path class="st0" d="M264.8,232.1c1.3-13.9-1-27.8-6.6-40.6c-0.5-1.2-2.2-0.2-1.7,1c5.4,12.4,7.5,26,6.3,39.5
						C262.7,233.4,264.7,233.4,264.8,232.1L264.8,232.1z"/>
				</g>
			</g>
			<g>
				<g>
					<path class="st0" d="M270.8,233.7c4.1-12.5,3.8-25.9-0.6-38.3c-0.4-1.2-2.4-0.7-1.9,0.5c4.3,12,4.6,25,0.6,37.2
						C268.4,234.4,270.4,235,270.8,233.7L270.8,233.7z"/>
				</g>
			</g>
			<g>
				<g>
					<path class="st0" d="M280.3,224.9c2.8-10.5,2.3-21.6-1.3-31.9c-0.4-1.2-2.4-0.7-1.9,0.5c3.5,9.9,4,20.6,1.3,30.8
						C278,225.6,279.9,226.1,280.3,224.9L280.3,224.9z"/>
				</g>
			</g>
			<g>
				<g>
					<path class="st0" d="M289.6,212.2c1.7-5.5,1.4-11.3-0.8-16.7c-0.5-1.2-2.4-0.7-1.9,0.5c2.1,5,2.4,10.4,0.8,15.6
						C287.3,212.9,289.2,213.5,289.6,212.2L289.6,212.2z"/>
				</g>
			</g>
			<g>
				<g>
					<path class="st0" d="M188.9,240.8c-1.9-0.8-4-0.7-5.1,1.2c-0.9,1.5-0.9,3.6,0,5.2c1.1,1.9,3.6,2.4,5.4,1.2
						C192,246.7,191.8,242.3,188.9,240.8c-1.1-0.6-2.2,1.1-1,1.7c2,1,1.7,4.3-0.8,4.4c-0.9,0-1.6-0.5-1.9-1.4c-0.6-1.9,0.5-4,2.6-3
						C189,243.1,190,241.3,188.9,240.8z"/>
				</g>
			</g>
			<g>
				<g>
					<path class="st0" d="M200.8,237.7c-1.9-0.8-4-0.7-5.1,1.2c-0.9,1.5-0.9,3.6,0,5.2c1.1,1.9,3.6,2.4,5.4,1.2
						C204,243.5,203.7,239.2,200.8,237.7c-1.1-0.6-2.2,1.1-1,1.7c2,1,1.7,4.3-0.8,4.4c-0.9,0-1.6-0.5-1.9-1.4c-0.6-1.9,0.5-4,2.6-3
						C201,239.9,202,238.2,200.8,237.7z"/>
				</g>
			</g>
			<g>
				<g>
					<path class="st0" d="M194.8,221.5c-1.9-0.8-4-0.7-5.1,1.2c-0.9,1.5-0.9,3.6,0,5.2c1.1,1.9,3.6,2.4,5.4,1.2
						C198,227.4,197.7,223,194.8,221.5c-1.1-0.6-2.2,1.1-1,1.7c2,1,1.7,4.3-0.8,4.4c-0.9,0-1.6-0.5-1.9-1.4c-0.6-1.9,0.5-4,2.6-3
						C195,223.7,196,222,194.8,221.5z"/>
				</g>
			</g>
			<g>
				<g>
					<path class="st0" d="M208.4,218.8c-1.9-0.8-4-0.7-5.1,1.2c-0.9,1.5-0.9,3.6,0,5.2c1.1,1.9,3.6,2.4,5.4,1.2
						C211.5,224.7,211.3,220.3,208.4,218.8c-1.1-0.6-2.2,1.1-1,1.7c2,1,1.7,4.3-0.8,4.4c-0.9,0-1.6-0.5-1.9-1.4
						c-0.6-1.9,0.5-4,2.6-3C208.5,221.1,209.6,219.4,208.4,218.8z"/>
				</g>
			</g>
			<g>
				<g>
					<path class="st0" d="M202.2,201c-1.9-0.8-4-0.7-5.1,1.2c-0.9,1.5-0.9,3.6,0,5.2c1.1,1.9,3.6,2.4,5.4,1.2
						C205.4,206.8,205.1,202.5,202.2,201c-1.1-0.6-2.2,1.1-1,1.7c2,1,1.7,4.3-0.8,4.4c-0.9,0-1.6-0.5-1.9-1.4c-0.6-1.9,0.5-4,2.6-3
						C202.4,203.2,203.4,201.5,202.2,201z"/>
				</g>
			</g>
			<g>
				<g>
					<path class="st0" d="M224.5,219.8c-1.9-0.8-4-0.7-5.1,1.2c-0.9,1.5-0.9,3.6,0,5.2c1.1,1.9,3.6,2.4,5.4,1.2
						C227.7,225.7,227.4,221.3,224.5,219.8c-1.1-0.6-2.2,1.1-1,1.7c2,1,1.7,4.3-0.8,4.4c-0.9,0-1.6-0.5-1.9-1.4
						c-0.6-1.9,0.5-4,2.6-3C224.7,222.1,225.7,220.4,224.5,219.8z"/>
				</g>
			</g>
			<g>
				<g>
					<path class="st0" d="M209.9,194.5c-1.9-0.8-4-0.7-5.1,1.2c-0.9,1.5-0.9,3.6,0,5.2c1.1,1.9,3.6,2.4,5.4,1.2
						C213.1,200.4,212.9,196,209.9,194.5c-1.1-0.6-2.2,1.1-1,1.7c2,1,1.7,4.3-0.8,4.4c-0.9,0-1.6-0.5-1.9-1.4c-0.6-1.9,0.5-4,2.6-3
						C210.1,196.7,211.1,195,209.9,194.5z"/>
				</g>
			</g>
			<g>
				<g>
					<path class="st0" d="M237.6,212.1c-1.9-0.8-4-0.7-5.1,1.2c-0.9,1.5-0.9,3.6,0,5.2c1.1,1.9,3.6,2.4,5.4,1.2
						C240.8,218,240.5,213.6,237.6,212.1c-1.1-0.6-2.2,1.1-1,1.7c2,1,1.7,4.3-0.8,4.4c-0.9,0-1.6-0.5-1.9-1.4c-0.6-1.9,0.5-4,2.6-3
						C237.8,214.4,238.8,212.6,237.6,212.1z"/>
				</g>
			</g>
			<g>
				<g>
					<path class="st0" d="M231,192.1c-1.9-0.8-4-0.7-5.1,1.2c-0.9,1.5-0.9,3.6,0,5.2c1.1,1.9,3.6,2.4,5.4,1.2
						C234.2,198,233.9,193.6,231,192.1c-1.1-0.6-2.2,1.1-1,1.7c2,1,1.7,4.3-0.8,4.4c-0.9,0-1.6-0.5-1.9-1.4c-0.6-1.9,0.5-4,2.6-3
						C231.1,194.4,232.2,192.6,231,192.1z"/>
				</g>
			</g>
			<g>
				<g>
					<path class="st0" d="M242,183c-1.9-0.8-4-0.7-5.1,1.2c-0.9,1.5-0.9,3.6,0,5.2c1.1,1.9,3.6,2.4,5.4,1.2
						C245.2,188.9,244.9,184.5,242,183c-1.1-0.6-2.2,1.1-1,1.7c2,1,1.7,4.3-0.8,4.4c-0.9,0-1.6-0.5-1.9-1.4c-0.6-1.9,0.5-4,2.6-3
						C242.1,185.2,243.2,183.5,242,183z"/>
				</g>
			</g>
			<g>
				<g>
					<path class="st0" d="M259.5,187.7c-1.9-0.8-4-0.7-5.1,1.2c-0.9,1.5-0.9,3.6,0,5.2c1.1,1.9,3.6,2.4,5.4,1.2
						C262.7,193.5,262.4,189.2,259.5,187.7c-1.1-0.6-2.2,1.1-1,1.7c2,1,1.7,4.3-0.8,4.4c-0.9,0-1.6-0.5-1.9-1.4
						c-0.6-1.9,0.5-4,2.6-3C259.7,189.9,260.7,188.2,259.5,187.7z"/>
				</g>
			</g>
			<g>
				<g>
					<path class="st0" d="M270.1,191.7c-1.9-0.8-4-0.7-5.1,1.2c-0.9,1.5-0.9,3.6,0,5.2c1.1,1.9,3.6,2.4,5.4,1.2
						C273.3,197.6,273.1,193.2,270.1,191.7c-1.1-0.6-2.2,1.1-1,1.7c2,1,1.7,4.3-0.8,4.4c-0.9,0-1.6-0.5-1.9-1.4
						c-0.6-1.9,0.5-4,2.6-3C270.3,194,271.3,192.2,270.1,191.7z"/>
				</g>
			</g>
			<g>
				<g>
					<path class="st0" d="M279.1,188.2c-1.9-0.8-4-0.7-5.1,1.2c-0.9,1.5-0.9,3.6,0,5.2c1.1,1.9,3.6,2.4,5.4,1.2
						C282.2,194.1,282,189.7,279.1,188.2c-1.1-0.6-2.2,1.1-1,1.7c2,1,1.7,4.3-0.8,4.4c-0.9,0-1.6-0.5-1.9-1.4c-0.6-1.9,0.5-4,2.6-3
						C279.2,190.5,280.2,188.8,279.1,188.2z"/>
				</g>
			</g>
			<g>
				<g>
					<path class="st0" d="M288.9,191.2c-1.9-0.8-4-0.7-5.1,1.2c-0.9,1.5-0.9,3.6,0,5.2c1.1,1.9,3.6,2.4,5.4,1.2
						C292,197,291.8,192.7,288.9,191.2c-1.1-0.6-2.2,1.1-1,1.7c2,1,1.7,4.3-0.8,4.4c-0.9,0-1.6-0.5-1.9-1.4c-0.6-1.9,0.5-4,2.6-3
						C289,193.4,290.1,191.7,288.9,191.2z"/>
				</g>
			</g>
		</g>
	</g>
</g>
</svg>
