<?xml version="1.0" encoding="utf-8"?>
<!-- Generator: Adobe Illustrator 21.1.0, SVG Export Plug-In . SVG Version: 6.00 Build 0)  -->
<svg version="1.1" id="Guides" xmlns="http://www.w3.org/2000/svg" xmlns:xlink="http://www.w3.org/1999/xlink" x="0px" y="0px"
	 viewBox="0 0 410 490" style="enable-background:new 0 0 410 490;" xml:space="preserve">
<style type="text/css">
	.st0{fill:#F4DF87;}
</style>
<g>
	<g>
		<g>
			<g>
				<path class="st0" d="M-40.7,323.7c-21-6.7-30.1-29.4-31.3-49.7c-1.4-24.8,5.9-49.2,2.7-74c-0.4-2.9-0.9-6.1,0.4-8.9
					c1.2-2.5,3.4-4.4,5.5-6.1c4.2-3.6,8.6-6.9,13.1-10c9.2-6.2,19-11.4,29.3-15.5c20.4-8.1,42.4-11.7,64.4-10.5
					c25.6,1.4,50.6,9.4,72.3,22.9c1.1,0.7,2.1-1,1-1.7c-40-24.8-90.1-30.2-134.3-14.1C-28.1,160-38.2,165-47.7,171
					c-4.7,3-9.2,6.2-13.5,9.6c-3.8,3-8.6,6.3-10,11.2c-0.7,2.6-0.4,5.4,0,8.1c0.4,3.5,0.7,7,0.8,10.5c0.2,6.5-0.2,13-0.8,19.4
					c-1.2,13-3.1,25.9-3,38.9c0.1,12.7,2.3,25.5,8.8,36.6c5.5,9.3,13.7,16.9,24.1,20.2C-40,326-39.5,324.1-40.7,323.7L-40.7,323.7z"
					/>
			</g>
		</g>
		<g>
			<g>
				<path class="st0" d="M33.7,395.8c0.3,5.3-3.7,9.8-8.5,11.5c-5.6,2-11.8,0.6-17.3-1c-10.6-3.2-21.3-7.7-29-15.8
					c-3.4-3.6-6.3-7.9-7.9-12.6c-1.7-5.1-1.5-10.4-2.1-15.6c-0.6-4.7-2.4-8.5-5.6-12.1c-3.5-3.9-7.3-7.4-7.5-13.1
					c-0.3-11,9.3-19,12.4-28.9c3.5-10.9-0.6-22.3-0.3-33.4c0.4-11.4,4.5-22.4,9.5-32.5c4.7-9.4,9.9-18.7,16-27.2
					c7-9.7,15.7-18.2,26.7-23.1c10.8-4.9,23.4-6,33.7,0.7c1.1,0.7,2.1-1,1-1.7c-19-12.4-43,0-56.5,14.9
					c-7.6,8.5-13.5,18.4-18.9,28.3c-5.7,10.5-11,21.5-12.8,33.4c-0.9,5.8-0.8,11.5-0.2,17.3c0.7,6.5,1.9,13.2,0.6,19.8
					c-2.2,11.2-12.4,19.2-13.2,30.8c-0.4,5.2,1.8,9.4,5.2,13.2c1.7,1.8,3.5,3.6,4.9,5.6c1.9,2.7,2.6,5.9,3,9.1
					c0.6,5.6,0.5,11.1,2.6,16.5c1.8,4.5,4.5,8.6,7.9,12c8.8,9.3,22,14.8,34.3,17.5c5.7,1.3,11.9,1.5,17.1-1.6
					c4.2-2.6,7.2-6.9,6.9-11.9C35.6,394.5,33.6,394.5,33.7,395.8L33.7,395.8z"/>
			</g>
		</g>
		<g>
			<g>
				<path class="st0" d="M84.7,304.8c1.5,12.9-8.6,24.6-20.8,27.5c-13.1,3.1-26.6-4.6-33.9-15.1C21.4,305,20.7,289,24.4,275
					c3.6-13.8,11.4-28,25.1-33.8c3.9-1.6,8.1-2.5,12.3-2.3c4.4,0.2,8.6,1.8,12.9,2.8c3,0.7,6.6,1.6,9.7,1.5c2.5-0.2,4.2-1.6,5.6-3.6
					c0.8-1-1-2-1.7-1c-2.4,3.2-5.2,2.6-8.8,2.1c-4.2-0.7-8.2-2-12.3-3c-7.2-1.6-14.4-0.6-20.9,2.7c-13.5,6.9-21.1,21.9-24.4,36.1
					c-3.3,14.4-2,30.7,7.1,42.8c7.6,10.1,20.3,17.2,33.3,15.2c13.9-2.2,26.1-15.4,24.4-29.8C86.5,303.6,84.5,303.5,84.7,304.8
					L84.7,304.8z"/>
			</g>
		</g>
		<g>
			<g>
				<path class="st0" d="M88.2,238.9c-7.3,22.2-7.9,45.2-6.5,68.3c0.1,0.9,1.1,1.3,1.7,0.7c12.2-11.7,25.7-22.7,34.3-37.6
					c8.6-14.8,17.3-30.5,17.4-48c0-1.3-2-1.3-2,0c-0.1,17.4-8.9,33.2-17.6,47.8c-8.5,14.3-21.7,25-33.6,36.4
					c0.6,0.2,1.1,0.5,1.7,0.7c-1.4-23-0.8-45.8,6.4-67.8C90.5,238.2,88.6,237.7,88.2,238.9L88.2,238.9z"/>
			</g>
		</g>
		<g>
			<g>
				<path class="st0" d="M67.8,237.9c8-36.4,38.8-65.4,75.7-71c11.5-1.8,23.2-0.8,34.4,2.4c1.2,0.4,1.8-1.6,0.5-1.9
					c-20-5.7-40.9-3.6-59.7,5.1c-17.1,7.9-31.6,20.5-41.4,36.6c-5.4,8.8-9.3,18.4-11.5,28.5C65.6,238.6,67.6,239.2,67.8,237.9
					L67.8,237.9z"/>
			</g>
		</g>
		<g>
			<g>
				<path class="st0" d="M82.3,241.7c-2.3-10,4.9-18.7,13.4-22.8c8.5-4.1,18.2-3.5,26.8-7c8.5-3.6,12.8-12.2,19-18.5
					c6.3-6.5,13.7-11.7,21.5-16.2c8.8-5,18.2-9.1,27.5-13.2c-0.5-0.5-0.9-0.9-1.4-1.4c-15.2,30.4-41.7,54.7-73.1,67.6
					c-8.8,3.6-17.9,6.3-27.2,8c-1.3,0.2-0.7,2.2,0.5,1.9c33.8-6.3,64.8-25.4,86.1-52.4c5.9-7.5,11.1-15.6,15.3-24.1
					c0.5-0.9-0.5-1.8-1.4-1.4c-17,7.4-34.6,15.1-48,28.2c-7,6.8-11.6,16.8-21.3,20.1c-4.8,1.6-10,2-14.9,3.1
					c-4.4,0.9-8.8,2.4-12.8,4.7c-8.4,4.8-14.4,14.1-12.2,23.9C80.6,243.5,82.5,242.9,82.3,241.7L82.3,241.7z"/>
			</g>
		</g>
		<g>
			<g>
				<path class="st0" d="M25.4,268.1c-4.3-17.2,2-34.7,10.6-49.5c8-13.8,18.6-28.4,34.4-33.6c8.5-2.8,18.1-2.5,25.3,3.3
					c1,0.8,2.4-0.6,1.4-1.4c-13.3-10.8-31.8-4.5-43.5,5.6c-6.7,5.8-12,13.1-16.7,20.6c-5,8-9.4,16.5-12.2,25.5
					c-3,9.8-3.8,20.1-1.3,30C23.8,269.8,25.7,269.3,25.4,268.1L25.4,268.1z"/>
			</g>
		</g>
		<g>
			<g>
				<path class="st0" d="M32.9,323.4c-5.4,16.1-8.7,33.4-5.9,50.4c2.3,14.1,9.4,27,19.4,37.2c21.3,21.7,55.1,30.9,83.3,17.6
					c13-6.1,23.1-16.7,25.3-31.2c0.2-1.3-1.7-1.8-1.9-0.5c-2,12.5-9.8,22-20.7,28.1c-13.4,7.5-28.8,9.6-43.9,6.7
					c-27-5.3-51.7-25.9-58.5-53.1c-4.5-18.2-1-37.2,4.8-54.6C35.2,322.7,33.3,322.1,32.9,323.4L32.9,323.4z"/>
			</g>
		</g>
		<g>
			<g>
				<path class="st0" d="M107.1,435.6c5.2,12.8,17.8,20.3,30.6,24.2c8.2,2.5,16.8,3.6,25.2,5.1c8.8,1.6,17,3.9,25.4,7
					c7.4,2.8,15.4,5.8,23.4,4.6c7.4-1.1,12.2-6.4,18.6-9.5c7.7-3.7,14.4,0.7,21.7,2.9c6.8,2,12.8,0.2,17.4-5.3
					c5.2-6.3,9-14.5,11.6-22.2c2.8-8.4,3.8-17.3,3.2-26.1c-0.1-1.3-2.1-1.3-2,0c1,15.5-3.4,29.8-11.5,43c-2,3.2-4.3,6.5-7.7,8.3
					c-3.3,1.8-7,1.5-10.5,0.5c-6-1.8-11.8-5.4-18.3-4.4c-6.4,1.1-11.1,6.1-16.7,9c-7.6,3.9-16.1,1.9-23.7-0.8
					c-7.6-2.6-14.9-5.7-22.7-7.4c-8-1.8-16.1-2.8-24.1-4.4c-15-3.1-31.8-9.8-38-25C108.5,433.9,106.6,434.4,107.1,435.6L107.1,435.6
					z"/>
			</g>
		</g>
		<g>
			<g>
				<path class="st0" d="M22.9,409.2c12.1,17.3,18.4,38.3,32.4,54.4c6,6.8,13.2,12.7,21.8,15.8c10.2,3.8,21.6,2.9,31.8-0.3
					c11.9-3.8,22.6-10.7,33-17.4c1.1-0.7,0.1-2.4-1-1.7c-17.5,11.4-38.5,24.7-60.3,18.4c-18.8-5.3-30.3-23-38.8-39.4
					c-5.5-10.5-10.4-21.2-17.2-30.9C23.9,407.1,22.2,408.1,22.9,409.2L22.9,409.2z"/>
			</g>
		</g>
		<g>
			<g>
				<path class="st0" d="M67.9,334.4c4.5,24.3,26.7,38.8,47.3,49c21.7,10.8,48.6,22,73,14.6c9.8-3,20.2-10.8,19.9-22
					c0-1.3-2-1.3-2,0c0.3,10.5-9.8,17.6-18.9,20.2c-11.6,3.4-24,2.2-35.6-0.7c-11.5-2.9-22.7-7.6-33.4-12.8
					c-10.3-5-20.6-10.6-29.3-18c-9.4-8-16.8-18.5-19.2-30.8C69.6,332.6,67.6,333.2,67.9,334.4L67.9,334.4z"/>
			</g>
		</g>
		<g>
			<g>
				<path class="st0" d="M206.3,376.3c9.9,19.1,29.1,31.5,49.7,36.5c23.5,5.7,47.9,1.3,69.9-8c13.6-5.8,26.4-13.3,38.5-21.7
					c0.5-0.4,0.7-1.1,0.2-1.6c-6.7-7.5-5.6-18.4-3.1-27.4c2.8-10.3,6.4-19.8,5.5-30.6c-0.8-9.7-3.5-19.3-7.1-28.3
					c-3.2-8.3-7.4-16.2-12.7-23.4c-5.9-8-13-15-21.4-20.4c-1.1-0.7-2.1,1-1,1.7c15.7,10,26.7,25.8,33.3,43c3.6,9.3,6.5,19.3,7,29.3
					c0.5,11.2-4,21.1-6.5,31.8c-2,8.8-1.8,18.8,4.5,25.9c0.1-0.5,0.1-1,0.2-1.6c-20.5,14.1-43.1,26.2-67.9,30.5
					c-21.6,3.7-44.5,0.6-63.3-11c-10.2-6.3-18.6-14.9-24.2-25.5C207.4,374.2,205.7,375.2,206.3,376.3L206.3,376.3z"/>
			</g>
		</g>
		<g>
			<g>
				<path class="st0" d="M170.4,164.5c3.3-8.7,10.3-15.4,18.6-19.3c9.6-4.6,20.6-5.3,31.1-3.6c22.5,3.6,41.3,17,62.2,24.9
					c9.8,3.7,21.1,5.8,30.8,0.6c-0.5-0.1-0.9-0.2-1.4-0.4c5,8.7,9.4,17.9,12.9,27.3c3.5,9.4,6.7,19.2,7.1,29.3
					c0.4,9.2-1.7,18.9-7.5,26.3c-5.5,6.8-14.1,11-22.9,9.8c-1.3-0.2-1.3,1.8,0,2c14.4,1.8,26.4-9.2,30.5-22.3
					c4.9-15.8-0.1-32.6-5.9-47.4c-3.5-9-7.7-17.7-12.5-26c-0.3-0.5-0.9-0.6-1.4-0.4c-9.8,5.3-21.4,2.4-31.2-1.5
					c-11-4.4-21.4-10.2-32.2-15c-18.8-8.4-41.1-14.7-60.7-5.3c-8.8,4.2-16.1,11.3-19.6,20.5C168.1,165.2,170,165.7,170.4,164.5
					L170.4,164.5z"/>
			</g>
		</g>
		<g>
			<g>
				<path class="st0" d="M184,176.5c27.3,2.1,53.7,12.7,75,30c-0.1-0.4-0.1-0.8-0.2-1.2c-12.7,26.4-39.6,43.8-69,44.1
					c-9.1,0.1-18-1.4-26.6-4.4c-1.2-0.4-1.7,1.5-0.5,1.9c29.6,10.2,63.1,2,84.4-20.9c5.4-5.9,10-12.5,13.4-19.7
					c0.2-0.4,0.2-0.9-0.2-1.2c-21.7-17.7-48.5-28.4-76.4-30.6C182.7,174.4,182.7,176.4,184,176.5L184,176.5z"/>
			</g>
		</g>
		<g>
			<g>
				<path class="st0" d="M126.8,252.2c8.6,0.4,17-1.2,25.2-3.4c8.4-2.3,16.9-4.7,25.1-7.8c7.6-2.9,14.6-6.7,21.1-11.5
					c6.3-4.7,12.1-10.1,17.9-15.5c7.7-7.1,15.3-14.2,23-21.4c0.9-0.9-0.5-2.3-1.4-1.4c-12.3,11.4-24.2,23.5-37.3,34
					c-6.5,5.3-13.6,9.7-21.3,12.8c-7.6,3.1-15.6,5.4-23.5,7.7c-9.4,2.7-19,5-28.9,4.5C125.5,250.2,125.5,252.2,126.8,252.2
					L126.8,252.2z"/>
			</g>
		</g>
		<g>
			<g>
				<path class="st0" d="M122.1,260.8c-4.8,21.5-5.4,44-2.5,65.8c1.1,8.2,3.2,17.2,9.9,22.7c7.8,6.4,18.4,6.2,27.8,5
					c9.7-1.2,21.9-2.5,26.2-12.8c0.4-1-1-1.6-1.7-1c-5.4,5.3-13.2,7.2-20.5,6c-7.6-1.3-14.1-6-19-11.8c-5.4-6.4-8.6-14.3-10.8-22.3
					c-2.4-8.7-3.9-17.8-4.6-26.8c-0.8-10.1-0.7-20.3,0.4-30.4c0.1-1.3-1.9-1.3-2,0c-2.1,19.5-0.8,39.7,4.5,58.6
					c4.3,15.2,14,31.7,30.9,34.7c8,1.4,16.6-0.7,22.5-6.5c-0.6-0.3-1.1-0.6-1.7-1c-4,9.5-16.5,10.4-25.3,11.4
					c-9,1.1-19.6,1.2-26.6-5.6c-6.1-5.9-7.6-14.9-8.5-23c-1.1-9.6-1.6-19.3-1.3-29c0.3-11.3,1.6-22.6,4.1-33.6
					C124.3,260.1,122.4,259.5,122.1,260.8L122.1,260.8z"/>
			</g>
		</g>
		<g>
			<g>
				<path class="st0" d="M149.9,324.6c14.6,11.4,33.1,24.4,52.3,15.9c18.1-7.9,25-28.1,32.4-44.8c4.2-9.5,8.4-19.2,10.7-29.4
					c0.3-1.3-1.6-1.8-1.9-0.5c-1.9,8.5-5.2,16.7-8.7,24.7c-3.4,7.9-6.7,16-10.6,23.7c-4.2,8.3-9.6,16.3-17.4,21.5
					c-8.1,5.5-17.6,6.7-27,4.2c-10.8-2.9-19.8-9.9-28.5-16.7C150.3,322.4,148.9,323.8,149.9,324.6L149.9,324.6z"/>
			</g>
		</g>
		<g>
			<g>
				<path class="st0" d="M212.9,248.4c23,8.1,41.2,24.5,53.3,45.5c0.5,0.9,1.8,0.5,1.9-0.5c0.8-13.5,0.7-27.5-4.3-40.2
					c-4-10.2-11.1-19.4-21.1-24.3c-1.2-0.6-2.2,1.2-1,1.7c23.2,11.4,25.8,40,24.4,62.8c0.6-0.2,1.2-0.3,1.9-0.5
					c-12.4-21.5-31-38.2-54.5-46.5C212.3,246,211.7,248,212.9,248.4L212.9,248.4z"/>
			</g>
		</g>
		<g>
			<g>
				<path class="st0" d="M147.5,326.5c11.8-11,25.9-19.3,41.3-24c7.8-2.4,15.9-4.1,23.5-7.3c6.4-2.7,12.3-6.4,17.5-11
					c5.9-5.2,10.8-11.5,14.4-18.6c0.6-1.1-1.1-2.2-1.7-1c-6.7,13.1-18,23.5-31.7,29c-7.6,3-15.6,4.7-23.4,7.2
					c-7.1,2.3-14,5.3-20.6,9c-7.5,4.3-14.4,9.4-20.7,15.3C145.2,326,146.6,327.4,147.5,326.5L147.5,326.5z"/>
			</g>
		</g>
		<g>
			<g>
				<path class="st0" d="M159.9,283c11.9,11.9,27.8,15.8,44.3,15c1.3-0.1,1.3-2.1,0-2c-15.9,0.7-31.3-2.9-42.8-14.4
					C160.4,280.7,159,282.1,159.9,283L159.9,283z"/>
			</g>
		</g>
		<g>
			<g>
				<path class="st0" d="M126.3,286.7c30.6,1.7,61.1-12.4,79.7-36.7c0.8-1-1-2-1.7-1c-18.2,23.8-48.2,37.4-78,35.7
					C125,284.6,125,286.6,126.3,286.7L126.3,286.7z"/>
			</g>
		</g>
		<g>
			<g>
				<path class="st0" d="M159.7,282.1c-2.4,16.7-12.2,30.9-25.8,40.6c-1,0.7,0,2.5,1,1.7c14-10,24.2-24.6,26.8-41.8
					C161.8,281.3,159.8,280.8,159.7,282.1L159.7,282.1z"/>
			</g>
		</g>
		<g>
			<g>
				<path class="st0" d="M147.7,325c-2-2.9-2.5-6.3-1.4-9.7c0.4-1.2-1.5-1.8-1.9-0.5c-1.2,3.8-0.7,7.9,1.6,11.2
					C146.7,327.1,148.4,326.1,147.7,325L147.7,325z"/>
			</g>
		</g>
		<g>
			<g>
				<path class="st0" d="M214.8,292.1c-2.3,9.9-7.9,19.9-16.4,25.8c-4.7,3.3-10.1,4-15.4,1.7c-5.3-2.3-9.3-6.6-13-10.9
					c-0.9-1-2.3,0.5-1.4,1.4c4,4.4,8.2,9,13.8,11.3c5.3,2.2,10.8,1.9,15.7-1c9.7-5.8,16.2-17.1,18.6-27.9
					C217,291.4,215.1,290.9,214.8,292.1L214.8,292.1z"/>
			</g>
		</g>
		<g>
			<g>
				<path class="st0" d="M213.9,331.7c5.6,6,8.3,14.3,14.7,19.7c5.3,4.5,12.6,6.6,18.6,2.1c5.8-4.4,9.3-12.4,11.9-19
					c3-7.7,4.8-15.8,5.3-24c0.6-9.2-0.5-18.5-3.1-27.3c-0.4-1.2-2.3-0.7-1.9,0.5c4.3,14.3,4.2,29.7,0,44c-2.1,7-5.1,14.1-9.4,20.1
					c-2.3,3.2-5.4,6-9.5,6.3c-3.8,0.2-7.5-1.7-10.4-4.1c-6.3-5.3-9.1-13.7-14.7-19.7C214.4,329.3,213,330.7,213.9,331.7L213.9,331.7
					z"/>
			</g>
		</g>
		<g>
			<g>
				<path class="st0" d="M148.3,354.8c1.9,14.5,15.1,23.2,28.7,25c8,1,16.1,0,23.9-1.7c7.7-1.7,15.7-3.6,22.9-7.1
					c6.9-3.4,12.9-8.8,15.5-16.2c0.4-1.2-1.5-1.7-1.9-0.5c-3,8.4-10.7,13.7-18.8,16.8c-8.6,3.3-18.1,5.6-27.3,6.7
					c-8.9,1.1-18.4,0.5-26.6-3.6c-7.5-3.8-13.4-10.8-14.5-19.3C150.1,353.5,148.1,353.5,148.3,354.8L148.3,354.8z"/>
			</g>
		</g>
		<g>
			<g>
				<path class="st0" d="M259.1,210.8c23.6,21.3,43.3,48.4,50.1,80c3.5,16.4,3.6,33.7-0.9,50c-4,14.8-12.1,32.1-28.3,36.3
					c-18.5,4.8-35.6-7.1-44.7-22.4c-0.7-1.1-2.4-0.1-1.7,1c8,13.5,21.6,24.3,37.9,24.4c7.8,0.1,15.4-2.5,21.3-7.6
					c6.1-5.1,10.3-12.3,13.3-19.5c13.7-32.3,7.6-69.7-9.3-99.5c-9.5-16.7-22.1-31.4-36.3-44.2C259.6,208.5,258.2,209.9,259.1,210.8
					L259.1,210.8z"/>
			</g>
		</g>
		<g>
			<g>
				<path class="st0" d="M243.3,229.8c26,16.8,43.8,44.6,47.8,75.3c1.2,9.4,1.2,18.9-0.1,28.3c-0.2,1.3,1.8,1.8,1.9,0.5
					c4.4-32.5-6-65.7-28.7-89.4c-6-6.3-12.7-11.8-19.9-16.4C243.2,227.4,242.2,229.1,243.3,229.8L243.3,229.8z"/>
			</g>
		</g>
		<g>
			<g>
				<path class="st0" d="M118,171.1c-9.5-6.8-19.4-13.8-25.3-24.1c-2.9-5.1-4.8-10.9-4.7-16.8c0.1-6,2.5-11.6,5.5-16.6
					c2.9-4.9,6.4-9.5,9.9-14c3.3-4.2,6.8-8.3,10.9-11.7c9.2-7.8,20.6-10.1,32.4-10.9c11.4-0.7,22.4-1,33.6-3.5
					c11.7-2.7,23.1-5.6,35.3-4.8c22.3,1.3,43.2,12.1,57.1,29.5c7.8,9.7,14.4,22.1,15.2,34.8c0.7,11.7-5.7,25.3-18.6,26.8
					c-1.3,0.1-1.3,2.1,0,2c9.9-1.1,17.5-9.4,19.8-18.8c2.8-11.7-1.4-24-6.9-34.2c-11.1-20.3-30.8-35.2-53.4-40.2
					c-12-2.7-24.2-2.4-36.2,0.1c-6.7,1.4-13.3,3.3-20,4.4c-6.5,1.1-13.1,1.4-19.7,1.6c-11.7,0.5-23.8,1.3-34.1,7.5
					c-9.8,6-16.9,15.7-23.4,24.9c-4,5.6-7.7,11.8-8.9,18.7c-1.1,6-0.1,12.2,2.3,17.8c5.5,13,17.1,21.4,28.2,29.4
					C118.1,173.6,119.1,171.9,118,171.1L118,171.1z"/>
			</g>
		</g>
		<g>
			<g>
				<path class="st0" d="M264.4,86.7c6.3-12.3,20.6-17.1,33.7-16.2c7.9,0.5,15.7,2.9,23.1,5.6c7.2,2.7,14.2,5.7,20.7,9.7
					c11.9,7.3,22.1,18.1,25,32.2c1.6,7.7,1.1,15.6,1.5,23.4c0.3,6.6,1.4,13,3.7,19.2c4.7,12.9,13.7,24,25.3,31.3
					c-0.1-0.5-0.2-0.9-0.4-1.4c-13.2,27.7-31.5,63-66.8,64c-1.3,0-1.3,2,0,2c15.9-0.4,30.3-8.8,41.1-20.1
					c12.2-12.8,19.9-29.1,27.5-44.9c0.2-0.5,0.1-1.1-0.4-1.4c-11.6-7.3-20.5-18.6-24.9-31.6c-2.4-7.1-3.1-14.4-3.3-21.8
					c-0.2-7.7-0.1-15.5-2.3-22.9c-3.9-13.2-14.2-23.4-25.8-30.3c-6.5-3.8-13.4-6.8-20.5-9.5c-7.3-2.7-14.9-5-22.7-5.6
					c-14-1.2-29.6,3.9-36.3,17.1C262.1,86.8,263.8,87.9,264.4,86.7L264.4,86.7z"/>
			</g>
		</g>
		<g>
			<g>
				<path class="st0" d="M21.9,146.9c-4.6-3.7-8.7-8-12.1-12.9c-1.5-2.2-3-4.6-4.2-7c-0.9-1.8-1.6-4.1,0-5.8c0.9-1,2.2-1.5,3.3-2.2
					c9.9-6,6.2-18.3,4.4-27.4C8.4,66.6,25.1,43.7,42.8,28.1c8.9-7.9,19.8-13.8,31.9-10.6c10.1,2.7,18.7,9.5,29.1,11.3
					c11.4,2,21.7-3.6,31.5-8.5c10.5-5.3,23.9-10.2,34.3-1.9c4.2,3.4,7.3,8,10.7,12.2c3.6,4.5,7.5,8.1,12.6,10.9
					c5.6,3.1,12.2,5.1,16.8,9.6c4.3,4.2,7.6,10.8,4.2,16.5c-0.6,1.1,1.1,2.1,1.7,1c5.6-9.6-3.4-19.4-11.4-23.7
					c-5.4-2.9-11.4-5-16.2-9c-4.1-3.4-7.2-7.9-10.5-12.1c-3.2-3.9-6.7-7.8-11.3-9.9c-5.1-2.4-10.8-2.4-16.3-1.3
					c-12.9,2.7-23.3,12.1-36.4,14.3c-12.1,2-22.2-5.3-32.9-9.6c-5-2-10.3-3.3-15.7-2.7c-5.8,0.6-11.2,3-16.1,6.3
					c-9.8,6.5-18.4,15.8-25.2,25.4c-7.4,10.2-12.7,22.2-13.1,35c-0.1,3.3,0.1,6.6,0.7,9.9c0.7,4.2,2.1,8.2,2.4,12.4
					c0.2,3.2-0.1,6.5-1.6,9.4c-1.7,3.3-4.5,4-7.1,6.2c-4.8,4-0.2,10.6,2.3,14.5c3.6,5.6,8.1,10.5,13.3,14.7
					C21.4,149.1,22.9,147.7,21.9,146.9L21.9,146.9z"/>
			</g>
		</g>
	</g>
</g>
</svg>
