<?xml version="1.0" encoding="utf-8"?>
<!-- Generator: Adobe Illustrator 21.1.0, SVG Export Plug-In . SVG Version: 6.00 Build 0)  -->
<svg version="1.1" id="Guides" xmlns="http://www.w3.org/2000/svg" xmlns:xlink="http://www.w3.org/1999/xlink" x="0px" y="0px"
	 viewBox="0 0 1366 300" style="enable-background:new 0 0 1366 300;" xml:space="preserve">
<style type="text/css">
	.st0{fill:none;stroke:#FFFFFF;stroke-width:1.5;}
</style>
<path class="st0" d="M0,120.7c14.7-7.3,37.9-17.2,67.4-23.2C144.1,82,217.4,111,288.2,137c99,36.4,192.2,39,292.6,5.2
	c105-35.3,206.4-86.4,319-91.5c62.3-2.8,124.6,10.1,183.7,29.1c47.8,15.4,94.3,34.5,142,50c46,14.8,93.3,22.9,140.5,31.2"/>
<path class="st0" d="M1366,0.6c-112.4,58.5-236.6,100.8-364.4,101.9c-35.9,0.3-72.2-2.3-107.4-9.2c-61.1-12-119.4-35.9-181.2-45
	c-129.3-19-269,22.4-370.5,103.6c-4.7,3.3-8,5.6-9.7,6.9c-77.8,55.4-133.2,122.5-236.9,137.2c-12.6,1.8-29.3,3.8-49.9,3.2
	c-18.9-0.6-34.6-3.2-45.9-5.5"/>
</svg>
