<?xml version="1.0" encoding="utf-8"?>
<!-- Generator: Adobe Illustrator 21.1.0, SVG Export Plug-In . SVG Version: 6.00 Build 0)  -->
<svg version="1.1" id="Guides" xmlns="http://www.w3.org/2000/svg" xmlns:xlink="http://www.w3.org/1999/xlink" x="0px" y="0px"
	 viewBox="0 0 1366 370" style="enable-background:new 0 0 1366 370;" xml:space="preserve">
<style type="text/css">
	.st0{fill:none;stroke:#FFFFFF;stroke-width:1.5;}
</style>
<path class="st0" d="M1366,2.5c-59.2,11.6-142.7,36.5-221.9,96.7c-120.5,91.6-104.9,168.9-196.8,212C817,372.2,746.6,235,562,282.9
	c-79.7,20.7-143.8,78.4-229.7,73.9C202.2,349.9,121,221,0,186.1"/>
<path class="st0" d="M0,233.2c38.9-16.3,97.3-34.1,164.7-25.2c138,18,159.6,127.1,273.9,154.2c163,38.6,224-145.1,407.4-132.4
	c143.4,9.9,189,151.1,331.9,130.4c63.2-9.1,114.1-50.4,114.1-50.4c37.9-27.8,61.1-59.2,73.9-79.6"/>
</svg>
