<?xml version="1.0" encoding="utf-8"?>
<!-- Generator: Adobe Illustrator 21.1.0, SVG Export Plug-In . SVG Version: 6.00 Build 0)  -->
<svg version="1.1" id="Guides" xmlns="http://www.w3.org/2000/svg" xmlns:xlink="http://www.w3.org/1999/xlink" x="0px" y="0px"
	 viewBox="0 0 345 345" style="enable-background:new 0 0 345 345;" xml:space="preserve">
<style type="text/css">
	.st0{fill:#D6C785;}
	.st1{fill:none;stroke:#FFFFFF;stroke-linecap:round;stroke-linejoin:round;stroke-miterlimit:10;}
</style>
<rect x="0" class="st0" width="345" height="345"/>
<g>
	<path class="st1" d="M242.3,116.9c-2.9-3.1-7.1-8-11.5-14.5c-3.9-5.7-4.7-7.9-7.5-11.2c-6.9-8-16-10.8-18.2-11.5
		c-20.1-6.3-38.3,6.7-40.5,8.3c-8.6,6.3-16.4,16.8-18.7,22.7c-0.2,0.6-1.3,3.6-3.7,7c-1.7,2.5-3.1,4.6-5.5,6.2
		c-0.4,0.3-6.5,4.2-12.8,1.7c-0.4-0.1-6.6-2.7-6.5-7c0.1-1.6,1-3.4,2.5-4.2c4.1-2.2,11,3.8,12,4.7c12.1,10.6,10.3,28.8,9.2,33.5
		c-0.1,0.4-0.3,1.3-0.8,2.3c-0.3,0.6-3.7,7.7-9.5,7.3c-3.5-0.2-5.7-3.1-6-3.5c-1.6-2.3-2.3-5.6-1.3-6.3c0.5-0.3,1.1,0.1,2,0.3
		c0,0,2.5,0.8,7.3-0.7c4.9-1.5,5.4-14.5,10-26.8c3-8.1,6.4-17.1,14.8-22.2c6.6-4,18.2-6.8,22.7-7.8c4-1,8.7-1.9,10.8-5.7
		c1.9-3.4,0.9-7.7,1.7-7.8c0.5-0.1,1.1,2.3,1.7,3.8c2.5,6.6,9.3,9.9,13.3,11.8c8.1,3.9,9.3,1,16.2,4.5c2,1,9,4.7,12.8,13
		c0.7,1.5,3.5,8,2.2,15.7c-0.7,3.8-1.6,3.6-2.3,7.5c-1.3,7.1,1.8,8.3,0.8,15.5c-0.7,5.3-2.9,9.1-4.5,11.7c-0.8,1.3-2.5,4.1-3.2,3.8
		c-0.8-0.3,0.5-4.4,1.3-10.7c0.6-4.9,0.5-8.9,0.3-16.8c-0.2-8.3-0.7-7.8-0.5-12.7c0.3-8.7,1.7-9.4,0.7-13.3
		c-1.9-7.1-8.2-10.9-9.3-11.5c-3.8-2.2-4.8-0.6-10.2-2.7c-7.1-2.8-11.5-7.7-11.9-7.2c-0.2,0.2,0.8,1.1,1.5,2.5c2,4,0.2,9.3-2,12.4
		c-1.7,2.4-3.5,3.3-8.7,6c-14.4,7.5-17.3,9.4-20.2,12.7c-2.5,2.9-5.5,7.6-4.3,9.3c1.3,1.7,6.4-1.4,18.1-3.7c5.5-1.1,8.3-1.6,11.3-1
		c5.3,1.1,11.2,4.7,13.3,10.3c0.5,1.4,0.5,2.1,0.8,4.5c0.4,3.2,3,14,3.8,15.8c0,0.1,0.2,0.5,0.2,1c-0.1,0.5-0.4,0.9-0.5,1
		c-1.2,1-4-1.8-6.5-0.8c-0.2,0.1-1,0.5-1.4,1.3c-0.8,1.7,0.4,4.3,2.3,5.3c0.1,0.1,1.8,1,3.6,0.4c1-0.4,1.3-1,2.3-1.1
		c0.9-0.1,1.4,0.2,2.3,0.5c0.3,0.1,2.9,1,5,0.3c2-0.7,3.2-3.1,3.4-5c0.3-2.4-1-4.3-1.4-5c-2.8-4.6-3.7-10-5.3-20.1
		c-0.9-5.4-2-12.5,1.4-16.7c0.5-0.7,2.3-2.9,5-3.3c1.5-0.2,3.2,0.2,3.3,0.5c0,0.3-1.4,0.5-2.3,0.8c-5.6,1.8-7.6,13.1-7.2,13.2
		c0.1,0,0.2-0.4,0.8-1.3c1-1.5,2-2.8,3.3-3.4c1.9-0.8,4.5,0.1,6,1.8c1.6,1.8,1.4,4.1,1.3,4.9c-0.2,2.3-1.5,5.7-4.7,6.5
		c-2.2,0.6-4.9-0.3-6-2.1c-0.8-1.3-1-3.3-0.5-3.5c0.2-0.1,0.4,0.1,0.5,0.2c1.2,0.9,4.1,0.7,6.3-0.3c2.3-1.1,3.3-2.9,3.7-3.6"/>
	<path class="st1" d="M130.2,127c-2.8,3.6-5.3,4.5-7,4.7c-2.7,0.3-4.3-1.2-6.7-0.3c-2.1,0.8-3.1,2.9-3.7,3.9c-2,3.9-1.3,8.8,1,12.3
		c0.9,1.3,3,4.5,6.3,4.7c4.1,0.2,6.8-4.2,7.2-4.8c2-3.2,1.6-6,1.8-11.5c0.1-4.5,1-8.9,1.3-13.4c0.4-5,3.1-24.1,17.3-39.4
		c3.2-3.5,15.8-16.1,35.3-18.7c3.6-0.5,16.1-2,27,4.3c0,0,8.7,5,10.8,12.3c0.2,0.6,0.7,2.3,0.2,2.7c-0.3,0.2-1-0.2-1.6-0.8
		c-3-2.5-4.4-3.8-6.3-8.1c-3.2-7.6-23.6-13.6-41.3-9.7c-7.1,1.6-12.6,4.4-15.8,6.5c-22.4,14.1-26.8,42-26.7,43.7
		c0,0.1,0,0.4-0.1,0.4c-0.5,0.2-3-5.5-3.3-6.3c-2.6-5.8-3.1-18.1,1-27.8c8.2-19.5,33.7-26.1,49.7-26.2c17.9-0.1,30.4,8.1,33.3,10.5
		c5.1,4.2,9,9.7,9,9.7c0.1,0.1,0.1,0.2,0.1,0.2c0.1-0.1-2.7-6.8-3.6-8.5c-4.6-9.1-21.7-12.7-33-12.7c-6.1,0-27.9,0.9-43.2,19.2
		c-12.4,14.8-12.6,31.7-12.5,36.3"/>
	<path class="st1" d="M219,141.4c0.5,0.2,2,1,3.8,0.6c2-0.4,3.5-2,4-3.8c0.2-0.6,0.2-1.2,0.2-1.5"/>
	<path class="st1" d="M129.3,128.8c-0.2,1-1.2,5.2-5.2,8.1c-1,0.8-4.2,3.2-8.5,2.6c-0.4-0.1-5.4-0.7-7.3-4.5
		c-0.4-0.7-0.5-1.7-0.7-3.6c-0.5-4.1-0.4-7.7-0.1-10.8c0.2-2.7,0.4-4.1,0.9-4.9c2-3.5,6.8-4,7.4-4.1c6.4-0.6,10.7,4.5,11.7,3.4
		c0.7-0.8-1.2-4.2-4-6.3c-4.2-3.2-9.2-2.2-9.9-2c-7.3,1.5-9.9,9.1-10.1,9.5c-1.5,4.4-1.3,11.4,2.9,13.8c2.1,1.2,5.4,1.3,7.5-0.6
		c2.9-2.5,2.7-7.8,0.2-9.8c-2.4-1.9-6.8-0.3-8.9,1.7c-4.7,4.4-1.7,13,3.1,27.3c0.1,0.3,0.4,1.2,1.2,1.8c1.4,1.1,3.6,0.8,4.9,0.2
		c3.9-1.8,3.9-8.6,3.9-10c0-5.3-2.3-9.3-3.8-11.4"/>
	<path class="st1" d="M123.8,158.2c-0.8,3-1.7,7.2-2.7,12.2c-1.4,7.2-2.9,15.3-3.1,24.3c0,2.6-0.1,13.7,3.7,27.5
		c2.1,7.9,5.8,17.6,6.8,17.3c0.5-0.1,0.3-2.1,0.3-3.2c-3.8-52.3-3.9-53.3-3.9-53.3c-1.3-9.4-2.2-16.4-0.2-17.2
		c1.3-0.5,3.3,1.7,4,2.5c8.1,9.1,7.7,29.9,9,47.7c2.1,29.1,8.1,41.1,11,46.2c3.8,6.7,9.8,14.9,11.2,14.2c1.4-0.7-2-10.9-6.2-19.2
		c-3-5.9-8.4-16.2-19.8-23.3c-8-5-13.2-4.8-15.5-4.5c-1.7,0.2-6.5,0.8-8.2,4.2c-2.1,4.2,2.1,9.8,3.2,11.3c5.1,6.9,12.8,9,12.3,10.5
		c-0.2,0.7-1.9,0.8-3.3,0.7c-10-1.2-12.6-20-18.8-19.7c-2.8,0.1-5.5,4.1-5.7,7.5c-0.5,10.3,22.3,17.3,29.5,18.7
		c1.2,0.2,4.5,0.8,4.8,0c0.4-1-3.2-3.3-4-3.8c-8.6-5.6-24.6-7.3-26.3-3c-1.8,4.6,13.6,14.6,24.8,18.7c10,3.6,13.4,1.2,14.2,0.5
		c0.5-0.4,1.2-1,1.2-1.8c-0.2-2.6-8.9-2.9-19-3.2c-0.5,0-1.4,0-1.8,0.5c-1.2,1.6,2.3,6.3,3.1,7.2c7,8.5,28.7,8.2,45.1,2
		c5.8-2.2,8.9-4.3,15.5-5c3-0.3,7.6-0.4,16.3-0.5c2.9,0,5.7-0.1,5.8-0.3c0-0.3-7.8,0.4-16.5-2.1c-10.3-3-17.9-9.3-18.4-9.6
		c-5.2-4.4-9.3-9.8-11.4-8.8c-0.1,0-0.5,0.3-0.5,0.7c-0.2,2.3,13.5,5.3,15.8,5.8c6.7,1.5,13.3,2.4,24.1,4.9c3.4,0.8,8.2,1.9,8.3,3.8
		c0,0.5-0.3,1-0.8,1.3c-2.3,1.2-9.7-4.7-8.8-8c1-4.2,15.1-4,21.1-3.8c2.3,0,8.1,0.2,8.3,1.4c0.1,0.7-1.7,1.6-3.1,2
		c-5.5,1.4-12.8-3.7-12.4-7c0.4-2.8,6.6-4,16.3-5.9c1.4-0.3,15-2.9,15.7-0.8c0.2,0.8-1.4,1.9-2.1,2.4c-8.1,5.8-8.9,10.7-17.3,18.2
		c-12,10.7-23.3,12.1-22.8,13.8c0.5,1.7,12.3,1.9,22.7-3.8c1.2-0.7,16.5-9.4,18.7-26c0.8-6.2-0.6-10.9-3.5-20.3
		c-2.8-9.1-6.3-16.2-9-21"/>
	<path class="st1" d="M131.8,194.4c1.8,0,10.7,0.1,17.9-6.8c0.3-0.3,7-6.9,7.5-16.9c0.1-1,0.4-11.3-5.1-19c-0.7-0.9-1.4-1.8-1.6-3.3
		c-0.8-5.6,5.6-12.7,8.8-11.8c0.7,0.2,1.1,0.7,1.3,1c3.7,5.4,2.6,22.7-1.8,23.3c-2.9,0.4-7.8-6.5-6.8-12.8
		c1.2-6.9,8.9-9.6,11.5-10.5c5.1-1.8,9.3-1.2,11.5-1c15.1,1.3,21.5-8.1,42-13.2c0,0,13.8-5.3,25.3-2.7c0.3,0.1,0.9,0.2,1.5,0.8
		c2.4,2.2,0.5,7.9-0.1,9.6c-1.4,4-2.6,3.6-4.4,7.4c-2,4.4-2.1,8.4-2.2,12.2c-0.2,6.8,1.4,6.9,0.6,10.3c-1.3,5.4-5.3,5-9.4,11.7
		c-3.6,5.8-4.5,12.5-5,15.9c-0.7,5.2-0.1,6.8-1.7,9.3c-1.9,3-5.4,4.6-11,5.6c-16,2.8-29.2-2.8-29.2-2.8c-23.2-9.8-35.1-32.9-37-31.5
		c-0.4,0.3,0.1,1.6,0.5,2.8c1,3,5.2,14.9,4.1,23.5c-0.7,5.9-3.2,5.3-7,18.3c-1.3,4.6-1.5,6.2-1.5,7c-0.3,5.7,2,10.1,6,16.8
		c10.1,16.6,12.6,16.1,16,25c2,5.3,1.9,7.5,4.8,11c5.1,6.3,12.5,7.9,14.5,8.3c10.9,2.2,19.9-3.2,22-5.3c0.1-0.1,0.9-0.9,1-0.8
		c0.2,0.2-3,4.1-4.2,5.4c-5.5,6.2-16.8,10.6-27.2,8.3c-7.8-1.7-12.5-6.5-17.7-12c-14.8-15.7-17.7-33.5-19.3-33
		c-1.1,0.3-1.2,8.9,3,17.3c5.7,11.4,16.2,16.6,15.3,18c-0.5,0.9-5.1,0.1-9.2-2.5c-13.6-8.9-13.5-34.5-13.3-56c0-4.1,0.2-8.1,0-15.3
		c-0.4-14.1-0.5-21.2-2-25.5c-3.2-9.4-8.5-13.4-8.3-23.5c0-2,0.3-3.6,0.5-4.7"/>
	<path class="st1" d="M174.6,146.5c2-2.6,5.5-6.2,10.8-7.8c5.7-1.6,13.3-1,14.2,1.8c0.3,0.8-0.2,1.6-0.7,2.4
		c-2.9,5-10.1,5.8-13.4,6.3c-5.8,0.7-9.6-0.8-9.8-0.3c-0.1,0.6,3.8,2.4,8.3,3c3.3,0.5,6.9,1,9.8-1c3.1-2.1,3.7-6,4.7-5.8
		c0.6,0.2,0.7,1.5,0.6,2.4c-0.2,3.6-3.9,5.9-4.5,6.3c-5.5,3.3-12,0.4-12.8,0c-1.9-0.9-3.3-2-4.1-2.8"/>
	<path class="st1" d="M187.9,149.2c-0.1,0.4-0.2,1.6,0.6,2.5c0.1,0.1,0.2,0.2,0.4,0.3"/>
	<path class="st1" d="M199.1,181c5,0.8,7.7-0.2,9.3-1.4c1-0.8,2-2,3.7-2.2c1.6-0.1,2.6,0.9,3.8,0.3c0.9-0.4,0.7-1.1,1.8-1.8
		c1.2-0.7,1.9-0.4,3.1-0.8c2.1-0.7,2.9-3,3-2.9c0.1,0.1-0.5,1.9-1.9,3.6c-2.3,2.8-5.5,3.7-9.3,4.8c-2,0.6-4.2,1.2-7.3,1.3
		c-2.3,0-4.3-0.3-5.7-0.6"/>
	<path class="st1" d="M205.4,182.3c1.4,1.4,2.6,2.3,3.5,2.9c1.4,0.9,2.1,1.4,3,1.4c1.4,0,1.5-0.9,3.8-1.8c2-0.8,2.5-0.4,3.5-1.3
		c1-0.9,1.3-2.2,1.4-2.7c0.3-1.4,0-2.6-0.2-3.1"/>
	<path class="st1" d="M228.1,234.5c1.4-2.1,3.1-5.3,4-9.4c1.2-5.4,0-8.8,0.9-9c1.4-0.4,5,8.6,6.5,17.4c0.9,5,0.5,7.1-0.8,8.4
		c-2.3,2.4-7,1.9-7.4,1.9c-1.5-0.2-2.6-0.5-2.6-0.6c0-0.3,5.2,1.2,7-1c0.7-0.9,0.8-2.3,0.3-3c-1.2-1.6-6.1-0.7-8.8,1.9
		c-0.8,0.8-0.8,1.2-2.4,2.9c-1.3,1.4-3,3.2-3.6,2.9c-0.6-0.3,0-2.7,1.4-6.8c1.7-5.1,2.5-7.6,4-11.1c4.9-11.7-2.7-30.1-5-29.9
		c-1.1,0.1-1.5,4.3-1.5,6.6c0,8.1,5,10.2,4.4,16.9c-0.1,0.9-0.4,3.3,0.4,6.4c0.4,1.4,0.8,3.1,1.3,3.1c1.7,0,7.1-18.3,3.8-35.4
		c-0.5-2.9-1.9-8.4-1.3-16c0.3-3.7,1-6.7,1.5-8.8"/>
</g>
</svg>
