<?xml version="1.0" encoding="utf-8"?>
<!-- Generator: Adobe Illustrator 21.1.0, SVG Export Plug-In . SVG Version: 6.00 Build 0)  -->
<svg version="1.1" id="Guides" xmlns="http://www.w3.org/2000/svg" xmlns:xlink="http://www.w3.org/1999/xlink" x="0px" y="0px"
	 viewBox="0 0 83 65" style="enable-background:new 0 0 83 65;" xml:space="preserve">
<style type="text/css">
	.st0{fill:#CECB8A;}
</style>
<g>
	<path class="st0" d="M33.4,0.8v4.6C26.9,7.9,21.7,11.7,18,16.8c-3.7,5.2-5.6,10.5-5.6,16.1c0,1.2,0.2,2.1,0.6,2.7
		c0.3,0.4,0.5,0.6,0.9,0.6c0.3,0,0.8-0.2,1.4-0.7c2-1.5,4.6-2.2,7.7-2.2c3.6,0,6.8,1.5,9.6,4.4c2.8,2.9,4.2,6.4,4.2,10.5
		c0,4.2-1.6,8-4.8,11.2c-3.2,3.2-7.1,4.8-11.6,4.8c-5.3,0-9.9-2.2-13.8-6.5c-3.9-4.4-5.8-10.2-5.8-17.5c0-8.5,2.6-16.2,7.9-22.9
		C13.8,10.4,22.1,4.9,33.4,0.8z M79.1,0.8v4.6c-6.6,2.4-11.7,6.2-15.5,11.3C59.9,22,58,27.3,58,32.9c0,1.2,0.2,2.1,0.6,2.7
		c0.3,0.4,0.5,0.6,0.9,0.6c0.3,0,0.8-0.2,1.4-0.7c2-1.5,4.6-2.2,7.7-2.2c3.6,0,6.8,1.5,9.6,4.4c2.8,2.9,4.2,6.4,4.2,10.5
		c0,4.2-1.6,8-4.8,11.2c-3.2,3.2-7.1,4.8-11.6,4.8c-5.3,0-9.9-2.2-13.8-6.5c-3.9-4.4-5.8-10.2-5.8-17.5c0-8.5,2.6-16.2,7.9-22.9
		C59.5,10.4,67.7,4.9,79.1,0.8z"/>
</g>
</svg>
