<?xml version="1.0" encoding="utf-8"?>
<!-- Generator: Adobe Illustrator 21.1.0, SVG Export Plug-In . SVG Version: 6.00 Build 0)  -->
<svg version="1.1" id="Guides" xmlns="http://www.w3.org/2000/svg" xmlns:xlink="http://www.w3.org/1999/xlink" x="0px" y="0px"
	 viewBox="0 0 63 102" style="enable-background:new 0 0 63 102;" xml:space="preserve">
<style type="text/css">
	.st0{fill:#AF65C1;}
</style>
<g>
	<g>
		<g>
			<g>
				<g>
					<path class="st0" d="M46.5,55c4.1-5.8,6.4-13.5,3.5-20.3c-1.5-3.6-4.3-6.9-7.1-9.6c-2.3-2.2-5-2.7-7.9-1.2
						c-6.3,3.3-9.3,11.4-9.9,18c-0.4,4,0.1,8,1,11.9c0.5,2.3,1.3,4.5,2.1,6.7c0.9,2.3,2.6,4.9,1.9,7.4c-0.1,0.4,0.4,0.9,0.8,0.6
						C36.6,64.6,42.3,60.6,46.5,55c0.4-0.5-0.5-1.1-0.9-0.5c-4.1,5.5-9.6,9.4-15.2,13.2c0.3,0.2,0.5,0.4,0.8,0.6
						c0.7-2.9-0.9-5.4-1.9-8c-1.3-3.3-2.3-6.7-2.8-10.2c-1.1-7.1-0.1-14.7,4.2-20.6c2.5-3.5,7.1-7.6,11.3-3.9
						c2.6,2.3,5.1,5.4,6.7,8.5c3.4,6.7,1.2,14.6-3,20.4C45.2,55,46.1,55.5,46.5,55z"/>
				</g>
			</g>
			<g>
				<g>
					<path class="st0" d="M30.8,66.9c-9.4-3.6-16-12-18.6-21.6c-1.4-5.1-1.7-10.4-1.2-15.7c0.3-2.9,0.6-6.2,2.4-8.6
						c2.2-3.1,7.8-4.4,9,0.3c0.1,0.3,0.4,0.4,0.7,0.4c4.8-1.3,8.6,4.2,5.9,8.3c-0.4,0.6,0.5,1.1,0.9,0.5c3.2-4.9-1.4-11.3-7.1-9.9
						c0.2,0.1,0.4,0.2,0.7,0.4c-1.3-5.2-7.5-4.7-10.4-1.2c-1.9,2.2-2.5,5.2-2.8,8.1c-0.5,3.8-0.5,7.7-0.1,11.5
						c1.4,12.4,8.5,24,20.5,28.5C31.2,68.1,31.4,67.1,30.8,66.9L30.8,66.9z"/>
				</g>
			</g>
			<g>
				<g>
					<path class="st0" d="M41,60.9c6.5-4,11.8-10.7,14.5-17.8c3.9-10.4,0.4-20.1-4.3-29.5c-0.1-0.2-0.3-0.3-0.5-0.3
						c-2.9,0.3-3.9,2.8-4.9,5.1c-0.9,2-2,3-4.2,3.4c-1.1,0.2-1.9,0.4-2.4,1.5c-0.3,0.6,0.6,1.1,0.9,0.5c0.7-1.2,2.5-0.9,3.5-1.4
						c0.7-0.3,1.2-0.7,1.7-1.3c1.1-1.3,2.7-7.6,5.2-6.3c0.7,0.4,1.6,3.3,1.9,4c0.8,1.7,1.5,3.5,2.1,5.3c1.1,3.3,1.8,6.7,1.6,10.2
						C55.8,44.6,49.1,54.7,40.5,60C39.9,60.4,40.4,61.3,41,60.9L41,60.9z"/>
				</g>
			</g>
			<g>
				<g>
					<path class="st0" d="M32.3,67.7c10-4,19-10.4,24.6-19.8c3.3-5.6,5.1-11.8,5.8-18.2c0.7-6.1,0-11.8-3-17.3
						c-0.2-0.3-0.6-0.3-0.8-0.1c-2.5,2.4-4.3,5.4-5.3,8.7c-0.2,0.7,0.8,0.9,1,0.3c0.9-3.1,2.7-6,5.1-8.2c-0.3,0-0.6-0.1-0.8-0.1
						c4.7,8.6,3.5,19.3,0.1,28.2C54.3,53.5,44,61.9,32,66.7C31.4,67,31.7,68,32.3,67.7L32.3,67.7z"/>
				</g>
			</g>
			<g>
				<g>
					<path class="st0" d="M46.4,19.1c-1.1-2.4-2.5-4.6-4.2-6.6c-1-1.2-2.6-3.6-4.4-3.2c-2.1,0.4-4.6,3.1-6,4.5
						c-2.2,2.1-4.1,4.4-5.7,6.9c-0.4,0.6,0.5,1.1,0.9,0.5c1.4-2.1,2.9-4,4.7-5.8c1.4-1.4,3.2-3.5,5-4.3c1.7-0.7,2.6-0.4,3.8,0.9
						c0.5,0.6,1,1.2,1.5,1.8c1.4,1.8,2.6,3.8,3.5,5.8C45.7,20.2,46.6,19.7,46.4,19.1L46.4,19.1z"/>
				</g>
			</g>
			<g>
				<g>
					<path class="st0" d="M51.3,14.1C48.9,8.4,45,3.7,39.7,0.4c-0.3-0.2-0.6,0-0.7,0.2c-2.2,3.3-3.7,7-4.5,10.9
						c-0.1,0.7,0.9,0.9,1,0.3c0.8-3.8,2.3-7.4,4.4-10.6c-0.2,0.1-0.5,0.1-0.7,0.2c5,3.1,8.8,7.6,11.1,13
						C50.5,15,51.6,14.7,51.3,14.1L51.3,14.1z"/>
				</g>
			</g>
			<g>
				<g>
					<path class="st0" d="M34.2,12.5c-1.5-3.7-4.5-9-8.5-10.5c-2.9-1.1-5.9,1.5-7.9,3.4c-5.7,5.6-8.4,14.1-9.9,21.7
						c-0.1,0.7,0.9,1,1,0.3c1.4-6.9,3.7-14.5,8.4-19.9c1.5-1.8,3.7-4,6-4.6c4.5-1,8.4,6.5,9.8,9.8C33.4,13.4,34.4,13.2,34.2,12.5
						L34.2,12.5z"/>
				</g>
			</g>
			<g>
				<g>
					<path class="st0" d="M30.7,67.5C10.2,61.3-2.4,38.9,2,18.1c-0.3,0.1-0.5,0.2-0.8,0.3C6.9,22,9.5,30,9.8,36.4
						c0,0.7,1.1,0.7,1.1,0c-0.3-6.8-3.1-15.1-9.1-18.8c-0.3-0.2-0.7,0-0.8,0.3c-4.5,21.4,8.3,44.3,29.5,50.7
						C31.1,68.8,31.4,67.7,30.7,67.5L30.7,67.5z"/>
				</g>
			</g>
		</g>
	</g>
	<g>
		<g>
			<path class="st0" d="M29.5,68.6c-0.5,12.2-6.2,23.8-15.4,31.8c-0.5,0.5,0.2,1.2,0.7,0.7C24.2,93,30,81.1,30.5,68.6
				C30.6,68,29.5,68,29.5,68.6L29.5,68.6z"/>
		</g>
	</g>
	<g>
		<g>
			<path class="st0" d="M31.1,68c-0.3,12.8-6.5,25-16.8,32.7c-0.5,0.4,0,1.3,0.5,0.9c10.6-8,17-20.4,17.3-33.6
				C32.2,67.3,31.1,67.3,31.1,68L31.1,68z"/>
		</g>
	</g>
</g>
</svg>
