<?xml version="1.0" encoding="utf-8"?>
<!-- Generator: Adobe Illustrator 21.1.0, SVG Export Plug-In . SVG Version: 6.00 Build 0)  -->
<svg version="1.1" id="Guides" xmlns="http://www.w3.org/2000/svg" xmlns:xlink="http://www.w3.org/1999/xlink" x="0px" y="0px"
	 viewBox="0 0 79 106" style="enable-background:new 0 0 79 106;" xml:space="preserve">
<style type="text/css">
	.st0{fill:#AF65C1;}
</style>
<g>
	<g>
		<g>
			<path class="st0" d="M39.3,54.9c4.3,20.9,17.8,42.1,38,50.6c0.7,0.3,1.3-0.7,0.6-1C58,96,44.7,75.1,40.4,54.5
				C40.3,53.8,39.1,54.1,39.3,54.9L39.3,54.9z"/>
		</g>
	</g>
	<g>
		<g>
			<path class="st0" d="M41.4,53.5c3.2,20.8,15.8,43.4,35.9,51.9c0.7,0.3,1.3-0.7,0.6-1C58,96,45.7,73.7,42.5,53.2
				C42.4,52.5,41.3,52.8,41.4,53.5L41.4,53.5z"/>
		</g>
	</g>
	<g>
		<g>
			<g>
				<path class="st0" d="M66.1,97.2c-4.1-6.9-2.7-14.2-0.7-21.5c1.7-6.4,2.8-12.4,0.6-18.8c-0.2-0.5-1-0.3-0.8,0.2
					c2.6,7.7,0.2,14.6-1.6,22.1c-1.5,6.4-1.7,12.6,1.7,18.4C65.7,98.1,66.4,97.6,66.1,97.2L66.1,97.2z"/>
			</g>
		</g>
		<g>
			<g>
				<path class="st0" d="M63.7,95.2c-2.5-6.3-1.8-12.3,0.5-18.6c1.9-5.2,3.7-10.1,2.9-15.8c-0.1-0.5-0.9-0.3-0.8,0.2
					c0.9,6.5-1.8,11.9-3.7,17.9c-1.8,5.6-1.8,11.1,0.3,16.5C63.1,95.9,63.9,95.7,63.7,95.2L63.7,95.2z"/>
			</g>
		</g>
		<g>
			<g>
				<g>
					<g>
						<path class="st0" d="M62.3,53.9c0.7,0.6,1.4,1.3,2.1,1.9c0.4,0.4,0.9-0.2,0.6-0.6c-0.7-0.9-0.9-1.9-0.5-3
							c-0.2,0.1-0.4,0.2-0.6,0.2c1,0.4,1.7,1.1,2.1,2.1c0.1,0.5,0.8,0.3,0.8-0.1c0.1-1,0.6-1.7,1.3-2.4c-0.2-0.1-0.5-0.1-0.7-0.2
							c0.1,0.8,0.1,1.6-0.1,2.4c-0.2,0.6-0.5,1.6-1,2c-0.5,0.5-1.6,0.3-2.1,0c-1-0.5-1.5-1.4-1.2-2.5c0.1-0.5-0.7-0.7-0.8-0.2
							c-0.6,2.1,1.7,4.6,3.9,3.8c2-0.7,2.4-3.9,2.1-5.7c-0.1-0.3-0.5-0.4-0.7-0.2c-0.9,0.8-1.5,1.8-1.6,3c0.3,0,0.5-0.1,0.8-0.1
							c-0.4-1.2-1.3-2.1-2.4-2.6c-0.3-0.1-0.5,0-0.6,0.2c-0.5,1.4-0.2,2.7,0.7,3.8c0.2-0.2,0.4-0.4,0.6-0.6
							c-0.7-0.6-1.4-1.3-2.1-1.9C62.5,53,61.9,53.6,62.3,53.9z"/>
					</g>
				</g>
			</g>
			<g>
				<g>
					<g>
						<path class="st0" d="M66.6,53.8c0.8-2.1,1.5-4.4,0.1-6.5c-0.8-1.2-2.9-3-4.5-2.8c-1.6,0.2-1.9,2.4-1.8,3.7
							c0.1,2.3,1.3,4.3,2.8,6c0.3,0.4,0.9-0.2,0.6-0.6c-1-1.1-1.8-2.3-2.2-3.7c-0.5-1.6-0.8-5.4,2-4.2c1.3,0.5,2.5,1.7,2.9,2.9
							c0.6,1.7,0,3.3-0.6,4.9C65.7,54.1,66.5,54.3,66.6,53.8L66.6,53.8z"/>
					</g>
				</g>
				<g>
					<g>
						<path class="st0" d="M67.4,49.1c0.2-1.5,0.3-3.2-1-4.3c-1.1-0.9-2.6-0.9-3.8-0.3c-0.5,0.3-0.1,1,0.4,0.7
							c0.9-0.5,2.2-0.4,3,0.3c0.9,0.9,0.8,2.2,0.6,3.3C66.5,49.4,67.3,49.6,67.4,49.1L67.4,49.1z"/>
					</g>
				</g>
			</g>
		</g>
	</g>
	<g>
		<g>
			<g>
				<g>
					<g>
						<path class="st0" d="M26.8,47.4c-0.7,5-3.7,11.9-10,10.8c-4.2-0.7-6.5-5.1-10.7-6.1c-1.7-0.4-3.4-0.7-3.7-2.7
							c-0.2-2.1,1-3.5,2.3-5c1.8-2.1,3.9-4,6.1-5.5c2.2-1.5,4.8-1.8,7.4-2.3c3.2-0.6,6.2-0.5,9.2,0.9c0.7,0.3,1.3-0.7,0.6-1
							c-2.8-1.3-5.7-1.8-8.8-1.3c-3.6,0.6-6.8,1-9.8,3.2C6.7,40.5-2.5,47.8,2.4,52c0.9,0.8,2,1,3.1,1.2c2.1,0.5,3.5,1.3,5.1,2.6
							c2,1.6,3.9,3.4,6.5,3.6c6.7,0.7,10-6.3,10.8-11.8C28.1,46.9,26.9,46.6,26.8,47.4L26.8,47.4z"/>
					</g>
				</g>
				<g>
					<g>
						<path class="st0" d="M28.1,36.4c-5.3-2.4-9.7-0.8-15.2,0c-3.5,0.5-7.8,0.3-10-2.9C1.8,32,1.7,30,2.7,28.3
							c0.9-1.6,2.5-2.2,3.9-3.3c1.6-1.3,1.3-2.8,1.4-4.7c0.3-5.1,5.8-6.2,9.6-4c2.6,1.5,4.9,4.1,6.9,6.5c2.3,2.8,4,5.9,4.4,9.6
							c0.1,0.8,1.3,0.8,1.2,0c-0.4-3.6-1.9-6.8-4.1-9.6c-2.2-2.8-4.9-5.9-8.1-7.7c-2.5-1.4-5.7-1.8-8.2-0.1c-1.1,0.7-2,1.9-2.5,3.1
							c-0.6,1.6,0,3.3-0.5,4.8c-0.5,1.6-3,2.2-4.1,3.5c-0.9,1-1.5,2.2-1.7,3.5c-0.3,2.6,1.2,4.9,3.2,6.3c2.7,1.8,6.1,1.8,9.1,1.3
							c5-0.8,9.4-2.4,14.3-0.1C28.2,37.8,28.8,36.7,28.1,36.4L28.1,36.4z"/>
					</g>
				</g>
				<g>
					<g>
						<path class="st0" d="M26.9,24.3c-1.5-4.2-3.2-8.4-3.1-12.9c0-2.3,0.4-4.7,1.7-6.7c1.8-2.9,4.1-2.8,7.2-2.1
							c4,1,7.5-1.5,11.4-0.8c4.7,0.8,7.2,5.6,7.4,10c0,0.8,1.2,0.8,1.2,0c-0.1-4.3-2.1-8.5-6.2-10.4c-1.9-0.9-3.9-1-5.9-0.6
							c-1.5,0.3-3,0.8-4.5,1c-1.9,0.1-3.4-0.6-5.3-0.9c-4.5-0.8-7.1,3.6-7.8,7.5c-1,5.6,1,11.1,2.9,16.2C26,25.3,27.2,25,26.9,24.3
							L26.9,24.3z"/>
					</g>
				</g>
				<g>
					<g>
						<path class="st0" d="M43,31c1.3-6,3.7-12.1,7.6-16.9c2-2.4,4.5-4.4,7.7-4.8c3.9-0.5,7.5,2,7.5,6.1c0,2.4-0.8,4.8-0.1,7.2
							c0.8,3,2.9,5.3,2.2,8.6c-1.4,6.8-9.1,8.5-15,7.8c-0.8-0.1-0.8,1.1,0,1.2c6.1,0.7,13.3-1,15.8-7.3c1.2-3.1,0.4-5.7-0.9-8.5
							c-1.1-2.4-1.2-4.4-0.9-6.9c0.2-1.7,0.4-3.4-0.3-5c-2.4-5.8-9.8-5.1-14-1.9c-5.9,4.6-9.1,13.1-10.6,20.1
							C41.7,31.4,42.8,31.8,43,31L43,31z"/>
					</g>
				</g>
				<g>
					<g>
						<path class="st0" d="M45.7,38.6c3,0.1,6.2,0.8,8.5,2.8c2.3,2,3.5,5.5,1.2,8c-2,2.2-5.2,1.8-7.9,1.9c-2,0.1-3.8,0.4-5.6,1.4
							c-1.9,1-3.6,2.6-5.7,3.2c-2.8,0.8-5.7-0.8-7.1-3.3c-1.3-2.1-1.2-4.4-1-6.7c0.2-2.4,0.3-4.8,0.6-7.2c0.1-0.8-1.1-0.8-1.2,0
							c-0.4,3.3-1,7.1-0.7,10.5c0.2,2.5,1.2,4.7,3.1,6.3c1.7,1.5,4,2.2,6.2,1.7c3.1-0.7,5.3-3.4,8.3-4.2c4.5-1.3,13.1,0.9,13.4-6.4
							c0.2-6.3-7-8.9-12.2-9.1C45,37.4,45,38.6,45.7,38.6L45.7,38.6z"/>
					</g>
				</g>
			</g>
			<g>
				<g>
					<path class="st0" d="M34.1,28.4c-4.4,1.4-8.3,6.1-6.4,10.9c0.1-0.2,0.3-0.5,0.4-0.7c-0.1,0-0.1,0-0.2,0.1
						c-0.5,0.2-0.6,0.8-0.1,1.1c2.8,1.7,5.9,3,9.2,2.6c1.2-0.1,2.4-0.5,3.5-1.1c1.7-1,3-2.8,5.2-2.6c0.3,0,0.6-0.3,0.6-0.6
						C46.3,31.4,40.5,26.9,34.1,28.4c-0.7,0.2-0.4,1.3,0.3,1.1c5.6-1.3,10.7,2.7,10.7,8.4c0.2-0.2,0.4-0.4,0.6-0.6
						c-2.7-0.3-4.1,2-6.4,3c-3.7,1.6-7.7,0.3-10.9-1.7c0,0.4-0.1,0.7-0.1,1.1c0.1,0,0.1,0,0.2-0.1c0.3-0.1,0.5-0.4,0.4-0.7
						c-1.6-4.1,1.8-8.2,5.6-9.4C35.1,29.3,34.8,28.2,34.1,28.4z"/>
				</g>
			</g>
		</g>
	</g>
	<g>
		<g>
			<g>
				<path class="st0" d="M56.7,88.9c-10.5-6.9-21.2,7.2-31.7,2c-0.7-0.3-1.2,0.6-0.6,1c10.3,7.6,23.3,1.2,34.6,0.4
					c0.8,0,0.8-1.2,0-1.2c-11,0.7-23.9,7.1-34-0.3c-0.2,0.3-0.4,0.7-0.6,1c10.7,5.3,21.5-8.8,31.7-2C56.8,90.3,57.4,89.3,56.7,88.9
					L56.7,88.9z"/>
			</g>
		</g>
		<path class="st0" d="M28.9,92.9c-0.2,0-0.2-0.3,0-0.3c2.8,0.4,5.6,0.2,8.3-0.3l-1.4-0.5c-0.2-0.1-0.1-0.3,0.1-0.3
			c0.5,0.2,1,0.4,1.5,0.6c0.1,0,0.1,0.1,0.1,0.2c0.7-0.1,1.5-0.3,2.2-0.5c-0.5-0.4-1-0.7-1.6-1.1c-0.2-0.1,0-0.3,0.2-0.2
			c0.6,0.4,1.2,0.8,1.8,1.2c1.3-0.3,2.6-0.6,3.9-0.9c-0.6-0.6-1.4-1-2.2-1.3c-0.2-0.1-0.1-0.3,0.1-0.3c0.9,0.3,1.8,0.8,2.5,1.4
			c1-0.2,2-0.4,3-0.6c-0.7-0.6-1.6-1.1-2.5-1.5c-0.2-0.1-0.1-0.3,0.1-0.3c1,0.4,1.9,1,2.7,1.7c1-0.2,2-0.3,3-0.3c0.1,0,0.3,0,0.4,0
			c-0.9-0.7-1.9-1.4-2.8-2.1c-0.1-0.1,0-0.3,0.2-0.2c1,0.7,2,1.5,2.9,2.2c0.1,0,0.1,0.1,0,0.2c0.7,0,1.4,0,2.1,0
			c-0.7-0.8-1.5-1.4-2.4-2c-0.2-0.1,0-0.3,0.2-0.2c1,0.6,1.8,1.3,2.5,2.1c0,0,0,0.1,0,0.1c0.9,0.1,2.8,0.2,3.7,0.5
			c0.2,0,0.1,0.3-0.1,0.3c-0.9-0.2-2.7-0.4-3.7-0.5c-0.2,1-0.7,2-1.4,2.7c-0.1,0.1-0.4,0-0.2-0.2c0.7-0.7,1.1-1.6,1.3-2.6
			c-0.7,0-1.4-0.1-2.1,0c0,0,0,0,0,0.1c-0.3,1.2-0.9,2.2-1.8,3c-0.1,0.1-0.3-0.1-0.2-0.2c0.9-0.7,1.5-1.7,1.7-2.8
			c-1.1,0-2.2,0.2-3.2,0.3c0,0,0,0,0,0.1c-0.2,1.3-0.8,2.6-1.8,3.5c-0.1,0.1-0.3-0.1-0.2-0.2c0.9-0.9,1.5-2.1,1.7-3.4c0,0,0,0,0,0
			c0,0,0,0,0,0c-0.6,0.1-1.2,0.2-1.9,0.3c-0.4,0.1-0.8,0.2-1.2,0.3c-0.5,1.6-1.6,3.1-3,4c-0.2,0.1-0.3-0.1-0.2-0.2
			c1.3-0.9,2.3-2.2,2.8-3.7c-1.3,0.3-2.6,0.6-3.9,0.9c0,0,0,0.1,0,0.1c-0.6,1.1-1.4,2.1-2.5,2.8c-0.2,0.1-0.3-0.1-0.2-0.2
			c1-0.7,1.8-1.6,2.3-2.6c0,0,0,0,0,0c-0.9,0.2-1.8,0.4-2.7,0.6c0,0,0,0,0,0c-1,1.2-2.3,2-3.8,2.3c-0.2,0-0.2-0.2,0-0.3
			c1.3-0.3,2.6-1,3.5-2c-0.6,0.1-1.2,0.2-1.8,0.3C33,93.2,31,93.2,28.9,92.9z"/>
	</g>
</g>
</svg>
