<?xml version="1.0" encoding="utf-8"?>
<!-- Generator: Adobe Illustrator 21.1.0, SVG Export Plug-In . SVG Version: 6.00 Build 0)  -->
<svg version="1.1" id="Guides" xmlns="http://www.w3.org/2000/svg" xmlns:xlink="http://www.w3.org/1999/xlink" x="0px" y="0px"
	 viewBox="0 0 45 61" style="enable-background:new 0 0 45 61;" xml:space="preserve">
<style type="text/css">
	.st0{fill:#A262B8;}
	.st1{fill:#D19EE6;}
</style>
<g>
	<path class="st0" d="M44.9,24.9c-0.3,4.9-2.3,11.6-5.9,17.6c-3,5.1-6.6,10-10.1,14.8c-3.2,4.3-5.3,4.3-8.9,0.4
		C11.9,49.1,4.1,40,0.8,28.4C-3.5,13.1,11.4-2,27.2,0.6C42.4,3.1,44.9,11.5,44.9,24.9z"/>
	<path class="st1" d="M11.8,21.9c0-6,5.6-11.8,11.3-11.7c5.6,0.1,10.5,5.7,10.3,11.9c-0.2,6.6-4.3,10.9-10.6,11
		C16.6,33.1,11.7,28.2,11.8,21.9z"/>
</g>
</svg>
