<?xml version="1.0" encoding="utf-8"?>
<!-- Generator: Adobe Illustrator 21.1.0, SVG Export Plug-In . SVG Version: 6.00 Build 0)  -->
<svg version="1.1" id="Guides" xmlns="http://www.w3.org/2000/svg" xmlns:xlink="http://www.w3.org/1999/xlink" x="0px" y="0px"
	 viewBox="0 0 53 55" style="enable-background:new 0 0 53 55;" xml:space="preserve">
<style type="text/css">
	.st0{fill:#A262B8;}
	.st1{fill:#D19EE6;}
</style>
<g>
	<path class="st0" d="M0,28C0,13.4,12.5,0.6,26.7,0.3C41.8,0,52.5,14.5,52.9,26.7c0.5,14-13.2,28.2-26.6,28C12.2,54.5,0.1,42.2,0,28
		z"/>
	<path class="st1" d="M23.2,35.3c0,1.3-0.1,2.7-0.1,4c0,2-0.4,3.7-3,3.6c-2.4-0.1-4.5-0.7-4.6-3.5c-0.1-8.8-0.1-17.6,0-26.4
		c0-2.3,2.1-2.7,4.1-2.7c3.5,0,7-0.1,10.5,0c6.6,0.3,11.8,4.7,12.6,10.7c0.8,5.8-2.8,10.4-9.6,12.6c-0.2,0-0.4,0.1-0.7,0.1
		c-2.4,0.4-4.8,0-7.2,0.3c-0.4,0.1-0.8,0.2-1.1,0.5C23.8,34.7,23.5,35,23.2,35.3z"/>
	<path class="st0" d="M28.2,17.2c3.7-0.2,6.8,0.4,6.8,4.8c0.1,3.4-3.1,5.2-8.1,5.4c-4.8,0.2-3.5-3.1-3.9-5.7
		C22.4,17.2,25,16.7,28.2,17.2z"/>
</g>
</svg>
