<?xml version="1.0" encoding="utf-8"?>
<!-- Generator: Adobe Illustrator 21.1.0, SVG Export Plug-In . SVG Version: 6.00 Build 0)  -->
<svg version="1.1" id="Guides" xmlns="http://www.w3.org/2000/svg" xmlns:xlink="http://www.w3.org/1999/xlink" x="0px" y="0px"
	 viewBox="0 0 102 102" style="enable-background:new 0 0 102 102;" xml:space="preserve">
<style type="text/css">
	.st0{fill:#6868AA;}
	.st1{fill:#FFFFFF;}
</style>
<g>
	<circle class="st0" cx="51" cy="51" r="50"/>
	<g>
		<path class="st1" d="M96,51C96,75.9,75.9,96,51,96c-24.9,0-45-20.1-45-45C6,26.2,26,6.2,50.7,6C75.7,5.9,96,26.1,96,51z M51,95.3
			c24.7,0,44.7-20.3,44.4-44.9c-0.3-24-20-43.8-44.6-43.8C26.5,6.7,6.6,26.7,6.6,51C6.7,75.5,26.6,95.4,51,95.3z"/>
		<path class="st1" d="M51.1,83.3c-17.5,0-31.6-14.2-31.6-31.7C19.5,34.1,33.7,20,51.2,20c17.6,0,31.7,14.2,31.7,31.8
			C82.9,69.3,68.7,83.3,51.1,83.3z M51.2,82.7c17.2,0,31-13.9,31-31.1c0-17.1-14-31-31.2-31c-17,0-30.9,14-30.9,31
			C20.2,68.7,34.2,82.7,51.2,82.7z"/>
		<path class="st1" d="M18.4,69.9c0.2-0.1,0.3-0.2,0.4-0.2c0.2,0,0.4,0,0.6,0c-0.1,0.2,0,0.5-0.2,0.6c-0.3,0.3-0.7,0.5-1.1,0.8
			c-0.2,0.1-0.4,0-0.7,0.1c0.1-0.2,0.1-0.4,0.2-0.7c0,0,0.1-0.1,0.2-0.1c-3.4-6-5.2-12.4-5.2-19.3c0-6.9,1.7-13.3,5.2-19.2
			c0-0.1,0-0.1-0.1-0.1c-0.2-0.2-0.6-0.4-0.3-0.8c0.3-0.4,0.6,0,0.8,0.2c0.3,0.2,0.5,0.3,0.7,0.5c0.2,0.2,0.3,0.5,0.3,0.6
			c-0.1,0.4-0.4,0.2-0.7,0c-0.1,0-0.1-0.1-0.3-0.1c-3.3,5.7-5,11.8-5.1,18.3C13.3,57.4,15,63.8,18.4,69.9z"/>
		<path class="st1" d="M83.7,32.5c-0.4,0-0.9,0-0.9-0.1c-0.2-0.4,0.2-0.5,0.5-0.7c0.2-0.2,0.5-0.4,0.7-0.5c0.2-0.1,0.4,0,0.6,0
			c-0.1,0.2-0.1,0.4-0.2,0.7c0,0.1-0.1,0.1-0.1,0.1C91,44.7,91,57.5,84.1,70.3c0.1,0.1,0.3,0.2,0.4,0.4c0.1,0.1,0.1,0.4,0,0.4
			c-0.1,0.1-0.4,0.2-0.5,0.1c-0.4-0.2-0.8-0.5-1.2-0.8c-0.1-0.1-0.2-0.4-0.3-0.6c0.2,0,0.4,0,0.6,0c0.1,0,0.1,0,0.2,0
			C90.3,58.7,90.3,43.3,83.7,32.5z"/>
		<path class="st1" d="M70.1,17c0,1.8-1.4,3.2-3.2,3.2c-1.9,0-3.5-1.5-3.4-3.3c0-1.8,1.5-3.2,3.3-3.2C68.6,13.7,70.1,15.2,70.1,17z
			 M64.6,17.2c0,1.1,0.9,2,2,2c1.2,0,2.2-1.2,2.2-2.5c0-1.1-0.9-2-2-2C65.7,14.7,64.6,15.9,64.6,17.2z"/>
		<path class="st1" d="M76.4,19.1c0.3,0.2,0.6,0.4,0.9,0.6c-1.2,1.7-2.3,3.3-3.5,4.9c-0.5-0.2-0.8-0.5-0.8-1c0-1.4-0.2-2.9-0.4-4.4
			c-0.7,1-1.5,2.1-2.2,3.2c-0.3-0.2-0.6-0.4-0.9-0.6c1.2-1.7,2.3-3.3,3.5-4.9c0.6,0.2,0.8,0.5,0.8,1c0,1.4,0.1,2.9,0.2,4.3
			c0,0,0.1,0,0.1,0.1C74.9,21.2,75.6,20.2,76.4,19.1z"/>
		<path class="st1" d="M33.5,18.9c0.4,0.7,0.7,1.4,1.1,2.1c-0.4,0.2-0.7,0.3-1.1,0.5c-0.9-1.8-1.8-3.6-2.7-5.5
			c0.9-0.4,1.7-0.9,2.6-1.2c0.8-0.3,1.6-0.1,2,0.6c0.5,0.7,0.5,1.5,0,2.2c0,0.1-0.1,0.1-0.1,0.2c0.9,1,1.6,1.2,2.5,0.8
			c0.1,0.2,0.2,0.4,0.3,0.6c-0.7,0.7-1.5,0.9-2.4,0.4c-0.4-0.2-0.7-0.5-1-0.7C34.1,18.5,34.1,18.5,33.5,18.9z M32.2,16.3
			c0.3,0.6,0.6,1.2,0.9,1.8c0.4-0.2,0.7-0.3,1-0.5c0.6-0.3,0.7-0.7,0.4-1.3c-0.3-0.5-0.7-0.7-1.3-0.4C32.9,16,32.6,16.1,32.2,16.3z"
			/>
		<path class="st1" d="M57.3,17.3c-0.4-0.1-0.8-0.2-1.2-0.3c0.4-2,0.8-3.9,1.3-5.9c0.4,0.1,0.7,0.1,1.2,0.2
			c-0.2,0.8-0.3,1.5-0.5,2.3c1,0.2,1.9,0.4,2.9,0.6c0.2-0.8,0.3-1.5,0.5-2.3c0.4,0.1,0.7,0.2,1.2,0.3c-0.4,2-0.8,3.9-1.3,5.9
			c-0.4-0.1-0.8-0.1-1.2-0.2c0.2-0.9,0.4-1.7,0.6-2.6c-0.9-0.2-1.8-0.4-2.7-0.6c-0.1,0-0.3,0.2-0.3,0.4
			C57.6,15.7,57.5,16.5,57.3,17.3z"/>
		<path class="st1" d="M80.3,25.7c-0.3,0.3-0.5,0.5-0.8,0.8c-0.5-0.6-1-1.1-1.5-1.7c-0.4,0.5-0.8,0.9-1.2,1.4c0.6,0.5,1.3,1.1,2,1.7
			c-0.4,0.4-0.6,0.5-0.8,0.7c-0.9-0.9-1.9-1.8-2.7-2.7c1.4-1.5,2.8-2.9,4.2-4.3c0.9,0.9,1.9,1.8,2.8,2.8c-0.2,0.2-0.4,0.4-0.7,0.7
			c-0.7-0.7-1.3-1.3-1.9-2c-0.4,0.4-0.7,0.7-1.2,1.2C79.1,24.8,79.7,25.2,80.3,25.7z"/>
		<path class="st1" d="M31.5,21.7c0.2,0.3,0.4,0.5,0.5,0.7c-1.1,0.8-2.1,1.6-3.2,2.4c-1.2-1.6-2.4-3.2-3.6-4.9
			c1.1-0.8,2.1-1.5,3.2-2.4c0.2,0.2,0.3,0.5,0.5,0.7c-0.7,0.5-1.4,1.1-2.2,1.6c0.3,0.4,0.6,0.8,0.9,1.2c0.6-0.4,1.2-0.8,1.8-1.3
			c0.2,0.2,0.3,0.4,0.6,0.7c-0.6,0.4-1.1,0.9-1.8,1.4c0.3,0.5,0.7,0.9,1.1,1.4C30,22.8,30.7,22.2,31.5,21.7z"/>
		<path class="st1" d="M48.5,15.9c0,0.3,0.1,0.6,0.1,0.9c-0.7,0.1-1.3,0.2-2,0.3c-0.6,0.1-1.3,0.2-1.9,0.3c-0.3-2-0.5-4-0.8-6
			c1.3-0.2,2.6-0.3,3.9-0.5c0.1,0.3,0.1,0.6,0.2,0.9c-0.8,0.1-1.5,0.2-2.2,0.3c-0.4,0-0.5,0.2-0.5,0.6c0.2,1-0.1,1,1.1,0.8
			c0.4-0.1,0.8-0.1,1.3-0.2c0,0.3,0.1,0.6,0.1,0.9c-0.6,0.1-1.2,0.2-1.8,0.2c-0.4,0-0.4,0.2-0.4,0.5c0.1,1.4,0.1,1.4,1.5,1.2
			C47.5,16,48,16,48.5,15.9z"/>
		<path class="st1" d="M23.9,26.5c0.5,0.5,1,1,1.6,1.5c-0.3,0.3-0.6,0.6-0.9,0.9c-1.4-1.5-2.7-3-4.1-4.5c0.6-0.5,1.3-1.3,2.1-1.9
			c0.7-0.5,1.6-0.3,2.3,0.3c0.6,0.6,0.8,1.5,0.3,2.3C24.8,25.5,24.4,25.9,23.9,26.5z M23.3,25.8c0.4-0.5,1.1-0.8,0.9-1.6
			c-0.1-0.5-0.4-0.8-0.9-0.9c-0.8-0.1-1.1,0.6-1.5,0.9C22.3,24.7,22.8,25.2,23.3,25.8z"/>
		<path class="st1" d="M51.6,14.6c0,0.7,0,1.4,0,2.1c-0.4,0-0.8,0-1.2,0c0.1-2,0.1-4,0.2-6.1c1,0.1,2,0.1,3,0.2
			c0.9,0.2,1.4,0.9,1.3,1.9c0,0.9-0.5,1.6-1.5,1.8C52.9,14.6,52.3,14.6,51.6,14.6z M51.7,12.6C51.7,12.6,51.7,12.6,51.7,12.6
			c0,0.1,0,0.3,0,0.4c0,0.7,0,0.7,0.7,0.7c0.1,0,0.2,0,0.2,0c0.7,0,1.1-0.4,1.1-1.1c0-0.8-0.4-1.1-1.4-1.1c-0.9,0-0.5,0.6-0.6,1
			C51.7,12.5,51.7,12.6,51.7,12.6z"/>
		<path class="st1" d="M38.8,17.6c0.7,0,1.3,0.1,1.9,0c0.5-0.1,0.9-0.4,0.9-0.9c0-0.5-0.4-0.8-1-0.8c-0.4,0-0.8,0-1.2,0
			c-0.9-0.1-1.4-0.6-1.6-1.4c-0.2-0.8,0.1-1.5,1-1.8c0.5-0.2,1.1-0.3,1.7-0.4c0.8,0,0.9,0.1,0.7,0.9c-0.5,0-1,0-1.4,0
			c-0.6,0.1-1,0.5-0.9,0.9c0.1,0.6,0.6,0.6,1,0.6c0.5,0,1.1,0,1.6,0.1c0.8,0.2,1.2,0.8,1.3,1.5c0.1,0.7-0.2,1.3-0.8,1.7
			c-0.7,0.5-1.5,0.6-2.3,0.5C38.8,18.4,38.7,18.3,38.8,17.6z"/>
		<path class="st1" d="M42.7,87.7c0,0.9-0.6,1.5-1.5,1.5c-0.9,0-1.6-0.6-1.6-1.5c0-0.8,0.6-1.5,1.5-1.5C42,86.3,42.7,86.9,42.7,87.7
			z M40.4,87.9c0,0.5,0.3,0.8,0.8,0.8c0.4,0,0.8-0.5,0.8-1c0-0.5-0.3-0.8-0.8-0.8C40.8,86.8,40.4,87.3,40.4,87.9z"/>
		<path class="st1" d="M72.5,83.9c-0.2-0.3-0.4-0.6-0.7-1c-0.3,0.2-0.6,0.4-0.9,0.6c0.2,0.4,0.4,0.7,0.6,1c-0.2,0.1-0.4,0.2-0.6,0.4
			c-0.5-0.8-1-1.5-1.5-2.3c0.2-0.1,0.4-0.3,0.6-0.4c0.2,0.3,0.4,0.5,0.6,0.8c0.3-0.2,0.6-0.4,0.9-0.6c-0.2-0.3-0.3-0.6-0.5-0.9
			c0.2-0.1,0.3-0.2,0.6-0.4c0.5,0.8,1,1.5,1.5,2.3C72.8,83.7,72.7,83.8,72.5,83.9z"/>
		<path class="st1" d="M46,88.8c0.1-0.5,0.2-0.9,0.2-1.4c0.2,0,0.4,0,0.6,0.1c-0.1,0.9-0.3,1.8-0.4,2.7c-1.1-0.1-0.9-1.3-1.6-1.7
			c-0.1,0.5-0.2,0.9-0.3,1.4c-0.2,0-0.4,0-0.6-0.1c0.1-0.9,0.3-1.8,0.4-2.8C45.4,87.2,45.3,88.3,46,88.8z"/>
		<path class="st1" d="M78.9,78.5c-0.7,0.6-1.5-0.1-2.4,0.2c0.4,0.3,0.8,0.6,1.3,0.9c-0.3,0.3-0.4,0.4-0.5,0.5
			c-0.7-0.7-1.3-1.3-2-1.9c0.3-0.5,0.7-0.3,1.1-0.3c0.4,0,0.8,0.1,1.3,0.2c-0.4-0.5-0.8-0.8-1.1-1.2c0.1-0.1,0.2-0.3,0.3-0.4
			C77.6,77.1,78.2,77.8,78.9,78.5z"/>
		<path class="st1" d="M60.2,89.3c-0.9,0.6-1.3-0.4-2-0.7c0,0.2-0.1,0.4,0,0.6c0.2,0.5,0,0.7-0.6,0.6c-0.2-0.9-0.4-1.7-0.5-2.6
			c0.2-0.1,0.4-0.1,0.7-0.2c0.1,0.3,0.2,0.7,0.2,1c0.6-0.3,0.5-1.4,1.5-1.3c-0.2,0.4-0.4,0.7-0.6,1c-0.1,0.1,0,0.4,0.1,0.5
			C59.3,88.6,59.7,88.9,60.2,89.3z"/>
		<path class="st1" d="M34.8,86.9c-0.4-0.1-0.7-0.2-0.6-0.7c0-0.4-0.8-0.8-1.1-0.6c-0.4,0.2-0.4,0.2-0.8-0.1
			c0.7-0.6,1.4-1.2,2.1-1.7c0.3-0.2,0.7,0,0.7,0.3C34.9,85,34.9,85.9,34.8,86.9z M34.3,84.7c0,0-0.1,0-0.1,0
			c-0.2,0.2-0.4,0.3-0.6,0.5c0.2,0.1,0.4,0.2,0.6,0.3C34.3,85.1,34.3,84.9,34.3,84.7z"/>
		<path class="st1" d="M31.2,84.4c-0.1,0.2-0.2,0.3-0.3,0.4c-0.5-0.3-1.1-0.7-1.6-1c0.5-0.8,1-1.6,1.5-2.4c0.6,0.4,1.1,0.7,1.6,1
			c-0.1,0.2-0.2,0.3-0.3,0.4c-0.3-0.2-0.7-0.4-1-0.6c-0.5,0.7,0.3,0.6,0.5,1c-0.1,0.1-0.1,0.2-0.2,0.4c-0.3-0.2-0.5-0.3-0.8-0.5
			c-0.1,0.2-0.2,0.3-0.4,0.5C30.6,84,30.9,84.2,31.2,84.4z"/>
		<path class="st1" d="M72.7,80.3c0.5-0.4,1-0.8,1.5-1.2c0.1,0.1,0.2,0.3,0.4,0.4c-0.3,0.3-0.6,0.5-0.9,0.7c0.1,0.5,0.4,0.4,0.6,0.1
			c0.3-0.2,0.5-0.4,0.7,0.1c-0.2,0.2-0.4,0.4-0.7,0.6c0.1,0.2,0.2,0.3,0.4,0.5c0.3-0.2,0.6-0.5,0.9-0.7c0.1,0.1,0.2,0.2,0.3,0.4
			c-0.5,0.4-1,0.8-1.5,1.2C73.8,81.7,73.3,81,72.7,80.3z"/>
		<path class="st1" d="M48,90.3c0.4-0.8,0.8-1.7,1.2-2.5c0.2-0.3,0.6-0.3,0.8,0.1c0.3,0.8,0.6,1.6,0.9,2.5c-0.4,0.1-0.7,0.1-0.8-0.3
			c-0.1-0.4-1.1-0.4-1.3,0C48.6,90.4,48.3,90.4,48,90.3z M49.5,88.6c0,0-0.1,0-0.1,0c-0.1,0.2-0.2,0.5-0.3,0.7c0.3,0,0.4,0,0.7,0
			C49.7,89.1,49.6,88.8,49.5,88.6z"/>
		<path class="st1" d="M24,79.5c-0.4-0.2-0.6-0.4-0.3-0.8c0.2-0.3-0.5-1-0.9-0.9c-0.2,0-0.5-0.1-0.7-0.1c0-0.1,0-0.2,0-0.2
			c0.9-0.3,1.7-0.7,2.6-1c0.3-0.1,0.6,0.3,0.5,0.6C24.8,77.8,24.4,78.6,24,79.5z M24.4,77.2c0,0-0.1-0.1-0.1-0.1
			c-0.2,0.1-0.5,0.2-0.8,0.4c0.2,0.2,0.4,0.3,0.6,0.5C24.2,77.7,24.3,77.4,24.4,77.2z"/>
		<path class="st1" d="M29.2,81.1c-0.3-0.3-0.4-0.5-0.6-0.7c-0.1-0.1-0.2,0-0.4,0c0,0.1,0,0.3,0,0.3c0.1,0.2,0.3,0.4,0.3,0.6
			c0,0.3,0.1,0.8-0.1,1c-0.2,0.2-0.7,0.3-0.9,0.2c-0.3-0.1-0.6-0.5-0.9-0.7c-0.2-0.3-0.1-0.5,0.2-0.6c0.2,0.2,0.3,0.5,0.5,0.7
			c0.1,0.1,0.3,0.1,0.5,0.1c0-0.2,0-0.3,0-0.5c0-0.1-0.1-0.1-0.1-0.2c-0.3-0.4-0.4-0.8-0.1-1.1c0.2-0.2,0.6-0.4,0.7-0.3
			c0.4,0.2,0.7,0.5,1.1,0.8C29.5,80.7,29.3,80.9,29.2,81.1z"/>
		<path class="st1" d="M38.5,86.1c-0.2-0.1-0.4-0.3-0.6-0.4c-0.1,0-0.2,0-0.4,0c0,0.1,0,0.3,0.1,0.3c0.1,0.2,0.3,0.3,0.5,0.4
			c0.3,0.3,0.4,0.7,0.1,1C38,87.8,37.7,88,37.4,88c-0.3,0-0.7-0.2-1-0.4c-0.3-0.2-0.3-0.4,0-0.7c0.2,0.2,0.4,0.4,0.6,0.5
			c0.2,0.1,0.4,0,0.6,0c-0.1-0.2-0.1-0.4-0.2-0.5c-0.1-0.2-0.4-0.3-0.4-0.4c-0.1-0.3-0.2-0.7,0-0.9c0.1-0.2,0.5-0.4,0.8-0.4
			c0.3,0,0.6,0.2,0.8,0.4c0.1,0.1,0.1,0.3,0.1,0.5C38.6,86.1,38.5,86.1,38.5,86.1z"/>
		<path class="st1" d="M69,85.2c0.4,0.3,0.2,0.6-0.1,0.8c-0.5,0.4-1.4,0.5-1.8,0.2c-0.5-0.3-0.8-1-0.7-1.6c0.1-0.6,0.7-1.1,1.4-1.2
			c0.4,0,0.4,0,0.6,0.5c-0.6,0.1-1.2,0.1-1.3,0.8c0,0.3,0.3,0.8,0.5,0.9C68.3,86.1,68.6,85.6,69,85.2z"/>
		<path class="st1" d="M65,84.8c0.1,0.2,0.1,0.3,0.2,0.5c-0.3,0.1-0.5,0.2-0.8,0.4c0.3,0.7,0.5,1.4,0.8,2.1
			c-0.2,0.1-0.4,0.2-0.7,0.3c-0.2-0.5-0.4-1-0.6-1.5c-0.1-0.5-0.4-0.6-0.9-0.4c-0.1,0-0.1,0-0.2,0.1c-0.1-0.2-0.1-0.3-0.2-0.5
			C63.4,85.4,64.2,85.1,65,84.8z"/>
		<path class="st1" d="M54.2,90c-0.1,0.1-0.3,0.2-0.4,0.4c0,0,0,0-0.1,0c-1.5,0.1-1.5,0.1-1.6-1.4c0-0.4,0-0.8-0.1-1.3
			c0.2,0,0.4,0,0.7-0.1c0,0.6,0.1,1.1,0.1,1.6c0,0.5,0.1,0.8,0.7,0.7c0.2,0,0.3,0,0.5,0C54.2,89.9,54.2,90,54.2,90z"/>
		<path class="st1" d="M61.6,89c-0.3-0.9-0.5-1.8-0.8-2.6c0.2-0.1,0.4-0.2,0.7-0.3c0.3,0.9,0.5,1.7,0.8,2.7
			C62,88.8,61.9,88.9,61.6,89z"/>
		<path class="st1" d="M49.5,88.6c0.1,0.2,0.1,0.5,0.2,0.7c-0.2,0-0.4,0-0.7,0c0.1-0.3,0.2-0.5,0.3-0.7
			C49.4,88.6,49.5,88.6,49.5,88.6z"/>
		<path class="st1" d="M64.4,51.8c0.1,0.2,0.1,0.3,0.2,0.3c1.2,1.5,0.2,3.6-1.4,4.1c-0.8,0.3-1.6,0.4-2.4,0.5
			c-1.8,0.2-2.1,0.4-2.4,2.2c-0.2,1.4-0.2,2.9-0.3,4.3c0,0.2,0.2,0.5,0.4,0.6c1.8,1,3.6,1.9,5.4,2.8c1,0.5,2.1,1,3.1,1.4
			c0.4,0.2,0.5,0.4,0.4,0.8c-0.2,1.2-0.8,2.2-1.5,3.1c-2.6,3.4-6.1,5.4-10.2,6.2c-7.7,1.4-14.2-1.1-19.8-6.3
			c-0.6-0.6-1.1-1.4-1.5-2.1c-0.3-0.5-0.2-0.9,0.3-1.2c0.4-0.2,0.7-0.5,1-0.7c0.3-0.3,0.7-0.4,0.5-1c-0.1-0.2,0.3-0.6,0.5-0.9
			c0.5-0.4,1-0.7,1.6-1c-0.3-0.6-0.6-1.2-0.8-1.9C37,62,36.8,60.9,37,59.7c0.1-0.4,0-0.7-0.3-1c-1.6-1.8-2.2-4.1-2-6.5
			c0.1-1,0.4-1.9,0.5-2.9c0-0.2,0.1-0.5,0-0.7c-1.8-3.2-2.2-6.7-1.8-10.3c0.3-2.4,1-4.8,2.2-6.9c1.6-2.8,4-4.8,7-5.8
			c4.1-1.4,8.2-1.9,12.4-0.7c1.5,0.4,2.9,1.2,4.3,1.8c0.5,0.2,1,0.4,1.5,0.5c1.4,0.3,2.7,0.7,3.9,1.5c2.2,1.5,3,3.7,2.8,6.3
			c-0.1,1.8-0.7,3.4-2.2,4.5c-0.1,0.1-0.2,0.4-0.1,0.6c0.6,1.4,1.2,2.7,1.8,4.1c0.2,0.3,0.3,0.7,0.4,1.1c0.2,0.9-0.1,1.5-1,1.8
			c-0.1,0-0.1,0-0.2,0.1c-1.1,0.3-1,0.3-0.7,1.3c0.1,0.3-0.2,0.8-0.3,1.2c-0.1,0.2-0.2,0.4-0.1,0.6c0.1,0.6,0,0.9-0.6,1.3
			C64.6,51.7,64.5,51.7,64.4,51.8z M54.8,38.9c1,0,2.1-0.1,2.9-0.8c0.1-0.1,0.4-0.1,0.5-0.1c-0.1,0.2-0.1,0.4-0.3,0.5
			c-0.4,0.3-0.8,0.5-1.3,0.8c0.2,0.2,0.3,0.4,0.4,0.5c4-1.3,6.8-5,6.2-9.3c0-0.2,0.1-0.4,0.2-0.6c0.1,0.2,0.4,0.3,0.4,0.5
			c0.2,1.1,0.1,2.3-0.2,3.4c0,0.2-0.1,0.4,0,0.6c0.4,1.2,0.9,2.4,1.4,3.7c0.5-1.6,0.5-3.1-0.1-4.7c-0.1-0.2,0-0.4,0-0.6
			c0.2,0.1,0.4,0.2,0.5,0.4c0.5,1.1,0.6,2.2,0.4,3.4c0,0.5-0.1,1-0.2,1.5C66,38.1,66,38.1,66,38c1.4-1.8,1.6-6-0.8-8.1
			c-1.4-1.2-3-1.8-4.8-2.1c-0.7-0.1-1.5-0.1-2.2-0.2c-0.1,0-0.3-0.2-0.4-0.3c0.1-0.1,0.2-0.2,0.3-0.3c0,0,0.1,0,0.2-0.1
			c-0.1-0.1-0.2-0.1-0.2-0.2c-1.3-0.5-2.6-1.1-3.9-1.4c-2.9-0.8-5.8-0.5-8.7,0c-3.1,0.6-5.9,2-8,4.5c-3.2,3.9-4,8.4-3.5,13.2
			c0.4,4,2.5,7.2,5.6,9.8c1,0.9,2.1,1.6,3.2,2.4c0.2-0.5,0.4-0.9,0.5-1.2c0.2-0.4,0.3-0.7,0.5-1c-0.1-0.1-0.1-0.1-0.1-0.1
			c-0.3-0.1-0.5-0.2-0.8-0.4c-5.6-2.8-8.2-7.4-8.2-13.6c0-0.2-0.2-0.7,0.3-0.7c0,0,0.2,0.5,0.2,0.7c0,4.3,1.3,8,4.6,10.9
			c1.3,1.1,2.7,1.9,4.2,2.6c0.4-0.6,0.7-1.2,1-1.7c-0.2-0.1-0.3-0.2-0.4-0.2c-4.1-1.9-6.6-5.1-7.6-9.5c-0.6-2.6-0.4-5.2,0.5-7.8
			c0.1-0.2,0.2-0.5,0.5-0.3c0.1,0.1,0,0.4,0,0.5c-0.7,2.1-1,4.2-0.6,6.3c0.6,4,2.4,7.2,5.9,9.4c0.6,0.4,1.3,0.7,2,1.1
			c0,0,0.1-0.1,0.1-0.1c-0.9-0.5-1.3-1.1-1.3-2.1c0-0.1-0.3-0.3-0.4-0.3c-1.2-0.3-1.8-1.2-1.6-2.4c0-0.2-0.1-0.4-0.2-0.6
			c-0.6-0.8-1.4-1.6-1.7-2.5c-1.9-4.5-0.9-8.6,1.8-12.4c0.1-0.1,0.3-0.2,0.5-0.2c0,0.2,0,0.4-0.1,0.5c-0.5,0.8-1,1.6-1.4,2.4
			c-1.3,2.8-1.7,5.8-0.7,8.8c0.4,1.3,1.1,2.4,2.2,3.3c0.3-0.2,0.6-0.4,0.9-0.5c0.3-0.1,0.6-0.2,1-0.4c-0.5-0.1-0.9-0.2-1.2-0.3
			c-1.4-0.4-1.8-1.5-1.2-2.8c0.1-0.2,0.1-0.5,0-0.7c-0.4-1.2-0.5-2.4-0.2-3.7c0.4-2.5,1.5-4.6,3-6.7c0.1-0.2,0.4-0.3,0.6-0.4
			c-0.1,0.2-0.1,0.5-0.2,0.7c-1.4,2.1-2.6,4.2-2.9,6.7C42,37.8,42,38.9,42.5,40c0.5-0.1,0.9-0.2,0.7-0.9c-0.1-0.7,0.2-1.2,0.7-1.7
			c0.1-0.1,0.2-0.4,0.3-0.5c0.1-0.8,0.1-1.6,0.4-2.3c0.4-1,1.1-2,1.7-2.9c0.1-0.1,0.3-0.1,0.5-0.2c0,0.2,0,0.3-0.1,0.5
			c0,0.1-0.2,0.2-0.2,0.3c-0.5,0.9-1.1,1.7-1.5,2.7c-0.3,0.6-0.3,1.3-0.4,2c0.6,0.2,1,0.3,1.5,0.4c0-0.1,0-0.3,0-0.4
			c0-1.4,0.6-2.7,1.4-3.8c0.1-0.1,0.4-0.2,0.5-0.3c0,0.2-0.1,0.4-0.1,0.5c0,0.1-0.1,0.1-0.1,0.2c-0.8,1.2-1.4,2.5-1.1,4
			c0.1,0.3,0.3,0.7,0.4,1c0,0,0.1,0,0.1-0.1c-0.1-0.3-0.1-0.5-0.2-0.8c-0.2-1.4,0.4-2.4,1.7-2.5c0.5,0,0.8-0.2,1-0.6
			c0.5-1,1-2.1,1.5-3.1c0.1-0.1,0.3-0.2,0.4-0.3c0,0.2,0.1,0.4,0.1,0.5c0,0.1-0.1,0.2-0.1,0.3c-0.5,1.1-1,2.2-1.6,3.4
			c0.2,0.1,0.4,0.3,0.7,0.6c0.4-0.6,1-1.1,1.3-1.8c0.6-1.2,1.1-2.5,1.6-3.8c0.1-0.2,0.2-0.3,0.4-0.4c0,0.2,0.2,0.4,0.1,0.6
			c-0.5,1.7-1.1,3.3-2.1,4.7c-0.1,0.1-0.1,0.2-0.2,0.3c0.3,0,0.6,0,0.8,0.1c0.5,0.2,0.7,0,1-0.4c1.4-1.6,2.3-3.4,2.9-5.3
			c0.1-0.2,0.3-0.3,0.4-0.5c0,0.2,0.2,0.4,0.1,0.6c-0.5,2-1.4,3.9-2.9,5.5c-0.5,0.5-0.5,0.9,0,1.5c0.9-0.7,1.8-1.5,2.7-2.2
			c0.1-0.1,0.4-0.1,0.6-0.2c-0.1,0.2-0.1,0.5-0.2,0.6c-0.9,0.8-1.9,1.5-2.9,2.3c-0.3,0.2-0.5,0.4-0.4,0.9c0.8-0.4,1.6-0.7,2.4-1.1
			c1.9-1.1,3.3-2.6,4.3-4.5c0.1-0.2,0.4-0.4,0.5-0.4c0.4,0.1,0.1,0.4,0,0.7c-0.1,0.2-0.2,0.4-0.3,0.6c-1.3,2.3-3.2,3.8-5.5,4.9
			C55.1,38.6,55,38.8,54.8,38.9c-0.8,0-1.5,0.3-1.8,0.9C53.7,39.5,54.3,39.2,54.8,38.9z M63.4,35.4c-0.1,0-0.1,0-0.2,0
			c-1.2,2.5-3.2,4.1-5.7,5c-0.1,0-0.2,0.2-0.3,0.3c-0.1,0.4-0.3,0.9-0.4,1.4c0.9,0.6,1.3,1.5,0.8,2.5c-0.6,1.4-1.9,1.1-3.2,0.9
			c0.4,0.3,0.7,0.6,1,0.9c0.6,0.7,0.8,1.5,0.4,2.2c-0.4,0.7-1.2,1.1-2.1,0.9c-0.4-0.1-0.5,0.1-0.6,0.4c-0.3,0.9-1,1.3-2,1.3
			c-0.1,0-0.3,0-0.4,0c0,0.1-0.1,0.1-0.1,0.1c-0.1,2-0.7,3.8-1.7,5.6c-0.1,0.1-0.1,0.4,0,0.5c0.9,1.9,1,3.8,0.2,5.8
			c-0.1,0.2-0.1,0.4,0,0.6c0.9,1.7,1.2,3.5,1,5.4c-0.1,0.6,0.7,1.8,1.2,1.9c2,0.6,4,1.3,6.1,1.8c2.1,0.5,4.2,0.5,6.3,0.2
			c0.2,0,0.4-0.1,0.6-0.2c0.9-1,1.8-2.2,2.2-3.5c0.1-0.4,0-0.6-0.4-0.8c-2.3-1.1-4.7-2.2-7-3.4c-0.4-0.2-0.7-0.4-1.2-0.7
			c0,0.4,0.1,0.7,0,0.9c0,0.2-0.2,0.3-0.3,0.5c-0.1-0.1-0.3-0.3-0.3-0.4c-0.1-0.7-0.1-1.5-0.1-2.2c0-1.8,0.1-3.7,0.6-5.4
			c0.3-0.9,0.8-1.4,1.8-1.5c0.5-0.1,0.9-0.1,1.4-0.2c0.7-0.1,1.4-0.2,2.1-0.5c1.3-0.6,1.6-1.9,0.8-3.1c-0.5-0.7-0.4-1,0.3-1.4
			c0.1-0.1,0.3-0.4,0.3-0.4c-0.1-0.2-0.3-0.3-0.5-0.3c-0.4,0-0.9,0-1.3,0c-0.2,0-0.4-0.1-0.6-0.2c0.5-0.2,1-0.3,1.5-0.5
			c0.5-0.2,0.9-0.4,1.3-0.7C65,48.8,65,48.7,65,48.7c-0.5-1.1-0.3-1.7,0.9-2c0.2-0.1,0.4-0.1,0.6-0.2c0.4-0.2,0.7-0.6,0.5-1.1
			c-0.1-0.2-0.2-0.5-0.3-0.7c-0.6-1.4-1.2-2.7-1.8-4.1c-0.3-0.7-0.7-1.5-0.4-2.3c0-0.1,0-0.3,0-0.4C64.1,37.1,63.7,36.2,63.4,35.4z
			 M36.6,67.9c-0.4,0.3-0.7,0.5-1,0.8c-1,0.8-1,0.8-0.2,1.8c1.9,2.4,4.3,4,7,5.3c0.8,0.4,1.7,0.8,2.5,1.1c-0.5-0.8-1-1.7-1.5-2.5
			c-0.1-0.2-0.3-0.3-0.4-0.4c-1.8-1.1-3.4-2.5-4.7-4.2C37.7,69.3,37.2,68.6,36.6,67.9z M43.2,62.5c0.1,0,0.1,0,0.2,0.1
			c0-0.1,0-0.1,0-0.2c0.3-2.3,1.6-4,2.9-5.8c0.8-1.1,1.5-2.3,2.1-3.5c0.8-1.7,1.2-3.6,0.8-5.5c0-0.1-0.1-0.3-0.1-0.4
			c-0.2,0.2-0.3,0.3-0.4,0.5c-0.3,0.7-0.5,1.4-0.9,2.1c-1,2.2-2.1,4.3-3.1,6.5c-0.8,1.7-1.4,3.5-1.6,5.5
			C43.2,62.1,43.2,62.3,43.2,62.5z M51,45.9c-0.3,0.4-0.7,0.7-0.9,1c-0.1,0.1-0.2,0.2-0.2,0.3c0.1,0.8,0.2,1.6,0.4,2.4
			c0.2,0.7,0.7,1,1.2,0.9c0.6-0.1,1.1-0.5,1.2-1.1c0.1-0.3,0.1-0.6,0.1-0.9c0.2,0.1,0.3,0.1,0.4,0.2c0.9,0.4,1.6,0.2,2-0.4
			c0.3-0.5,0.2-1.2-0.6-1.8c-0.6-0.5-1.3-0.9-1.9-1.3c-0.1-0.1-0.3-0.1-0.4-0.1c-0.4,0.1-0.8,0.2-1.2,0.4c0.3,0.5,0.6,0.9,0.8,1.4
			c0.1,0.1,0,0.3,0,0.4c-0.1-0.1-0.3-0.1-0.3-0.2C51.4,46.7,51.2,46.3,51,45.9z M51.6,41.7c0.5,0.3,0.9,0.6,1.3,0.7
			c0.4,0.1,0.9-0.1,1.4-0.1c0,0.1,0,0.2,0,0.2c-0.2,0.1-0.4,0.1-0.5,0.2c-0.2,0.1-0.4,0.1-0.6,0.1c0,0.5,0,1-0.1,1.6
			c0.9,0.2,1.9,0.4,2.8,0.5c0.6,0.1,1-0.2,1.2-0.8c0.2-0.5-0.1-1.1-0.6-1.5c-0.3-0.2-0.6-0.3-0.9-0.5c0.2-0.2,0.3-0.3,0.5-0.5
			c0.5-0.6,0.6-1.3,0.2-1.8c-0.4-0.5-1-0.7-1.7-0.2C53.6,40.3,52.6,41,51.6,41.7z M48,41.3c0-0.3,0-0.5-0.1-0.7
			c-0.6-0.8-1.2-1.7-1.8-2.5c-0.5-0.6-1.2-0.7-1.7-0.3c-0.6,0.4-0.7,1.1-0.4,1.8c0.1,0.2,0.2,0.4,0.3,0.6c-0.4,0.1-0.7,0.1-1,0.2
			c-0.6,0.2-1,0.7-1,1.3c0,0.6,0.4,1,0.9,1.1c0.8,0.2,1.6,0.3,2.3,0.4c0.3-0.6,0.5-1.1,0.7-1.6c-0.1-0.1-0.3-0.2-0.5-0.3
			c-0.1-0.1-0.1-0.2-0.2-0.4c0.1,0,0.3-0.1,0.4,0C46.5,41.5,47.2,41.4,48,41.3z M47.2,44.9c-0.4-0.3-0.8-0.5-1.2-0.8
			c-0.1-0.1-0.2-0.1-0.3-0.1c-0.8,0.3-1.6,0.5-2.4,0.8c-0.6,0.3-0.8,0.8-0.7,1.3c0.1,0.6,0.6,1,1.2,1c0.3,0,0.7,0,1,0
			c-0.1,0.2-0.1,0.5-0.2,0.7c-0.1,0.7,0.2,1.3,0.8,1.6c0.6,0.3,1.1,0.1,1.6-0.6c0.4-0.6,0.7-1.2,1-1.9c0-0.1,0-0.2,0-0.3
			c-0.2-0.4-0.5-0.8-0.8-1.3c-0.2,0.2-0.5,0.4-0.8,0.7c-0.1,0.1-0.3,0.1-0.4,0.1c0-0.1,0-0.3,0.1-0.4C46.5,45.5,46.9,45.2,47.2,44.9
			z M50.3,38.5c0.1,0,0.1,0,0.2,0c0,0.2,0,0.4,0,0.6c0,0.2,0,0.4,0.1,0.5c0.3,0.4,0.7,0.7,1.1,1.1c0.5-0.9,1.1-1.8,1.6-2.7
			c0.3-0.6,0.1-1.1-0.3-1.5c-0.5-0.3-1.1-0.3-1.6,0c-0.3,0.2-0.5,0.4-0.7,0.6c-0.1-0.2-0.2-0.5-0.4-0.7c-0.4-0.6-1-0.9-1.6-0.8
			c-0.6,0.2-0.9,0.7-0.8,1.4c0.1,0.9,0.4,1.8,0.6,2.7c0.4-0.2,0.7-0.4,1-0.4c0.4-0.1,0.8-0.2,0.8-0.7C50.1,38.7,50.2,38.6,50.3,38.5
			z M51.3,74.6c0.4,0.7,0.7,1.3,1,1.9c0.1,0.1,0.3,0.2,0.4,0.2c2.9,0.3,5.7,0,8.3-1.4c0.4-0.2,0.7-0.4,1-0.6c0,0,0-0.1-0.1-0.1
			C58.4,75.2,54.9,75.3,51.3,74.6z M51.4,71.7c0,0.6,0.1,1.1,0.1,1.6c-0.1,0.6,0.2,0.7,0.7,0.8c2.5,0.5,4.9,0.4,7.4,0.2
			c0.7-0.1,1.3-0.2,1.9-0.3c0-0.1,0-0.1,0-0.2C58,73.8,54.6,73,51.4,71.7z M43.9,62.4c0.8-1,1.5-1.9,2.2-2.8
			c0.5-0.6,1.1-1.2,1.6-1.9c1.4-1.9,2.2-4,2.3-6.4c0-0.3-0.1-0.5-0.1-0.8c-0.1,0-0.1,0-0.2,0c-0.2,0.5-0.3,1.1-0.5,1.6
			c-0.6,1.9-1.7,3.4-2.8,5c-0.8,1.1-1.5,2.4-2.2,3.6C44.2,61.2,44.1,61.8,43.9,62.4z M36.2,50.3c0.5,3,3.4,6.5,5.9,7.3
			c0.1-0.4,0.2-0.7,0.3-1.1c0.1-0.4,0.1-0.6-0.3-0.8c-1.8-1.2-3.5-2.5-4.9-4.1C36.9,51.2,36.6,50.8,36.2,50.3z M38.1,65.9
			c-0.3,0.2-0.6,0.4-0.9,0.5c-0.5,0.3-0.5,0.6-0.2,1c1.2,1.4,2.4,2.8,3.7,4.2c0.7,0.7,1.6,1.3,2.4,1.9c0.1-0.1,0.1-0.1,0.2-0.2
			c-0.1-0.2-0.2-0.4-0.4-0.6c-1.4-1.1-2.4-2.4-2.7-4.2c0-0.1,0-0.2-0.1-0.3C39.4,67.4,38.8,66.7,38.1,65.9z M42.6,62
			c0.1-0.6,0.2-1.3,0.3-1.9c0.6-2.5,1.7-4.8,2.9-7.1c0.5-1.1,1-2.1,1.5-3.2c-1.3,0.1-1.6,1.2-2.2,2.1c-1,1.6-1.8,3.3-2.3,5.2
			C42.5,58.7,42.3,60.3,42.6,62z M36,51.8c0,3.2,3.2,7.6,5.8,8.1c0-0.4,0.1-0.7,0.1-1.1c0.1-0.4,0-0.6-0.4-0.8c-2-1-3.6-2.6-4.7-4.6
			C36.6,52.9,36.3,52.4,36,51.8z M35.5,52c-0.1,0.1-0.1,0.1-0.1,0.1c-0.2,2.6,0.3,4.9,2.3,6.7c1.2,1,2.7,1.8,4,2.8c0,0,0.1,0,0.2,0
			c0.1-0.9,0.1-1-0.4-1.2c-3.1-1.6-5-4-5.8-7.4C35.6,52.6,35.5,52.3,35.5,52z M44.8,68.4c0.1,0,0.1,0,0.2,0c0-0.1,0.1-0.2,0.1-0.2
			c0-1.8,0.8-3.4,1.8-4.8c0.5-0.8,1-1.5,1.5-2.3c0.4-0.6,0.5-1.3,0.3-2.1c-0.9,1.3-1.7,2.6-2.5,3.9c-0.9,1.5-1.5,3.2-1.4,5
			C44.8,68,44.8,68.2,44.8,68.4z M47,73.7c1.1-2.7,1.8-5.5,1.8-8.6C47.8,66.6,46.6,72,47,73.7z M44.2,67.3c0-0.1,0-0.1,0-0.2
			c0.1-1.5,0.5-2.9,1.3-4.1c0.7-1.2,1.6-2.5,2.3-3.7c0.2-0.3,0.3-0.6,0.4-0.9c0,0-0.1,0-0.1-0.1c-0.8,1-1.7,1.9-2.5,3
			c-0.8,1-1.3,2-1.6,3.3C43.9,65.4,43.9,66.3,44.2,67.3z M38.4,61.2c0.4,2,3.2,4.6,5,5c0-0.2,0-0.4,0-0.6c0.1-0.5-0.1-0.8-0.6-1
			c-0.7-0.3-1.4-0.8-2.1-1.3C39.9,62.6,39.1,61.9,38.4,61.2z M43.5,67.8c0-0.6-0.2-1-0.8-1.2c-2-0.9-3.6-2.3-4.5-4.3
			c-0.2-0.4-0.4-0.7-0.6-1.2C37.8,64.2,39.8,66.3,43.5,67.8z M50.6,71.5c-0.4,1.5-0.9,2.9-1.3,4.4c-0.1,0.5-0.2,1-0.2,1.6
			c0,0.2,0.2,0.3,0.3,0.5c0.1-0.1,0.3-0.2,0.4-0.3c0.4-1,0.7-2,1-3C50.9,73.6,50.9,72.5,50.6,71.5z M49.1,61c-0.7,1-1.4,2-2,2.9
			c-0.5,0.8-0.9,1.6-1.3,2.5c-0.3,0.7-0.4,1.5-0.2,2.3c0.1-0.1,0.1-0.2,0.2-0.3c0.4-1.5,1.1-2.9,2-4.2C48.6,63.4,49,62.3,49.1,61z
			 M47.7,73.9c1.6-1,2.7-6.7,1.6-8.1C49.2,68.7,48.5,71.3,47.7,73.9z M43.4,64.3c0.3-0.5,0.3-0.8-0.3-1.1c-1.4-0.8-2.8-1.7-4.1-2.5
			c-0.1-0.1-0.2-0.1-0.3-0.1C40,62.1,41.5,63.4,43.4,64.3z M45.4,73.2c0.1-0.4,0-0.6-0.3-0.8c-1.6-0.8-2.9-2-3.8-3.6
			c-0.1-0.1-0.2-0.2-0.3-0.4C41,70.4,43,72.5,45.4,73.2z M48.4,77.7c0.3-1.1,0.5-2.2,0.8-3.2c0.3-1,0.7-2.1,0.7-3.2
			c-0.5,1-1,2-1.4,3c-0.3,0.9-0.4,1.9-0.6,2.8C47.8,77.5,48,77.7,48.4,77.7z M49.5,44.5c0.6,0,1.1-0.5,1.1-1.1
			c0-0.6-0.5-1.1-1.1-1.1c-0.6,0-1.1,0.5-1.1,1.2C48.3,44,48.8,44.5,49.5,44.5z M47.9,65.5c-1.4,1.5-2.5,6.8-1.6,8.1
			C46.5,70.7,46.9,68.1,47.9,65.5z M48.2,44.9c-0.2,0.3-0.3,0.7,0,1.2c0.3,0.4,0.7,0.6,1.2,0.5c0.5-0.1,0.8-0.5,0.9-1
			c0-0.2,0.1-0.5-0.3-0.6C49.4,45,48.8,44.9,48.2,44.9z M48.7,41.6c0.7,0.1,1.3,0.2,1.9,0.3c0.3-0.5,0.3-1-0.1-1.4
			c-0.4-0.4-0.9-0.4-1.4-0.1C48.6,40.6,48.5,41.1,48.7,41.6z M42,68.9c0.8,1.3,1.9,2.3,3.4,3c0.2-1.1,0.2-1.1-0.7-1.5
			c-0.3-0.1-0.6-0.3-0.9-0.5C43.1,69.6,42.6,69.2,42,68.9z M50.9,44.6c0.5,0.3,0.9,0.3,1.4-0.2c0.4-0.4,0.4-1,0.1-1.4
			c-0.3-0.4-0.8-0.6-1.2-0.4C51.1,43.3,51,43.9,50.9,44.6z M47.7,74.6c-1.1-0.4-2.2-0.7-3.4-1.1c0.9,1.1,1.8,1.8,3,2.3
			C47.4,75.4,47.5,75,47.7,74.6z M47.9,42.1c-0.4-0.3-0.9-0.3-1.3,0.1c-0.4,0.4-0.5,0.9-0.2,1.4c0.3,0.5,0.8,0.6,1.2,0.5
			C47.7,43.4,47.8,42.8,47.9,42.1z M45.5,70.2c0-0.4,0.4-0.7-0.1-0.9c-1.3-0.6-2.6-1.1-4-1.7C42.6,68.7,43.9,69.6,45.5,70.2z
			 M44.1,74.1c0.3,1.4,2,3,3.2,3c-0.1-0.3-0.1-0.8-0.3-0.9C45.9,75.8,45,75.1,44.1,74.1z M52.5,78.1c1.4-0.2,2.8-0.4,4.1-0.6
			c0,0,0-0.1,0-0.1c-1.4,0-2.7,0-4.1,0C52.5,77.5,52.5,77.7,52.5,78.1z M51,76.5c0,0-0.1,0-0.1,0c-0.2,0.5-0.4,0.9-0.6,1.4
			c0.5,0.2,0.7,0,0.7-0.4C51,77.2,51,76.8,51,76.5z M51.7,76.5c0,0-0.1,0-0.1,0c0,0.4-0.1,0.8-0.1,1.3c0,0.1,0.1,0.2,0.2,0.2
			c0.1-0.1,0.2-0.2,0.2-0.2C51.8,77.3,51.7,76.9,51.7,76.5z M40,67.2c0.1,0,0.1-0.1,0.2-0.1c-0.2-0.6-0.9-0.8-1.4-1.3
			C39.3,66.3,39.6,66.7,40,67.2z"/>
		<path class="st1" d="M58.4,41.3c0.8-0.5,1.6-1.1,2.5-1.5c0.5-0.2,1.1-0.2,1.6-0.2c0.1,0,0.2,0.2,0.3,0.3c-0.1,0.1-0.2,0.2-0.3,0.3
			c-0.1,0.2-0.3,0.3-0.3,0.5c-0.2,0.5-0.3,1-1,1.2c0-0.3,0-0.5,0-0.8c0-0.6-0.2-0.8-0.8-0.5c-0.4,0.2-0.8,0.4-1.2,0.6
			c-0.3,0.1-0.6,0.2-0.9,0.2C58.5,41.4,58.5,41.3,58.4,41.3z"/>
		<path class="st1" d="M63.1,45.2c0,0.3-0.1,0.6,0,0.9c0.1,0.2,0.3,0.4,0.5,0.6c0.1,0,0.3-0.2,0.5-0.3c0.4-0.1,0.7-0.2,1.1-0.3
			c0,0,0,0.1,0,0.1c-0.5,0.3-0.9,0.6-1.4,0.8c-0.6,0.3-1.3-0.3-1.2-1.1c0-0.3,0.2-0.5,0.3-0.7C63,45.2,63.1,45.2,63.1,45.2z"/>
	</g>
</g>
</svg>
