<?xml version="1.0" encoding="utf-8"?>
<!-- Generator: Adobe Illustrator 21.1.0, SVG Export Plug-In . SVG Version: 6.00 Build 0)  -->
<svg version="1.1" id="Guides" xmlns="http://www.w3.org/2000/svg" xmlns:xlink="http://www.w3.org/1999/xlink" x="0px" y="0px"
	 viewBox="0 0 96 96" style="enable-background:new 0 0 96 96;" xml:space="preserve">
<style type="text/css">
	.st0{fill:#403A6D;}
</style>
<g>
	<g>
		<g>
			<path class="st0" d="M93.7,48c0,25.2-20.5,45.6-45.8,45.6c-25.3,0-45.7-20.4-45.7-45.8c0-25.1,20.4-45.4,45.4-45.6
				C73.1,2.1,93.8,22.7,93.7,48z M48,93c25.1,0,45.4-20.6,45.1-45.6C92.8,23,72.7,2.9,47.8,3C23.1,3,2.9,23.3,2.9,48
				C3,72.9,23.2,93.1,48,93z"/>
			<path class="st0" d="M48.1,80.8C30.4,80.8,16,66.4,16,48.6c0-17.8,14.5-32.2,32.2-32.1c17.9,0,32.2,14.4,32.2,32.3
				C80.4,66.6,65.9,80.9,48.1,80.8z M48.2,80.2c17.4,0,31.5-14.2,31.5-31.6c0-17.4-14.2-31.5-31.7-31.5c-17.2,0-31.4,14.3-31.4,31.5
				C16.7,66,30.9,80.2,48.2,80.2z"/>
			<path class="st0" d="M14.9,67.2c0.2-0.1,0.3-0.2,0.4-0.2c0.2,0,0.4,0,0.6,0c-0.1,0.2,0,0.5-0.2,0.6c-0.3,0.3-0.7,0.6-1.1,0.8
				c-0.2,0.1-0.4,0-0.7,0.1c0.1-0.2,0.1-0.4,0.2-0.7c0,0,0.1-0.1,0.2-0.1C10.9,61.5,9.1,55,9.1,48c0-7,1.8-13.5,5.2-19.5
				c0-0.1,0-0.1-0.1-0.1c-0.2-0.2-0.6-0.4-0.3-0.8c0.3-0.4,0.6,0,0.8,0.2c0.3,0.2,0.5,0.3,0.7,0.5c0.2,0.2,0.3,0.5,0.3,0.6
				c-0.1,0.4-0.4,0.2-0.7,0c-0.1,0-0.1-0.1-0.3-0.1c-3.3,5.8-5.1,12-5.2,18.6C9.7,54.5,11.4,61,14.9,67.2z"/>
			<path class="st0" d="M81.2,29.2c-0.4,0-0.9,0-1-0.1c-0.3-0.4,0.2-0.6,0.5-0.8c0.2-0.2,0.5-0.4,0.8-0.5c0.2-0.1,0.4,0,0.7,0
				c-0.1,0.2-0.1,0.4-0.2,0.7c0,0.1-0.1,0.1-0.1,0.1c6.9,13.1,6.9,26.1-0.1,39.1c0.1,0.1,0.3,0.2,0.4,0.4c0.1,0.1,0.1,0.4,0,0.4
				c-0.1,0.1-0.4,0.2-0.5,0.1c-0.4-0.2-0.8-0.5-1.2-0.8c-0.1-0.1-0.2-0.4-0.3-0.6c0.2,0,0.4,0,0.6,0c0.1,0,0.1,0,0.2,0
				C88,55.9,87.9,40.2,81.2,29.2z"/>
			<path class="st0" d="M67.4,13.4c0,1.8-1.5,3.3-3.2,3.3c-1.9,0-3.5-1.6-3.5-3.4c0-1.8,1.5-3.3,3.3-3.2
				C65.9,10.2,67.4,11.6,67.4,13.4z M61.8,13.6c0,1.1,0.9,2.1,2,2.1c1.2,0,2.3-1.2,2.3-2.6c0-1.1-0.9-2-2.1-2
				C62.9,11.1,61.9,12.3,61.8,13.6z"/>
			<path class="st0" d="M73.8,15.6c0.3,0.2,0.6,0.4,0.9,0.6c-1.2,1.7-2.4,3.3-3.5,5c-0.5-0.2-0.8-0.5-0.8-1.1c0-1.5-0.2-2.9-0.4-4.5
				c-0.7,1.1-1.5,2.1-2.3,3.2c-0.3-0.2-0.6-0.4-0.9-0.6c1.2-1.7,2.4-3.4,3.5-5c0.6,0.2,0.8,0.5,0.8,1.1c0,1.5,0.1,2.9,0.2,4.4
				c0.1,0,0.1,0,0.2,0.1C72.3,17.7,73,16.7,73.8,15.6z"/>
			<path class="st0" d="M30.2,15.4c0.4,0.7,0.7,1.4,1.1,2.2c-0.4,0.2-0.7,0.4-1.1,0.5c-0.9-1.8-1.8-3.7-2.8-5.5
				c0.9-0.4,1.8-0.9,2.7-1.2c0.8-0.3,1.6-0.1,2,0.6c0.5,0.7,0.5,1.5,0,2.3c0,0.1-0.1,0.1-0.1,0.2c0.9,1,1.6,1.2,2.5,0.8
				c0.1,0.2,0.2,0.4,0.3,0.6c-0.7,0.7-1.6,0.9-2.4,0.4c-0.4-0.2-0.7-0.5-1-0.7C30.8,14.9,30.8,14.9,30.2,15.4z M28.9,12.8
				c0.3,0.6,0.6,1.2,0.9,1.8c0.4-0.2,0.7-0.3,1-0.5c0.6-0.4,0.7-0.8,0.4-1.3c-0.3-0.5-0.7-0.7-1.3-0.4
				C29.6,12.4,29.3,12.6,28.9,12.8z"/>
			<path class="st0" d="M54.4,13.7c-0.4-0.1-0.8-0.2-1.2-0.3c0.4-2,0.8-4,1.3-6c0.4,0.1,0.8,0.1,1.2,0.2c-0.2,0.8-0.3,1.5-0.5,2.4
				c1,0.2,1.9,0.4,2.9,0.6c0.2-0.8,0.4-1.5,0.5-2.3c0.4,0.1,0.7,0.2,1.2,0.3c-0.4,2-0.8,4-1.3,6c-0.4-0.1-0.8-0.1-1.2-0.2
				c0.2-0.9,0.4-1.8,0.6-2.7c-0.9-0.2-1.8-0.4-2.7-0.6c-0.1,0-0.3,0.2-0.3,0.4C54.7,12.2,54.6,12.9,54.4,13.7z"/>
			<path class="st0" d="M77.8,22.3c-0.3,0.3-0.5,0.5-0.8,0.8c-0.5-0.6-1-1.1-1.5-1.7c-0.4,0.5-0.8,0.9-1.2,1.4
				c0.6,0.5,1.3,1.1,2,1.8c-0.4,0.4-0.6,0.6-0.8,0.7c-1-0.9-1.9-1.8-2.8-2.7c1.4-1.5,2.9-2.9,4.3-4.4c1,0.9,1.9,1.9,2.9,2.8
				c-0.2,0.2-0.4,0.4-0.7,0.7c-0.7-0.7-1.3-1.4-1.9-2.1c-0.4,0.4-0.7,0.7-1.2,1.2C76.6,21.4,77.1,21.8,77.8,22.3z"/>
			<path class="st0" d="M28.1,18.2c0.2,0.3,0.4,0.5,0.6,0.8c-1.1,0.8-2.1,1.6-3.2,2.4c-1.2-1.7-2.4-3.3-3.7-5
				c1.1-0.8,2.1-1.6,3.2-2.4c0.2,0.2,0.3,0.5,0.5,0.8c-0.7,0.6-1.5,1.1-2.2,1.7c0.3,0.4,0.6,0.8,0.9,1.2c0.6-0.4,1.2-0.9,1.8-1.3
				c0.2,0.2,0.3,0.5,0.6,0.7c-0.6,0.5-1.2,0.9-1.8,1.4c0.3,0.5,0.7,0.9,1.1,1.5C26.6,19.3,27.4,18.8,28.1,18.2z"/>
			<path class="st0" d="M45.5,12.3c0,0.3,0.1,0.6,0.1,0.9c-0.7,0.1-1.3,0.2-2,0.3c-0.6,0.1-1.3,0.2-2,0.3c-0.3-2-0.5-4-0.8-6.1
				c1.3-0.2,2.6-0.4,4-0.5c0.1,0.3,0.1,0.6,0.2,0.9c-0.8,0.1-1.5,0.2-2.3,0.3c-0.4,0-0.6,0.2-0.5,0.6c0.2,1-0.1,1,1.1,0.8
				c0.4-0.1,0.8-0.1,1.3-0.2c0,0.3,0.1,0.6,0.1,0.9c-0.6,0.1-1.2,0.2-1.8,0.3c-0.4,0-0.4,0.2-0.4,0.5c0.1,1.4,0.1,1.4,1.5,1.2
				C44.5,12.5,44.9,12.4,45.5,12.3z"/>
			<path class="st0" d="M20.5,23.1c0.5,0.5,1.1,1,1.6,1.5c-0.3,0.3-0.6,0.6-0.9,1c-1.4-1.5-2.8-3-4.2-4.6c0.6-0.5,1.3-1.3,2.1-2
				c0.7-0.5,1.6-0.3,2.3,0.4c0.7,0.7,0.8,1.6,0.3,2.3C21.4,22.1,21,22.5,20.5,23.1z M19.9,22.4c0.4-0.5,1.1-0.8,0.9-1.6
				c-0.1-0.5-0.5-0.8-0.9-0.9c-0.8-0.1-1.1,0.6-1.5,0.9C18.9,21.3,19.4,21.8,19.9,22.4z"/>
			<path class="st0" d="M48.6,11c0,0.7,0,1.5,0,2.2c-0.4,0-0.8,0-1.2,0c0.1-2.1,0.1-4.1,0.2-6.2C48.6,7,49.6,7,50.6,7.2
				C51.5,7.4,52,8.1,52,9.1c0,1-0.6,1.6-1.5,1.8C49.9,11,49.3,11,48.6,11z M48.7,9C48.7,9,48.7,9,48.7,9c0,0.1,0,0.3,0,0.4
				c0,0.7,0,0.7,0.7,0.7c0.1,0,0.2,0,0.2,0c0.7,0,1.1-0.4,1.1-1.1c0-0.8-0.4-1.1-1.5-1.1c-0.9,0-0.5,0.6-0.6,1
				C48.7,8.9,48.7,9,48.7,9z"/>
			<path class="st0" d="M35.6,14c0.7,0,1.3,0.1,2,0c0.5-0.1,0.9-0.4,0.9-1c0-0.5-0.4-0.8-1.1-0.8c-0.4,0-0.8,0-1.3,0
				c-0.9-0.1-1.4-0.6-1.6-1.4c-0.2-0.8,0.1-1.5,1-1.9c0.5-0.2,1.1-0.3,1.7-0.4c0.8,0,0.9,0.1,0.8,0.9c-0.5,0-1,0-1.5,0
				c-0.6,0.1-1,0.5-0.9,0.9c0.1,0.6,0.6,0.6,1.1,0.7c0.5,0,1.1,0,1.6,0.1c0.8,0.2,1.2,0.8,1.3,1.6c0.1,0.7-0.2,1.3-0.8,1.7
				c-0.7,0.5-1.5,0.7-2.4,0.5C35.6,14.9,35.5,14.8,35.6,14z"/>
			<path class="st0" d="M39.6,85.3c0,0.9-0.6,1.5-1.5,1.5c-0.9,0-1.6-0.6-1.6-1.5c0-0.9,0.7-1.5,1.5-1.5
				C38.9,83.8,39.6,84.5,39.6,85.3z M37.2,85.4c0,0.5,0.3,0.8,0.8,0.8c0.4,0,0.8-0.5,0.9-1.1c0-0.5-0.3-0.8-0.8-0.8
				C37.6,84.4,37.2,84.9,37.2,85.4z"/>
			<path class="st0" d="M69.8,81.4c-0.2-0.3-0.4-0.6-0.7-1c-0.3,0.2-0.6,0.4-1,0.6c0.2,0.4,0.4,0.7,0.6,1c-0.2,0.1-0.4,0.2-0.6,0.4
				c-0.5-0.8-1-1.6-1.5-2.4c0.2-0.1,0.4-0.3,0.6-0.4c0.2,0.3,0.4,0.5,0.6,0.8c0.3-0.2,0.6-0.4,0.9-0.6c-0.2-0.3-0.3-0.6-0.5-0.9
				c0.2-0.1,0.3-0.2,0.6-0.4c0.5,0.8,1,1.6,1.6,2.4C70.2,81.2,70,81.3,69.8,81.4z"/>
			<path class="st0" d="M42.9,86.4c0.1-0.5,0.2-0.9,0.2-1.5c0.2,0,0.4,0,0.6,0.1c-0.1,1-0.3,1.8-0.4,2.8c-1.1-0.1-0.9-1.3-1.6-1.7
				c-0.1,0.5-0.2,0.9-0.3,1.4c-0.2,0-0.4,0-0.6-0.1c0.1-0.9,0.3-1.8,0.4-2.8C42.3,84.8,42.2,85.9,42.9,86.4z"/>
			<path class="st0" d="M76.4,75.9c-0.7,0.6-1.6-0.1-2.5,0.2c0.5,0.3,0.9,0.6,1.3,1c-0.3,0.3-0.4,0.4-0.5,0.5c-0.7-0.7-1.4-1.3-2-2
				c0.3-0.5,0.7-0.3,1.1-0.3c0.4,0,0.8,0.1,1.3,0.2c-0.5-0.5-0.8-0.8-1.1-1.2c0.1-0.1,0.2-0.3,0.3-0.4C75,74.5,75.7,75.2,76.4,75.9z
				"/>
			<path class="st0" d="M57.3,86.9c-0.9,0.6-1.3-0.4-2-0.7c0,0.2-0.1,0.4,0,0.6c0.2,0.5,0,0.7-0.6,0.6c-0.2-0.9-0.4-1.8-0.5-2.7
				c0.2-0.1,0.4-0.1,0.7-0.2c0.1,0.4,0.2,0.7,0.2,1c0.6-0.3,0.5-1.4,1.6-1.3c-0.2,0.4-0.4,0.7-0.6,1.1c-0.1,0.2,0,0.4,0.1,0.6
				C56.4,86.2,56.9,86.5,57.3,86.9z"/>
			<path class="st0" d="M31.5,84.4c-0.4-0.1-0.7-0.2-0.6-0.7c0-0.4-0.8-0.8-1.2-0.6c-0.4,0.2-0.4,0.2-0.8-0.1
				c0.7-0.6,1.4-1.2,2.1-1.8c0.3-0.2,0.7,0,0.7,0.3C31.7,82.6,31.6,83.5,31.5,84.4z M31.1,82.2c0,0-0.1,0-0.1,0
				c-0.2,0.2-0.4,0.3-0.6,0.6c0.3,0.1,0.4,0.2,0.6,0.3C31,82.7,31,82.4,31.1,82.2z"/>
			<path class="st0" d="M27.9,82c-0.1,0.2-0.2,0.3-0.3,0.4c-0.5-0.4-1.1-0.7-1.6-1c0.5-0.8,1-1.6,1.5-2.4c0.6,0.4,1.1,0.7,1.6,1
				c-0.1,0.2-0.2,0.3-0.3,0.5c-0.3-0.2-0.7-0.4-1-0.6c-0.5,0.7,0.3,0.6,0.5,1c-0.1,0.1-0.1,0.2-0.2,0.4c-0.3-0.2-0.5-0.3-0.8-0.5
				c-0.1,0.2-0.2,0.3-0.4,0.5C27.2,81.5,27.5,81.7,27.9,82z"/>
			<path class="st0" d="M70,77.7c0.5-0.4,1-0.8,1.5-1.2c0.1,0.1,0.2,0.3,0.4,0.4c-0.3,0.3-0.6,0.5-0.9,0.7c0.1,0.5,0.4,0.4,0.6,0.1
				c0.3-0.2,0.5-0.4,0.7,0.1c-0.2,0.2-0.4,0.4-0.7,0.6c0.1,0.2,0.2,0.3,0.4,0.5c0.3-0.2,0.6-0.5,1-0.7c0.1,0.1,0.2,0.2,0.3,0.4
				c-0.5,0.4-1,0.8-1.5,1.2C71.2,79.2,70.6,78.5,70,77.7z"/>
			<path class="st0" d="M44.9,87.9c0.4-0.8,0.8-1.7,1.2-2.5c0.2-0.3,0.7-0.3,0.8,0.1c0.3,0.8,0.6,1.7,1,2.6
				c-0.4,0.1-0.7,0.1-0.8-0.3c-0.1-0.4-1.1-0.4-1.3,0C45.5,88.1,45.3,88.1,44.9,87.9z M46.5,86.2c0,0-0.1,0-0.1,0
				c-0.1,0.2-0.2,0.5-0.3,0.8c0.3,0,0.5,0,0.7,0C46.7,86.7,46.6,86.4,46.5,86.2z"/>
			<path class="st0" d="M20.6,76.9c-0.4-0.2-0.6-0.4-0.4-0.8c0.2-0.3-0.5-1-0.9-0.9c-0.2,0-0.5-0.1-0.8-0.1c0-0.1,0-0.2,0-0.2
				c0.9-0.3,1.8-0.7,2.6-1c0.3-0.1,0.6,0.3,0.5,0.6C21.4,75.2,21,76.1,20.6,76.9z M21,74.6c0,0-0.1-0.1-0.1-0.1
				c-0.2,0.1-0.5,0.2-0.8,0.4c0.2,0.2,0.4,0.3,0.6,0.5C20.7,75.1,20.8,74.9,21,74.6z"/>
			<path class="st0" d="M25.9,78.6c-0.3-0.3-0.4-0.5-0.6-0.7c-0.1-0.1-0.2,0-0.4,0c0,0.1,0,0.3,0,0.4c0.1,0.2,0.3,0.4,0.3,0.6
				c0,0.3,0.1,0.8-0.1,1c-0.2,0.2-0.7,0.3-1,0.2c-0.3-0.1-0.6-0.5-0.9-0.8c-0.2-0.3-0.1-0.5,0.2-0.6c0.2,0.2,0.3,0.5,0.5,0.7
				c0.1,0.1,0.3,0.1,0.5,0.1c0-0.2,0-0.3,0-0.5c0-0.1-0.1-0.1-0.1-0.2c-0.3-0.4-0.5-0.8-0.1-1.2c0.2-0.2,0.6-0.4,0.7-0.4
				c0.4,0.2,0.7,0.5,1.1,0.8C26.1,78.2,26,78.4,25.9,78.6z"/>
			<path class="st0" d="M35.3,83.6c-0.2-0.1-0.4-0.3-0.6-0.4c-0.1,0-0.2,0-0.4,0c0,0.1,0,0.3,0.1,0.3c0.2,0.2,0.4,0.3,0.5,0.5
				c0.3,0.3,0.4,0.7,0.1,1c-0.2,0.2-0.6,0.4-0.8,0.4c-0.3,0-0.7-0.2-1-0.4c-0.3-0.2-0.3-0.5,0-0.7c0.2,0.2,0.4,0.4,0.6,0.5
				c0.2,0.1,0.4,0,0.6,0c-0.1-0.2-0.1-0.4-0.2-0.5c-0.1-0.2-0.4-0.3-0.4-0.4c-0.1-0.3-0.2-0.7,0-0.9c0.1-0.2,0.5-0.4,0.8-0.4
				c0.3,0,0.6,0.2,0.9,0.4c0.1,0.1,0.1,0.3,0.1,0.5C35.4,83.6,35.3,83.6,35.3,83.6z"/>
			<path class="st0" d="M66.3,82.7c0.4,0.3,0.2,0.6-0.1,0.9c-0.5,0.4-1.4,0.6-1.9,0.2c-0.6-0.3-0.8-1-0.7-1.6
				c0.1-0.6,0.7-1.1,1.4-1.2c0.4,0,0.4,0,0.6,0.5c-0.6,0.1-1.2,0.1-1.3,0.9c0,0.3,0.3,0.8,0.6,1C65.5,83.6,65.9,83.1,66.3,82.7z"/>
			<path class="st0" d="M62.2,82.4c0.1,0.2,0.1,0.3,0.2,0.5c-0.3,0.1-0.5,0.2-0.8,0.4c0.3,0.7,0.5,1.4,0.8,2.1
				c-0.2,0.1-0.4,0.2-0.7,0.3c-0.2-0.5-0.4-1-0.6-1.5c-0.2-0.5-0.4-0.6-0.9-0.4c-0.1,0-0.1,0-0.2,0.1c-0.1-0.2-0.1-0.3-0.2-0.5
				C60.6,83,61.4,82.7,62.2,82.4z"/>
			<path class="st0" d="M51.3,87.6c-0.1,0.1-0.3,0.2-0.4,0.4c0,0,0,0-0.1,0c-1.5,0.2-1.5,0.2-1.6-1.4c0-0.4,0-0.8-0.1-1.3
				c0.2,0,0.4,0,0.7-0.1c0,0.6,0.1,1.1,0.1,1.6c0,0.5,0.2,0.8,0.7,0.7c0.2,0,0.3,0,0.5,0C51.2,87.5,51.3,87.6,51.3,87.6z"/>
			<path class="st0" d="M58.8,86.6c-0.3-0.9-0.5-1.8-0.8-2.7c0.2-0.1,0.4-0.2,0.7-0.3c0.3,0.9,0.5,1.8,0.8,2.7
				C59.2,86.4,59,86.5,58.8,86.6z"/>
			<path class="st0" d="M46.5,86.2c0.1,0.2,0.1,0.5,0.2,0.8c-0.2,0-0.4,0-0.7,0c0.1-0.3,0.2-0.5,0.3-0.8
				C46.4,86.2,46.5,86.2,46.5,86.2z"/>
			<path class="st0" d="M61.6,48.8c0.1,0.2,0.1,0.3,0.2,0.3c1.2,1.6,0.2,3.6-1.4,4.1c-0.8,0.3-1.6,0.4-2.5,0.5
				c-1.8,0.2-2.1,0.4-2.4,2.2c-0.2,1.5-0.3,2.9-0.3,4.4c0,0.2,0.2,0.5,0.4,0.6c1.8,1,3.6,1.9,5.4,2.8c1,0.5,2.1,1,3.2,1.5
				c0.4,0.2,0.5,0.4,0.4,0.9c-0.2,1.2-0.8,2.2-1.5,3.2c-2.6,3.5-6.2,5.5-10.4,6.3c-7.8,1.5-14.4-1.1-20.1-6.4
				c-0.6-0.6-1.1-1.4-1.6-2.1c-0.3-0.5-0.2-0.9,0.3-1.2c0.4-0.2,0.7-0.5,1-0.7c0.3-0.3,0.7-0.4,0.6-1c-0.1-0.2,0.3-0.7,0.5-0.9
				c0.5-0.4,1-0.7,1.6-1c-0.3-0.6-0.6-1.2-0.9-1.9c-0.4-1.1-0.6-2.3-0.4-3.5c0.1-0.4,0-0.7-0.3-1c-1.7-1.9-2.2-4.1-2-6.6
				c0.1-1,0.4-2,0.5-2.9c0-0.2,0.1-0.5,0-0.7c-1.8-3.3-2.3-6.8-1.8-10.5c0.3-2.5,1-4.8,2.2-7c1.7-2.9,4.1-4.8,7.1-5.9
				c4.1-1.5,8.3-1.9,12.6-0.7c1.5,0.4,2.9,1.2,4.4,1.8c0.5,0.2,1,0.4,1.5,0.5c1.4,0.3,2.8,0.7,4,1.5c2.3,1.5,3,3.8,2.9,6.4
				c-0.1,1.8-0.8,3.4-2.2,4.6c-0.1,0.1-0.2,0.5-0.1,0.6c0.6,1.4,1.2,2.8,1.8,4.2c0.2,0.4,0.3,0.7,0.4,1.1c0.2,0.9-0.1,1.6-1,1.9
				c-0.1,0-0.1,0-0.2,0.1c-1.1,0.3-1,0.3-0.7,1.4c0.1,0.3-0.2,0.8-0.3,1.2c-0.1,0.2-0.2,0.4-0.1,0.6c0.1,0.7,0,1-0.6,1.3
				C61.8,48.7,61.7,48.8,61.6,48.8z M51.9,35.7c1.1,0,2.1-0.1,3-0.8c0.1-0.1,0.4-0.1,0.5-0.1c-0.1,0.2-0.1,0.4-0.3,0.5
				c-0.4,0.3-0.9,0.5-1.3,0.8c0.2,0.2,0.3,0.4,0.4,0.5c4-1.3,6.9-5,6.3-9.4c0-0.2,0.1-0.4,0.2-0.6c0.1,0.2,0.4,0.3,0.4,0.5
				c0.2,1.2,0.1,2.3-0.2,3.5c0,0.2-0.1,0.4,0,0.6c0.4,1.2,0.9,2.4,1.4,3.7c0.5-1.7,0.6-3.2-0.1-4.7c-0.1-0.2,0-0.4,0-0.6
				c0.2,0.1,0.4,0.2,0.5,0.4c0.5,1.1,0.6,2.3,0.5,3.4c0,0.5-0.1,1-0.2,1.6c0.1-0.1,0.2-0.1,0.2-0.2c1.4-1.8,1.6-6.1-0.8-8.2
				c-1.4-1.3-3.1-1.8-4.9-2.1c-0.7-0.1-1.5-0.1-2.2-0.2c-0.2,0-0.3-0.2-0.4-0.3c0.1-0.1,0.2-0.2,0.3-0.3c0,0,0.1,0,0.2-0.1
				c-0.1-0.1-0.2-0.1-0.2-0.2c-1.3-0.5-2.6-1.1-4-1.5c-2.9-0.8-5.9-0.6-8.8,0c-3.2,0.6-6,2-8.1,4.5c-3.2,3.9-4.1,8.6-3.6,13.5
				c0.4,4.1,2.6,7.3,5.6,10c1,0.9,2.1,1.6,3.2,2.5c0.2-0.5,0.4-0.9,0.5-1.2c0.2-0.4,0.3-0.7,0.5-1c-0.1-0.1-0.1-0.1-0.1-0.1
				c-0.3-0.1-0.5-0.3-0.8-0.4c-5.7-2.8-8.4-7.5-8.3-13.8c0-0.3-0.2-0.7,0.3-0.7c0,0,0.2,0.5,0.2,0.7c0,4.4,1.3,8.1,4.7,11.1
				c1.3,1.1,2.7,2,4.3,2.6c0.4-0.6,0.7-1.2,1-1.8c-0.2-0.1-0.3-0.2-0.4-0.2c-4.2-1.9-6.7-5.2-7.8-9.7c-0.6-2.7-0.4-5.3,0.5-7.9
				c0.1-0.2,0.2-0.6,0.5-0.3c0.1,0.1,0,0.4,0,0.5c-0.7,2.1-1,4.2-0.6,6.4c0.6,4,2.5,7.3,6,9.5c0.6,0.4,1.3,0.7,2,1.1
				c0,0,0.1-0.1,0.1-0.1c-0.9-0.5-1.3-1.1-1.3-2.1c0-0.1-0.3-0.3-0.4-0.3c-1.2-0.3-1.8-1.3-1.6-2.4c0-0.2-0.1-0.4-0.2-0.6
				c-0.6-0.8-1.4-1.6-1.8-2.5c-1.9-4.6-0.9-8.7,1.8-12.6c0.1-0.1,0.3-0.2,0.5-0.2c0,0.2,0,0.4-0.1,0.5c-0.5,0.8-1,1.6-1.4,2.4
				c-1.4,2.9-1.7,5.9-0.7,8.9c0.4,1.3,1.2,2.4,2.3,3.3c0.3-0.2,0.6-0.4,0.9-0.5c0.3-0.1,0.6-0.2,1-0.4c-0.5-0.1-0.9-0.2-1.3-0.3
				c-1.4-0.4-1.9-1.5-1.2-2.8c0.1-0.2,0.1-0.5,0-0.7c-0.4-1.2-0.5-2.5-0.2-3.8c0.4-2.5,1.6-4.7,3-6.8c0.1-0.2,0.4-0.3,0.6-0.4
				c-0.1,0.2-0.1,0.5-0.2,0.7c-1.4,2.1-2.6,4.3-3,6.8c-0.2,1.1-0.1,2.2,0.3,3.3c0.6-0.1,0.9-0.2,0.7-0.9c-0.1-0.7,0.2-1.3,0.7-1.7
				c0.1-0.1,0.2-0.4,0.3-0.6c0.1-0.8,0.1-1.6,0.4-2.3c0.4-1,1.1-2,1.7-3c0.1-0.1,0.3-0.1,0.5-0.2c0,0.2,0,0.3-0.1,0.5
				c0,0.1-0.2,0.2-0.2,0.3c-0.5,0.9-1.1,1.8-1.5,2.7c-0.3,0.6-0.3,1.4-0.4,2c0.6,0.2,1.1,0.3,1.5,0.4c0-0.1,0-0.3,0-0.4
				c0-1.5,0.6-2.7,1.4-3.9c0.1-0.1,0.4-0.2,0.5-0.3c0,0.2-0.1,0.4-0.1,0.6c0,0.1-0.1,0.1-0.1,0.2c-0.8,1.2-1.4,2.5-1.2,4
				c0.1,0.3,0.3,0.7,0.4,1c0,0,0.1,0,0.1-0.1c-0.1-0.3-0.1-0.5-0.2-0.8c-0.2-1.4,0.4-2.5,1.7-2.5c0.5,0,0.8-0.2,1-0.6
				c0.5-1.1,1-2.1,1.5-3.2c0.1-0.1,0.3-0.2,0.4-0.4c0,0.2,0.1,0.4,0.1,0.5c0,0.1-0.1,0.2-0.1,0.3c-0.5,1.1-1.1,2.3-1.6,3.5
				c0.2,0.1,0.4,0.3,0.7,0.6c0.5-0.6,1-1.1,1.3-1.8c0.6-1.3,1.1-2.6,1.6-3.9c0.1-0.2,0.2-0.3,0.4-0.4c0,0.2,0.2,0.4,0.1,0.6
				c-0.5,1.7-1.2,3.3-2.2,4.8c-0.1,0.1-0.1,0.2-0.2,0.4c0.3,0,0.6,0,0.8,0.1c0.5,0.2,0.8,0,1.1-0.4c1.4-1.6,2.3-3.4,2.9-5.4
				c0.1-0.2,0.3-0.3,0.4-0.5c0.1,0.2,0.2,0.4,0.1,0.6c-0.5,2.1-1.5,4-2.9,5.5c-0.5,0.5-0.5,0.9,0,1.6c0.9-0.8,1.8-1.5,2.8-2.3
				c0.2-0.1,0.4-0.2,0.6-0.2c-0.1,0.2-0.1,0.5-0.2,0.6c-1,0.8-1.9,1.6-2.9,2.3c-0.3,0.2-0.5,0.4-0.4,0.9c0.8-0.4,1.6-0.7,2.4-1.2
				c1.9-1.1,3.4-2.6,4.4-4.6c0.1-0.2,0.4-0.4,0.5-0.4c0.4,0.1,0.1,0.4,0,0.7c-0.1,0.2-0.2,0.4-0.3,0.6c-1.3,2.3-3.2,3.9-5.6,5
				C52.2,35.4,52.1,35.6,51.9,35.7c-0.8,0-1.6,0.3-1.8,0.9C50.7,36.3,51.3,36,51.9,35.7z M60.6,32.1c-0.1,0-0.1,0-0.2,0
				c-1.2,2.5-3.3,4.1-5.8,5.1c-0.1,0-0.2,0.2-0.3,0.3C54.2,38,54.1,38.5,54,39c0.9,0.6,1.3,1.5,0.8,2.6c-0.6,1.4-2,1.1-3.2,0.9
				c0.4,0.3,0.7,0.6,1,0.9c0.7,0.7,0.8,1.5,0.4,2.3c-0.4,0.7-1.2,1.1-2.1,0.9c-0.4-0.1-0.5,0.1-0.6,0.4c-0.3,0.9-1.1,1.4-2.1,1.3
				c-0.1,0-0.3,0-0.4,0c0,0.1-0.1,0.1-0.1,0.1c-0.1,2-0.7,3.9-1.7,5.7c-0.1,0.1-0.1,0.4,0,0.5c1,1.9,1,3.9,0.2,5.8
				c-0.1,0.2-0.1,0.4,0,0.6c0.9,1.7,1.3,3.5,1,5.4c-0.1,0.6,0.7,1.8,1.2,2c2,0.6,4.1,1.3,6.2,1.8c2.1,0.5,4.3,0.6,6.4,0.2
				c0.2,0,0.4-0.1,0.6-0.2c1-1.1,1.8-2.2,2.2-3.6c0.1-0.5,0-0.6-0.4-0.8c-2.4-1.1-4.7-2.3-7.1-3.4c-0.4-0.2-0.7-0.4-1.2-0.7
				c0,0.4,0.1,0.7,0,1c0,0.2-0.2,0.3-0.3,0.5c-0.1-0.1-0.3-0.3-0.3-0.4c-0.1-0.7-0.1-1.5-0.1-2.2c0-1.9,0.1-3.7,0.6-5.5
				c0.3-0.9,0.8-1.4,1.8-1.5c0.5-0.1,1-0.1,1.4-0.2c0.7-0.1,1.5-0.2,2.1-0.6c1.3-0.6,1.6-1.9,0.8-3.1c-0.5-0.7-0.4-1,0.3-1.4
				c0.1-0.1,0.3-0.4,0.3-0.5c-0.1-0.2-0.3-0.3-0.5-0.4c-0.4,0-0.9,0-1.3,0c-0.2,0-0.4-0.1-0.6-0.2c0.5-0.2,1-0.3,1.5-0.5
				c0.5-0.2,0.9-0.5,1.3-0.7c-0.1-0.2-0.1-0.2-0.1-0.3c-0.6-1.1-0.3-1.7,0.9-2c0.2-0.1,0.4-0.1,0.6-0.2c0.4-0.2,0.7-0.6,0.5-1.1
				c-0.1-0.2-0.2-0.5-0.3-0.7c-0.6-1.4-1.3-2.8-1.9-4.1c-0.3-0.8-0.7-1.5-0.4-2.4c0-0.1,0-0.3,0-0.4C61.3,33.9,60.9,33,60.6,32.1z
				 M33.4,65.2c-0.4,0.3-0.7,0.5-1,0.8c-1,0.8-1,0.8-0.2,1.8c1.9,2.4,4.4,4.1,7.1,5.4c0.9,0.4,1.8,0.8,2.6,1.1
				c-0.5-0.8-1-1.7-1.5-2.5c-0.1-0.2-0.3-0.3-0.4-0.4c-1.8-1.1-3.4-2.6-4.8-4.2C34.5,66.6,34,65.9,33.4,65.2z M40.1,59.7
				c0.1,0,0.1,0,0.2,0.1c0-0.1,0-0.1,0-0.2c0.3-2.3,1.7-4.1,2.9-5.9c0.8-1.1,1.5-2.3,2.1-3.5c0.9-1.7,1.3-3.6,0.9-5.6
				c0-0.1-0.1-0.3-0.1-0.4c-0.2,0.2-0.3,0.3-0.4,0.5c-0.3,0.7-0.6,1.5-0.9,2.2c-1,2.2-2.1,4.4-3.2,6.6c-0.8,1.8-1.5,3.6-1.6,5.5
				C40.1,59.3,40.1,59.5,40.1,59.7z M48,42.8c-0.4,0.4-0.7,0.7-1,1.1c-0.1,0.1-0.2,0.2-0.2,0.3c0.1,0.8,0.2,1.6,0.4,2.4
				c0.2,0.7,0.7,1,1.2,0.9c0.6-0.1,1.1-0.5,1.3-1.2c0.1-0.3,0.1-0.6,0.1-0.9c0.2,0.1,0.3,0.1,0.4,0.2c0.9,0.4,1.6,0.3,2-0.4
				c0.4-0.6,0.2-1.2-0.6-1.8c-0.6-0.5-1.3-0.9-1.9-1.4C49.7,42,49.6,42,49.5,42c-0.4,0.1-0.8,0.2-1.2,0.4c0.3,0.5,0.6,1,0.8,1.4
				c0.1,0.1,0,0.3,0,0.4c-0.1-0.1-0.3-0.1-0.3-0.2C48.5,43.7,48.2,43.2,48,42.8z M48.6,38.6c0.5,0.3,0.9,0.7,1.3,0.8
				c0.4,0.1,0.9-0.1,1.4-0.1c0,0.1,0,0.2,0,0.2c-0.2,0.1-0.4,0.1-0.5,0.2c-0.2,0.1-0.4,0.1-0.6,0.1c0,0.6,0,1-0.1,1.6
				c0.9,0.2,1.9,0.4,2.8,0.5c0.6,0.1,1-0.2,1.2-0.8c0.2-0.6-0.1-1.2-0.6-1.5c-0.3-0.2-0.6-0.3-0.9-0.5c0.2-0.2,0.3-0.3,0.5-0.5
				c0.5-0.6,0.6-1.3,0.2-1.9c-0.4-0.5-1-0.7-1.8-0.2C50.6,37.1,49.6,37.9,48.6,38.6z M45,38.2c0-0.3,0-0.5-0.1-0.7
				c-0.6-0.9-1.2-1.7-1.9-2.5c-0.5-0.6-1.2-0.7-1.7-0.3c-0.6,0.4-0.7,1.1-0.4,1.8c0.1,0.2,0.2,0.4,0.3,0.6c-0.4,0.1-0.7,0.1-1,0.2
				c-0.6,0.2-1,0.7-1,1.3c0,0.6,0.4,1,0.9,1.2c0.8,0.2,1.6,0.3,2.4,0.4c0.3-0.6,0.5-1.1,0.7-1.6c-0.1-0.1-0.3-0.2-0.5-0.3
				c-0.1-0.1-0.1-0.2-0.2-0.4c0.1,0,0.3-0.1,0.4,0C43.4,38.3,44.1,38.2,45,38.2z M44.1,41.9c-0.4-0.3-0.8-0.5-1.2-0.8
				c-0.1-0.1-0.2-0.1-0.3-0.1c-0.8,0.3-1.7,0.5-2.4,0.8c-0.6,0.3-0.8,0.8-0.7,1.3c0.1,0.6,0.6,1,1.2,1.1c0.3,0,0.7,0,1.1,0
				c-0.1,0.2-0.1,0.5-0.2,0.7c-0.1,0.7,0.2,1.3,0.8,1.6c0.6,0.3,1.2,0.1,1.6-0.6c0.4-0.6,0.7-1.2,1-1.9c0-0.1,0-0.2,0-0.3
				c-0.2-0.4-0.5-0.9-0.8-1.3c-0.3,0.2-0.5,0.5-0.8,0.7c-0.1,0.1-0.3,0.1-0.4,0.1c0-0.1,0-0.3,0.1-0.4
				C43.4,42.5,43.8,42.2,44.1,41.9z M47.3,35.3c0.1,0,0.1,0,0.2,0c0,0.2,0,0.4,0,0.6c0,0.2,0,0.4,0.1,0.5c0.3,0.4,0.7,0.7,1.1,1.1
				c0.5-0.9,1.2-1.8,1.6-2.7c0.3-0.6,0.1-1.1-0.3-1.5c-0.5-0.4-1.1-0.4-1.7,0c-0.3,0.2-0.5,0.4-0.7,0.7c-0.1-0.2-0.2-0.5-0.4-0.7
				c-0.4-0.6-1-0.9-1.6-0.8c-0.6,0.2-0.9,0.7-0.8,1.5c0.1,0.9,0.4,1.8,0.6,2.7c0.4-0.2,0.7-0.4,1-0.4c0.5-0.1,0.8-0.2,0.8-0.7
				C47.1,35.5,47.2,35.4,47.3,35.3z M48.3,71.9c0.4,0.7,0.7,1.3,1,1.9c0.1,0.1,0.3,0.2,0.4,0.2c2.9,0.3,5.8,0,8.4-1.4
				c0.4-0.2,0.7-0.4,1.1-0.7c0,0,0-0.1-0.1-0.1C55.6,72.6,52,72.7,48.3,71.9z M48.4,69c0,0.6,0.1,1.1,0.1,1.6
				c-0.1,0.6,0.2,0.7,0.7,0.8c2.5,0.5,5,0.5,7.5,0.2c0.7-0.1,1.3-0.2,2-0.3c0-0.1,0-0.1,0-0.2C55.1,71.1,51.7,70.3,48.4,69z
				 M40.8,59.6c0.8-1,1.5-2,2.2-2.9c0.5-0.7,1.1-1.3,1.6-1.9c1.5-1.9,2.3-4.1,2.4-6.5c0-0.3-0.1-0.6-0.1-0.8c-0.1,0-0.1,0-0.2,0
				c-0.2,0.5-0.3,1.1-0.5,1.6c-0.6,1.9-1.7,3.5-2.8,5.1c-0.8,1.2-1.5,2.4-2.2,3.6C41.1,58.3,41,58.9,40.8,59.6z M33,47.3
				c0.6,3.1,3.5,6.6,6,7.4c0.1-0.4,0.2-0.7,0.3-1.1c0.2-0.4,0.1-0.6-0.3-0.8c-1.8-1.2-3.5-2.5-5-4.2C33.7,48.2,33.4,47.8,33,47.3z
				 M34.9,63.1c-0.3,0.2-0.6,0.4-0.9,0.5c-0.5,0.3-0.5,0.6-0.2,1c1.3,1.4,2.5,2.9,3.8,4.2c0.7,0.7,1.6,1.3,2.4,1.9
				c0.1-0.1,0.1-0.1,0.2-0.2c-0.1-0.2-0.2-0.4-0.4-0.6c-1.4-1.1-2.5-2.5-2.7-4.3c0-0.1,0-0.2-0.1-0.3C36.2,64.7,35.6,63.9,34.9,63.1
				z M39.5,59.2c0.1-0.6,0.2-1.3,0.3-1.9c0.6-2.6,1.7-4.9,2.9-7.2c0.5-1.1,1.1-2.2,1.6-3.2C43,47,42.7,48,42.1,48.9
				c-1,1.7-1.9,3.4-2.3,5.3C39.4,55.8,39.2,57.5,39.5,59.2z M32.8,48.8c0,3.2,3.3,7.7,5.9,8.2c0-0.4,0.1-0.8,0.2-1.1
				c0.1-0.4,0-0.6-0.4-0.8c-2.1-1-3.7-2.6-4.8-4.6C33.4,50,33.1,49.4,32.8,48.8z M32.2,49c-0.1,0.1-0.1,0.1-0.1,0.1
				c-0.2,2.6,0.3,5,2.4,6.8c1.2,1.1,2.7,1.9,4.1,2.8c0,0,0.1,0,0.2,0c0.1-0.9,0.1-1-0.4-1.2c-3.2-1.6-5.1-4.1-5.9-7.5
				C32.3,49.7,32.3,49.4,32.2,49z M41.7,65.7c0.1,0,0.1,0,0.2,0c0-0.1,0.1-0.2,0.1-0.2c0-1.9,0.8-3.4,1.9-4.9
				c0.5-0.8,1.1-1.5,1.5-2.4c0.4-0.6,0.5-1.4,0.3-2.2c-0.9,1.4-1.8,2.6-2.6,3.9c-1,1.5-1.5,3.2-1.4,5.1
				C41.7,65.3,41.7,65.5,41.7,65.7z M43.9,71.1c1.1-2.8,1.8-5.6,1.8-8.8C44.7,63.9,43.6,69.4,43.9,71.1z M41.1,64.5
				c0-0.1,0-0.1,0-0.2c0.1-1.5,0.5-2.9,1.3-4.2c0.8-1.3,1.6-2.5,2.4-3.7c0.2-0.3,0.3-0.6,0.4-0.9c0,0-0.1,0-0.1-0.1
				c-0.9,1-1.7,2-2.6,3c-0.8,1-1.4,2.1-1.6,3.3C40.8,62.7,40.8,63.6,41.1,64.5z M35.2,58.4c0.4,2,3.3,4.7,5.1,5c0-0.2,0-0.4,0-0.6
				c0.1-0.5-0.1-0.8-0.6-1c-0.7-0.4-1.5-0.8-2.1-1.3C36.7,59.8,35.9,59,35.2,58.4z M40.4,65.1c0-0.6-0.2-1-0.8-1.3
				c-2-0.9-3.6-2.3-4.6-4.4c-0.2-0.4-0.4-0.7-0.6-1.2C34.6,61.4,36.6,63.6,40.4,65.1z M47.5,68.8c-0.4,1.5-0.9,3-1.3,4.4
				c-0.1,0.5-0.2,1.1-0.2,1.6c0,0.2,0.2,0.3,0.3,0.5c0.1-0.1,0.3-0.2,0.4-0.3c0.4-1,0.8-2,1-3C47.9,70.9,47.9,69.8,47.5,68.8z
				 M46.1,58.2c-0.7,1.1-1.4,2-2,3c-0.5,0.8-0.9,1.6-1.3,2.5c-0.3,0.7-0.4,1.5-0.2,2.4c0.1-0.2,0.1-0.2,0.2-0.3
				c0.4-1.6,1.1-3,2.1-4.2C45.5,60.6,46,59.5,46.1,58.2z M44.6,71.3c1.6-1,2.7-6.8,1.6-8.2C46.2,66,45.5,68.6,44.6,71.3z M40.3,61.5
				c0.3-0.5,0.3-0.8-0.3-1.1c-1.4-0.8-2.8-1.7-4.2-2.5c-0.1-0.1-0.2-0.1-0.3-0.1C36.8,59.3,38.3,60.6,40.3,61.5z M42.3,70.5
				c0.1-0.4,0-0.6-0.4-0.8c-1.6-0.8-2.9-2-3.9-3.6c-0.1-0.1-0.2-0.2-0.3-0.4C37.8,67.7,39.9,69.9,42.3,70.5z M45.3,75.1
				c0.3-1.1,0.5-2.2,0.8-3.3c0.3-1.1,0.8-2.1,0.7-3.2c-0.5,1-1,2-1.4,3.1c-0.3,0.9-0.4,1.9-0.6,2.8C44.7,74.9,45,75.1,45.3,75.1z
				 M46.4,41.4c0.6,0,1.1-0.5,1.1-1.2c0-0.6-0.5-1.1-1.2-1.1c-0.6,0-1.2,0.5-1.1,1.2C45.3,40.9,45.8,41.4,46.4,41.4z M44.9,62.7
				c-1.4,1.5-2.5,6.9-1.6,8.2C43.4,68.1,43.9,65.3,44.9,62.7z M45.1,41.8c-0.2,0.3-0.3,0.7,0,1.2c0.3,0.4,0.7,0.6,1.2,0.5
				c0.5-0.1,0.8-0.5,0.9-1c0-0.2,0.1-0.5-0.3-0.6C46.3,41.9,45.8,41.8,45.1,41.8z M45.7,38.4c0.7,0.1,1.3,0.2,1.9,0.3
				c0.3-0.5,0.3-1-0.1-1.4c-0.4-0.4-0.9-0.4-1.4-0.1C45.6,37.4,45.5,37.9,45.7,38.4z M38.8,66.2c0.9,1.3,2,2.4,3.4,3.1
				c0.2-1.1,0.2-1.1-0.7-1.5c-0.3-0.1-0.6-0.3-0.9-0.5C40,66.9,39.4,66.5,38.8,66.2z M47.9,41.4c0.5,0.3,1,0.3,1.4-0.2
				c0.4-0.4,0.4-1,0.1-1.4c-0.3-0.4-0.8-0.6-1.2-0.4C48.1,40.2,48,40.8,47.9,41.4z M44.6,72c-1.1-0.4-2.2-0.7-3.4-1.1
				c0.9,1.1,1.8,1.9,3.1,2.3C44.4,72.8,44.5,72.4,44.6,72z M44.9,39c-0.4-0.3-0.9-0.3-1.3,0.1c-0.4,0.4-0.5,1-0.2,1.4
				c0.3,0.5,0.8,0.6,1.2,0.5C44.7,40.3,44.8,39.7,44.9,39z M42.4,67.5c0-0.4,0.4-0.7-0.1-0.9c-1.3-0.6-2.7-1.1-4.1-1.8
				C39.4,66,40.8,66.9,42.4,67.5z M41,71.5c0.3,1.4,2,3,3.3,3.1c-0.1-0.3-0.1-0.8-0.3-0.9C42.8,73.2,41.9,72.5,41,71.5z M49.6,75.5
				c1.4-0.2,2.8-0.4,4.2-0.6c0,0,0-0.1,0-0.1c-1.4,0-2.8,0-4.2,0C49.5,74.9,49.5,75.1,49.6,75.5z M48,73.9c0,0-0.1,0-0.1,0
				c-0.2,0.5-0.4,1-0.6,1.4c0.5,0.2,0.7,0,0.7-0.4C48,74.6,48,74.3,48,73.9z M48.7,73.9c-0.1,0-0.1,0-0.2,0c0,0.4-0.1,0.8-0.1,1.3
				c0,0.1,0.1,0.2,0.2,0.3c0.1-0.1,0.2-0.2,0.2-0.2C48.8,74.8,48.8,74.3,48.7,73.9z M36.9,64.4c0.1,0,0.1-0.1,0.2-0.1
				c-0.2-0.7-0.9-0.8-1.4-1.3C36.1,63.5,36.5,64,36.9,64.4z"/>
			<path class="st0" d="M55.6,38.1c0.8-0.5,1.6-1.1,2.5-1.6c0.5-0.2,1.1-0.2,1.6-0.2c0.1,0,0.2,0.2,0.3,0.3
				c-0.1,0.1-0.2,0.2-0.3,0.3c-0.1,0.2-0.3,0.3-0.3,0.5c-0.2,0.5-0.3,1-1,1.3c0-0.3,0-0.5,0-0.8c0-0.6-0.2-0.8-0.8-0.5
				c-0.4,0.2-0.8,0.4-1.2,0.6c-0.3,0.1-0.6,0.2-0.9,0.2C55.6,38.2,55.6,38.2,55.6,38.1z"/>
			<path class="st0" d="M60.3,42.1c0,0.3-0.1,0.6,0,0.9c0.1,0.2,0.3,0.4,0.5,0.6c0.1,0,0.3-0.2,0.5-0.3c0.4-0.1,0.8-0.2,1.1-0.3
				c0,0.1,0,0.1,0,0.2c-0.5,0.3-1,0.6-1.5,0.8c-0.7,0.3-1.3-0.3-1.2-1.1c0-0.3,0.2-0.5,0.3-0.8C60.2,42.1,60.3,42.1,60.3,42.1z"/>
		</g>
	</g>
</g>
</svg>
