<?xml version="1.0" encoding="utf-8"?>
<!-- Generator: Adobe Illustrator 21.1.0, SVG Export Plug-In . SVG Version: 6.00 Build 0)  -->
<svg version="1.1" id="Guides" xmlns="http://www.w3.org/2000/svg" xmlns:xlink="http://www.w3.org/1999/xlink" x="0px" y="0px"
	 viewBox="0 0 150 125" style="enable-background:new 0 0 150 125;" xml:space="preserve">
<style type="text/css">
	.st0{fill:#7F0099;}
</style>
<g>
	<g>
		<g>
			<g>
				<g>
					<path class="st0" d="M39.4,115c-2.4,0.2-3.7-0.7-5.6-1.8c-1.2-0.7-2.7-1.1-3.9-1.8c-2.9-1.7-5.5-3.9-7.6-6.4
						c-4.9-5.7-7.6-12.8-8.4-20.2c-1.8-16.5,5.2-31.4,8.9-47.1c1.9-8.3,2.5-17-0.1-25.2c-0.3,0.3-0.6,0.6-0.9,0.9c0,0,0,0,0,0
						c0.5,0.2,0.9-0.3,0.9-0.7c0,0,0-0.1,0-0.1c-0.5,0.1-0.9,0.3-1.4,0.4c3.2,7.2,7.3,13.9,10.8,20.9c0.2,0.5,1,0.5,1.3,0
						c5.2-10.3,11.6-20.1,18.1-29.6c-0.4,0.1-0.8,0.1-1.2,0.2c2.6,2.2,4.3,6.2,5.9,9.2c2.1,4,4,8.1,5.7,12.3
						c3,7.8,5.1,16.1,5.9,24.4C69.1,66,66,82.2,58,96.1c-2.2,3.8-4.7,7.3-7.6,10.6c-3,3.4-6.6,7.5-11.3,8.4
						c-0.9,0.2-0.5,1.6,0.4,1.4c3.9-0.7,6.8-3.4,9.5-6.1c2.8-2.8,5.3-5.9,7.5-9.2c4.6-6.7,7.9-14.2,10.1-22
						c4.6-16.9,3.2-34.9-2.5-51.3c-1.6-4.7-3.6-9.2-5.9-13.6c-1.3-2.4-2.6-4.8-4-7.1c-0.9-1.4-1.7-2.8-2.9-3.9
						C50.8,2.9,50.3,3,50,3.4C43.5,13,37.2,22.7,32,33c0.4,0,0.9,0,1.3,0c-3.5-7-7.6-13.7-10.8-20.9c-0.3-0.7-1.3-0.3-1.4,0.4
						c0,0,0,0.1,0,0.1c0.3-0.2,0.6-0.5,0.9-0.7c0,0,0,0,0,0c-0.5-0.2-1.1,0.4-0.9,0.9c5.7,17.4-3.8,34.5-7.4,51.3
						c-3.1,14.5-2.6,30.6,7.7,42.2c2.4,2.7,5.2,5,8.3,6.7c1.4,0.8,2.9,1.3,4.2,2.2c1.7,1.1,3.5,1.4,5.5,1.3
						C40.3,116.4,40.3,114.9,39.4,115z"/>
				</g>
			</g>
			<g>
				<g>
					<path class="st0" d="M73.9,117.5c-11.1,3.5-24.2,5.5-34-2.3c-0.1,0.4-0.2,0.8-0.3,1.3c4.4-0.8,6.6-4.5,10.5-6.2
						c4-1.8,8-3.5,11.9-5.7c8.3-4.8,15-11.2,22.3-17.2c7.4-6.1,15.8-10,25.5-10.6c9-0.6,18.1,1.5,26.2,5.3c0.1-0.5,0.3-0.9,0.4-1.4
						c-5.1-0.3-10.5,0.8-15.2,2.9c-5.9,2.6-10.4,7-14.6,11.8c-4.4,5.1-8.6,10-14.3,13.7C86.6,112.8,80.3,115.4,73.9,117.5
						c-0.9,0.3-0.5,1.7,0.4,1.4c12-3.9,22.3-9.8,30.5-19.4c4.2-4.9,8.3-10,14.1-13.3c5.2-3,12-4.5,17.4-4.2c0.7,0,1-1.1,0.4-1.4
						c-12-5.7-26.3-7.6-39-3.1c-6.5,2.3-11.9,6.3-17,10.8c-6.1,5.3-12.1,10.5-19.1,14.6c-3.8,2.2-7.8,4.2-11.9,5.8
						c-3.9,1.6-6.1,5.4-10.5,6.2c-0.5,0.1-0.8,0.9-0.3,1.3c10.3,8.1,23.8,6.4,35.5,2.7C75.2,118.7,74.9,117.2,73.9,117.5z"/>
				</g>
			</g>
			<g>
				<g>
					<path class="st0" d="M135,81.7c6,2.9,9.9,9,9.9,15.7c0,0.5,0.5,0.9,0.9,0.7c4.9-1.8,4.8-8.3,2.7-12.3c-2.7-5.1-8.6-7.2-14-5.6
						C133.7,80.5,134.1,82,135,81.7c4.2-1.2,8.7-0.1,11.3,3.4c2.3,3,3.8,9.8-0.9,11.5c0.3,0.2,0.6,0.5,0.9,0.7
						c-0.1-7.2-4.2-13.8-10.7-17C134.9,80,134.1,81.2,135,81.7L135,81.7z"/>
				</g>
			</g>
			<g>
				<g>
					<path class="st0" d="M100.1,77.9c5.6-1,7-7,8-11.7c1.4-6.7,5.5-11.9,12.3-13.7c0.6-0.2,0.7-1.1,0.2-1.4
						c-9.3-5.4-22.6-5.5-28.3,5.2c-5.2,9.8-1.3,24.5-11.2,31.7c-0.8,0.6,0,1.9,0.8,1.3c8.2-6.1,7.5-16.9,9.5-25.9
						c1.3-6,4.4-11.3,10.4-13.5c6.1-2.2,12.6-0.6,18,2.5c0.1-0.5,0.1-0.9,0.2-1.4c-4.9,1.3-9.2,4.5-11.5,9.1
						c-2.6,5.1-1.5,15-8.8,16.3C98.8,76.6,99.2,78.1,100.1,77.9L100.1,77.9z"/>
				</g>
			</g>
			<g>
				<g>
					<path class="st0" d="M67.3,40.9c7-6.1,15.6-10.6,25-11.2c8.7-0.5,17.5,2.3,23.7,8.5c0.1-0.4,0.2-0.8,0.3-1.3
						C104,38.8,93.5,48.1,90.3,60.1c-0.3,0.9,1.2,1.3,1.4,0.4c3.1-11.6,13.2-20.4,25-22.1c0.6-0.1,0.7-0.9,0.3-1.3
						c-6.5-6.5-15.7-9.5-24.7-8.9c-9.8,0.6-18.7,5.3-26.1,11.6C65.5,40.5,66.6,41.6,67.3,40.9L67.3,40.9z"/>
				</g>
			</g>
			<g>
				<g>
					<path class="st0" d="M112.3,21.5c-1.1-3.8-3.3-7.4-6.9-9.3c-4.2-2.1-9.2-1.3-13.3,0.4c-7.8,3.4-13.3,11-14.3,19.4
						c0,0.3,0.3,0.7,0.6,0.7c0.9,0.2,0.9,0.2,1.6-0.3c1.5-1.1,2.8-2.5,4.3-3.5c3-2,6.3-3.6,9.9-4.1c6.9-1,14.5,2.2,16.9,9.1
						c0.2,0.6,1.3,0.8,1.4,0C113,29.7,113.3,25.6,112.3,21.5c-0.2-0.9-1.7-0.5-1.4,0.4c0.9,3.9,0.7,7.7,0.2,11.6c0.5,0,1,0,1.4,0
						c-2.2-6.1-8.1-9.8-14.4-10.3c-3.6-0.3-7.1,0.6-10.3,2c-1.9,0.8-3.6,1.9-5.3,3.1c-0.8,0.6-3.1,3.1-3.8,3
						c0.2,0.2,0.4,0.5,0.6,0.7c0.9-7.3,5.4-13.8,11.9-17.3c3.6-1.9,8.2-3.1,12.3-1.8c4,1.3,6.4,5,7.5,8.9
						C111.1,22.8,112.6,22.5,112.3,21.5z"/>
				</g>
			</g>
			<g>
				<g>
					<path class="st0" d="M77.8,33c4.7-12.1-1.7-25.5-14-29.7C63,3,62.5,4,63,4.5c4.3,4.5-1,9.9-4.4,12.9c-0.7,0.6,0.3,1.7,1.1,1.1
						c4.1-3.5,9.4-9.8,4.4-15c-0.2,0.4-0.5,0.8-0.7,1.3c11.6,3.9,17.3,16.5,13,27.8C76,33.5,77.4,33.9,77.8,33L77.8,33z"/>
				</g>
			</g>
			<g>
				<g>
					<path class="st0" d="M32,33.8c3.7,7.4,6.6,15.7,6.2,24.1c-0.4,8.4-4.4,15.9-7.3,23.6c-2.5,6.6-4.5,13.7-3.1,20.8
						c1.1,5.5,4.3,10.5,9.4,13.1c0.9,0.4,1.6-0.9,0.8-1.3c-6-3-9-9.7-9.1-16.2c-0.2-8.1,3.4-15.6,6.3-22.9c2.8-7,5.1-14.1,4.5-21.7
						C39,46.2,36.4,39.4,33.3,33C32.8,32.2,31.5,32.9,32,33.8L32,33.8z"/>
				</g>
			</g>
			<g>
				<g>
					<path class="st0" d="M22.5,12.4C22.3,12,22.1,11.5,22,11c-0.5,0.2-0.9,0.4-1.4,0.6c0.2,0.4,0.4,0.9,0.6,1.3
						c0.2,0.4,0.7,0.5,1,0.3c0.4-0.2,0.4-0.7,0.3-1c-0.2-0.4-0.4-0.9-0.6-1.3c-0.3-0.8-1.7-0.2-1.4,0.6c0.2,0.5,0.4,0.9,0.5,1.4
						C21.3,13.8,22.8,13.4,22.5,12.4L22.5,12.4z"/>
				</g>
			</g>
			<g>
				<g>
					<path class="st0" d="M37.1,114.2c-1.2-0.3-2.4-0.6-3.5-1c-0.9-0.3-1.3,1.1-0.4,1.4c1.1,0.4,2.3,0.7,3.5,1
						C37.6,115.8,38,114.4,37.1,114.2L37.1,114.2z"/>
				</g>
			</g>
			<g>
				<g>
					<path class="st0" d="M22,11.9c-7.6-2.4-15.4-1.2-21.2,4.5c0.4,0.1,0.8,0.2,1.3,0.3c-0.7-3.1-1-6.7,1.1-9.4
						c1.6-2.1,4.4-3.2,7-3.1c2.7,0,5.2,1.3,7.2,3.1c1.2,1.1,3.8,3.6,3.7,5.3c-0.1,1,1.4,1,1.5,0c0.2-2.3-3-5.5-4.7-6.9
						c-2.4-2-5.5-3.2-8.7-3C6.3,3.1,3.6,4.3,1.9,6.6c-2.3,3.1-2.1,7-1.3,10.6c0.1,0.6,0.9,0.7,1.3,0.3c5.4-5.4,12.7-6.4,19.8-4.2
						C22.5,13.7,22.9,12.2,22,11.9z"/>
				</g>
			</g>
		</g>
	</g>
</g>
</svg>
