<?xml version="1.0" encoding="utf-8"?>
<!-- Generator: Adobe Illustrator 21.1.0, SVG Export Plug-In . SVG Version: 6.00 Build 0)  -->
<svg version="1.1" id="Guides" xmlns="http://www.w3.org/2000/svg" xmlns:xlink="http://www.w3.org/1999/xlink" x="0px" y="0px"
	 viewBox="0 0 300 305" style="enable-background:new 0 0 300 305;" xml:space="preserve">
<style type="text/css">
	.st0{fill:#333333;}
</style>
<g>
	<g>
		<g>
			<g>
				<g>
					<path class="st0" d="M212.7,209.6c7.4,8.2,18.6,17.1,29.9,10.4c2-1.2,3.8-2.9,4.9-5c1.2-2.4,1.2-4.8,1.3-7.4
						c0.1-2.1,0.5-4,2.6-4.9c1.3-0.6,2.8-0.5,4.2-0.9c2-0.5,3.6-1.7,4-3.9c0.5-3.2-2.3-6.8,1.3-9c2.5-1.5,5.4-1.8,7.7-3.5
						c4.8-3.4,7.4-9,9.5-14.3c1.1-2.8,2.6-6,2-9.1c-0.7-3.4-4.7-5.1-3.8-8.9c0.6-2.6,2.2-5,1.4-7.8c-0.7-2.4-3-3.7-5.3-4.4
						c-3.1-1-7.7-0.5-9.8-3.5c-1.2-1.7-1.1-4-1.9-5.9c-0.5-1.2-1.3-2.3-2.2-3.3c-5.8-5.9-14.6-4.4-21.8-2.9c0.3,0.6,0.5,1.2,0.8,1.8
						c6.7-4.6,12.7-11.8,12.5-20.4c-0.1-7.3-4.9-14.6-12.3-16c-2.2-0.4-4.9-0.3-6.6-2c-1.9-1.9-1.4-4.8-1.6-7.2
						c-0.4-3.6-2.4-6.2-6.1-6.7c-1.9-0.3-3.7,0-5.6,0.3c-3.5,0.6-6.2,0.4-9.4-1.2c-3.4-1.6-6.8-3.6-10.7-2.6c-3.8,1-4.5,4-4.8,7.5
						c-0.1,1.1-0.9,5.4-3.3,3.5c-0.7-0.5-0.9-1.8-1.1-2.6c-0.4-1.9-0.5-3.9-1.3-5.8c-3.1-7.2-12-9.9-18.5-5.4
						c-1.4,1-2.6,2.2-3.5,3.7c-1.1,1.7-1.3,3.8-2.3,5.5c-3.2,5.5-7.4-5.3-8.9-7.4c-4.6-6.2-12.5-9.9-19.9-6.5
						c-3.7,1.7-6.6,5-7.2,9.1c-0.6,4.3,1.3,8.3,4.1,11.5c3.3,3.8,7.6,6.6,12,8.9c4.4,2.4,8.7,4.7,10.1,9.8c0.4,1.2,2.3,0.7,1.9-0.5
						c-2.1-7.5-9.2-9.6-15.2-13.4c-6.5-4.1-16-13.6-8.4-21.3c7.1-7.1,17.5-2.3,22,5.1c1.6,2.6,2.6,6.4,5.6,7.8
						c2.6,1.2,4.9-0.5,5.9-2.9c0.7-1.6,1-3.3,1.9-4.8c1.3-2.1,3.4-3.7,5.8-4.5c4.4-1.5,9.3,0.4,11.8,4.3c2,3,1.2,6.6,2.9,9.7
						c1.3,2.3,4.1,2.7,5.9,0.8c2.8-3,0.1-8.9,4.9-10.1c4.2-1.1,7.9,2.1,11.6,3.5c4.4,1.7,8.3-0.3,12.7,0c6,0.4,4.5,6,5.4,10.2
						c1,4.3,4.7,5.1,8.5,5.7c4.5,0.7,8,3.4,10,7.6c4.7,9.7-2,19.8-10,25.2c-0.9,0.6-0.4,2.1,0.8,1.8c6.8-1.4,15.8-3.1,20.7,3.3
						c1.8,2.4,1.4,5.5,3.1,7.9c1.2,1.8,3.3,2.6,5.3,3.1c2.6,0.6,5.6,0.6,7.9,2.2c3.5,2.4,0.9,6,0.2,9.1c-0.4,2,0,3.8,1.2,5.4
						c0.9,1.2,2.1,2.2,2.5,3.8c0.6,2.2-0.5,4.7-1.3,6.7c-2,5.3-4.5,11.3-9.3,14.8c-3.3,2.4-9.8,2.5-10.7,7.3
						c-0.4,2.4,1.6,5.5,0.3,7.6c-1.3,2.1-5.2,1.5-7.2,2.5c-4.8,2.4-2.3,8.6-4.1,12.6c-2.5,5.5-9.8,7.5-15.3,6.1
						c-6.9-1.7-11.9-6.7-16.5-11.7C213.3,207.2,211.9,208.6,212.7,209.6L212.7,209.6z"/>
				</g>
			</g>
			<g>
				<g>
					<path class="st0" d="M157.8,96c-2.1,2.8-3.5,6.2-6.6,8c-2.9,1.6-5.9,2.5-8.4,4.7c-4.2,3.7-6.6,9.2-6.2,14.8
						c0.2,2.8,1,5.5,2.3,7.9c0.7,1.2,1.5,2.3,2.4,3.4c1.1,1.2,2.6,2.2,3.4,3.7c1.7,3.2-1.4,7.5-2.1,10.6c-0.7,3.1-0.9,6.3-0.5,9.5
						c1.5,11.6,10.6,20.8,22.2,22.4c2.6,0.4,5.4,0.5,8-0.1c1.2-0.3,2.3-0.7,3.6-0.6c3.2,0.3,3.6,3.6,4.4,6.1c1,3,1.4,6.5,3,9.3
						c1.5,2.5,3.5,3.1,5.9,4.3c2.9,1.5,3.2,4.5,3.4,7.4c0.5,4.7,1.9,9.4,7.4,10c5.3,0.6,10.9-3.5,13.9-7.6c3.7-5,3.7-12.8,2.8-18.7
						c-0.8-5.5-4-10.1-9.9-10.6c-1.4-0.1-2.8,0-4.1-0.5c-2.2-0.7-2.8-2.6-3-4.6c-0.2-2.7,0.1-5.3-1-7.9c-2-4.9-6.9-7.7-10.2-11.4
						c-4.8-5.3-5.8-14.1-6.1-21c-0.2-4.5,0.8-8.3,3-12.2c1.7-3,3.6-6,4.4-9.4c1.2-5.5,0.1-11.6-3.1-16.3
						c-6.6-9.6-21.5-10.5-28.9-1.3c-0.8,1,0.6,2.4,1.4,1.4c7.3-9,21.7-7.2,27,3c2.6,5.1,2.8,11.3,0.4,16.5c-1.2,2.6-2.9,4.9-4.1,7.4
						c-1.4,2.9-2.1,5.9-2.1,9.1c0,2.9,0.4,5.7,0.8,8.5c0.5,3.2,1,6.6,2.1,9.6c1.8,4.8,5.5,7.8,9.2,11.2c1.7,1.6,3.3,3.2,4.3,5.3
						c1.2,2.7,0.7,5.6,1.1,8.4c0.3,1.9,0.9,3.6,2.6,4.8c2.3,1.6,5.1,1,7.7,1.5c7.6,1.5,7.1,11.6,6.8,17.5c-0.2,3.7-1,6.9-3.6,9.7
						c-2.1,2.3-5,4.4-8,5.3c-3.4,1-6.9-0.1-8.1-3.6c-0.7-2.2-0.6-4.5-1-6.7c-0.3-1.9-0.9-3.8-2.3-5.1c-2-1.9-5-2-6.7-4.3
						c-1.8-2.4-2-5.7-2.9-8.5c-0.7-2.2-1.2-5-2.8-6.8c-2.1-2.2-5-1.8-7.6-1.1c-11.4,2.8-23.6-5.2-27-16c-1-3.1-1.4-6.4-1.1-9.7
						c0.3-3.5,1.6-6.3,2.7-9.6c0.9-2.8,0.8-5.3-1.2-7.5c-2.3-2.7-4.7-4.8-5.9-8.3c-2.4-6.9,0.2-14.8,6.3-18.9
						c2.5-1.7,5.7-2.3,8.1-4.2c2.5-2,3.9-5.1,5.8-7.7C160.3,96,158.5,95,157.8,96z"/>
				</g>
			</g>
			<g>
				<g>
					<path class="st0" d="M137.8,123.3c-10-5.8-21.3,0.2-28.9,7c-4.7,4.2-8.9,9-14.1,12.6c-3.1,2.1-7.2,3.5-8.9-0.9
						c-0.9-2.2-1.7-4-3.4-5.7c-1.8-1.7-4-3.1-5.8-4.8c-2.5-2.3-4.1-5.2-5.1-8.4c-0.8-2.6-1.2-5.2-1.7-7.9c-0.7-4-1.3-8.2-0.6-12.2
						c1.2-6.3,5.3-10.2,10.1-14.1c2.1-1.6,4-3.4,5.4-5.6c1.4-2.1,2.2-5.1,4.4-6.6c2.7-1.9,6.6-0.4,9.7-1.8c2.8-1.2,5-3.4,7.7-4.9
						c6.5-3.5,14.5-3.3,20.9,0.2c1.1,0.6,2.1-1.1,1-1.7c-5.2-2.9-11.3-3.8-17.1-2.4c-2.8,0.6-5.4,1.8-7.8,3.4c-1.3,0.9-2.6,2-4,2.8
						c-2,1.2-3.8,1.4-6.1,1.4c-2.4,0-4.6,0.3-6.4,2.1c-2,2-2.8,4.7-4.4,6.9c-3.6,5.2-9.8,7.5-13,13.2c-3.3,5.9-3,12.3-2,18.7
						c0.9,5.9,2,12.3,6.1,16.9c1.8,2,4,3.4,6,5.1c1.2,1,2.3,2.1,3.1,3.4c0.8,1.4,0.9,3.1,1.8,4.5c3.3,4.8,9.5,1.2,12.8-1.4
						c6.2-4.8,11.1-11.1,17.7-15.5c6.2-4.2,14.6-6.6,21.4-2.7C137.9,125.7,138.9,124,137.8,123.3L137.8,123.3z"/>
				</g>
			</g>
			<g>
				<g>
					<path class="st0" d="M148.4,171.5c-5.5,5.2-13.4,5-20.4,5.1c-6.2,0.1-12.2,1-17.5,4.6c-4.5,3.1-8.1,7.6-10,12.7
						c-1.3,3.3-3.5,11,0.3,13.5c1,0.7,2.1,0.6,3.3,0.7c2.2,0.1,3.2,0.5,4.1,2.5c1,2.2,1.8,4.4,4.4,5.1c1.1,0.3,2.3,0.2,3.4,0.3
						c1.7,0.2,2.8,1,3.9,2.3c1.5,1.8,2.7,4.1,4.8,5.4c4.8,2.8,9.4-1.6,11.2-5.8c1.3-2.9,1.8-6.2,3.5-8.9c2.5-3.8,6.5-3.8,10.6-3.6
						c6.9,0.4,12.7-1.1,17.9-6c5.5-5.2,8.3-12.4,10.4-19.5c0.4-1.2-1.6-1.8-1.9-0.5c-1.9,6.3-4.2,12.7-8.8,17.5
						c-4.6,4.9-10.2,6.9-16.8,6.5c-4.9-0.3-9.8-0.3-12.9,4.2c-3,4.4-2.9,13.6-9.3,14.8c-4.9,0.9-6.4-6.3-10.3-8
						c-2.6-1.1-5.8,0.2-7.4-2.7c-1-1.8-1.3-4-3.2-5.1c-2.5-1.5-6.5,0.6-6.9-3.6c-0.2-2.7,0.4-5.5,1.3-8.1c1.9-5.3,5.7-10,10.5-13
						c11.4-6.9,27,0.4,37.1-9.3C150.8,172,149.4,170.6,148.4,171.5L148.4,171.5z"/>
				</g>
			</g>
			<g>
				<g>
					<path class="st0" d="M159.3,203.8c-0.4,5.5,5.4,7.2,9.3,9.2c1.6,0.8,2.9,1.8,3.9,3.4c0.6,0.9,1,1.9,1.8,2.6
						c1.3,1.2,3.3,1.9,4.9,0.9c0.7-0.5,0.8-1.2,1.3-1.7c1.4-1.6,2.4-0.8,4.1-0.6c2.1,0.3,4.2-0.6,5.8-1.9c3.9-3.3,4.2-8.9,3.1-13.6
						c-0.3-1.2-2.2-0.7-1.9,0.5c1.1,4.5,0.7,10.8-4.5,12.7c-3.1,1.1-6-2.4-8,1.1c-0.6,1-0.4,2.2-2.1,1.9c-1.4-0.2-2-1.9-2.7-2.9
						c-0.9-1.4-1.9-2.5-3.3-3.4c-3.3-2.1-10-3-9.6-8.2C161.4,202.5,159.4,202.5,159.3,203.8L159.3,203.8z"/>
				</g>
			</g>
			<g>
				<g>
					<path class="st0" d="M158.1,205.2c3.5,5.1,0.6,10.9-1.7,15.8c-1.9,3.9-3.6,8.1-2.7,12.6c0.6,3.3,2.8,6.1,6.2,6.7
						c2.8,0.5,5.9-0.5,7.2-3.2c-0.6,0-1.2,0-1.7,0c2.8,3.8,7,6.2,11.8,6.3c5.7,0.2,10.1-3.7,15.1-6c5-2.3,9.3-4.3,12.4-9.1
						c2.5-3.8,3.6-8.7,0.9-12.7c-0.7-1.1-2.4-0.1-1.7,1c2.7,4,0.7,8.8-2.1,12.2c-2.8,3.5-6.6,4.9-10.5,6.7
						c-4.1,1.9-7.9,5.3-12.6,5.7c-4.4,0.4-8.8-1.7-11.5-5.3c-0.4-0.5-1.4-0.7-1.7,0c-1.5,3.1-5.9,3-8.1,0.6
						c-3.1-3.4-1.8-8.7-0.2-12.4c2.7-6.3,7.3-13.5,2.8-20.1C159.1,203.2,157.4,204.2,158.1,205.2L158.1,205.2z"/>
				</g>
			</g>
			<g>
				<g>
					<path class="st0" d="M153.6,232c-1.5,2.8-3.5,5.6-6.8,6.3c-3.4,0.7-6-1.8-7.6-4.5c-2.5-4.2-3-9.2-6.5-12.9
						c-0.9-0.9-2.3,0.5-1.4,1.4c4.5,4.8,4.2,12.6,9.8,16.6c5.7,4,11.6-0.8,14.3-5.9C156,231.9,154.2,230.9,153.6,232L153.6,232z"/>
				</g>
			</g>
			<g>
				<g>
					<path class="st0" d="M108.7,212.5c0.6,5.5-5.9,6.5-9.8,4.8c-3.6-1.6-6.3-4.7-9.5-7c-2.4-1.8-5.9-3.3-7.3-6.2
						c-1.6-3.5,1.7-8.1,3.6-10.9c7.9-11.7,21.3-19,35.3-19.6c8.8-0.3,17.7,1,26.2-1.9c1.2-0.4,0.7-2.4-0.5-1.9
						c-9.7,3.4-19.9,1-29.9,2.2c-8,1-15.6,4.1-22,8.9c-6,4.5-11.7,10.8-14.4,17.9c-1.3,3.3-0.7,6.4,1.9,8.8c1.2,1.1,2.6,2,4,2.9
						c2.1,1.4,3.9,3,5.8,4.6c3.4,2.9,7.7,5.9,12.5,5c3.5-0.7,6.5-3.9,6.1-7.6C110.6,211.2,108.6,211.2,108.7,212.5L108.7,212.5z"/>
				</g>
			</g>
			<g>
				<g>
					<path class="st0" d="M61.9,158.5c8.8-2.8,11.6,10.5,15.3,15.4c3.9,5.1,10.4,6.2,16.4,4.7c7.3-1.8,12.6-7.3,17.7-12.5
						c5.7-5.8,11.9-10.8,19.5-14.1c2.3-1,4.7-1.8,7.2-2.5c1.8-0.5,3.7-0.9,5.3-1.8c2.6-1.5,4.1-4.5,2.7-7.4
						c-0.2-0.4-0.7-0.6-1.1-0.5c-15.8,4-31.8,8.1-48.2,6.8c-11.8-0.9-28.2-3.2-34.7,9.7c-0.6,1.1,1.2,2.2,1.7,1
						c6.9-13.8,25.6-8.7,37.7-8.5c15,0.3,29.6-3.5,44-7.1c-0.4-0.2-0.8-0.3-1.1-0.5c2.3,4.7-6,6-8.8,6.8c-3.2,1-6.4,2.3-9.4,3.9
						c-6.3,3.3-11.5,7.8-16.5,12.9c-5,5.1-10.3,10.5-17.6,11.9c-3.5,0.7-7.4,0.4-10.5-1.6c-3-2-4.6-5.5-6.1-8.7
						c-2.5-5.3-7.2-12.3-14.1-10.1C60.1,156.9,60.7,158.9,61.9,158.5L61.9,158.5z"/>
				</g>
			</g>
			<g>
				<g>
					<path class="st0" d="M62.5,155.8c-4,6.1-5.9,13.5-5.1,20.8c0.4,3.6,1.6,7.2,1.4,10.9c-0.2,4.4-3.2,6.1-6.3,8.4
						c-4.6,3.5-4.9,9.4-0.3,13.2c6.1,4.9,15,2.4,21.9,5.2c6.1,2.5,14.1,7.2,19.8,1.4c0.9-0.9-0.5-2.3-1.4-1.4
						c-3.1,3.2-7.8,2.5-11.6,0.9c-4.1-1.6-7.7-3.8-12.1-4.4c-4.4-0.6-9.2-0.1-13.3-2c-4.2-2-6.5-7-2.6-10.5c2.4-2.2,5.4-3.4,6.9-6.4
						c1.5-3,1.1-6.4,0.6-9.6c-0.7-4.5-1.5-8.7-0.7-13.3c0.7-4.4,2.3-8.5,4.7-12.1C64.9,155.7,63.2,154.7,62.5,155.8L62.5,155.8z"/>
				</g>
			</g>
			<g>
				<g>
					<path class="st0" d="M77.7,214.5c-4.4,4.5-8.8,9-13.2,13.5c-2.1,2.1-4.1,4.3-6.2,6.4c-1.9,1.9-4.1,4.3-7,4.3
						c-3.4,0-4.1-2.6-3.3-5.4c0.5-1.8,1.2-3.7,0.3-5.5c-2.1-4.1-7.3-1.9-10.6-2.4c-2.6-0.4-4.8-2.4-5.5-5c-0.6-2.1,0.2-4.3-0.6-6.3
						c-0.6-1.6-2-2.4-3.6-2.7c-2.6-0.5-4.8-0.2-7.2-1.6c-2.2-1.3-3.9-3.5-4.7-5.9c-0.8-2.7-0.3-5.5-0.5-8.3
						c-0.4-4.7-3.2-7.4-6.5-10.4c-2-1.9-3.8-3.9-4.4-6.6c-0.7-3.2,0.1-6.5,1.6-9.3c3-5.4,8.6-8.6,13.9-11.3c0.7-0.4,0.6-1.7-0.2-1.8
						c-7-1.2-11.4-8.6-8.1-15.1c3.8-7.6,13.1-6.7,19.7-3.9c6.5,2.7,12.6,6.2,19.3,8.4c6.8,2.3,13.8,3.8,20.9,4.7
						c1.3,0.1,1.3-1.9,0-2c-9.4-1.1-18.6-3.5-27.3-7.2c-7.3-3.1-14.5-8.3-22.7-8c-6.6,0.3-12.3,4.8-13,11.6
						c-0.7,6.6,4.3,12.4,10.6,13.5c-0.1-0.6-0.2-1.2-0.2-1.8c-8.5,4.5-19.2,12.1-16.4,23.3c1.3,5.3,6.3,7.3,9.2,11.5
						c3.3,4.8,0.3,11.2,3.4,16.3c2.5,4,6.4,5.7,10.9,6.1c2.5,0.2,3.5,1,3.7,3.6c0.1,1.1-0.1,2.1,0.1,3.2c0.4,2.1,1.6,4.1,3.3,5.5
						c1.4,1.2,3.1,1.9,5,2c2.7,0.2,9.2-1.8,8.5,3.2c-0.3,2.1-1.5,3.9-1,6.1c0.4,1.7,1.7,2.9,3.3,3.5c5.6,2.1,10.1-3.8,13.5-7.3
						c5.5-5.7,11.1-11.4,16.6-17C80,214.9,78.6,213.5,77.7,214.5L77.7,214.5z"/>
				</g>
			</g>
			<g>
				<g>
					<path class="st0" d="M26.1,131.3c-3.8-0.1-7-2.9-7.1-6.8c-0.1-3.2,2.4-4.6,3.2-7.3c0.6-2-0.2-4-1.3-5.7
						c-1.6-2.5-3.3-4.6-3.9-7.5c-1.2-5.7,1.2-11.7,5.6-15.4c4.6-4,10.9-5.3,16.9-5c0.6,0,0.9-0.5,1-1c1.1-8.8,9.7-14.2,18.2-11.7
						c1,0.3,1.6-0.9,1-1.7c-4.2-5.2-4.2-12.7,0.4-17.7c4.6-5,11.7-5.2,17.6-2.5c5.7,2.6,10,7.1,13.8,12c3.2,4.2,6.3,8.5,10.7,11.5
						c1.1,0.7,2.1-1,1-1.7C97.1,66.7,93.8,60.2,89,55c-4.6-5-10.9-9.3-17.8-9.8C65,44.7,59,48,56.1,53.4c-2.9,5.6-1.9,12.3,2.1,17.1
						c0.3-0.6,0.6-1.1,1-1.7c-9.8-2.9-19.4,3.6-20.7,13.6c0.3-0.3,0.7-0.7,1-1C33,81.1,26.3,82.7,21.2,87c-4.6,4-7.2,10.3-6.3,16.4
						c0.5,3.1,1.9,5.5,3.6,8c1.2,1.8,2.6,3.8,1.4,5.9c-0.8,1.4-1.9,2.4-2.5,4c-2,6,2.4,11.7,8.6,12
						C27.4,133.3,27.4,131.3,26.1,131.3L26.1,131.3z"/>
				</g>
			</g>
			<g>
				<g>
					<path class="st0" d="M166.8,73.1c2.3-5.6,2.9-11.8,2.7-17.8c-0.2-5.1-0.6-10.9-2.9-15.5c-4.6-9.3-18.3-10.6-25.5-3.9
						c0.5,0,0.9,0,1.4,0c-9.5-10.8-23.8-17.3-38.3-14C90.7,25,80.3,37.3,81.6,51.5c0.1,1.3,2.1,1.3,2,0
						c-1.3-13.6,8.9-25.1,21.9-27.8c13.5-2.8,26.7,3.7,35.5,13.7c0.4,0.4,1,0.3,1.4,0c7.5-7,20.6-3.6,23.4,6.3
						c2.5,9,2.6,20.2-1,28.9C164.4,73.8,166.3,74.3,166.8,73.1L166.8,73.1z"/>
				</g>
			</g>
			<g>
				<g>
					<path class="st0" d="M169.6,69.7c-0.2-7.1,1.3-14.2,4.7-20.5c3.2-5.9,8.2-12.3,15.1-14c3.8-0.9,6.6,0.3,9.7,2.3
						c2.5,1.7,5,2.9,8.1,2.5c5.9-0.6,11.3-5.7,17.2-2.2c2.5,1.5,4.5,3.4,7.4,4.2c3.6,0.9,7.4,0.2,11.1,0.8c6.4,1.1,12,5.9,14.3,12
						c2.3,6.2,0.3,12.6,0.6,19c0.1,2.7,0.7,5.4,2.2,7.7c1.6,2.6,4.1,4.3,6.1,6.6c6.1,7.1-1.3,17-6.1,22.7
						c-4.9,5.9-10.9,10.8-17.7,14.4c-1.1,0.6-0.1,2.3,1,1.7c6.4-3.5,12.2-8,17.1-13.5c4.4-5,9.5-11.5,10-18.3c0.3-3.2-0.8-6-2.9-8.4
						c-2.3-2.7-5.4-4.7-6.7-8.2c-2.7-6.9,0.7-14.7-0.9-21.9c-1.4-6-5.7-11.2-11.2-14c-2.9-1.4-5.9-2.1-9.1-2.1
						c-2.1-0.1-4.3,0.1-6.4-0.3c-2.2-0.4-3.9-1.5-5.7-2.7c-2.4-1.7-4.8-3.2-7.9-3c-3.2,0.2-6.2,1.7-9.2,2.7
						c-1.8,0.6-3.7,1.1-5.6,0.8c-2-0.4-3.6-1.6-5.3-2.7c-2.7-1.8-5.6-2.9-8.9-2.4c-7.5,1-13.3,7.4-16.9,13.5c-4.2,7-6.3,15.1-6,23.3
						C167.6,71,169.6,71,169.6,69.7L169.6,69.7z"/>
				</g>
			</g>
			<g>
				<g>
					<path class="st0" d="M186.7,35.1c5.1-4.4,2.8-11.6-1.7-15.4c-2.9-2.4-6.4-3.8-9.8-5.3c-3.6-1.5-6.8-3.4-10-5.6
						c-5.7-3.8-11.8-7.9-19-6.9c-3.9,0.6-7.5,2.4-11.2,3.8c-4.1,1.5-8.3,2.2-12.5,3.2c-6.5,1.7-14.1,4.8-15.1,12.3
						c-0.2,1.3,1.8,1.3,2,0c1.1-8.6,13-10.2,19.8-11.8c8.1-1.9,16-7.8,24.5-4.9c7.3,2.5,13.1,8.2,20.2,11.3
						c3.8,1.6,7.9,3.1,10.9,6.1c3.1,3.1,4.3,8.4,0.6,11.6C184.3,34.5,185.7,35.9,186.7,35.1L186.7,35.1z"/>
				</g>
			</g>
			<g>
				<g>
					<path class="st0" d="M245.5,217.5c9.2,5.1,21,8,30.3,1.4c4-2.8,6.3-6.9,7-11.7c0.4-2.9,0.4-5.9,1-8.9c0.6-3.1,2-5.9,3.6-8.6
						c5.5-9.1,14-18.5,8.3-29.6c-1.2-2.3-2.8-4.4-4-6.7c-1.5-2.7-2.2-5.6-2.6-8.6c-0.8-5.6-1.4-11-4.2-16
						c-5.9-10.5-17.9-15.8-29.7-13.9c-1.3,0.2-0.7,2.1,0.5,1.9c10.6-1.7,21.4,3.1,27,12.3c2.8,4.6,3.5,9.4,4.2,14.6
						c0.6,4.8,1.8,8.9,4.4,13c2.9,4.6,5.2,8.9,3.9,14.5c-1.2,5.2-4.4,9.6-7.3,13.9c-2.7,4-5.3,8.2-6.2,13c-0.9,5-0.3,10.4-3.2,14.9
						c-7.2,11.2-22.3,8-32.1,2.6C245.4,215.1,244.4,216.9,245.5,217.5L245.5,217.5z"/>
				</g>
			</g>
			<g>
				<g>
					<path class="st0" d="M155.3,236.6c-3.7,11.5-2.8,24.1,1.9,35.2c2.4,5.5,5.7,10.6,10,14.9c4.2,4.3,9.5,8.4,15.6,9.1
						c6,0.6,12.5-3.4,12.6-9.9c-0.6,0.2-1.1,0.5-1.7,0.7c6.5,6.2,16.9,3.8,21.3-3.5c5.2-8.6,1.8-18.9-4.7-25.6
						c-0.2,0.6-0.5,1.1-0.7,1.7c4.2-0.1,7.9-2.3,10.2-5.8c1.1-1.6,1.7-3.4,1.9-5.4c0.3-3-0.9-6,0.8-8.7c1.1-1.7,2.6-3.2,3.1-5.3
						c0.4-1.7,0.1-3.5-0.5-5.1c-1.4-4-4.9-8-4.2-12.5c0.2-1.3-1.7-1.8-1.9-0.5c-1.2,7.3,8.1,13.9,3.1,20.7c-1.1,1.5-2.1,2.8-2.4,4.6
						c-0.4,2.4,0.4,4.7,0,7.1c-0.7,5-5.2,8.8-10.1,8.9c-0.9,0-1.3,1.1-0.7,1.7c5.6,5.7,8.9,14.3,5.1,21.9c-3.4,7-12.8,10.2-18.9,4.4
						c-0.6-0.6-1.7-0.2-1.7,0.7c-0.1,4-3.4,7-7.1,7.7c-4.1,0.9-8.2-0.9-11.5-3.1c-5.6-3.7-10.1-9-13.4-14.8
						c-6.6-11.6-8.3-25.8-4.2-38.6C157.6,235.9,155.7,235.4,155.3,236.6L155.3,236.6z"/>
				</g>
			</g>
			<g>
				<g>
					<path class="st0" d="M213.1,257.6c3.7,9.8,17.4,10.6,21.8,0.9c-0.5,0.1-0.9,0.2-1.4,0.4c9.5,5.8,22.1,0.3,23.7-10.9
						c0.2-1.3,0.2-2.7,0.4-4c0.4-2.2,1.5-3.2,3.2-4.4c2-1.4,3.6-3,4.6-5.3c1.8-4.1,1.4-9.1-1.4-12.7c-0.8-1-2.5,0-1.7,1
						c2.7,3.6,3,8.6,0.5,12.4c-1.3,1.9-3.3,2.8-4.9,4.3c-1.3,1.2-2,2.8-2.3,4.6c-0.4,2.4-0.3,4.7-1.2,7c-0.9,2.3-2.5,4.4-4.5,5.9
						c-4.5,3.4-10.6,3.3-15.4,0.4c-0.4-0.3-1.1-0.1-1.4,0.4c-3.6,8-14.9,8-18.1-0.4C214.6,255.9,212.6,256.4,213.1,257.6
						L213.1,257.6z"/>
				</g>
			</g>
			<g>
				<g>
					<path class="st0" d="M54,237.6c-9,4.9-13.3,16.5-8.7,25.9c2.2,4.5,6.2,8.1,10.8,10c2.4,1,4.9,1.2,7.5,1.4
						c3.2,0.2,7.1,0.2,9.2,3.1c1.6,2.2,2,4.9,3.7,7.1c1.6,2.1,3.8,3.8,6.2,5c5.5,2.7,11.2,2.3,17.1,1.5c3.8-0.5,7.4-0.8,11.2-0.5
						c3.4,0.2,6.8,0.6,10.2,0.1c5.5-0.8,10.2-4,13.5-8.2c9.9-12.5,6.7-29.9,11.3-44.3c0.4-1.2-1.5-1.8-1.9-0.5
						c-3.9,12.3-2.1,25.9-7.4,37.8c-2.2,5-6,9.6-11,12c-5.8,2.7-12.2,1.1-18.3,1c-6.3,0-12.6,2.2-18.8,1c-5.7-1-10.3-4.4-12.5-9.8
						c-1.8-4.3-4.2-6.4-8.9-7c-2.5-0.3-5-0.2-7.5-0.7c-2.8-0.6-5.4-1.9-7.6-3.7c-9.8-8-8.1-23.5,2.9-29.5
						C56.1,238.7,55.1,237,54,237.6L54,237.6z"/>
				</g>
			</g>
			<g>
				<g>
					<path class="st0" d="M129.1,286.3c-1.7,4.8,2.3,9.5,5.9,12.2c4,3,9,4.7,13.9,4.6c10-0.2,18.6-8,20.5-17.7
						c0.2-1.3-1.7-1.8-1.9-0.5c-1.6,8.3-8.5,15.3-17.1,16.2c-4.2,0.4-8.4-0.6-12.1-2.7c-3.6-2.1-9-6.8-7.3-11.5
						C131.5,285.6,129.5,285.1,129.1,286.3L129.1,286.3z"/>
				</g>
			</g>
		</g>
		<g>
			<g>
				<g>
					<path class="st0" d="M164.1,180.3c-0.4,4-1.7,7.7-3.9,11.1c-0.7,1.1,1,2.1,1.7,1c2.4-3.7,3.7-7.8,4.1-12.1
						C166.2,179.1,164.2,179.1,164.1,180.3L164.1,180.3z"/>
				</g>
			</g>
			<g>
				<g>
					<path class="st0" d="M158.1,191.4c-1,1.1-1.3,2.5-0.3,3.7c0.8,0.9,2.1,1.4,3.3,1.1c1.5-0.3,2.4-1.9,2-3.3
						C162.6,190.6,159.7,189.8,158.1,191.4c-0.9,0.9,0.5,2.3,1.4,1.4c0.7-0.7,1.9,0,1.6,1c-0.1,0.4-0.4,0.5-0.8,0.5
						c-0.4,0-0.8-0.2-1.1-0.6c0.1,0.1-0.1-0.2,0-0.1c-0.1-0.2-0.1,0,0-0.2c0,0.1,0-0.2,0-0.1c0.1-0.2,0.2-0.3,0.3-0.4
						C160.4,191.8,159,190.4,158.1,191.4z"/>
				</g>
			</g>
			<g>
				<g>
					<path class="st0" d="M148.3,183.1c-1,1.1-1.3,2.5-0.3,3.7c0.8,0.9,2.1,1.4,3.3,1.1c1.5-0.3,2.4-1.9,2-3.3
						C152.8,182.3,149.9,181.5,148.3,183.1c-0.9,0.9,0.5,2.3,1.4,1.4c0.7-0.7,1.9,0,1.6,1c-0.1,0.4-0.4,0.5-0.8,0.5
						c-0.4,0-0.8-0.2-1.1-0.6c0.1,0.1-0.1-0.2,0-0.1c-0.1-0.2-0.1,0,0-0.2c0,0.1,0-0.2,0-0.1c0.1-0.2,0.2-0.3,0.3-0.4
						C150.6,183.6,149.2,182.1,148.3,183.1z"/>
				</g>
			</g>
			<g>
				<g>
					<path class="st0" d="M147.4,193.7c-1,1.1-1.3,2.5-0.3,3.7c0.8,0.9,2.1,1.4,3.3,1.1c1.5-0.3,2.4-1.9,2-3.3
						C151.9,192.9,149,192.1,147.4,193.7c-0.9,0.9,0.5,2.3,1.4,1.4c0.7-0.7,1.9,0,1.6,1c-0.1,0.4-0.4,0.5-0.8,0.5
						c-0.4,0-0.8-0.2-1.1-0.6c0.1,0.1-0.1-0.2,0-0.1c-0.1-0.2-0.1,0,0-0.2c0,0.1,0-0.2,0-0.1c0.1-0.2,0.2-0.3,0.3-0.4
						C149.7,194.1,148.3,192.7,147.4,193.7z"/>
				</g>
			</g>
			<g>
				<g>
					<path class="st0" d="M165.2,186.4c-1,1.1-1.3,2.5-0.3,3.7c0.8,0.9,2.1,1.4,3.3,1.1c1.5-0.3,2.4-1.9,2-3.3
						C169.7,185.6,166.8,184.9,165.2,186.4c-0.9,0.9,0.5,2.3,1.4,1.4c0.7-0.7,1.9,0,1.6,1c-0.1,0.4-0.4,0.5-0.8,0.5
						c-0.4,0-0.8-0.2-1.1-0.6c0.1,0.1-0.1-0.2,0-0.1c-0.1-0.2-0.1,0,0-0.2c0,0.1,0-0.2,0-0.1c0.1-0.2,0.2-0.3,0.3-0.4
						C167.5,186.9,166.1,185.5,165.2,186.4z"/>
				</g>
			</g>
			<g>
				<g>
					<path class="st0" d="M170.1,185.4c-1,1.1-1.3,2.5-0.3,3.7c0.8,0.9,2.1,1.4,3.3,1.1c1.5-0.3,2.4-1.9,2-3.3
						C174.6,184.6,171.7,183.9,170.1,185.4c-0.9,0.9,0.5,2.3,1.4,1.4c0.7-0.7,1.9,0,1.6,1c-0.1,0.4-0.4,0.5-0.8,0.5
						c-0.4,0-0.8-0.2-1.1-0.6c0.1,0.1-0.1-0.2,0-0.1c-0.1-0.2-0.1,0,0-0.2c0,0.1,0-0.2,0-0.1c0.1-0.2,0.2-0.3,0.3-0.4
						C172.4,185.9,171,184.5,170.1,185.4z"/>
				</g>
			</g>
			<g>
				<g>
					<path class="st0" d="M158.8,178.4c-1.6,6.5-5,12.2-10,16.6c-1,0.9,0.5,2.3,1.4,1.4c5.2-4.7,8.8-10.7,10.5-17.5
						C161,177.7,159.1,177.1,158.8,178.4L158.8,178.4z"/>
				</g>
			</g>
			<g>
				<g>
					<path class="st0" d="M154.3,176.2c-1,2.9-2.5,5.5-4.6,7.8c-0.9,1,0.6,2.4,1.4,1.4c2.3-2.5,4-5.4,5.1-8.6
						C156.6,175.5,154.7,175,154.3,176.2L154.3,176.2z"/>
				</g>
			</g>
			<g>
				<g>
					<path class="st0" d="M151.3,174.1c-4.2,6.6-9.7,12.2-16.3,16.4c-1.1,0.7-0.1,2.4,1,1.7c6.9-4.5,12.6-10.2,17-17.2
						C153.7,174,152,173,151.3,174.1L151.3,174.1z"/>
				</g>
			</g>
			<g>
				<g>
					<path class="st0" d="M150.3,173.2c-4.5,3.8-9.4,7.1-14.6,10c-1.1,0.6-0.1,2.3,1,1.7c5.4-2.9,10.4-6.4,15-10.3
						C152.7,173.8,151.3,172.4,150.3,173.2L150.3,173.2z"/>
				</g>
			</g>
			<g>
				<g>
					<path class="st0" d="M167.6,180.6c0.2,2.4-0.1,4.6-0.9,6.8c-0.5,1.2,1.5,1.7,1.9,0.5c0.9-2.4,1.2-4.8,1-7.3
						C169.5,179.3,167.5,179.3,167.6,180.6L167.6,180.6z"/>
				</g>
			</g>
			<g>
				<g>
					<path class="st0" d="M169.5,181.3c1.6,1.5,2.3,3.7,1.7,5.8c-0.3,1.2,1.6,1.8,1.9,0.5c0.8-2.8-0.1-5.8-2.2-7.8
						C169.9,179,168.5,180.4,169.5,181.3L169.5,181.3z"/>
				</g>
			</g>
			<g>
				<g>
					<path class="st0" d="M148,170.9c-7.9,3.4-15.5,7.5-22.6,12.4c-1.1,0.7-0.1,2.5,1,1.7c7.1-4.9,14.7-9,22.6-12.4
						C150.2,172.1,149.2,170.4,148,170.9L148,170.9z"/>
				</g>
			</g>
			<g>
				<g>
					<path class="st0" d="M146.6,168.4c-6.8,1.3-13.4,3.5-19.6,6.5c-1.2,0.6-0.1,2.3,1,1.7c6.1-3,12.5-5.1,19.1-6.3
						C148.4,170,147.8,168.1,146.6,168.4L146.6,168.4z"/>
				</g>
			</g>
			<g>
				<g>
					<path class="st0" d="M145.5,165.7c-10.6,0.3-20.9,3.4-29.8,9c-1.1,0.7-0.1,2.4,1,1.7c8.7-5.4,18.6-8.5,28.8-8.7
						C146.8,167.7,146.8,165.7,145.5,165.7L145.5,165.7z"/>
				</g>
			</g>
			<g>
				<g>
					<path class="st0" d="M143.2,161.2c-4.3,0.9-8.3,2.4-12.1,4.6c-1.1,0.6-0.1,2.4,1,1.7c3.6-2.1,7.5-3.6,11.6-4.4
						C145,162.9,144.5,161,143.2,161.2L143.2,161.2z"/>
				</g>
			</g>
			<g>
				<g>
					<path class="st0" d="M143.5,158.6c-10.7,1.3-20.8,5.1-29.7,11.2c-1.1,0.7-0.1,2.5,1,1.7c8.5-5.9,18.3-9.7,28.6-10.9
						C144.8,160.4,144.8,158.4,143.5,158.6L143.5,158.6z"/>
				</g>
			</g>
			<g>
				<g>
					<path class="st0" d="M142.1,155.3c-4.2-0.5-8.3,0.1-12.3,1.6c-1.2,0.5-0.7,2.4,0.5,1.9c3.8-1.4,7.7-1.9,11.8-1.5
						C143.3,157.5,143.3,155.5,142.1,155.3L142.1,155.3z"/>
				</g>
			</g>
			<g>
				<g>
					<path class="st0" d="M142.7,152c-8.9,0.1-17.7,1.9-26,5.1c-1.2,0.5-0.7,2.4,0.5,1.9c8.2-3.2,16.7-4.9,25.5-5.1
						C144,154,144,152,142.7,152L142.7,152z"/>
				</g>
			</g>
			<g>
				<g>
					<path class="st0" d="M143.6,148c-9.9-2.2-20.1-1.9-29.8,1.1c-1.2,0.4-0.7,2.3,0.5,1.9c9.4-2.8,19.2-3.2,28.7-1.1
						C144.3,150.2,144.9,148.3,143.6,148L143.6,148z"/>
				</g>
			</g>
			<g>
				<g>
					<path class="st0" d="M144.6,144.9c-7.6-3.6-15.9-5.2-24.3-4.7c-1.3,0.1-1.3,2.1,0,2c8.1-0.5,16,1,23.3,4.4
						C144.8,147.1,145.8,145.4,144.6,144.9L144.6,144.9z"/>
				</g>
			</g>
			<g>
				<g>
					<path class="st0" d="M146.9,141.9c-6.4-4.9-14-7.6-22-7.7c-1.3,0-1.3,2,0,2c7.5,0.1,14.7,2.5,20.6,7.1
						C146.4,144.1,147.9,142.7,146.9,141.9L146.9,141.9z"/>
				</g>
			</g>
			<g>
				<g>
					<path class="st0" d="M143.6,134.6c-5.5-3.7-11.8-5.7-18.4-5.8c-1.3,0-1.3,2,0,2c6.3,0.1,12.2,2,17.4,5.5
						C143.7,137.1,144.7,135.3,143.6,134.6L143.6,134.6z"/>
				</g>
			</g>
			<g>
				<g>
					<path class="st0" d="M138.4,126.8c-2.8-2.1-6.2-3.1-9.7-3c-1.3,0-1.3,2,0,2c3.2-0.1,6.1,0.8,8.7,2.7
						C138.4,129.3,139.4,127.5,138.4,126.8L138.4,126.8z"/>
				</g>
			</g>
			<g>
				<g>
					<path class="st0" d="M133.4,189.4c-1,1.1-1.3,2.5-0.3,3.7c0.8,0.9,2.1,1.4,3.3,1.1c1.5-0.3,2.4-1.9,2-3.3
						C137.9,188.6,135.1,187.8,133.4,189.4c-0.9,0.9,0.5,2.3,1.4,1.4c0.7-0.7,1.9,0,1.6,1c-0.1,0.4-0.4,0.5-0.8,0.5
						c-0.4,0-0.8-0.2-1.1-0.6c0.1,0.1-0.1-0.2,0-0.1c-0.1-0.2-0.1,0,0-0.2c0,0.1,0-0.2,0-0.1c0.1-0.2,0.2-0.3,0.3-0.4
						C135.7,189.9,134.3,188.4,133.4,189.4z"/>
				</g>
			</g>
			<g>
				<g>
					<path class="st0" d="M134.1,182c-1,1.1-1.3,2.5-0.3,3.7c0.8,0.9,2.1,1.4,3.3,1.1c1.5-0.3,2.4-1.9,2-3.3
						C138.6,181.2,135.7,180.5,134.1,182c-0.9,0.9,0.5,2.3,1.4,1.4c0.7-0.7,1.9,0,1.6,1c-0.1,0.4-0.4,0.5-0.8,0.5
						c-0.4,0-0.8-0.2-1.1-0.6c0.1,0.1-0.1-0.2,0-0.1c-0.1-0.2-0.1,0,0-0.2c0,0.1,0-0.2,0-0.1c0.1-0.2,0.2-0.3,0.3-0.4
						C136.4,182.5,135,181.1,134.1,182z"/>
				</g>
			</g>
			<g>
				<g>
					<path class="st0" d="M123.8,182.1c-1,1.1-1.3,2.5-0.3,3.7c0.8,0.9,2.1,1.4,3.3,1.1c1.5-0.3,2.4-1.9,2-3.3
						C128.2,181.3,125.4,180.5,123.8,182.1c-0.9,0.9,0.5,2.3,1.4,1.4c0.7-0.7,1.9,0,1.6,1c-0.1,0.4-0.4,0.5-0.8,0.5
						c-0.4,0-0.8-0.2-1.1-0.6c0.1,0.1-0.1-0.2,0-0.1c-0.1-0.2-0.1,0,0-0.2c0,0.1,0-0.2,0-0.1c0.1-0.2,0.2-0.3,0.3-0.4
						C126.1,182.6,124.6,181.2,123.8,182.1z"/>
				</g>
			</g>
			<g>
				<g>
					<path class="st0" d="M125,173.9c-1,1.1-1.3,2.5-0.3,3.7c0.8,0.9,2.1,1.4,3.3,1.1c1.5-0.3,2.4-1.9,2-3.3
						C129.5,173.1,126.7,172.4,125,173.9c-0.9,0.9,0.5,2.3,1.4,1.4c0.7-0.7,1.9,0,1.6,1c-0.1,0.4-0.4,0.5-0.8,0.5
						c-0.4,0-0.8-0.2-1.1-0.6c0.1,0.1-0.1-0.2,0-0.1c-0.1-0.2-0.1,0,0-0.2c0,0.1,0-0.2,0-0.1c0.1-0.2,0.2-0.3,0.3-0.4
						C127.3,174.4,125.9,173,125,173.9z"/>
				</g>
			</g>
			<g>
				<g>
					<path class="st0" d="M113.7,173.7c-1,1.1-1.3,2.5-0.3,3.7c0.8,0.9,2.1,1.4,3.3,1.1c1.5-0.3,2.4-1.9,2-3.3
						C118.2,172.9,115.4,172.2,113.7,173.7c-0.9,0.9,0.5,2.3,1.4,1.4c0.7-0.7,1.9,0,1.6,1c-0.1,0.4-0.4,0.5-0.8,0.5
						c-0.4,0-0.8-0.2-1.1-0.6c0.1,0.1-0.1-0.2,0-0.1c-0.1-0.2-0.1,0,0-0.2c0,0.1,0-0.2,0-0.1c0.1-0.2,0.2-0.3,0.3-0.4
						C116,174.2,114.6,172.8,113.7,173.7z"/>
				</g>
			</g>
			<g>
				<g>
					<path class="st0" d="M128.9,165c-1,1.1-1.3,2.5-0.3,3.7c0.8,0.9,2.1,1.4,3.3,1.1c1.5-0.3,2.4-1.9,2-3.3
						C133.4,164.2,130.6,163.5,128.9,165c-0.9,0.9,0.5,2.3,1.4,1.4c0.7-0.7,1.9,0,1.6,1c-0.1,0.4-0.4,0.5-0.8,0.5
						c-0.4,0-0.8-0.2-1.1-0.6c0.1,0.1-0.1-0.2,0-0.1c-0.1-0.2-0.1,0,0-0.2c0,0.1,0-0.2,0-0.1c0.1-0.2,0.2-0.3,0.3-0.4
						C131.2,165.5,129.8,164.1,128.9,165z"/>
				</g>
			</g>
			<g>
				<g>
					<path class="st0" d="M111.7,168.1c-1,1.1-1.3,2.5-0.3,3.7c0.8,0.9,2.1,1.4,3.3,1.1c1.5-0.3,2.4-1.9,2-3.3
						C116.2,167.3,113.3,166.5,111.7,168.1c-0.9,0.9,0.5,2.3,1.4,1.4c0.7-0.7,1.9,0,1.6,1c-0.1,0.4-0.4,0.5-0.8,0.5
						c-0.4,0-0.8-0.2-1.1-0.6c0.1,0.1-0.1-0.2,0-0.1c-0.1-0.2-0.1,0,0-0.2c0,0.1,0-0.2,0-0.1c0.1-0.2,0.2-0.3,0.3-0.4
						C114,168.5,112.6,167.1,111.7,168.1z"/>
				</g>
			</g>
			<g>
				<g>
					<path class="st0" d="M127.2,156.1c-1,1.1-1.3,2.5-0.3,3.7c0.8,0.9,2.1,1.4,3.3,1.1c1.5-0.3,2.4-1.9,2-3.3
						C131.7,155.3,128.9,154.6,127.2,156.1c-0.9,0.9,0.5,2.3,1.4,1.4c0.7-0.7,1.9,0,1.6,1c-0.1,0.4-0.4,0.5-0.8,0.5
						c-0.4,0-0.8-0.2-1.1-0.6c0.1,0.1-0.1-0.2,0-0.1c-0.1-0.2-0.1,0,0-0.2c0,0.1,0-0.2,0-0.1c0.1-0.2,0.2-0.3,0.3-0.4
						C129.5,156.6,128.1,155.2,127.2,156.1z"/>
				</g>
			</g>
			<g>
				<g>
					<path class="st0" d="M114.6,155.7c-1,1.1-1.3,2.5-0.3,3.7c0.8,0.9,2.1,1.4,3.3,1.1c1.5-0.3,2.4-1.9,2-3.3
						C119.1,154.9,116.3,154.2,114.6,155.7c-0.9,0.9,0.5,2.3,1.4,1.4c0.7-0.7,1.9,0,1.6,1c-0.1,0.4-0.4,0.5-0.8,0.5
						c-0.4,0-0.8-0.2-1.1-0.6c0.1,0.1-0.1-0.2,0-0.1c-0.1-0.2-0.1,0,0-0.2c0,0.1,0-0.2,0-0.1c0.1-0.2,0.2-0.3,0.3-0.4
						C116.9,156.2,115.5,154.8,114.6,155.7z"/>
				</g>
			</g>
			<g>
				<g>
					<path class="st0" d="M111.8,147.7c-1,1.1-1.3,2.5-0.3,3.7c0.8,0.9,2.1,1.4,3.3,1.1c1.5-0.3,2.4-1.9,2-3.3
						C116.3,146.9,113.4,146.1,111.8,147.7c-0.9,0.9,0.5,2.3,1.4,1.4c0.7-0.7,1.9,0,1.6,1c-0.1,0.4-0.4,0.5-0.8,0.5
						c-0.4,0-0.8-0.2-1.1-0.6c0.1,0.1-0.1-0.2,0-0.1c-0.1-0.2-0.1,0,0-0.2c0,0.1,0-0.2,0-0.1c0.1-0.2,0.2-0.3,0.3-0.4
						C114.1,148.2,112.7,146.8,111.8,147.7z"/>
				</g>
			</g>
			<g>
				<g>
					<path class="st0" d="M118,138.8c-1,1.1-1.3,2.5-0.3,3.7c0.8,0.9,2.1,1.4,3.3,1.1c1.5-0.3,2.4-1.9,2-3.3
						C122.5,138,119.6,137.3,118,138.8c-0.9,0.9,0.5,2.3,1.4,1.4c0.7-0.7,1.9,0,1.6,1c-0.1,0.4-0.4,0.5-0.8,0.5
						c-0.4,0-0.8-0.2-1.1-0.6c0.1,0.1-0.1-0.2,0-0.1c-0.1-0.2-0.1,0,0-0.2c0,0.1,0-0.2,0-0.1c0.1-0.2,0.2-0.3,0.3-0.4
						C120.3,139.3,118.9,137.9,118,138.8z"/>
				</g>
			</g>
			<g>
				<g>
					<path class="st0" d="M122.4,133.7c-1,1.1-1.3,2.5-0.3,3.7c0.8,0.9,2.1,1.4,3.3,1.1c1.5-0.3,2.4-1.9,2-3.3
						C126.9,132.9,124.1,132.1,122.4,133.7c-0.9,0.9,0.5,2.3,1.4,1.4c0.7-0.7,1.9,0,1.6,1c-0.1,0.4-0.4,0.5-0.8,0.5
						c-0.4,0-0.8-0.2-1.1-0.6c0.1,0.1-0.1-0.2,0-0.1c-0.1-0.2-0.1,0,0-0.2c0,0.1,0-0.2,0-0.1c0.1-0.2,0.2-0.3,0.3-0.4
						C124.7,134.1,123.3,132.7,122.4,133.7z"/>
				</g>
			</g>
			<g>
				<g>
					<path class="st0" d="M122.3,127.9c-1,1.1-1.3,2.5-0.3,3.7c0.8,0.9,2.1,1.4,3.3,1.1c1.5-0.3,2.4-1.9,2-3.3
						C126.8,127.1,124,126.4,122.3,127.9c-0.9,0.9,0.5,2.3,1.4,1.4c0.7-0.7,1.9,0,1.6,1c-0.1,0.4-0.4,0.5-0.8,0.5
						c-0.4,0-0.8-0.2-1.1-0.6c0.1,0.1-0.1-0.2,0-0.1c-0.1-0.2-0.1,0,0-0.2c0,0.1,0-0.2,0-0.1c0.1-0.2,0.2-0.3,0.3-0.4
						C124.6,128.4,123.2,127,122.3,127.9z"/>
				</g>
			</g>
			<g>
				<g>
					<path class="st0" d="M126,123c-1,1.1-1.3,2.5-0.3,3.7c0.8,0.9,2.1,1.4,3.3,1.1c1.5-0.3,2.4-1.9,2-3.3
						C130.4,122.2,127.6,121.5,126,123c-0.9,0.9,0.5,2.3,1.4,1.4c0.7-0.7,1.9,0,1.6,1c-0.1,0.4-0.4,0.5-0.8,0.5
						c-0.4,0-0.8-0.2-1.1-0.6c0.1,0.1-0.1-0.2,0-0.1c-0.1-0.2-0.1,0,0-0.2c0,0.1,0-0.2,0-0.1c0.1-0.2,0.2-0.3,0.3-0.4
						C128.3,123.5,126.9,122.1,126,123z"/>
				</g>
			</g>
		</g>
	</g>
</g>
</svg>
