<?xml version="1.0" encoding="utf-8"?>
<!-- Generator: Adobe Illustrator 21.1.0, SVG Export Plug-In . SVG Version: 6.00 Build 0)  -->
<svg version="1.1" id="Guides" xmlns="http://www.w3.org/2000/svg" xmlns:xlink="http://www.w3.org/1999/xlink" x="0px" y="0px"
	 viewBox="0 0 166 166" style="enable-background:new 0 0 166 166;" xml:space="preserve">
<style type="text/css">
	.st0{fill:#7F0099;}
</style>
<g>
	<g>
		<g>
			<g>
				<path class="st0" d="M153.6,56.7c7.8,2.6,10.5,11.1,10.6,18.5c0.1,8-1.9,15.8-1,23.9c0.1,1.2,0.3,2.5-0.3,3.6
					c-0.4,0.8-1.3,1.4-2,2c-1.5,1.3-3.2,2.5-4.8,3.6c-3.2,2.1-6.6,3.8-10.1,5.1c-6.9,2.6-14.2,3.8-21.6,3.4
					c-8.9-0.5-17.4-3.3-25-7.9c-0.8-0.5-1.6,0.8-0.8,1.3c14.4,8.8,32.3,10.7,48.1,4.6c3.8-1.5,7.4-3.3,10.8-5.6
					c2.5-1.7,6.8-4,7.3-7.3c0.3-1.8-0.3-3.7-0.4-5.5c-0.1-2.5,0-5,0.3-7.5c0.4-4.7,1.1-9.3,1-14c-0.2-8.1-3.5-16.7-11.7-19.5
					C153.1,54.9,152.7,56.3,153.6,56.7L153.6,56.7z"/>
			</g>
		</g>
		<g>
			<g>
				<path class="st0" d="M128.2,31.2c0-7.3,11.7-2.5,14.9-0.6c1.9,1.1,3.7,2.6,4.9,4.5c1.5,2.2,1.6,4.5,1.9,7.1
					c0.1,1.5,0.5,3,1.4,4.2c1.3,1.9,3.3,3.1,3.2,5.7c-0.2,4.4-4.4,7.5-4.8,12c-0.2,2.2,0.2,4.4,0.4,6.6c0.2,2.6,0,5.1-0.7,7.6
					c-1.2,4.4-3.5,8.5-5.9,12.4c-4.4,7.2-13.6,16.6-22.6,11c-0.8-0.5-1.6,0.8-0.8,1.3c6.7,4.1,14.8,0.4,19.7-4.7
					c2.9-3.1,5.1-6.7,7.1-10.4c2.1-3.8,4-7.8,4.6-12.1c0.7-4.7-1.4-9.7,0.3-14.2c1.3-3.4,4.6-6.4,4.1-10.4c-0.2-1.7-1.1-2.9-2.3-4.1
					c-2-2.3-2.2-4.4-2.5-7.2c-0.4-3.6-2.4-6.7-5.2-8.9c-3.3-2.6-8.1-4.7-12.3-5c-3.5-0.3-7.1,1.6-7.1,5.4
					C126.7,32.1,128.2,32.1,128.2,31.2L128.2,31.2z"/>
			</g>
		</g>
		<g>
			<g>
				<path class="st0" d="M110.5,62.8c-0.5-6.3,5.9-10.7,11.7-9c6.4,1.9,9.5,8.4,9.2,14.7c-0.3,6.2-3.2,13.7-9.3,16.1
					c-3.5,1.4-6.5,0-10-0.6c-1.7-0.3-2.9-0.3-4.1,1.1c-0.6,0.7,0.4,1.8,1.1,1.1c1.5-1.8,4.6-0.2,6.5,0.2c1.5,0.4,3,0.5,4.6,0.3
					c3.2-0.5,6-2.5,8-5c4.2-5.4,6-13.6,3.8-20.1c-1.9-5.4-7.1-10.1-13.1-9.7c-5.5,0.3-10.3,5.3-9.8,10.9
					C109.1,63.8,110.6,63.8,110.5,62.8L110.5,62.8z"/>
			</g>
		</g>
		<g>
			<g>
				<path class="st0" d="M109.2,85.9c2.5-7.8,2.8-15.8,2.3-23.9c0-0.6-0.8-1-1.3-0.5c-4.4,4.2-9.1,8.2-12.2,13.5
					c-3,5.2-5.8,10.5-5.9,16.6c0,1,1.5,1,1.5,0c0.1-6,3.1-11.5,6.1-16.5c3-4.9,7.5-8.6,11.6-12.5c-0.4-0.2-0.9-0.4-1.3-0.5
					c0.5,8,0.2,15.8-2.2,23.5C107.5,86.4,108.9,86.8,109.2,85.9L109.2,85.9z"/>
			</g>
		</g>
		<g>
			<g>
				<path class="st0" d="M115.5,86c-3.8,16.7-21,28.3-37.9,23.6c-0.9-0.3-1.3,1.2-0.4,1.4c17.6,4.8,35.7-7.2,39.7-24.7
					C117.2,85.5,115.8,85.1,115.5,86L115.5,86z"/>
			</g>
		</g>
		<g>
			<g>
				<path class="st0" d="M110.5,84.9c1.1,5.9-5.2,8.1-9.8,8.9c-3.7,0.6-6,1.8-8.4,4.7c-5.1,6.4-12,9.8-19.4,13c0.3,0.3,0.7,0.7,1,1
					c6.9-13.5,19.8-23.3,34.7-26.2c0.9-0.2,0.5-1.6-0.4-1.4c-15.2,2.9-28.6,13-35.6,26.8c-0.4,0.7,0.3,1.3,1,1
					c4.1-1.8,8.3-3.6,12.1-6.1c1.7-1.1,3.3-2.4,4.7-3.8c1.6-1.6,2.8-3.6,4.5-5.2c3.4-3.2,8.8-2.2,12.7-4.6c3-1.9,4.8-5.1,4.2-8.6
					C111.8,83.6,110.3,84,110.5,84.9L110.5,84.9z"/>
			</g>
		</g>
		<g>
			<g>
				<path class="st0" d="M130.3,75.7c1.7,7.4-1.8,14.7-6,20.6c-3.8,5.4-11.4,11.6-18,6.7c-0.8-0.6-1.5,0.7-0.8,1.3
					c6.5,4.9,14.5-0.1,18.8-5.5c5.1-6.5,9.4-15,7.4-23.4C131.6,74.4,130.1,74.8,130.3,75.7L130.3,75.7z"/>
			</g>
		</g>
		<g>
			<g>
				<path class="st0" d="M128.5,56.5c2.4-7.3,3.7-15.5,0.6-22.8c-2.4-5.7-6.9-10.4-12.3-13.2c-6.3-3.4-13.9-4.4-20.7-1.8
					c-5.5,2.1-9.9,5.9-10.9,11.9c-0.2,0.9,1.3,1.3,1.4,0.4c1-6,5.8-9.7,11.4-11.4c6.4-2,13.6-0.5,19.3,2.9c4.9,3,9,7.5,10.9,13
					c2.4,6.8,1,14.1-1.1,20.7C126.7,57,128.2,57.4,128.5,56.5L128.5,56.5z"/>
			</g>
		</g>
		<g>
			<g>
				<path class="st0" d="M102.6,17c-2.8-6.4-9.7-8.6-16-9.7c-4.2-0.8-8.2-1.5-12.2-3c-3.2-1.2-6.6-2.5-10-1.4
					c-1.4,0.5-2.6,1.4-3.8,2.2c-2.1,1.4-3.9,1.5-6.2,0.7c-2.5-0.9-5-2-7.5-0.3c-2.6,1.8-4.1,5.4-5.2,8.3c-1.3,3.3-1.7,6.7-1.5,10.2
					c0.1,1,1.6,1,1.5,0c-0.2-3.2,0.2-6.4,1.3-9.4c1.1-2.9,3.4-8.7,7.1-8.5c2.6,0.1,4.8,2.1,7.5,1.9c2.7-0.2,4.5-2.5,6.9-3.4
					c3.6-1.4,7.3,0.5,10.7,1.7c3.3,1.2,6.6,1.8,10.1,2.4c6.2,1.1,13.2,2.8,16,9.2C101.7,18.6,103,17.9,102.6,17L102.6,17z"/>
			</g>
		</g>
		<g>
			<g>
				<path class="st0" d="M131.9,26.3c-5.3-7.6-7.7-17.7-15.9-23c-8.8-5.7-18.4-0.4-26.1,4.6c-0.8,0.5-0.1,1.8,0.8,1.3
					c7.8-5.1,17.5-10.4,26-3.6c6.8,5.5,9.1,14.5,14,21.5C131.2,27.8,132.5,27.1,131.9,26.3L131.9,26.3z"/>
			</g>
		</g>
		<g>
			<g>
				<path class="st0" d="M116.3,52.4c-2.3-11.3-14.6-17-24.4-20.7c-5.3-2-11.1-3.3-16.7-2.1c-4.2,0.9-8.5,3.7-8.5,8.4
					c0,1,1.5,1,1.5,0c0.1-5.9,7.5-7.5,12.1-7.3c5,0.1,10,1.9,14.5,3.8c8.3,3.6,18,8.6,20,18.3C115.1,53.8,116.5,53.4,116.3,52.4
					L116.3,52.4z"/>
			</g>
		</g>
		<g>
			<g>
				<path class="st0" d="M68.1,37.7C63.5,29.2,54.2,24.6,44.9,24c-11.8-0.8-23,4.8-32.4,11.3C12,35.5,12,36,12.3,36.4
					c3.5,4.3,0.5,9.8-0.5,14.5c-1,4.3-0.2,8.5,1.1,12.6c2.3,7.3,6.5,14.1,13,18.3c0.8,0.5,1.6-0.8,0.8-1.3
					c-7.3-4.8-11.7-13-13.4-21.4c-0.5-2.6-0.6-5.2-0.1-7.9c0.5-2.3,1.4-4.5,1.9-6.8c0.6-3.2,0.4-6.5-1.7-9.1
					c-0.1,0.4-0.1,0.8-0.2,1.2c8.9-6.1,19.2-11.4,30.2-11.1c9.3,0.2,18.8,4.6,23.3,13.1C67.2,39.3,68.5,38.6,68.1,37.7L68.1,37.7z"
					/>
			</g>
		</g>
		<g>
			<g>
				<path class="st0" d="M79.8,111.6c-4.4,11-18.2,8.3-26.6,4.5c-6.7-3-15.4-9.4-23-5.7c0.3,0.1,0.7,0.2,1,0.3
					c-3.2-5.6-6.3-12.2-6.9-18.8c-0.5-6.2,2.9-13.6,10.1-12.9c1,0.1,1-1.4,0-1.5c-6.5-0.6-11,5.1-11.6,11.1
					c-0.8,7.8,3.3,16.2,7,22.9c0.2,0.4,0.7,0.4,1,0.3c5.3-2.6,11.4,0.8,16.1,3.1c4.5,2.2,9.1,4.5,14.1,5.6c7.8,1.7,16.8-0.5,20-8.5
					C81.6,111.1,80.2,110.7,79.8,111.6L79.8,111.6z"/>
			</g>
		</g>
		<g>
			<g>
				<path class="st0" d="M75.5,107.1c-9.5-0.8-18.4-4.4-25.8-10.3c0,0.3,0.1,0.6,0.1,0.9c6-12.2,19.9-18,32.8-13.7
					c0.9,0.3,1.3-1.1,0.4-1.4C69.5,78.1,54.7,84.2,48.4,97c-0.1,0.3-0.1,0.7,0.1,0.9c7.7,6.2,17,9.9,26.9,10.8
					C76.4,108.7,76.4,107.2,75.5,107.1L75.5,107.1z"/>
			</g>
		</g>
		<g>
			<g>
				<path class="st0" d="M95.4,80.7c-3.8-0.1-7.4,0.8-11.1,1.8c-3.7,1.1-7.4,2.2-10.8,4.1c-6.6,3.7-12,9.9-17.6,15
					c-0.7,0.7,0.4,1.7,1.1,1.1c5.2-4.9,10.4-10.6,16.5-14.3c3.2-1.9,6.8-3,10.3-4.1c3.8-1.1,7.6-2.2,11.6-2
					C96.4,82.3,96.4,80.8,95.4,80.7L95.4,80.7z"/>
			</g>
		</g>
		<g>
			<g>
				<path class="st0" d="M97.4,78.3c1.1-5.2,1.6-10.5,1.5-15.8c-0.1-4.2-0.1-9.3-2.2-13c-2-3.7-6-4.7-9.9-4.5
					c-4.1,0.3-9.4,0.6-11.4,4.8c-0.4,0.8,0.5,1.5,1.2,0.9c2.8-2.6,6.8-2.6,10-0.7c3.2,1.9,5.1,5.2,6.3,8.6c2.4,6.8,2.7,14.5,2,21.6
					c-0.1,1,1.4,1,1.5,0c0.9-8.5,0.5-19.2-4.2-26.7c-3.5-5.6-11.2-8.9-16.6-3.8c0.4,0.3,0.8,0.6,1.2,0.9c1.9-3.8,8.2-4.2,12-4.1
					c4.7,0.2,7.2,3.2,8,7.6c1.4,7.7,1,16.1-0.7,23.8C95.8,78.8,97.2,79.2,97.4,78.3L97.4,78.3z"/>
			</g>
		</g>
		<g>
			<g>
				<path class="st0" d="M87.6,55.7c-6.7-5.2-15-9.8-22.4-3.1c-3.4,3.1-5,7.3-6.8,11.3c-1.8,4-3.6,8-4.6,12.3
					c-0.2,0.9,1.2,1.3,1.4,0.4c0.8-3.5,2.2-6.8,3.7-10.1c1.5-3.3,2.8-6.8,4.8-9.9c2.6-3.7,6.5-6.5,11.2-5.9
					c4.5,0.5,8.2,3.4,11.7,6.1C87.3,57.3,88.4,56.3,87.6,55.7L87.6,55.7z"/>
			</g>
		</g>
		<g>
			<g>
				<path class="st0" d="M65.5,82.1c-8-2.9-14.1-8.4-18.3-15.7c-0.4-0.7-1.4-0.3-1.4,0.4c-0.5,8.5,0.6,18.5,9,22.8
					c0.9,0.4,1.6-0.9,0.8-1.3c-7.9-4.1-8.8-13.6-8.3-21.5c-0.5,0.1-0.9,0.3-1.4,0.4c4.4,7.6,10.9,13.4,19.2,16.4
					C66,83.9,66.4,82.4,65.5,82.1L65.5,82.1z"/>
			</g>
		</g>
		<g>
			<g>
				<path class="st0" d="M87.9,55c-2.8,2.5-5.8,4.7-9.2,6.3c-3.5,1.7-7.3,2.5-11,3.7c-5.9,1.9-10.6,5.8-13.5,11.3
					c-0.5,0.9,0.8,1.6,1.3,0.8c1.6-3.1,3.9-5.8,6.8-7.8c3-2.1,6.5-3,10-4c6.3-1.8,11.9-4.8,16.7-9.2C89.7,55.4,88.6,54.3,87.9,55
					L87.9,55z"/>
			</g>
		</g>
		<g>
			<g>
				<path class="st0" d="M84.1,70.1c-4.3-4.2-9.8-5.6-15.7-5.3c-1,0-1,1.5,0,1.5c5.5-0.2,10.6,1,14.6,4.9
					C83.8,71.9,84.8,70.8,84.1,70.1L84.1,70.1z"/>
			</g>
		</g>
		<g>
			<g>
				<path class="st0" d="M95.6,68.8c-10.8-0.5-21.4,4.3-28,12.8c-0.6,0.8,0.5,1.8,1.1,1.1c6.4-8.2,16.5-12.9,26.9-12.4
					C96.5,70.3,96.5,68.8,95.6,68.8L95.6,68.8z"/>
			</g>
		</g>
		<g>
			<g>
				<path class="st0" d="M84.3,70.9c0.9-5.8,4.1-10.5,8.8-13.9c0.8-0.6,0-1.9-0.8-1.3c-5,3.6-8.5,8.6-9.5,14.8
					C82.7,71.4,84.2,71.8,84.3,70.9L84.3,70.9z"/>
			</g>
		</g>
		<g>
			<g>
				<path class="st0" d="M87.8,56c0.6,0.9,0.8,2,0.4,3.1c-0.3,0.9,1.2,1.3,1.4,0.4c0.5-1.4,0.2-3-0.6-4.2
					C88.5,54.4,87.2,55.2,87.8,56L87.8,56z"/>
			</g>
		</g>
		<g>
			<g>
				<path class="st0" d="M65.1,67.4c0.8-3.2,2.4-6.2,4.9-8.3c3.8-3.2,7.3-0.3,10,2.7c0.6,0.7,1.7-0.3,1.1-1.1
					c-2.6-2.8-6.1-5.9-10.1-4c-3.9,1.8-6.4,6.3-7.3,10.3C63.5,67.9,64.9,68.3,65.1,67.4L65.1,67.4z"/>
			</g>
		</g>
		<g>
			<g>
				<path class="st0" d="M65.4,53.2c-2.4-2.7-3.6-6.7-7.2-8.2c-3-1.2-5.3,0.4-6.9,2.9c-4.3,6.6-5.2,15.1-3,22.6
					c0.3,0.9,1.7,0.5,1.4-0.4C47.9,64,48.3,57.4,51,51.6c0.6-1.3,1.3-2.6,2.2-3.7c1.8-2.1,4.4-2,6.4-0.1c2,1.9,3,4.5,4.8,6.5
					C64.9,55,66,53.9,65.4,53.2L65.4,53.2z"/>
			</g>
		</g>
		<g>
			<g>
				<path class="st0" d="M88.3,45.2c-1.2-7.3-8.9-9.6-15.3-8.9c-6.2,0.7-14.6,2.5-17.1,9c-0.4,0.9,1.1,1.3,1.4,0.4
					c2.2-5.6,10-7.1,15.3-7.8c5.9-0.8,13.1,0.9,14.3,7.7C87,46.6,88.4,46.2,88.3,45.2L88.3,45.2z"/>
			</g>
		</g>
		<g>
			<g>
				<path class="st0" d="M49.6,95.3C39.4,86,31.4,73.7,31.4,59.5c0-6.5,1.6-14.7,6.7-19.3c6.6-5.8,15.3-0.9,19.2,5.4
					c0.5,0.8,1.8,0.1,1.3-0.8c-3.6-5.8-10.2-10.4-17.2-8.2c-7.1,2.2-10.1,10.8-11,17.4c-2.4,16.4,6.5,31.6,18.3,42.3
					C49.2,97,50.3,96,49.6,95.3L49.6,95.3z"/>
			</g>
		</g>
		<g>
			<g>
				<path class="st0" d="M55,88.6c-12-7.8-18.2-21.7-16.4-35.8c0.1-1-1.4-0.9-1.5,0c-1.9,14.7,4.8,29,17.1,37.1
					C55.1,90.4,55.8,89.2,55,88.6L55,88.6z"/>
			</g>
		</g>
		<g>
			<g>
				<path class="st0" d="M98.2,109.7c6.9,4.9,13.5,11.5,7.9,20.2c-1.9,3-4.1,6-6.8,8.3c-3.2,2.7-7.1,3.4-11.2,3.6
					c-3.3,0.2-6.6,0.2-9.8,0.9c-4,0.8-7.8,2-12,2.1c-7.6,0.1-15.1-3.1-20.3-8.7c-2.9-3.1-5.3-7.1-6.2-11.3c-1-4.6,0.7-10.2,6-11
					c1-0.1,0.5-1.6-0.4-1.4c-3.3,0.5-5.9,3-6.9,6.1c-1.3,3.9-0.1,8.2,1.7,11.8c3.7,7.6,10.8,13.3,19.1,15.2c4.4,1,8.9,0.9,13.3,0
					c5-1,9.6-1.9,14.7-2.1c4.1-0.2,8.2-0.7,11.6-3c3.4-2.3,6-5.9,8.3-9.3c2.5-3.9,3.6-8.1,1.6-12.5c-2-4.5-6-7.4-9.9-10.1
					C98.2,107.9,97.5,109.2,98.2,109.7L98.2,109.7z"/>
			</g>
		</g>
		<g>
			<g>
				<path class="st0" d="M47.1,138.6c-3.7,6.7-12,6-18.2,3.9c-6-2.1-12.5-5.3-15.5-11.2c-2.8-5.6-0.8-12.4-3-18.3
					c-1.7-4.7-4.9-8.5-9-11.2c0.1,0.3,0.2,0.7,0.3,1c4.6-9.6,10.8-21.6,22.9-22.1c1,0,1-1.5,0-1.5C11.8,79.8,5.2,91.9,0.3,102.1
					c-0.2,0.4-0.1,0.8,0.3,1c6.4,4.1,9.4,10.6,9.6,18c0.1,3.3,0.1,6.6,1.3,9.7c1,2.6,2.8,4.8,4.8,6.6c7.5,6.6,25.7,13.6,32.1,1.9
					C48.9,138.5,47.6,137.8,47.1,138.6L47.1,138.6z"/>
			</g>
		</g>
		<g>
			<g>
				<path class="st0" d="M131.7,118.1c1.6,1.3,3.1,2.8,4.2,4.5c0.4,0.6,1.1,1.4,1.2,2.1c0.2,1-0.1,1.8-0.7,2.4
					c-0.2,0.2-0.5,0.3-0.6,0.4c-2.2,1.7-2.3,4.5-1.9,7c0.4,2.1,1,4.1,0.9,6.3c-0.1,2.7-0.9,5.3-2.1,7.8c-1.7,3.5-4.4,6.6-7.2,9.3
					c-3.2,3.1-7.3,5.9-12,4.6c-3.3-0.9-6.2-3.1-9.5-3.8c-3.2-0.7-6.1,0.2-9,1.5c-3.8,1.8-8.4,4.9-12.8,3c-3.4-1.5-4.8-5.5-7.7-7.7
					c-2.9-2.2-11.8-4.5-9.1-9.8c0.4-0.9-0.9-1.6-1.3-0.8c-1.5,2.9,0.1,6,2.5,7.8c1.7,1.3,3.7,1.9,5.5,3c2,1.1,3.4,2.8,4.8,4.6
					c2.3,3,4.9,5.3,8.9,5c4.6-0.3,8.2-3.4,12.5-4.7c5-1.6,8.7,1.1,13.2,2.9c3.8,1.5,7.4,1.1,10.8-1c7.1-4.4,13.7-13.1,14-21.6
					c0.1-2.8-1-5.4-1.1-8.2c0-1.8,0.5-3.2,2-4.2c0.6-0.4,1.2-0.6,1.5-1.2c0.9-1.5-0.3-3.3-1.1-4.6c-1.3-2.1-3-3.9-4.9-5.5
					C132,116.5,130.9,117.5,131.7,118.1L131.7,118.1z"/>
			</g>
		</g>
	</g>
</g>
</svg>
