<?xml version="1.0" encoding="utf-8"?>
<!-- Generator: Adobe Illustrator 21.1.0, SVG Export Plug-In . SVG Version: 6.00 Build 0)  -->
<svg version="1.1" id="Guides" xmlns="http://www.w3.org/2000/svg" xmlns:xlink="http://www.w3.org/1999/xlink" x="0px" y="0px"
	 viewBox="0 0 1366 861" style="enable-background:new 0 0 1366 861;" xml:space="preserve">
<style type="text/css">
	.st0{fill:none;stroke:#C072D3;}
</style>
<path class="st0" d="M0,485c76.8-18.7,207.7-40.3,366-14c34.1,5.7,153.9,27.6,292,102c165.7,89.2,271.5,207.6,331.3,288"/>
<path class="st0" d="M0,258.9c59.1-78.7,118.8-111.5,161.9-127.1c155.3-55.9,254.3,55.8,444.1,3.4c106.6-29.4,84.8-67.1,178.8-84.4
	c165.5-30.5,248.4,83.7,401.6,53.5c45.6-9,109.7-33.2,179.6-104.2"/>
<path class="st0" d="M0,190.2c33.7-19.1,86.4-42,148.2-36.6c158.6,13.7,183.5,183.2,352.6,271.3c187.1,97.5,305.1-36,542.3,39.6
	c157.6,50.2,262.5,159.1,322.9,235.8"/>
<path class="st0" d="M439,861c24.7-24,66.4-60.7,124.8-93.9c198.3-112.7,350-48.6,526.6-120.2c75.5-30.6,179.2-95.7,275.7-252.5"/>
<path class="st0" d="M0,719.1c32.7,27.6,83.6,62.7,152,79.9c100.4,25.1,160.1-8.2,269-4.6c58.8,2,141.8,15.1,241.5,66.6"/>
</svg>
