<?xml version="1.0" encoding="utf-8"?>
<!-- Generator: Adobe Illustrator 21.1.0, SVG Export Plug-In . SVG Version: 6.00 Build 0)  -->
<svg version="1.1" id="Guides" xmlns="http://www.w3.org/2000/svg" xmlns:xlink="http://www.w3.org/1999/xlink" x="0px" y="0px"
	 viewBox="0 0 150 150" style="enable-background:new 0 0 150 150;" xml:space="preserve">
<style type="text/css">
	.st0{fill:#7F0099;}
</style>
<g>
	<g>
		<path class="st0" d="M150,75.1c0,41.4-33.6,74.9-75.1,74.8c-41.5,0-75-33.5-74.9-75C0,33.7,33.4,0.4,74.4,0.1
			C116.2-0.2,150.1,33.5,150,75.1z M75,148.9c41.1,0,74.5-33.7,73.9-74.8C148.4,34,115.5,1,74.7,1.1C34.2,1.2,1,34.5,1.1,75.1
			C1.1,115.8,34.3,148.9,75,148.9z"/>
		<path class="st0" d="M75.2,128.9c-29.1,0-52.7-23.7-52.7-52.9c0-29.1,23.7-52.7,52.8-52.7c29.3,0,52.8,23.7,52.8,53
			C128.1,105.4,104.4,128.9,75.2,128.9z M75.3,127.8c28.6-0.1,51.7-23.2,51.7-51.8c0-28.5-23.3-51.7-52-51.6
			c-28.3,0.1-51.5,23.4-51.4,51.7C23.6,104.6,46.9,127.9,75.3,127.8z"/>
		<path class="st0" d="M20.7,106.4c0.3-0.2,0.5-0.4,0.6-0.4c0.3,0,0.6,0,0.9,0.1c-0.1,0.3-0.1,0.8-0.3,0.9c-0.5,0.5-1.1,0.9-1.8,1.3
			c-0.3,0.2-0.7,0.1-1.1,0.1c0.1-0.4,0.2-0.7,0.4-1.1c0-0.1,0.1-0.1,0.3-0.2c-5.7-10-8.7-20.7-8.6-32.1c0-11.4,2.9-22.1,8.6-32
			c0-0.1,0-0.2-0.1-0.2c-0.3-0.4-1.1-0.6-0.5-1.3c0.5-0.6,1,0,1.4,0.3c0.4,0.3,0.9,0.5,1.2,0.9c0.3,0.3,0.6,0.8,0.5,1
			c-0.2,0.6-0.7,0.3-1.1,0.1c-0.1-0.1-0.2-0.1-0.4-0.2c-5.5,9.5-8.3,19.7-8.5,30.6C12.1,85.6,14.9,96.4,20.7,106.4z"/>
		<path class="st0" d="M129.5,44.1c-0.7-0.1-1.4,0.1-1.6-0.2c-0.4-0.7,0.4-0.9,0.8-1.2c0.4-0.3,0.8-0.7,1.2-0.9
			c0.3-0.1,0.7-0.1,1.1-0.1c-0.1,0.4-0.2,0.7-0.4,1.1c0,0.1-0.2,0.2-0.2,0.2c11.3,21.4,11.3,42.8-0.1,64.2c0.2,0.2,0.5,0.4,0.7,0.6
			c0.1,0.2,0.2,0.6,0.1,0.7c-0.2,0.2-0.6,0.3-0.8,0.2c-0.7-0.4-1.3-0.8-1.9-1.3c-0.2-0.2-0.3-0.7-0.4-1c0.4,0,0.7-0.1,1.1-0.1
			c0.1,0,0.2,0,0.3,0.1C140.6,87.9,140.5,62.2,129.5,44.1z"/>
		<path class="st0" d="M106.8,18.3c0,3-2.4,5.4-5.3,5.4c-3.2,0-5.8-2.5-5.7-5.5c0.1-3,2.5-5.3,5.5-5.3
			C104.3,12.9,106.8,15.4,106.8,18.3z M97.7,18.7c0,1.8,1.5,3.4,3.3,3.4c2,0,3.7-1.9,3.7-4.2c0-1.9-1.5-3.3-3.4-3.3
			C99.5,14.5,97.7,16.5,97.7,18.7z"/>
		<path class="st0" d="M117.3,21.8c0.5,0.4,1,0.7,1.5,1c-1.9,2.8-3.9,5.5-5.8,8.2c-0.9-0.3-1.3-0.8-1.3-1.7
			c-0.1-2.4-0.3-4.8-0.6-7.4c-1.2,1.7-2.5,3.5-3.7,5.3c-0.5-0.3-0.9-0.7-1.5-1c2-2.8,3.9-5.5,5.8-8.2c0.9,0.3,1.3,0.8,1.3,1.7
			c0.1,2.4,0.2,4.8,0.4,7.2c0.1,0,0.2,0.1,0.2,0.1C114.8,25.3,116,23.6,117.3,21.8z"/>
		<path class="st0" d="M45.8,21.5c0.6,1.2,1.2,2.3,1.8,3.5c-0.6,0.3-1.2,0.6-1.8,0.9c-1.5-3-3-6-4.6-9.1c1.5-0.7,2.9-1.5,4.4-2
			c1.4-0.5,2.6-0.1,3.4,1c0.9,1.2,0.9,2.5,0,3.7c-0.1,0.1-0.2,0.2-0.2,0.3c1.5,1.6,2.7,2,4.1,1.3c0.2,0.3,0.3,0.6,0.5,1
			c-1.2,1.2-2.6,1.4-3.9,0.6c-0.6-0.4-1.1-0.8-1.7-1.2C46.8,20.8,46.8,20.8,45.8,21.5z M43.7,17.2c0.5,1,1,1.9,1.5,2.9
			c0.6-0.3,1.1-0.5,1.6-0.9c0.9-0.6,1.1-1.2,0.7-2.1c-0.5-0.9-1.1-1.1-2.1-0.7C44.8,16.6,44.3,16.9,43.7,17.2z"/>
		<path class="st0" d="M85.5,18.8c-0.7-0.2-1.3-0.3-1.9-0.5c0.7-3.3,1.4-6.5,2.1-9.8c0.6,0.1,1.2,0.2,1.9,0.4
			c-0.3,1.3-0.5,2.5-0.8,3.9c1.6,0.3,3.1,0.7,4.8,1c0.3-1.3,0.6-2.5,0.9-3.8c0.6,0.1,1.2,0.3,1.9,0.4c-0.7,3.3-1.4,6.5-2.1,9.9
			c-0.7-0.1-1.3-0.2-2-0.4c0.3-1.5,0.6-2.9,0.9-4.4c-1.5-0.3-3-0.7-4.5-0.9c-0.1,0-0.4,0.4-0.5,0.6C86.1,16.3,85.8,17.5,85.5,18.8z"
			/>
		<path class="st0" d="M123.8,32.9c-0.5,0.5-0.8,0.8-1.3,1.3c-0.9-1-1.6-1.9-2.5-2.8c-0.7,0.8-1.3,1.5-2,2.3c1,0.9,2.1,1.8,3.3,2.9
			c-0.6,0.6-1,0.9-1.3,1.2c-1.6-1.5-3.1-3-4.6-4.4c2.4-2.4,4.7-4.8,7-7.2c1.6,1.5,3.1,3,4.7,4.6c-0.4,0.4-0.7,0.7-1.1,1.1
			c-1.1-1.2-2.1-2.2-3.2-3.4c-0.6,0.7-1.2,1.2-1.9,2C121.9,31.3,122.8,32.1,123.8,32.9z"/>
		<path class="st0" d="M42.4,26.1c0.3,0.4,0.6,0.8,0.9,1.2c-1.8,1.3-3.5,2.6-5.3,3.9c-2-2.7-4-5.4-6-8.2c1.8-1.3,3.5-2.6,5.3-3.9
			c0.3,0.4,0.6,0.8,0.9,1.2c-1.2,0.9-2.4,1.8-3.6,2.7c0.5,0.7,0.9,1.3,1.4,2c1-0.7,2-1.4,3-2.2c0.3,0.4,0.6,0.7,0.9,1.2
			c-1,0.7-1.9,1.5-3,2.3c0.6,0.8,1.1,1.5,1.8,2.4C39.9,28,41.1,27.1,42.4,26.1z"/>
		<path class="st0" d="M70.9,16.5C71,17,71,17.4,71.1,18c-1.1,0.2-2.2,0.3-3.3,0.5c-1,0.1-2.1,0.3-3.2,0.4
			c-0.4-3.4-0.9-6.6-1.3-10.1c2.2-0.3,4.3-0.6,6.5-0.9c0.1,0.5,0.2,1,0.3,1.5c-1.3,0.2-2.5,0.4-3.7,0.5c-0.7,0.1-0.9,0.3-0.8,1
			c0.3,1.6-0.1,1.6,1.8,1.4c0.7-0.1,1.4-0.2,2.1-0.3c0.1,0.5,0.2,0.9,0.2,1.5c-1,0.2-2,0.3-2.9,0.4C66.1,14,66,14.3,66,14.8
			c0.1,2.3,0.1,2.3,2.4,2C69.2,16.7,70,16.6,70.9,16.5z"/>
		<path class="st0" d="M29.9,34.1c0.9,0.8,1.7,1.6,2.6,2.4c-0.5,0.5-0.9,1-1.5,1.6c-2.3-2.5-4.5-5-6.9-7.5c1-0.9,2.1-2.2,3.5-3.2
			c1.1-0.9,2.7-0.5,3.8,0.6c1.1,1.1,1.3,2.5,0.5,3.8C31.3,32.5,30.6,33.2,29.9,34.1z M28.9,32.9c0.7-0.9,1.8-1.4,1.5-2.7
			c-0.2-0.8-0.7-1.3-1.5-1.5c-1.3-0.2-1.8,1-2.5,1.6C27.3,31.2,28.1,32,28.9,32.9z"/>
		<path class="st0" d="M76,14.3c0,1.2,0,2.4,0,3.5c-0.7,0-1.3,0-2,0c0.1-3.4,0.2-6.7,0.3-10.2c1.7,0.1,3.4,0.1,5,0.4
			c1.5,0.3,2.3,1.5,2.2,3.2c-0.1,1.6-0.9,2.7-2.4,2.9C78.1,14.3,77.1,14.3,76,14.3z M76.2,11C76.1,11,76.1,11,76.2,11
			c0,0.2,0,0.4,0,0.7c0,1.2,0,1.2,1.2,1.2c0.1,0,0.3,0,0.4,0c1.2,0,1.8-0.7,1.8-1.8c0-1.3-0.7-1.8-2.4-1.8c-1.5-0.1-0.8,1-1,1.6
			C76.1,10.9,76.2,11,76.2,11z"/>
		<path class="st0" d="M54.7,19.3c1.1,0,2.2,0.1,3.2,0c0.8-0.1,1.5-0.6,1.5-1.6c0-0.8-0.6-1.3-1.7-1.4c-0.7,0-1.4,0-2.1,0
			c-1.5-0.1-2.4-1-2.6-2.3c-0.3-1.3,0.2-2.5,1.6-3.1c0.9-0.4,1.9-0.6,2.8-0.6c1.3-0.1,1.4,0.2,1.2,1.6c-0.8,0-1.6-0.1-2.4,0
			c-1,0.1-1.7,0.8-1.5,1.5c0.2,0.9,0.9,1,1.7,1.1c0.9,0,1.8,0,2.6,0.2c1.3,0.3,1.9,1.3,2.1,2.6c0.2,1.2-0.4,2.1-1.3,2.8
			c-1.2,0.8-2.5,1.1-3.9,0.9C54.6,20.7,54.5,20.6,54.7,19.3z"/>
		<path class="st0" d="M61.3,136.2c0,1.4-1.1,2.5-2.5,2.5c-1.5,0-2.6-1.1-2.7-2.5c0-1.4,1.1-2.5,2.5-2.5
			C60.1,133.8,61.2,134.9,61.3,136.2z M57.3,136.4c0,0.8,0.6,1.4,1.3,1.4c0.7,0,1.4-0.8,1.4-1.7c0-0.8-0.5-1.3-1.3-1.3
			C58,134.7,57.3,135.5,57.3,136.4z"/>
		<path class="st0" d="M110.8,129.9c-0.4-0.6-0.7-1-1.1-1.6c-0.5,0.3-1,0.7-1.6,1c0.3,0.6,0.6,1.1,1,1.6c-0.3,0.2-0.6,0.4-1,0.7
			c-0.8-1.3-1.7-2.5-2.5-3.9c0.3-0.2,0.6-0.4,0.9-0.7c0.4,0.5,0.7,0.9,1,1.4c0.5-0.3,1-0.7,1.5-1c-0.3-0.5-0.5-0.9-0.8-1.4
			c0.3-0.2,0.6-0.4,0.9-0.7c0.9,1.3,1.7,2.6,2.5,3.9C111.4,129.4,111.1,129.6,110.8,129.9z"/>
		<path class="st0" d="M66.7,138c0.1-0.8,0.3-1.5,0.4-2.4c0.3,0,0.6,0.1,1,0.1c-0.2,1.6-0.4,3-0.7,4.6c-1.8-0.2-1.5-2.1-2.7-2.9
			c-0.1,0.8-0.3,1.5-0.4,2.4c-0.3,0-0.6-0.1-1-0.1c0.2-1.6,0.5-3,0.7-4.6C65.7,135.3,65.5,137.1,66.7,138z"/>
		<path class="st0" d="M121.5,120.7c-1.2,1-2.6-0.1-4,0.3c0.7,0.6,1.4,1,2.1,1.6c-0.4,0.5-0.6,0.7-0.8,0.9c-1.2-1.1-2.2-2.2-3.3-3.2
			c0.4-0.9,1.2-0.5,1.8-0.5c0.6,0,1.3,0.1,2.2,0.3c-0.7-0.8-1.3-1.4-1.9-2c0.2-0.2,0.4-0.4,0.6-0.6
			C119.3,118.5,120.4,119.6,121.5,120.7z"/>
		<path class="st0" d="M90.3,138.8c-1.5,1-2.1-0.6-3.3-1.1c0,0.4-0.2,0.7-0.1,1c0.3,0.9-0.1,1.2-1,1c-0.3-1.4-0.6-2.9-0.9-4.4
			c0.4-0.1,0.7-0.2,1.1-0.3c0.1,0.6,0.3,1.1,0.4,1.7c1-0.6,0.9-2.3,2.5-2.2c-0.4,0.6-0.7,1.2-1,1.7c-0.1,0.2,0,0.7,0.2,0.9
			C88.8,137.7,89.5,138.2,90.3,138.8z"/>
		<path class="st0" d="M48,134.8c-0.7-0.2-1.1-0.4-1-1.1c0-0.7-1.3-1.3-1.9-0.9c-0.6,0.4-0.6,0.4-1.4-0.2c1.2-1,2.3-2,3.4-2.9
			c0.5-0.4,1.2-0.1,1.2,0.5C48.2,131.7,48.1,133.2,48,134.8z M47.2,131.1c-0.1,0-0.1-0.1-0.2-0.1c-0.3,0.3-0.6,0.6-1,0.9
			c0.4,0.2,0.7,0.3,1.1,0.5C47.2,131.9,47.2,131.5,47.2,131.1z"/>
		<path class="st0" d="M42.1,130.7c-0.2,0.3-0.3,0.5-0.5,0.7c-0.9-0.6-1.8-1.1-2.7-1.7c0.9-1.3,1.7-2.6,2.5-3.9
			c0.9,0.6,1.8,1.1,2.7,1.7c-0.2,0.3-0.3,0.5-0.4,0.7c-0.6-0.3-1.1-0.7-1.7-1c-0.8,1.1,0.5,1,0.8,1.7c-0.1,0.2-0.2,0.4-0.4,0.6
			c-0.5-0.3-0.9-0.5-1.3-0.8c-0.2,0.3-0.4,0.5-0.6,0.8C40.9,129.9,41.5,130.3,42.1,130.7z"/>
		<path class="st0" d="M111.1,123.8c0.9-0.7,1.6-1.3,2.5-2c0.2,0.2,0.4,0.4,0.6,0.7c-0.5,0.4-1,0.8-1.4,1.2c0.2,0.8,0.6,0.6,1,0.2
			c0.4-0.4,0.8-0.6,1.1,0.2c-0.3,0.3-0.7,0.7-1.1,1c0.2,0.3,0.4,0.5,0.6,0.8c0.5-0.4,1-0.8,1.6-1.2c0.2,0.2,0.3,0.4,0.6,0.6
			c-0.8,0.7-1.6,1.3-2.5,2C113.1,126.2,112.1,125,111.1,123.8z"/>
		<path class="st0" d="M69.9,140.5c0.7-1.4,1.3-2.8,1.9-4.1c0.3-0.5,1.1-0.5,1.3,0.1c0.5,1.4,1,2.7,1.6,4.2
			c-0.7,0.1-1.1,0.2-1.4-0.6c-0.2-0.7-1.8-0.7-2.1,0C70.9,140.7,70.6,140.7,69.9,140.5z M72.6,137.7c-0.1,0-0.2,0-0.2,0
			c-0.2,0.4-0.3,0.8-0.5,1.2c0.5,0,0.7,0,1.1,0C72.8,138.4,72.7,138,72.6,137.7z"/>
		<path class="st0" d="M30.1,122.4c-0.6-0.4-0.9-0.7-0.6-1.3c0.3-0.6-0.8-1.6-1.5-1.5c-0.4,0-0.8-0.1-1.2-0.2c0-0.1,0-0.3,0-0.4
			c1.4-0.6,2.9-1.1,4.3-1.6c0.5-0.2,1,0.5,0.8,1C31.3,119.7,30.7,121,30.1,122.4z M30.6,118.7c-0.1-0.1-0.1-0.1-0.2-0.2
			c-0.4,0.2-0.8,0.3-1.4,0.6c0.4,0.4,0.6,0.6,0.9,0.9C30.3,119.4,30.5,119.1,30.6,118.7z"/>
		<path class="st0" d="M38.7,125.2c-0.5-0.5-0.7-0.9-1-1.2c-0.1-0.1-0.4,0-0.6-0.1c0,0.2-0.1,0.4,0,0.6c0.2,0.3,0.5,0.6,0.6,1
			c0.1,0.5,0.1,1.3-0.2,1.6c-0.3,0.3-1.1,0.5-1.6,0.4c-0.6-0.2-1-0.8-1.4-1.2c-0.4-0.4-0.2-0.8,0.4-1c0.3,0.4,0.5,0.8,0.9,1.2
			c0.2,0.2,0.5,0.1,0.8,0.2c0-0.3,0-0.6,0-0.8c0-0.1-0.1-0.2-0.2-0.3c-0.4-0.6-0.7-1.3-0.2-1.9c0.3-0.3,0.9-0.7,1.2-0.6
			c0.7,0.3,1.2,0.9,1.8,1.4C39.1,124.5,38.9,124.8,38.7,125.2z"/>
		<path class="st0" d="M54.1,133.4c-0.3-0.2-0.7-0.5-1-0.6c-0.2-0.1-0.4,0-0.6,0.1c0,0.2,0,0.4,0.1,0.6c0.2,0.3,0.6,0.5,0.8,0.7
			c0.5,0.5,0.6,1.2,0.2,1.7c-0.3,0.4-0.9,0.7-1.4,0.7c-0.6,0-1.2-0.4-1.7-0.7c-0.5-0.3-0.5-0.7,0-1.1c0.3,0.3,0.6,0.6,1,0.8
			c0.3,0.1,0.6,0,0.9,0c-0.1-0.3-0.2-0.6-0.3-0.8c-0.2-0.3-0.6-0.4-0.7-0.7c-0.1-0.5-0.3-1.1-0.1-1.5c0.2-0.4,0.9-0.6,1.3-0.6
			c0.5,0,1,0.3,1.4,0.7c0.2,0.1,0.2,0.6,0.2,0.9C54.4,133.4,54.2,133.4,54.1,133.4z"/>
		<path class="st0" d="M105,132c0.6,0.5,0.4,1-0.1,1.4c-0.9,0.7-2.2,0.9-3.1,0.4c-0.9-0.6-1.4-1.7-1.1-2.7c0.2-1,1.2-1.8,2.3-2
			c0.6-0.1,0.7,0,1,0.8c-0.9,0.1-2,0.2-2.1,1.4c0,0.5,0.4,1.3,0.9,1.6C103.7,133.4,104.4,132.6,105,132z"/>
		<path class="st0" d="M98.3,131.4c0.1,0.3,0.2,0.5,0.3,0.8c-0.4,0.2-0.8,0.4-1.3,0.6c0.4,1.1,0.8,2.3,1.3,3.5
			c-0.4,0.2-0.7,0.3-1.1,0.4c-0.3-0.9-0.7-1.7-1-2.5c-0.2-0.8-0.7-1.1-1.4-0.6c-0.1,0.1-0.2,0.1-0.4,0.1c-0.1-0.3-0.2-0.5-0.3-0.8
			C95.7,132.3,97,131.9,98.3,131.4z"/>
		<path class="st0" d="M80.4,140c-0.2,0.2-0.4,0.4-0.7,0.6c0,0-0.1,0-0.1,0c-2.5,0.2-2.5,0.2-2.6-2.3c0-0.7-0.1-1.4-0.1-2.2
			c0.4,0,0.7-0.1,1.2-0.1c0.1,0.9,0.2,1.8,0.1,2.6c0,0.9,0.2,1.3,1.2,1.1c0.3-0.1,0.6,0,0.8,0C80.3,139.8,80.3,139.9,80.4,140z"/>
		<path class="st0" d="M92.7,138.3c-0.5-1.5-0.9-2.9-1.3-4.4c0.4-0.1,0.7-0.3,1.1-0.4c0.5,1.5,0.9,2.9,1.3,4.4
			C93.4,138,93.1,138.1,92.7,138.3z"/>
		<path class="st0" d="M72.6,137.7c0.1,0.4,0.2,0.8,0.4,1.2c-0.4,0-0.7,0-1.1,0c0.2-0.5,0.4-0.9,0.5-1.2
			C72.4,137.7,72.5,137.7,72.6,137.7z"/>
		<path class="st0" d="M97.3,76.4c0.2,0.3,0.2,0.4,0.3,0.6c2,2.6,0.4,5.9-2.3,6.8c-1.3,0.4-2.7,0.7-4.1,0.8c-3,0.3-3.5,0.6-4,3.6
			c-0.4,2.4-0.4,4.8-0.5,7.2c0,0.3,0.3,0.8,0.6,1c3,1.6,5.9,3.2,8.9,4.7c1.7,0.9,3.5,1.6,5.2,2.4c0.7,0.3,0.8,0.7,0.7,1.4
			c-0.4,2-1.3,3.7-2.5,5.2c-4.3,5.7-10.1,9-17,10.3c-12.8,2.4-23.7-1.8-32.9-10.6c-1-1-1.8-2.3-2.6-3.5c-0.5-0.8-0.4-1.5,0.5-2
			c0.6-0.4,1.1-0.8,1.7-1.2c0.6-0.4,1.2-0.7,0.9-1.7c-0.1-0.4,0.4-1.1,0.9-1.4c0.8-0.6,1.7-1.1,2.6-1.7c-0.5-1.1-1-2-1.4-3.1
			c-0.7-1.9-0.9-3.8-0.6-5.8c0.1-0.6-0.1-1.1-0.5-1.6c-2.7-3.1-3.7-6.8-3.3-10.8c0.1-1.6,0.6-3.2,0.9-4.8c0.1-0.4,0.1-0.8-0.1-1.1
			C45.7,65.8,45,60,45.7,54c0.5-4.1,1.6-7.9,3.7-11.5c2.7-4.7,6.7-7.9,11.7-9.7c6.8-2.4,13.7-3.1,20.7-1.1c2.5,0.7,4.8,2,7.2,3
			c0.8,0.3,1.7,0.7,2.5,0.9C93.8,36,96,36.7,98,38c3.7,2.5,5,6.2,4.7,10.5c-0.2,3-1.2,5.6-3.7,7.6c-0.2,0.2-0.3,0.7-0.2,1
			c1,2.3,2,4.5,3,6.8c0.3,0.6,0.5,1.2,0.7,1.8c0.4,1.4-0.2,2.5-1.6,3.1c-0.1,0-0.2,0.1-0.4,0.1c-1.8,0.5-1.7,0.5-1.1,2.2
			c0.2,0.6-0.3,1.3-0.5,2c-0.1,0.3-0.3,0.7-0.2,1c0.2,1.1,0,1.6-0.9,2.1C97.6,76.1,97.5,76.2,97.3,76.4z M81.4,54.8
			c1.7,0,3.4-0.2,4.9-1.4c0.2-0.2,0.6-0.1,0.9-0.2c-0.2,0.3-0.2,0.7-0.5,0.9c-0.7,0.5-1.4,0.9-2.2,1.3c0.3,0.4,0.5,0.6,0.6,0.9
			c6.6-2.1,11.4-8.3,10.4-15.4c0-0.3,0.2-0.7,0.3-1c0.2,0.3,0.6,0.5,0.7,0.9c0.4,1.9,0.2,3.8-0.3,5.7c-0.1,0.3-0.2,0.7-0.1,1
			c0.7,2,1.5,4,2.3,6.1c0.8-2.7,0.9-5.2-0.1-7.8c-0.1-0.3,0-0.7,0-1.1c0.3,0.2,0.7,0.4,0.9,0.6c0.9,1.8,0.9,3.7,0.7,5.6
			c-0.1,0.8-0.2,1.6-0.4,2.6c0.2-0.1,0.3-0.2,0.3-0.3c2.3-3,2.6-9.9-1.3-13.5c-2.3-2.1-5.1-3-8-3.4c-1.2-0.2-2.4-0.2-3.7-0.3
			c-0.2,0-0.5-0.3-0.7-0.5c0.2-0.2,0.3-0.4,0.5-0.5c0.1-0.1,0.2-0.1,0.4-0.1c-0.2-0.1-0.3-0.2-0.4-0.3c-2.2-0.8-4.3-1.8-6.5-2.4
			c-4.8-1.3-9.7-0.9-14.5,0.1c-5.2,1.1-9.9,3.3-13.3,7.4c-5.3,6.4-6.7,14-5.9,22.1c0.7,6.7,4.2,12,9.2,16.4c1.6,1.4,3.5,2.7,5.3,4.1
			c0.4-0.8,0.6-1.4,0.9-2c0.3-0.6,0.5-1.2,0.8-1.7c-0.1-0.1-0.1-0.2-0.1-0.2c-0.4-0.2-0.8-0.4-1.3-0.6c-9.3-4.7-13.7-12.3-13.6-22.6
			c0-0.4-0.3-1.1,0.5-1.2c0.1,0,0.3,0.8,0.3,1.2c-0.1,7.2,2.2,13.3,7.6,18.2c2.1,1.8,4.5,3.2,7.1,4.3c0.6-1,1.1-1.9,1.7-2.9
			c-0.3-0.2-0.4-0.3-0.6-0.4c-6.9-3.2-11-8.6-12.7-15.9c-1-4.4-0.6-8.7,0.8-12.9c0.1-0.4,0.3-0.9,0.8-0.4c0.1,0.1,0,0.6-0.1,0.9
			c-1.1,3.4-1.6,6.9-1,10.5c1.1,6.6,4.1,12,9.8,15.6c1.1,0.7,2.2,1.2,3.3,1.8c0.1-0.1,0.1-0.2,0.2-0.2c-1.4-0.8-2.2-1.9-2.2-3.5
			c0-0.2-0.4-0.4-0.7-0.5c-2-0.4-3-2.1-2.6-4c0.1-0.3-0.1-0.7-0.3-1c-1-1.4-2.3-2.6-2.9-4.1c-3.1-7.5-1.4-14.3,3-20.7
			c0.2-0.2,0.5-0.3,0.8-0.4c0,0.3,0,0.6-0.1,0.9c-0.8,1.3-1.7,2.6-2.3,4c-2.2,4.7-2.9,9.6-1.2,14.7c0.7,2.1,1.9,4,3.7,5.4
			c0.5-0.3,0.9-0.6,1.4-0.8c0.5-0.2,1-0.4,1.7-0.6c-0.8-0.2-1.5-0.3-2.1-0.5c-2.3-0.7-3-2.5-2-4.6c0.2-0.3,0.2-0.8,0.1-1.1
			c-0.6-2-0.8-4.1-0.4-6.2c0.7-4.1,2.6-7.7,5-11.1c0.2-0.3,0.7-0.5,1.1-0.7c-0.1,0.4-0.2,0.9-0.4,1.2c-2.4,3.4-4.3,7-4.9,11.2
			c-0.3,1.8-0.2,3.7,0.6,5.5c0.9-0.2,1.5-0.4,1.2-1.5c-0.2-1.1,0.3-2.1,1.2-2.8c0.2-0.2,0.4-0.6,0.5-0.9c0.2-1.3,0.2-2.7,0.7-3.8
			c0.7-1.7,1.8-3.3,2.8-4.9c0.1-0.2,0.5-0.2,0.8-0.3c0,0.3,0,0.6-0.1,0.8c-0.1,0.2-0.3,0.3-0.4,0.5c-0.8,1.5-1.8,2.9-2.4,4.4
			c-0.4,1-0.5,2.2-0.7,3.3c1,0.3,1.7,0.5,2.5,0.7c0-0.2,0.1-0.4,0.1-0.6c0-2.4,1-4.5,2.4-6.3c0.2-0.2,0.6-0.3,0.9-0.4
			c-0.1,0.3-0.1,0.6-0.2,0.9c0,0.1-0.2,0.2-0.2,0.3c-1.3,2-2.3,4.1-1.9,6.6c0.1,0.6,0.4,1.1,0.7,1.6c0.1,0,0.2-0.1,0.2-0.1
			c-0.1-0.4-0.2-0.8-0.3-1.3c-0.4-2.4,0.7-4.1,2.8-4.2c0.8,0,1.3-0.3,1.6-1c0.8-1.7,1.6-3.5,2.5-5.2c0.1-0.2,0.4-0.4,0.7-0.6
			c0,0.3,0.1,0.6,0.1,0.9c0,0.2-0.1,0.4-0.2,0.5c-0.9,1.9-1.7,3.7-2.7,5.7c0.3,0.2,0.6,0.5,1.1,1c0.7-1,1.6-1.9,2.1-2.9
			c1-2.1,1.8-4.2,2.7-6.3c0.1-0.3,0.4-0.5,0.6-0.7c0.1,0.3,0.3,0.7,0.2,1c-0.8,2.8-1.9,5.5-3.5,7.9c-0.1,0.2-0.2,0.4-0.3,0.6
			c0.5,0,0.9,0,1.3,0.1c0.8,0.3,1.2,0,1.7-0.6c2.3-2.6,3.8-5.6,4.8-8.9c0.1-0.3,0.5-0.5,0.7-0.8c0.1,0.3,0.3,0.7,0.2,1
			c-0.9,3.4-2.4,6.5-4.8,9.1c-0.8,0.9-0.8,1.5,0.1,2.6c1.5-1.2,3-2.5,4.6-3.7c0.2-0.2,0.6-0.2,0.9-0.4c-0.1,0.3-0.1,0.8-0.3,0.9
			c-1.6,1.3-3.2,2.6-4.8,3.8c-0.5,0.4-0.9,0.7-0.7,1.5c1.4-0.7,2.7-1.2,3.9-1.9c3.1-1.8,5.6-4.3,7.2-7.5c0.1-0.3,0.7-0.7,0.8-0.6
			c0.6,0.2,0.2,0.7,0.1,1.1c-0.1,0.3-0.3,0.6-0.5,0.9c-2.2,3.8-5.3,6.4-9.2,8.2C81.9,54.4,81.7,54.7,81.4,54.8
			c-1.3-0.1-2.6,0.5-3,1.5C79.4,55.8,80.4,55.3,81.4,54.8z M95.7,49c-0.1,0-0.2,0-0.3,0c-2,4.1-5.3,6.8-9.5,8.4
			c-0.2,0.1-0.4,0.3-0.5,0.5c-0.2,0.7-0.4,1.5-0.7,2.3c1.4,1,2.1,2.5,1.3,4.2c-1.1,2.3-3.2,1.8-5.3,1.5c0.6,0.6,1.2,1,1.6,1.5
			c1.1,1.2,1.3,2.5,0.6,3.7c-0.7,1.2-1.9,1.8-3.4,1.6c-0.6-0.1-0.8,0.1-0.9,0.6c-0.6,1.5-1.7,2.2-3.4,2.2c-0.2,0-0.4,0-0.6,0
			c-0.1,0.1-0.1,0.2-0.1,0.2c-0.2,3.3-1.2,6.4-2.8,9.3c-0.1,0.2-0.1,0.6,0,0.8c1.6,3.2,1.6,6.3,0.3,9.6c-0.1,0.3-0.1,0.7,0,0.9
			c1.5,2.8,2.1,5.8,1.7,8.9c-0.1,0.9,1.1,2.9,2,3.2c3.4,1,6.7,2.1,10.1,2.9c3.4,0.8,7,0.9,10.5,0.3c0.3-0.1,0.7-0.1,0.9-0.4
			c1.6-1.7,2.9-3.6,3.7-5.9c0.2-0.7,0-1-0.6-1.3c-3.9-1.8-7.8-3.7-11.6-5.6c-0.6-0.3-1.2-0.7-2-1.2c0,0.7,0.1,1.1,0.1,1.6
			c0,0.3-0.3,0.5-0.4,0.8c-0.2-0.2-0.5-0.4-0.5-0.7c-0.1-1.2-0.2-2.4-0.2-3.7c0-3.1,0.1-6.1,1-9.1c0.4-1.5,1.4-2.4,2.9-2.5
			c0.8-0.1,1.6-0.1,2.3-0.3c1.2-0.2,2.4-0.4,3.4-0.9c2.2-1,2.6-3.1,1.3-5.1c-0.8-1.2-0.6-1.6,0.6-2.3c0.2-0.1,0.5-0.6,0.5-0.7
			c-0.1-0.3-0.5-0.6-0.8-0.6c-0.7-0.1-1.4,0-2.2,0c-0.3,0-0.6-0.2-0.9-0.3c0.9-0.4,1.7-0.5,2.5-0.8c0.8-0.3,1.5-0.7,2.2-1.1
			c-0.1-0.3-0.1-0.3-0.2-0.4c-0.9-1.8-0.5-2.8,1.4-3.3c0.3-0.1,0.7-0.1,1-0.3c0.7-0.4,1.1-1,0.8-1.8c-0.1-0.4-0.3-0.8-0.4-1.1
			c-1-2.3-2.1-4.5-3-6.8c-0.5-1.2-1.1-2.5-0.7-3.9c0.1-0.2,0-0.4-0.1-0.6C96.7,51.9,96.2,50.4,95.7,49z M51,103.2
			c-0.6,0.5-1.2,0.9-1.7,1.3c-1.6,1.3-1.6,1.3-0.3,2.9c3.1,3.9,7.2,6.7,11.7,8.9c1.4,0.7,2.9,1.3,4.2,1.8c-0.8-1.4-1.6-2.8-2.5-4.1
			c-0.2-0.3-0.4-0.5-0.7-0.6c-3-1.9-5.6-4.2-7.9-6.9C52.9,105.4,52,104.4,51,103.2z M62.1,94.1c0.1,0,0.2,0.1,0.3,0.1
			c0-0.1,0.1-0.2,0.1-0.3c0.5-3.8,2.7-6.7,4.8-9.7c1.3-1.9,2.5-3.8,3.5-5.8c1.4-2.9,2.1-5.9,1.4-9.1c0-0.2-0.1-0.4-0.2-0.6
			c-0.4,0.3-0.5,0.6-0.6,0.9c-0.5,1.2-0.9,2.4-1.5,3.6c-1.7,3.6-3.5,7.2-5.2,10.9c-1.3,2.9-2.4,5.9-2.6,9.1
			C62,93.5,62.1,93.8,62.1,94.1z M75,66.6c-0.6,0.6-1.1,1.2-1.6,1.7c-0.1,0.2-0.3,0.4-0.3,0.6c0.2,1.3,0.3,2.7,0.6,4
			c0.3,1.1,1.1,1.6,2,1.5c1-0.1,1.8-0.8,2.1-1.9c0.1-0.5,0.1-1,0.2-1.5c0.3,0.1,0.5,0.2,0.7,0.3c1.5,0.6,2.6,0.4,3.3-0.7
			c0.6-0.9,0.3-2-0.9-3c-1-0.8-2.1-1.5-3.1-2.2c-0.2-0.1-0.4-0.2-0.6-0.2c-0.6,0.2-1.3,0.4-2,0.6c0.5,0.8,0.9,1.6,1.3,2.4
			c0.1,0.2,0,0.5,0,0.7c-0.2-0.1-0.4-0.2-0.6-0.4C75.7,67.9,75.4,67.2,75,66.6z M76,59.5c0.8,0.5,1.4,1.1,2.2,1.2
			c0.7,0.2,1.5-0.1,2.3-0.2c0,0.1,0,0.3,0.1,0.4c-0.3,0.1-0.6,0.2-0.9,0.3c-0.3,0.1-0.7,0.2-1,0.2c0,0.9-0.1,1.7-0.1,2.6
			c1.5,0.3,3.1,0.6,4.7,0.8c0.9,0.1,1.7-0.4,2-1.4c0.3-0.9-0.1-1.9-0.9-2.5c-0.5-0.3-1-0.5-1.5-0.8c0.3-0.3,0.5-0.5,0.8-0.8
			c0.9-1,1-2.2,0.4-3.1c-0.6-0.9-1.7-1.1-2.9-0.4C79.3,57.2,77.7,58.4,76,59.5z M70,58.9c-0.1-0.4,0-0.9-0.2-1.1
			c-1-1.4-2-2.8-3.1-4.1c-0.9-1-1.9-1.1-2.8-0.5c-1,0.7-1.2,1.8-0.7,3c0.1,0.3,0.3,0.7,0.5,1c-0.6,0.1-1.2,0.1-1.7,0.3
			c-1,0.3-1.7,1.2-1.7,2.1c0,1,0.6,1.7,1.5,1.9c1.3,0.3,2.7,0.4,3.9,0.6c0.4-1,0.8-1.8,1.2-2.7c-0.2-0.1-0.5-0.3-0.8-0.5
			c-0.2-0.1-0.2-0.4-0.3-0.6c0.2,0,0.5-0.1,0.7,0C67.5,59.1,68.7,59,70,58.9z M68.7,64.9c-0.7-0.5-1.3-0.9-2-1.3
			c-0.1-0.1-0.4-0.2-0.5-0.2c-1.3,0.4-2.7,0.8-4,1.3c-1,0.4-1.3,1.3-1.1,2.2c0.2,0.9,1,1.6,2,1.7c0.6,0,1.1,0,1.7,0
			c-0.1,0.4-0.2,0.8-0.3,1.2c-0.2,1.2,0.3,2.2,1.3,2.7c0.9,0.4,1.9,0.1,2.6-0.9c0.6-1,1.1-2,1.6-3.1c0.1-0.1,0.1-0.4,0-0.5
			c-0.4-0.7-0.9-1.4-1.3-2.2c-0.4,0.3-0.9,0.7-1.3,1.1c-0.2,0.1-0.4,0.1-0.7,0.2c0.1-0.2,0.1-0.6,0.2-0.7
			C67.5,65.9,68.1,65.4,68.7,64.9z M73.8,54.2c0.1,0,0.2,0,0.3,0.1c0,0.3,0,0.7,0,1c0,0.3,0,0.6,0.1,0.8c0.5,0.6,1.1,1.2,1.8,1.9
			c0.9-1.5,1.9-2.9,2.7-4.5c0.5-1,0.2-1.9-0.5-2.4c-0.8-0.6-1.9-0.6-2.7,0.1c-0.4,0.3-0.8,0.7-1.2,1.1c-0.2-0.4-0.4-0.8-0.6-1.1
			C73,49.9,72,49.4,71,49.7c-0.9,0.3-1.6,1.1-1.4,2.4c0.2,1.5,0.6,3,1,4.5c0.6-0.3,1.1-0.6,1.6-0.7c0.7-0.1,1.3-0.3,1.3-1.2
			C73.5,54.5,73.7,54.4,73.8,54.2z M75.5,114.2c0.7,1.2,1.1,2.2,1.7,3.1c0.1,0.2,0.5,0.3,0.7,0.3c4.8,0.5,9.5,0,13.8-2.3
			c0.6-0.3,1.2-0.7,1.7-1.1c0-0.1-0.1-0.1-0.1-0.2C87.4,115.3,81.5,115.5,75.5,114.2z M75.6,109.5c0.1,1,0.2,1.8,0.1,2.6
			c-0.1,1,0.3,1.2,1.2,1.4c4.1,0.8,8.2,0.7,12.3,0.3c1.1-0.1,2.2-0.3,3.2-0.5c0-0.1,0-0.2,0-0.3C86.6,113,81.1,111.6,75.6,109.5z
			 M63.2,94c1.3-1.7,2.5-3.2,3.7-4.7c0.9-1.1,1.8-2.1,2.7-3.2c2.4-3.1,3.7-6.7,3.9-10.6c0-0.4-0.1-0.9-0.2-1.4c-0.1,0-0.2,0-0.3,0
			c-0.3,0.9-0.5,1.8-0.8,2.7c-1,3.1-2.8,5.7-4.6,8.4c-1.3,1.9-2.5,3.9-3.6,6C63.6,92,63.5,92.9,63.2,94z M50.4,73.8
			c0.9,5,5.7,10.8,9.9,12.1c0.2-0.6,0.3-1.2,0.5-1.8c0.2-0.6,0.1-1-0.5-1.4c-3-1.9-5.8-4.2-8.2-6.9C51.5,75.3,51,74.6,50.4,73.8z
			 M53.4,99.8c-0.5,0.3-1,0.6-1.5,0.9c-0.8,0.4-0.9,1-0.3,1.6c2.1,2.3,4.1,4.7,6.2,6.9c1.2,1.2,2.6,2.1,3.9,3.1
			c0.1-0.1,0.2-0.2,0.3-0.3c-0.2-0.3-0.3-0.7-0.6-0.9c-2.3-1.8-4-4-4.5-7c0-0.2-0.1-0.4-0.2-0.5C55.7,102.3,54.6,101.1,53.4,99.8z
			 M61.1,93.3c0.2-1,0.3-2.1,0.5-3.1c0.9-4.2,2.9-8,4.8-11.8c0.9-1.8,1.7-3.6,2.6-5.3c-2.1,0.2-2.7,2-3.6,3.4
			c-1.6,2.7-3,5.6-3.8,8.7C60.9,87.8,60.5,90.5,61.1,93.3z M50.1,76.4c0,5.3,5.4,12.6,9.7,13.4c0.1-0.6,0.1-1.2,0.2-1.8
			c0.1-0.6,0-1-0.7-1.3c-3.4-1.7-6-4.3-7.9-7.6C51,78.2,50.6,77.3,50.1,76.4z M49.1,76.7c-0.1,0.1-0.2,0.2-0.2,0.2
			c-0.4,4.3,0.5,8.2,3.9,11.1c2,1.7,4.4,3.1,6.7,4.6c0.1,0,0.2,0,0.3,0c0.1-1.5,0.1-1.6-0.7-2c-5.2-2.6-8.3-6.7-9.6-12.4
			C49.3,77.7,49.2,77.2,49.1,76.7z M64.7,104c0.1,0,0.2,0,0.3,0c0-0.1,0.1-0.3,0.1-0.4c0.1-3.1,1.4-5.6,3.1-8
			c0.9-1.3,1.7-2.5,2.5-3.9c0.6-1.1,0.8-2.2,0.5-3.5c-1.4,2.2-2.9,4.3-4.2,6.5c-1.6,2.5-2.5,5.3-2.3,8.3
			C64.6,103.3,64.7,103.7,64.7,104z M68.3,112.8c1.9-4.5,2.9-9.2,3-14.4C69.6,101,67.7,110,68.3,112.8z M63.7,102.1
			c0-0.1,0.1-0.2,0.1-0.3c0.1-2.5,0.8-4.8,2.1-6.9c1.2-2.1,2.6-4.1,3.9-6.1c0.3-0.5,0.5-1,0.7-1.5c-0.1,0-0.2-0.1-0.2-0.1
			c-1.4,1.6-2.9,3.2-4.2,4.9c-1.3,1.6-2.2,3.4-2.6,5.5C63.2,99,63.2,100.6,63.7,102.1z M53.9,92c0.7,3.3,5.3,7.7,8.3,8.3
			c0-0.4-0.1-0.7,0-1c0.2-0.9-0.2-1.3-1-1.7c-1.2-0.6-2.4-1.3-3.4-2.1C56.4,94.3,55.2,93.1,53.9,92z M62.6,103c0-1-0.3-1.6-1.3-2.1
			c-3.3-1.5-5.9-3.8-7.6-7.1c-0.3-0.6-0.6-1.2-1-2C53,97,56.3,100.5,62.6,103z M74.3,109.1c-0.7,2.4-1.5,4.9-2.2,7.3
			c-0.2,0.8-0.3,1.7-0.3,2.6c0,0.3,0.3,0.5,0.4,0.8c0.2-0.2,0.5-0.3,0.6-0.6c0.6-1.6,1.2-3.3,1.7-5
			C74.9,112.6,74.9,110.8,74.3,109.1z M71.9,91.7c-1.2,1.7-2.3,3.3-3.3,4.9c-0.8,1.3-1.5,2.7-2.1,4.1c-0.5,1.2-0.7,2.4-0.4,3.9
			c0.2-0.2,0.2-0.3,0.3-0.4c0.6-2.6,1.8-4.8,3.4-7C71,95.6,71.7,93.8,71.9,91.7z M69.4,113.2c2.6-1.7,4.4-11.1,2.7-13.5
			C72,104.5,70.8,108.9,69.4,113.2z M62.3,97.1c0.5-0.9,0.4-1.4-0.4-1.9c-2.3-1.3-4.6-2.8-6.9-4.2c-0.2-0.1-0.3-0.2-0.5-0.2
			C56.6,93.6,59.1,95.7,62.3,97.1z M65.6,111.9c0.2-0.7,0.1-1.1-0.6-1.4c-2.7-1.4-4.8-3.3-6.4-5.9c-0.1-0.2-0.3-0.4-0.5-0.7
			C58.3,107.3,61.7,110.9,65.6,111.9z M70.6,119.5c0.5-1.9,0.8-3.6,1.3-5.4c0.5-1.7,1.2-3.4,1.2-5.3c-0.8,1.7-1.7,3.3-2.3,5
			c-0.5,1.5-0.7,3.1-1,4.6C69.7,119.2,70,119.5,70.6,119.5z M72.4,64.1c1,0,1.8-0.9,1.8-1.9c0-1-0.9-1.8-1.9-1.8
			c-1,0-1.9,0.9-1.9,1.9C70.6,63.3,71.4,64.1,72.4,64.1z M69.9,99.2c-2.4,2.5-4.2,11.3-2.7,13.4C67.5,107.9,68.2,103.4,69.9,99.2z
			 M70.3,64.8c-0.4,0.5-0.4,1.2,0.1,1.9c0.5,0.7,1.1,1,1.9,0.8c0.8-0.2,1.4-0.8,1.5-1.6c0-0.4,0.1-0.9-0.6-0.9
			C72.3,65,71.4,64.9,70.3,64.8z M71.2,59.3c1.1,0.1,2.1,0.3,3.2,0.4c0.5-0.8,0.5-1.6-0.2-2.3c-0.6-0.6-1.6-0.7-2.3-0.2
			C71.1,57.7,70.8,58.5,71.2,59.3z M60,104.8c1.4,2.2,3.2,3.9,5.6,5.1c0.3-1.8,0.3-1.8-1.2-2.5c-0.5-0.2-1-0.5-1.5-0.8
			C61.9,106,60.9,105.4,60,104.8z M74.9,64.3c0.8,0.5,1.6,0.4,2.3-0.3c0.6-0.6,0.6-1.6,0.1-2.3c-0.6-0.7-1.3-0.9-1.9-0.6
			C75.2,62.1,75.1,63.2,74.9,64.3z M69.4,114.4c-1.9-0.6-3.6-1.2-5.6-1.8c1.5,1.8,3,3,5.1,3.8C69.1,115.6,69.2,115.1,69.4,114.4z
			 M69.9,60.2c-0.7-0.5-1.5-0.4-2.1,0.2c-0.6,0.6-0.8,1.6-0.3,2.3c0.5,0.8,1.3,1,2,0.8C69.6,62.4,69.7,61.4,69.9,60.2z M65.8,107
			c0-0.6,0.6-1.2-0.2-1.5c-2.2-0.9-4.4-1.9-6.7-2.9C61,104.6,63.2,106,65.8,107z M63.5,113.6c0.5,2.3,3.3,5,5.4,5.1
			c-0.1-0.6-0.1-1.4-0.4-1.5C66.5,116.3,64.9,115.2,63.5,113.6z M77.5,120.1c2.3-0.4,4.6-0.7,6.9-1c0-0.1,0-0.2,0-0.2
			c-2.3,0-4.6,0-6.9,0C77.5,119.2,77.5,119.5,77.5,120.1z M74.9,117.5c-0.1,0-0.1,0-0.2,0c-0.3,0.8-0.6,1.6-1,2.4
			c0.8,0.3,1.2,0.1,1.2-0.7C74.9,118.6,74.9,118.1,74.9,117.5z M76.1,117.5c-0.1,0-0.2,0-0.2,0c0,0.7-0.1,1.4-0.1,2.1
			c0,0.1,0.2,0.3,0.4,0.4c0.1-0.1,0.3-0.3,0.3-0.4C76.3,118.9,76.2,118.2,76.1,117.5z M56.7,102c0.1-0.1,0.2-0.1,0.3-0.2
			c-0.3-1.1-1.5-1.4-2.3-2.1C55.4,100.4,56.1,101.2,56.7,102z"/>
		<path class="st0" d="M87.4,58.8c1.4-0.9,2.7-1.9,4.1-2.6c0.8-0.4,1.8-0.3,2.7-0.4c0.2,0,0.3,0.3,0.5,0.5c-0.1,0.1-0.3,0.3-0.4,0.4
			c-0.2,0.3-0.4,0.6-0.5,0.9c-0.3,0.8-0.5,1.7-1.6,2.1c0-0.5,0-0.9,0-1.3c0.1-1.1-0.3-1.3-1.3-0.8c-0.6,0.3-1.3,0.7-1.9,1
			c-0.5,0.2-1,0.3-1.4,0.4C87.4,59,87.4,58.9,87.4,58.8z"/>
		<path class="st0" d="M95.2,65.4c0,0.5-0.1,1,0,1.5c0.1,0.4,0.5,0.7,0.9,1c0.1,0.1,0.5-0.4,0.8-0.5c0.6-0.2,1.2-0.3,1.9-0.5
			c0,0.1,0,0.2,0.1,0.2c-0.8,0.5-1.6,1-2.4,1.4c-1.1,0.5-2.1-0.5-1.9-1.9c0.1-0.4,0.3-0.8,0.5-1.2C95.1,65.3,95.1,65.4,95.2,65.4z"
			/>
	</g>
</g>
</svg>
