<?xml version="1.0" encoding="utf-8"?>
<!-- Generator: Adobe Illustrator 21.1.0, SVG Export Plug-In . SVG Version: 6.00 Build 0)  -->
<svg version="1.1" id="Guides" xmlns="http://www.w3.org/2000/svg" xmlns:xlink="http://www.w3.org/1999/xlink" x="0px" y="0px"
	 viewBox="0 0 100 100" style="enable-background:new 0 0 100 100;" xml:space="preserve">
<style type="text/css">
	.st0{fill:#FFFFFF;}
</style>
<g>
	<g>
		<path class="st0" d="M100,50.1c0,27.6-22.4,49.9-50,49.9c-27.7,0-50-22.3-50-50C0,22.4,22.3,0.2,49.6,0.1
			C77.5-0.1,100,22.4,100,50.1z M50,99.2c27.4,0,49.6-22.5,49.3-49.9C98.9,22.7,77,0.7,49.8,0.8C22.8,0.8,0.7,23,0.7,50
			C0.8,77.2,22.9,99.3,50,99.2z"/>
		<path class="st0" d="M50.1,85.9C30.7,85.9,15,70.1,15,50.7c0-19.4,15.8-35.2,35.2-35.1c19.5,0,35.2,15.8,35.2,35.3
			C85.4,70.3,69.6,85.9,50.1,85.9z M50.2,85.2c19.1,0,34.5-15.5,34.5-34.5c0-19-15.6-34.4-34.7-34.4c-18.8,0.1-34.3,15.6-34.3,34.5
			C15.7,69.7,31.3,85.2,50.2,85.2z"/>
		<path class="st0" d="M13.8,70.9c0.2-0.1,0.3-0.2,0.4-0.2c0.2,0,0.4,0,0.6,0.1c-0.1,0.2,0,0.5-0.2,0.6c-0.4,0.3-0.8,0.6-1.2,0.8
			c-0.2,0.1-0.5,0-0.7,0.1c0.1-0.2,0.2-0.5,0.3-0.7c0,0,0.1-0.1,0.2-0.2C9.4,64.8,7.5,57.6,7.5,50c0-7.6,1.9-14.7,5.7-21.3
			c0-0.1,0-0.1-0.1-0.1c-0.2-0.2-0.7-0.4-0.3-0.8c0.3-0.4,0.6,0,0.9,0.2c0.3,0.2,0.6,0.4,0.8,0.6c0.2,0.2,0.4,0.5,0.3,0.7
			c-0.1,0.4-0.5,0.2-0.7,0c-0.1,0-0.1-0.1-0.3-0.1c-3.6,6.3-5.5,13.1-5.6,20.4C8.1,57.1,10,64.2,13.8,70.9z"/>
		<path class="st0" d="M86.3,29.4c-0.4,0-0.9,0-1.1-0.1c-0.3-0.5,0.2-0.6,0.5-0.8c0.3-0.2,0.5-0.4,0.8-0.6c0.2-0.1,0.5,0,0.7-0.1
			c-0.1,0.2-0.2,0.5-0.2,0.7c0,0.1-0.1,0.1-0.2,0.2c7.6,14.3,7.5,28.5-0.1,42.8c0.1,0.1,0.3,0.2,0.5,0.4c0.1,0.1,0.1,0.4,0,0.5
			c-0.1,0.1-0.4,0.2-0.5,0.1c-0.5-0.3-0.9-0.6-1.3-0.9c-0.2-0.1-0.2-0.4-0.3-0.7c0.2,0,0.5,0,0.7,0c0.1,0,0.1,0,0.2,0
			C93.7,58.6,93.7,41.5,86.3,29.4z"/>
		<path class="st0" d="M71.2,12.2c0,2-1.6,3.6-3.5,3.6c-2.1,0-3.9-1.7-3.8-3.7c0-2,1.6-3.6,3.7-3.5C69.5,8.6,71.2,10.2,71.2,12.2z
			 M65.1,12.4c0,1.2,1,2.2,2.2,2.3c1.3,0,2.5-1.3,2.5-2.8c0-1.2-1-2.2-2.2-2.2C66.3,9.7,65.2,11,65.1,12.4z"/>
		<path class="st0" d="M78.2,14.5c0.4,0.2,0.6,0.4,1,0.7c-1.3,1.8-2.6,3.7-3.8,5.5c-0.6-0.2-0.8-0.5-0.9-1.2c0-1.6-0.2-3.2-0.4-4.9
			c-0.8,1.2-1.6,2.3-2.5,3.5c-0.3-0.2-0.6-0.4-1-0.7c1.3-1.9,2.6-3.7,3.9-5.5c0.6,0.2,0.8,0.5,0.9,1.2c0.1,1.6,0.2,3.2,0.2,4.8
			c0.1,0,0.1,0,0.2,0.1C76.5,16.9,77.3,15.7,78.2,14.5z"/>
		<path class="st0" d="M30.5,14.3c0.4,0.8,0.8,1.6,1.2,2.4c-0.4,0.2-0.8,0.4-1.2,0.6c-1-2-2-4-3-6.1c1-0.5,1.9-1,2.9-1.4
			c0.9-0.4,1.7-0.1,2.2,0.6c0.6,0.8,0.6,1.7,0,2.5c0,0.1-0.1,0.1-0.2,0.2c1,1.1,1.8,1.3,2.8,0.9c0.1,0.2,0.2,0.4,0.3,0.6
			c-0.8,0.8-1.7,1-2.6,0.4c-0.4-0.2-0.8-0.5-1.1-0.8C31.2,13.9,31.2,13.9,30.5,14.3z M29.1,11.5c0.3,0.7,0.7,1.3,1,2
			c0.4-0.2,0.8-0.4,1.1-0.6c0.6-0.4,0.8-0.8,0.4-1.4c-0.3-0.6-0.8-0.8-1.4-0.5C29.9,11.1,29.5,11.3,29.1,11.5z"/>
		<path class="st0" d="M57,12.5c-0.5-0.1-0.9-0.2-1.3-0.3c0.5-2.2,0.9-4.3,1.4-6.6c0.4,0.1,0.8,0.1,1.3,0.2
			c-0.2,0.9-0.3,1.7-0.5,2.6C59,8.7,60,8.9,61.1,9.1c0.2-0.9,0.4-1.7,0.6-2.6c0.4,0.1,0.8,0.2,1.3,0.3c-0.5,2.2-0.9,4.3-1.4,6.6
			c-0.4-0.1-0.8-0.2-1.3-0.2c0.2-1,0.4-1.9,0.6-2.9c-1-0.2-2-0.5-3-0.6c-0.1,0-0.3,0.3-0.3,0.4C57.4,10.8,57.2,11.6,57,12.5z"/>
		<path class="st0" d="M82.5,21.9c-0.3,0.3-0.5,0.5-0.9,0.9c-0.6-0.6-1.1-1.2-1.7-1.9c-0.5,0.5-0.9,1-1.3,1.6
			c0.7,0.6,1.4,1.2,2.2,1.9c-0.4,0.4-0.7,0.6-0.9,0.8c-1-1-2.1-2-3-2.9c1.6-1.6,3.1-3.2,4.7-4.8c1.1,1,2.1,2,3.2,3.1
			c-0.2,0.2-0.4,0.5-0.7,0.8c-0.7-0.8-1.4-1.5-2.1-2.3c-0.4,0.4-0.8,0.8-1.3,1.3C81.3,20.9,81.9,21.4,82.5,21.9z"/>
		<path class="st0" d="M28.3,17.4c0.2,0.3,0.4,0.5,0.6,0.8c-1.2,0.9-2.3,1.7-3.5,2.6c-1.3-1.8-2.7-3.6-4-5.5
			c1.2-0.9,2.3-1.7,3.5-2.6c0.2,0.3,0.4,0.5,0.6,0.8c-0.8,0.6-1.6,1.2-2.4,1.8c0.3,0.5,0.6,0.9,1,1.3c0.7-0.5,1.3-0.9,2-1.4
			c0.2,0.3,0.4,0.5,0.6,0.8c-0.7,0.5-1.3,1-2,1.5c0.4,0.5,0.7,1,1.2,1.6C26.6,18.6,27.4,18.1,28.3,17.4z"/>
		<path class="st0" d="M47.3,11c0.1,0.3,0.1,0.6,0.1,1c-0.8,0.1-1.5,0.2-2.2,0.3c-0.7,0.1-1.4,0.2-2.2,0.3c-0.3-2.2-0.6-4.4-0.9-6.7
			c1.5-0.2,2.9-0.4,4.3-0.6c0.1,0.4,0.1,0.6,0.2,1c-0.9,0.1-1.7,0.3-2.5,0.3c-0.5,0-0.6,0.2-0.5,0.7c0.2,1.1-0.1,1.1,1.2,0.9
			c0.5-0.1,0.9-0.1,1.4-0.2c0.1,0.3,0.1,0.6,0.2,1c-0.7,0.1-1.3,0.2-2,0.3c-0.4,0-0.5,0.2-0.5,0.6c0.1,1.6,0.1,1.6,1.6,1.3
			C46.1,11.1,46.7,11.1,47.3,11z"/>
		<path class="st0" d="M19.9,22.7c0.6,0.6,1.2,1.1,1.8,1.6c-0.3,0.3-0.6,0.6-1,1c-1.5-1.7-3-3.3-4.6-5c0.6-0.6,1.4-1.4,2.3-2.1
			c0.7-0.6,1.8-0.3,2.5,0.4c0.7,0.7,0.9,1.7,0.3,2.5C20.9,21.7,20.4,22.1,19.9,22.7z M19.3,22c0.5-0.6,1.2-0.9,1-1.8
			c-0.1-0.5-0.5-0.9-1-1c-0.9-0.1-1.2,0.6-1.7,1C18.2,20.8,18.7,21.4,19.3,22z"/>
		<path class="st0" d="M50.6,9.6c0,0.8,0,1.6,0,2.4c-0.5,0-0.9,0-1.3,0c0.1-2.3,0.1-4.5,0.2-6.8c1.2,0.1,2.3,0.1,3.3,0.3
			c1,0.2,1.5,1,1.5,2.1c0,1-0.6,1.8-1.6,1.9C52.1,9.6,51.4,9.5,50.6,9.6z M50.8,7.4C50.8,7.4,50.8,7.4,50.8,7.4c0,0.1,0,0.3,0,0.4
			c0,0.8,0,0.8,0.8,0.8c0.1,0,0.2,0,0.3,0c0.8,0,1.2-0.4,1.2-1.2c0-0.9-0.4-1.2-1.6-1.2c-1-0.1-0.5,0.7-0.6,1.1
			C50.8,7.3,50.8,7.3,50.8,7.4z"/>
		<path class="st0" d="M36.5,12.9c0.8,0,1.5,0.1,2.2,0c0.5-0.1,1-0.4,1-1.1c0-0.5-0.4-0.9-1.1-0.9c-0.5,0-0.9,0-1.4,0
			c-1-0.1-1.6-0.6-1.8-1.5c-0.2-0.9,0.2-1.6,1.1-2C37,7,37.6,6.9,38.3,6.9c0.9,0,1,0.1,0.8,1c-0.5,0-1.1-0.1-1.6,0
			c-0.7,0.1-1.1,0.5-1,1c0.1,0.6,0.6,0.7,1.2,0.7c0.6,0,1.2,0,1.7,0.1c0.9,0.2,1.3,0.9,1.4,1.7c0.1,0.8-0.2,1.4-0.9,1.9
			c-0.8,0.5-1.6,0.7-2.6,0.6C36.4,13.8,36.4,13.7,36.5,12.9z"/>
		<path class="st0" d="M40.8,90.8c0,0.9-0.7,1.7-1.7,1.7c-1,0-1.8-0.7-1.8-1.6c0-0.9,0.7-1.7,1.7-1.7C40,89.2,40.8,89.9,40.8,90.8z
			 M38.2,90.9c0,0.5,0.4,0.9,0.8,0.9c0.5,0,0.9-0.6,0.9-1.2c0-0.5-0.4-0.9-0.9-0.9C38.6,89.8,38.2,90.3,38.2,90.9z"/>
		<path class="st0" d="M73.8,86.6c-0.3-0.4-0.5-0.7-0.7-1.1c-0.3,0.2-0.7,0.4-1,0.7c0.2,0.4,0.4,0.7,0.6,1.1
			c-0.2,0.1-0.4,0.3-0.6,0.4c-0.6-0.9-1.1-1.7-1.7-2.6c0.2-0.2,0.4-0.3,0.6-0.4c0.2,0.3,0.4,0.6,0.7,0.9c0.3-0.2,0.7-0.4,1-0.7
			c-0.2-0.3-0.3-0.6-0.5-0.9c0.2-0.1,0.4-0.3,0.6-0.4c0.6,0.9,1.1,1.7,1.7,2.6C74.3,86.3,74.1,86.4,73.8,86.6z"/>
		<path class="st0" d="M44.4,92c0.1-0.5,0.2-1,0.3-1.6c0.2,0,0.4,0.1,0.7,0.1c-0.2,1-0.3,2-0.5,3c-1.2-0.1-1-1.4-1.8-1.9
			c-0.1,0.5-0.2,1-0.3,1.6c-0.2,0-0.4-0.1-0.7-0.1c0.2-1,0.3-2,0.5-3.1C43.8,90.2,43.7,91.4,44.4,92z"/>
		<path class="st0" d="M81,80.5c-0.8,0.7-1.7-0.1-2.7,0.2c0.5,0.4,0.9,0.7,1.4,1.1c-0.3,0.3-0.4,0.4-0.5,0.6
			c-0.8-0.8-1.5-1.5-2.2-2.2c0.3-0.6,0.8-0.3,1.2-0.3c0.4,0,0.9,0.1,1.5,0.2c-0.5-0.5-0.9-0.9-1.3-1.3c0.1-0.2,0.3-0.3,0.4-0.4
			C79.6,79,80.3,79.7,81,80.5z"/>
		<path class="st0" d="M60.2,92.5c-1,0.6-1.4-0.4-2.2-0.7c0,0.2-0.1,0.5,0,0.6c0.2,0.6,0,0.8-0.7,0.7c-0.2-0.9-0.4-1.9-0.6-2.9
			c0.3-0.1,0.5-0.1,0.8-0.2c0.1,0.4,0.2,0.7,0.3,1.1c0.7-0.4,0.6-1.5,1.7-1.4c-0.2,0.4-0.5,0.8-0.6,1.2c-0.1,0.2,0,0.5,0.1,0.6
			C59.2,91.8,59.7,92.1,60.2,92.5z"/>
		<path class="st0" d="M32,89.9c-0.5-0.1-0.7-0.3-0.7-0.7c0-0.5-0.9-0.9-1.3-0.6c-0.4,0.3-0.4,0.3-0.9-0.1c0.8-0.7,1.5-1.3,2.3-1.9
			c0.3-0.3,0.8,0,0.8,0.4C32.2,87.8,32.1,88.8,32,89.9z M31.5,87.4c0,0-0.1,0-0.1-0.1c-0.2,0.2-0.4,0.4-0.7,0.6
			c0.3,0.1,0.4,0.2,0.7,0.3C31.4,87.9,31.5,87.6,31.5,87.4z"/>
		<path class="st0" d="M28,87.1c-0.1,0.2-0.2,0.3-0.3,0.5c-0.6-0.4-1.2-0.8-1.8-1.1c0.6-0.9,1.1-1.7,1.7-2.6
			c0.6,0.4,1.2,0.8,1.8,1.1c-0.1,0.2-0.2,0.3-0.3,0.5c-0.4-0.2-0.7-0.4-1.1-0.7c-0.5,0.7,0.4,0.7,0.5,1.1c-0.1,0.1-0.2,0.2-0.3,0.4
			c-0.3-0.2-0.6-0.3-0.9-0.5c-0.1,0.2-0.3,0.3-0.4,0.6C27.3,86.6,27.6,86.9,28,87.1z"/>
		<path class="st0" d="M74.1,82.5c0.6-0.5,1.1-0.9,1.6-1.3c0.1,0.2,0.3,0.3,0.4,0.4c-0.3,0.3-0.6,0.5-1,0.8c0.1,0.6,0.4,0.4,0.7,0.2
			c0.3-0.3,0.6-0.4,0.7,0.1c-0.2,0.2-0.5,0.4-0.7,0.7c0.1,0.2,0.3,0.3,0.4,0.5c0.4-0.3,0.7-0.5,1-0.8c0.1,0.1,0.2,0.2,0.4,0.4
			c-0.6,0.5-1.1,0.9-1.7,1.3C75.4,84.1,74.7,83.3,74.1,82.5z"/>
		<path class="st0" d="M46.6,93.7c0.4-0.9,0.8-1.8,1.3-2.7c0.2-0.4,0.7-0.3,0.9,0.1c0.4,0.9,0.7,1.8,1.1,2.8
			c-0.4,0.1-0.7,0.1-0.9-0.4c-0.2-0.4-1.2-0.4-1.4,0C47.3,93.8,47,93.8,46.6,93.7z M48.4,91.8c-0.1,0-0.1,0-0.2,0
			c-0.1,0.3-0.2,0.5-0.3,0.8c0.3,0,0.5,0,0.8,0C48.5,92.3,48.5,92,48.4,91.8z"/>
		<path class="st0" d="M20.1,81.6c-0.4-0.3-0.6-0.4-0.4-0.9c0.2-0.4-0.5-1.1-1-1c-0.3,0-0.5-0.1-0.8-0.1c0-0.1,0-0.2,0-0.3
			c1-0.4,1.9-0.8,2.9-1.1c0.3-0.1,0.7,0.3,0.5,0.7C20.9,79.8,20.5,80.7,20.1,81.6z M20.4,79.1c0,0-0.1-0.1-0.1-0.1
			c-0.3,0.1-0.5,0.2-0.9,0.4c0.2,0.2,0.4,0.4,0.6,0.6C20.2,79.6,20.3,79.4,20.4,79.1z"/>
		<path class="st0" d="M25.8,83.5c-0.3-0.4-0.5-0.6-0.7-0.8c-0.1-0.1-0.3,0-0.4,0c0,0.1,0,0.3,0,0.4c0.1,0.2,0.4,0.4,0.4,0.6
			c0,0.4,0.1,0.8-0.1,1.1c-0.2,0.2-0.7,0.3-1,0.2c-0.4-0.1-0.7-0.5-1-0.8c-0.3-0.3-0.1-0.5,0.2-0.7c0.2,0.3,0.3,0.6,0.6,0.8
			c0.1,0.1,0.4,0.1,0.6,0.1c0-0.2,0-0.4,0-0.6c0-0.1-0.1-0.1-0.1-0.2c-0.3-0.4-0.5-0.8-0.1-1.3c0.2-0.2,0.6-0.5,0.8-0.4
			c0.4,0.2,0.8,0.6,1.2,0.9C26.1,83,25.9,83.2,25.8,83.5z"/>
		<path class="st0" d="M36.1,89c-0.2-0.1-0.4-0.3-0.7-0.4c-0.1,0-0.3,0-0.4,0.1c0,0.1,0,0.3,0.1,0.4c0.2,0.2,0.4,0.3,0.6,0.5
			c0.3,0.3,0.4,0.8,0.2,1.1c-0.2,0.3-0.6,0.5-0.9,0.5c-0.4,0-0.8-0.3-1.1-0.5c-0.3-0.2-0.3-0.5,0-0.7c0.2,0.2,0.4,0.4,0.7,0.5
			c0.2,0.1,0.4,0,0.6,0C35,90.2,35,90,34.9,89.8c-0.1-0.2-0.4-0.3-0.5-0.5c-0.1-0.3-0.2-0.8-0.1-1c0.1-0.2,0.6-0.4,0.9-0.4
			c0.3,0,0.7,0.2,0.9,0.4c0.1,0.1,0.1,0.4,0.2,0.6C36.2,88.9,36.2,88.9,36.1,89z"/>
		<path class="st0" d="M70,88c0.4,0.4,0.3,0.7-0.1,0.9c-0.6,0.5-1.5,0.6-2.1,0.3c-0.6-0.4-0.9-1.1-0.8-1.8c0.2-0.7,0.8-1.2,1.5-1.3
			c0.4,0,0.5,0,0.7,0.5c-0.6,0.1-1.4,0.1-1.4,0.9c0,0.4,0.3,0.9,0.6,1C69.2,89,69.6,88.4,70,88z"/>
		<path class="st0" d="M65.5,87.6c0.1,0.2,0.1,0.3,0.2,0.5c-0.3,0.1-0.5,0.3-0.9,0.4c0.3,0.8,0.6,1.5,0.9,2.3
			c-0.3,0.1-0.5,0.2-0.7,0.3c-0.2-0.6-0.5-1.1-0.6-1.7c-0.2-0.6-0.4-0.7-0.9-0.4c-0.1,0-0.2,0-0.3,0.1c-0.1-0.2-0.1-0.3-0.2-0.5
			C63.8,88.2,64.6,87.9,65.5,87.6z"/>
		<path class="st0" d="M53.6,93.3c-0.1,0.1-0.3,0.3-0.4,0.4c0,0,0,0-0.1,0c-1.7,0.2-1.7,0.2-1.8-1.5c0-0.5,0-0.9-0.1-1.5
			c0.2,0,0.5-0.1,0.8-0.1c0,0.6,0.1,1.2,0.1,1.7c0,0.6,0.2,0.9,0.8,0.7c0.2,0,0.4,0,0.6,0C53.5,93.2,53.6,93.3,53.6,93.3z"/>
		<path class="st0" d="M61.8,92.2c-0.3-1-0.6-1.9-0.9-2.9c0.2-0.1,0.4-0.2,0.7-0.3c0.3,1,0.6,1.9,0.9,3C62.3,92,62.1,92.1,61.8,92.2
			z"/>
		<path class="st0" d="M48.4,91.8c0.1,0.3,0.2,0.5,0.3,0.8c-0.3,0-0.5,0-0.8,0c0.1-0.3,0.2-0.6,0.3-0.8
			C48.3,91.8,48.3,91.8,48.4,91.8z"/>
		<path class="st0" d="M64.8,50.9c0.1,0.2,0.2,0.3,0.2,0.4c1.3,1.7,0.3,3.9-1.5,4.5c-0.9,0.3-1.8,0.4-2.7,0.5
			c-2,0.2-2.3,0.4-2.7,2.4c-0.2,1.6-0.3,3.2-0.4,4.8c0,0.2,0.2,0.6,0.4,0.7c2,1.1,4,2.1,6,3.1c1.1,0.6,2.3,1.1,3.5,1.6
			c0.5,0.2,0.6,0.5,0.5,0.9c-0.3,1.3-0.9,2.4-1.7,3.5c-2.9,3.8-6.7,6-11.3,6.9c-8.6,1.6-15.8-1.2-22-7c-0.7-0.6-1.2-1.5-1.7-2.3
			c-0.3-0.5-0.2-1,0.3-1.3c0.4-0.2,0.8-0.5,1.1-0.8c0.4-0.3,0.8-0.5,0.6-1.1c-0.1-0.3,0.3-0.7,0.6-0.9c0.5-0.4,1.1-0.8,1.7-1.1
			c-0.3-0.7-0.7-1.4-0.9-2.1c-0.5-1.2-0.6-2.5-0.4-3.8c0.1-0.4,0-0.7-0.3-1.1c-1.8-2-2.4-4.5-2.2-7.2c0.1-1.1,0.4-2.1,0.6-3.2
			c0-0.2,0.1-0.6-0.1-0.8c-2-3.6-2.5-7.4-2-11.4c0.3-2.7,1.1-5.3,2.4-7.7c1.8-3.1,4.4-5.3,7.8-6.5c4.5-1.6,9.1-2.1,13.8-0.7
			c1.7,0.5,3.2,1.3,4.8,2c0.6,0.2,1.1,0.5,1.7,0.6c1.5,0.3,3,0.8,4.3,1.6c2.5,1.7,3.3,4.1,3.1,7c-0.1,2-0.8,3.7-2.5,5
			c-0.1,0.1-0.2,0.5-0.1,0.7c0.6,1.5,1.3,3,2,4.5c0.2,0.4,0.3,0.8,0.4,1.2c0.3,1-0.2,1.7-1.1,2c-0.1,0-0.2,0.1-0.2,0.1
			c-1.2,0.4-1.1,0.3-0.8,1.5c0.1,0.4-0.2,0.9-0.3,1.3c-0.1,0.2-0.2,0.5-0.1,0.7c0.1,0.7,0,1-0.6,1.4C65.1,50.8,65,50.8,64.8,50.9z
			 M54.3,36.6c1.2,0,2.3-0.1,3.2-0.9c0.1-0.1,0.4-0.1,0.6-0.1C58,35.8,58,36,57.8,36.1c-0.4,0.3-0.9,0.6-1.4,0.9
			c0.2,0.2,0.3,0.4,0.4,0.6c4.4-1.4,7.6-5.5,6.9-10.3c0-0.2,0.1-0.5,0.2-0.7c0.2,0.2,0.4,0.4,0.4,0.6c0.3,1.3,0.1,2.5-0.2,3.8
			c-0.1,0.2-0.1,0.5,0,0.7c0.5,1.3,1,2.6,1.6,4.1c0.5-1.8,0.6-3.5-0.1-5.2c-0.1-0.2,0-0.5,0-0.7c0.2,0.1,0.5,0.2,0.6,0.4
			c0.6,1.2,0.6,2.5,0.5,3.8c-0.1,0.5-0.2,1.1-0.2,1.7c0.1-0.1,0.2-0.1,0.2-0.2c1.5-2,1.8-6.6-0.8-9c-1.5-1.4-3.4-2-5.4-2.3
			c-0.8-0.1-1.6-0.1-2.4-0.2c-0.2,0-0.3-0.2-0.5-0.3c0.1-0.1,0.2-0.2,0.4-0.4c0,0,0.1,0,0.3-0.1c-0.1-0.1-0.2-0.2-0.3-0.2
			c-1.4-0.5-2.9-1.2-4.4-1.6c-3.2-0.9-6.4-0.6-9.7,0c-3.5,0.7-6.6,2.2-8.9,5c-3.5,4.3-4.5,9.4-3.9,14.7c0.5,4.5,2.8,8,6.2,10.9
			c1.1,0.9,2.3,1.8,3.5,2.7c0.2-0.6,0.4-1,0.6-1.4c0.2-0.4,0.4-0.8,0.5-1.1c-0.1-0.1-0.1-0.1-0.1-0.1c-0.3-0.1-0.6-0.3-0.8-0.4
			c-6.2-3.1-9.1-8.2-9.1-15.1c0-0.3-0.2-0.7,0.3-0.8c0,0,0.2,0.5,0.2,0.8c0,4.8,1.4,8.9,5.1,12.1c1.4,1.2,3,2.2,4.7,2.9
			c0.4-0.7,0.8-1.3,1.1-1.9c-0.2-0.1-0.3-0.2-0.4-0.3c-4.6-2.1-7.3-5.7-8.5-10.6c-0.7-2.9-0.4-5.8,0.5-8.6c0.1-0.3,0.2-0.6,0.5-0.3
			c0.1,0.1,0,0.4,0,0.6c-0.7,2.3-1.1,4.6-0.7,7c0.7,4.4,2.7,8,6.6,10.4c0.7,0.4,1.5,0.8,2.2,1.2c0-0.1,0.1-0.1,0.1-0.2
			c-1-0.5-1.5-1.3-1.4-2.3c0-0.1-0.3-0.3-0.5-0.3c-1.3-0.3-2-1.4-1.7-2.7c0-0.2-0.1-0.5-0.2-0.7c-0.6-0.9-1.5-1.7-1.9-2.8
			c-2.1-5-1-9.5,2-13.8c0.1-0.1,0.4-0.2,0.5-0.3c0,0.2,0,0.4-0.1,0.6c-0.5,0.9-1.1,1.7-1.6,2.7c-1.5,3.1-1.9,6.4-0.8,9.8
			c0.5,1.4,1.3,2.7,2.5,3.6c0.3-0.2,0.6-0.4,0.9-0.5c0.3-0.2,0.7-0.3,1.1-0.4c-0.5-0.1-1-0.2-1.4-0.3c-1.5-0.4-2-1.7-1.3-3.1
			c0.1-0.2,0.1-0.5,0-0.8c-0.4-1.3-0.5-2.7-0.3-4.1c0.5-2.8,1.7-5.2,3.3-7.4c0.2-0.2,0.5-0.3,0.7-0.5c-0.1,0.3-0.1,0.6-0.3,0.8
			c-1.6,2.3-2.9,4.7-3.2,7.5c-0.2,1.2-0.1,2.5,0.4,3.6c0.6-0.1,1-0.3,0.8-1c-0.2-0.7,0.2-1.4,0.8-1.9c0.2-0.1,0.3-0.4,0.3-0.6
			c0.2-0.9,0.1-1.8,0.5-2.6c0.5-1.1,1.2-2.2,1.9-3.3c0.1-0.1,0.3-0.1,0.5-0.2c0,0.2,0,0.4-0.1,0.5c0,0.1-0.2,0.2-0.3,0.4
			c-0.6,1-1.2,1.9-1.6,3c-0.3,0.7-0.3,1.5-0.4,2.2c0.7,0.2,1.2,0.3,1.7,0.4c0-0.2,0-0.3,0-0.4c0-1.6,0.7-3,1.6-4.2
			c0.1-0.2,0.4-0.2,0.6-0.3c0,0.2-0.1,0.4-0.1,0.6c0,0.1-0.1,0.1-0.2,0.2c-0.9,1.3-1.5,2.8-1.3,4.4c0.1,0.4,0.3,0.7,0.4,1.1
			c0.1,0,0.1,0,0.2-0.1c-0.1-0.3-0.1-0.6-0.2-0.8c-0.2-1.6,0.5-2.7,1.9-2.8c0.6,0,0.8-0.2,1.1-0.7c0.5-1.2,1.1-2.3,1.6-3.5
			c0.1-0.2,0.3-0.3,0.4-0.4c0,0.2,0.1,0.4,0.1,0.6c0,0.1-0.1,0.2-0.1,0.4c-0.6,1.2-1.2,2.5-1.8,3.8c0.2,0.2,0.4,0.4,0.7,0.7
			c0.5-0.7,1.1-1.3,1.4-2c0.7-1.4,1.2-2.8,1.8-4.2c0.1-0.2,0.3-0.3,0.4-0.5c0,0.2,0.2,0.5,0.1,0.6c-0.5,1.9-1.3,3.6-2.4,5.2
			c-0.1,0.1-0.1,0.2-0.2,0.4c0.3,0,0.6,0,0.9,0.1c0.5,0.2,0.8,0,1.2-0.4c1.5-1.7,2.6-3.7,3.2-5.9c0.1-0.2,0.3-0.3,0.5-0.5
			c0.1,0.2,0.2,0.5,0.2,0.7C56,29.2,55,31.2,53.4,33c-0.6,0.6-0.5,1,0,1.7c1-0.8,2-1.7,3-2.5c0.2-0.1,0.4-0.2,0.6-0.2
			c-0.1,0.2-0.1,0.5-0.2,0.6c-1,0.9-2.1,1.7-3.2,2.5c-0.3,0.2-0.6,0.4-0.5,1c0.9-0.4,1.8-0.8,2.6-1.3c2.1-1.2,3.7-2.9,4.8-5
			c0.1-0.2,0.4-0.5,0.6-0.4c0.4,0.2,0.2,0.5,0,0.7c-0.1,0.2-0.2,0.4-0.3,0.6c-1.4,2.5-3.5,4.3-6.2,5.4
			C54.6,36.3,54.5,36.4,54.3,36.6c-0.9,0-1.7,0.4-2,1C53,37.2,53.6,36.9,54.3,36.6z M63.8,32.7c-0.1,0-0.1,0-0.2,0
			c-1.4,2.7-3.6,4.5-6.4,5.6c-0.1,0.1-0.3,0.2-0.3,0.3c-0.2,0.5-0.3,1-0.4,1.5c1,0.7,1.4,1.7,0.9,2.8c-0.7,1.6-2.1,1.2-3.5,1
			c0.4,0.4,0.8,0.7,1.1,1c0.7,0.8,0.9,1.7,0.4,2.5c-0.4,0.8-1.3,1.2-2.3,1c-0.4-0.1-0.5,0.1-0.6,0.4c-0.4,1-1.2,1.5-2.2,1.5
			c-0.1,0-0.3,0-0.4,0c0,0.1-0.1,0.1-0.1,0.1c-0.1,2.2-0.8,4.3-1.9,6.2c-0.1,0.1-0.1,0.4,0,0.6c1.1,2.1,1.1,4.2,0.2,6.4
			c-0.1,0.2-0.1,0.5,0,0.6c1,1.9,1.4,3.8,1.1,5.9c-0.1,0.6,0.7,2,1.3,2.1c2.2,0.7,4.5,1.4,6.7,1.9c2.3,0.5,4.7,0.6,7,0.2
			c0.2,0,0.5-0.1,0.6-0.2c1-1.2,1.9-2.4,2.4-3.9c0.2-0.5,0-0.7-0.4-0.9c-2.6-1.2-5.2-2.5-7.8-3.7c-0.4-0.2-0.8-0.5-1.3-0.8
			c0,0.4,0.1,0.8,0,1.1c0,0.2-0.2,0.3-0.3,0.5c-0.1-0.1-0.3-0.3-0.3-0.4c-0.1-0.8-0.1-1.6-0.1-2.4c0-2,0.1-4.1,0.7-6
			c0.3-1,0.9-1.6,2-1.7c0.5-0.1,1-0.1,1.6-0.2c0.8-0.2,1.6-0.3,2.3-0.6c1.4-0.7,1.8-2.1,0.9-3.4c-0.5-0.8-0.4-1.1,0.4-1.5
			c0.2-0.1,0.4-0.4,0.3-0.5c-0.1-0.2-0.3-0.4-0.5-0.4c-0.5,0-1,0-1.4,0c-0.2,0-0.4-0.1-0.6-0.2c0.6-0.3,1.1-0.3,1.7-0.5
			c0.5-0.2,1-0.5,1.5-0.7c-0.1-0.2-0.1-0.2-0.1-0.3c-0.6-1.2-0.3-1.8,1-2.2c0.2-0.1,0.5-0.1,0.7-0.2c0.5-0.3,0.7-0.6,0.5-1.2
			c-0.1-0.3-0.2-0.5-0.3-0.8c-0.7-1.5-1.4-3-2-4.5c-0.4-0.8-0.8-1.7-0.5-2.6c0-0.1,0-0.3-0.1-0.4C64.5,34.6,64.1,33.6,63.8,32.7z
			 M34,68.8c-0.4,0.3-0.8,0.6-1.1,0.9c-1.1,0.8-1.1,0.9-0.2,2c2.1,2.6,4.8,4.5,7.8,5.9c0.9,0.5,1.9,0.8,2.8,1.2
			c-0.6-0.9-1.1-1.8-1.7-2.8c-0.1-0.2-0.3-0.3-0.5-0.4c-2-1.2-3.7-2.8-5.3-4.6C35.3,70.3,34.7,69.6,34,68.8z M41.4,62.8
			c0.1,0,0.1,0,0.2,0.1c0-0.1,0-0.1,0.1-0.2c0.4-2.5,1.8-4.5,3.2-6.5c0.9-1.2,1.7-2.5,2.3-3.9c0.9-1.9,1.4-3.9,0.9-6.1
			c0-0.1-0.1-0.3-0.1-0.4c-0.2,0.2-0.3,0.4-0.4,0.6c-0.3,0.8-0.6,1.6-1,2.4c-1.1,2.4-2.3,4.8-3.5,7.3c-0.9,1.9-1.6,3.9-1.7,6.1
			C41.3,62.3,41.4,62.5,41.4,62.8z M50,44.4c-0.4,0.4-0.7,0.8-1.1,1.1c-0.1,0.1-0.2,0.3-0.2,0.4c0.1,0.9,0.2,1.8,0.4,2.7
			c0.2,0.7,0.8,1.1,1.3,1c0.7-0.1,1.2-0.6,1.4-1.3c0.1-0.3,0.1-0.6,0.1-1c0.2,0.1,0.3,0.1,0.5,0.2c1,0.4,1.8,0.3,2.2-0.4
			c0.4-0.6,0.2-1.3-0.6-2c-0.7-0.5-1.4-1-2.1-1.5c-0.1-0.1-0.3-0.1-0.4-0.1c-0.4,0.1-0.9,0.3-1.3,0.4c0.3,0.5,0.6,1,0.9,1.6
			c0.1,0.1,0,0.3,0,0.5c-0.1-0.1-0.3-0.1-0.4-0.3C50.5,45.3,50.2,44.8,50,44.4z M50.6,39.7c0.5,0.3,1,0.7,1.5,0.8
			c0.5,0.1,1-0.1,1.5-0.1c0,0.1,0,0.2,0,0.3c-0.2,0.1-0.4,0.2-0.6,0.2c-0.2,0.1-0.5,0.1-0.6,0.2c0,0.6-0.1,1.1-0.1,1.8
			c1,0.2,2.1,0.4,3.1,0.5c0.6,0.1,1.1-0.2,1.3-0.9c0.2-0.6-0.1-1.3-0.6-1.6c-0.3-0.2-0.6-0.4-1-0.6c0.2-0.2,0.3-0.4,0.5-0.5
			c0.6-0.6,0.7-1.4,0.2-2.1c-0.4-0.6-1.1-0.7-1.9-0.3C52.9,38.1,51.8,38.9,50.6,39.7z M46.7,39.2c0-0.3,0-0.6-0.1-0.8
			c-0.7-0.9-1.3-1.9-2.1-2.8c-0.6-0.7-1.3-0.8-1.8-0.4c-0.6,0.5-0.8,1.2-0.5,2c0.1,0.2,0.2,0.4,0.3,0.7c-0.4,0.1-0.8,0.1-1.1,0.2
			c-0.7,0.2-1.1,0.8-1.1,1.4c0,0.7,0.4,1.1,1,1.3c0.9,0.2,1.8,0.3,2.6,0.4c0.3-0.7,0.5-1.2,0.8-1.8c-0.1-0.1-0.4-0.2-0.5-0.3
			C44,39.2,44,39,43.9,38.8c0.1,0,0.3-0.1,0.4,0C45,39.4,45.8,39.3,46.7,39.2z M45.8,43.3c-0.5-0.3-0.9-0.6-1.3-0.9
			c-0.1-0.1-0.2-0.1-0.3-0.1c-0.9,0.3-1.8,0.5-2.7,0.9c-0.6,0.3-0.9,0.9-0.7,1.5c0.1,0.6,0.7,1.1,1.3,1.1c0.4,0,0.7,0,1.2,0
			c-0.1,0.3-0.1,0.5-0.2,0.8c-0.2,0.8,0.2,1.5,0.8,1.8c0.6,0.3,1.3,0.1,1.7-0.6c0.4-0.6,0.7-1.4,1.1-2.1c0-0.1,0-0.3,0-0.3
			c-0.3-0.5-0.6-0.9-0.9-1.4c-0.3,0.2-0.6,0.5-0.9,0.7c-0.1,0.1-0.3,0.1-0.4,0.1c0-0.2,0-0.4,0.1-0.5C45,43.9,45.4,43.6,45.8,43.3z
			 M49.2,36.1c0.1,0,0.1,0,0.2,0c0,0.2,0,0.4,0,0.7c0,0.2,0,0.4,0.1,0.5c0.4,0.4,0.8,0.8,1.2,1.2c0.6-1,1.3-2,1.8-3
			c0.4-0.7,0.1-1.3-0.4-1.6c-0.5-0.4-1.2-0.4-1.8,0c-0.3,0.2-0.5,0.5-0.8,0.7c-0.1-0.3-0.3-0.5-0.4-0.8c-0.4-0.7-1.1-1-1.8-0.8
			c-0.6,0.2-1,0.8-0.9,1.6c0.1,1,0.4,2,0.7,3c0.4-0.2,0.7-0.4,1.1-0.5c0.5-0.1,0.9-0.2,0.9-0.8C49,36.4,49.1,36.2,49.2,36.1z
			 M50.3,76.2c0.4,0.8,0.8,1.5,1.1,2.1c0.1,0.1,0.3,0.2,0.5,0.2c3.2,0.3,6.3,0,9.2-1.5c0.4-0.2,0.8-0.5,1.2-0.7c0,0,0-0.1-0.1-0.1
			C58.3,76.9,54.3,77,50.3,76.2z M50.4,73c0,0.7,0.1,1.2,0.1,1.7c-0.1,0.6,0.2,0.8,0.8,0.9c2.7,0.5,5.5,0.5,8.2,0.2
			c0.7-0.1,1.4-0.2,2.2-0.3c0-0.1,0-0.1,0-0.2C57.7,75.3,54,74.4,50.4,73z M42.2,62.7c0.9-1.1,1.7-2.1,2.5-3.1
			c0.6-0.7,1.2-1.4,1.8-2.1c1.6-2.1,2.5-4.4,2.6-7.1c0-0.3-0.1-0.6-0.1-0.9c-0.1,0-0.1,0-0.2,0c-0.2,0.6-0.3,1.2-0.5,1.8
			c-0.6,2.1-1.9,3.8-3.1,5.6c-0.9,1.3-1.6,2.6-2.4,4C42.4,61.3,42.4,61.9,42.2,62.7z M33.6,49.2c0.6,3.3,3.8,7.2,6.6,8.1
			c0.1-0.4,0.2-0.8,0.3-1.2c0.2-0.4,0.1-0.7-0.3-0.9c-2-1.3-3.9-2.8-5.5-4.6C34.4,50.2,34,49.7,33.6,49.2z M35.6,66.5
			c-0.3,0.2-0.6,0.4-1,0.6c-0.5,0.3-0.6,0.6-0.2,1.1c1.4,1.5,2.7,3.1,4.2,4.6c0.8,0.8,1.7,1.4,2.6,2.1c0.1-0.1,0.1-0.1,0.2-0.2
			c-0.1-0.2-0.2-0.5-0.4-0.6c-1.6-1.2-2.7-2.7-3-4.7c0-0.1-0.1-0.3-0.1-0.3C37.2,68.2,36.4,67.4,35.6,66.5z M40.7,62.2
			c0.1-0.7,0.2-1.4,0.4-2.1c0.6-2.8,1.9-5.3,3.2-7.9c0.6-1.2,1.2-2.4,1.7-3.5c-1.4,0.2-1.8,1.3-2.4,2.3c-1.1,1.8-2,3.7-2.5,5.8
			C40.6,58.6,40.4,60.3,40.7,62.2z M33.4,50.9c0,3.5,3.6,8.4,6.4,9c0.1-0.4,0.1-0.8,0.2-1.2c0.1-0.4,0-0.7-0.4-0.9
			c-2.3-1.1-4-2.8-5.2-5.1C34,52.1,33.7,51.6,33.4,50.9z M32.7,51.1c-0.1,0.1-0.1,0.1-0.1,0.1c-0.2,2.9,0.4,5.5,2.6,7.4
			c1.4,1.2,2.9,2.1,4.4,3.1c0,0,0.1,0,0.2,0c0.1-1,0.1-1.1-0.5-1.3c-3.4-1.7-5.6-4.5-6.4-8.2C32.9,51.8,32.8,51.5,32.7,51.1z
			 M43.2,69.3c0.1,0,0.1,0,0.2,0c0-0.1,0.1-0.2,0.1-0.3c0-2,0.9-3.7,2.1-5.4c0.6-0.8,1.2-1.7,1.7-2.6c0.4-0.7,0.6-1.5,0.3-2.4
			c-1,1.5-1.9,2.9-2.8,4.3c-1,1.7-1.6,3.5-1.6,5.5C43.1,68.9,43.1,69.1,43.2,69.3z M45.6,75.2c1.2-3,2-6.1,2-9.6
			C46.4,67.3,45.2,73.3,45.6,75.2z M42.5,68.1c0-0.1,0-0.1,0.1-0.2c0.1-1.6,0.6-3.2,1.4-4.6c0.8-1.4,1.7-2.7,2.6-4.1
			c0.2-0.3,0.3-0.7,0.5-1c-0.1,0-0.1-0.1-0.2-0.1c-0.9,1.1-1.9,2.2-2.8,3.3c-0.9,1.1-1.5,2.3-1.7,3.7C42.1,66,42.1,67,42.5,68.1z
			 M36,61.3c0.5,2.2,3.6,5.1,5.5,5.5c0-0.2,0-0.5,0-0.7c0.1-0.6-0.1-0.9-0.7-1.1c-0.8-0.4-1.6-0.9-2.3-1.4
			C37.6,62.9,36.8,62.1,36,61.3z M41.7,68.7c0-0.7-0.2-1.1-0.8-1.4c-2.2-1-3.9-2.6-5.1-4.8c-0.2-0.4-0.4-0.8-0.7-1.4
			C35.3,64.6,37.5,67,41.7,68.7z M49.5,72.8c-0.5,1.6-1,3.2-1.4,4.9c-0.2,0.6-0.2,1.2-0.2,1.7c0,0.2,0.2,0.3,0.3,0.5
			c0.1-0.1,0.4-0.2,0.4-0.4c0.4-1.1,0.8-2.2,1.1-3.3C49.9,75,49.9,73.9,49.5,72.8z M47.9,61.1c-0.8,1.2-1.5,2.2-2.2,3.3
			c-0.5,0.9-1,1.8-1.4,2.7c-0.3,0.8-0.4,1.6-0.3,2.6c0.1-0.2,0.2-0.2,0.2-0.3c0.4-1.7,1.2-3.2,2.3-4.6
			C47.3,63.7,47.8,62.5,47.9,61.1z M46.3,75.5c1.7-1.1,3-7.4,1.8-9C48,69.6,47.2,72.6,46.3,75.5z M41.5,64.7
			c0.4-0.6,0.3-0.9-0.3-1.2c-1.6-0.9-3.1-1.8-4.6-2.8c-0.1-0.1-0.2-0.1-0.3-0.2C37.7,62.4,39.4,63.8,41.5,64.7z M43.7,74.6
			c0.1-0.5,0-0.7-0.4-0.9c-1.8-0.9-3.2-2.2-4.2-4c-0.1-0.1-0.2-0.2-0.3-0.4C38.9,71.5,41.2,73.9,43.7,74.6z M47.1,79.6
			c0.3-1.2,0.6-2.4,0.9-3.6c0.3-1.2,0.8-2.3,0.8-3.5c-0.6,1.1-1.1,2.2-1.5,3.3c-0.3,1-0.5,2.1-0.7,3.1
			C46.4,79.4,46.7,79.7,47.1,79.6z M48.3,42.7c0.7,0,1.2-0.6,1.2-1.3c0-0.7-0.6-1.2-1.3-1.2c-0.7,0-1.3,0.6-1.2,1.3
			C47,42.2,47.6,42.7,48.3,42.7z M46.6,66.1c-1.6,1.7-2.8,7.5-1.8,9C45,71.9,45.5,69,46.6,66.1z M46.9,43.2c-0.3,0.3-0.3,0.8,0,1.3
			c0.3,0.4,0.7,0.7,1.3,0.5c0.6-0.1,0.9-0.5,1-1.1c0-0.3,0.1-0.6-0.4-0.6C48.2,43.3,47.6,43.3,46.9,43.2z M47.5,39.5
			c0.7,0.1,1.4,0.2,2.1,0.3c0.4-0.5,0.3-1.1-0.1-1.5c-0.4-0.4-1-0.5-1.5-0.1C47.4,38.5,47.2,39,47.5,39.5z M40,69.9
			c0.9,1.5,2.1,2.6,3.7,3.4c0.2-1.2,0.2-1.2-0.8-1.7c-0.3-0.2-0.7-0.3-1-0.5C41.3,70.7,40.6,70.3,40,69.9z M49.9,42.8
			c0.5,0.3,1.1,0.3,1.5-0.2c0.4-0.4,0.4-1.1,0.1-1.6c-0.4-0.5-0.9-0.6-1.3-0.4C50.1,41.4,50,42.1,49.9,42.8z M46.3,76.2
			c-1.2-0.4-2.4-0.8-3.7-1.2c1,1.2,2,2,3.4,2.5C46,77.1,46.2,76.7,46.3,76.2z M46.6,40.1c-0.5-0.3-1-0.3-1.4,0.1
			c-0.4,0.4-0.5,1-0.2,1.5c0.3,0.5,0.8,0.7,1.3,0.5C46.4,41.6,46.5,40.9,46.6,40.1z M43.9,71.3c0-0.4,0.4-0.8-0.2-1
			c-1.5-0.6-2.9-1.2-4.5-1.9C40.6,69.7,42.1,70.7,43.9,71.3z M42.3,75.7c0.4,1.6,2.2,3.3,3.6,3.4c-0.1-0.4-0.1-0.9-0.3-1
			C44.4,77.6,43.3,76.8,42.3,75.7z M51.7,80.1c1.6-0.2,3.1-0.5,4.6-0.7c0-0.1,0-0.1,0-0.2c-1.5,0-3,0-4.6,0
			C51.6,79.5,51.7,79.7,51.7,80.1z M50,78.3c0,0-0.1,0-0.1,0c-0.2,0.5-0.4,1-0.6,1.6c0.6,0.2,0.8,0,0.8-0.5C50,79.1,50,78.7,50,78.3
			z M50.8,78.3c-0.1,0-0.1,0-0.2,0c0,0.5-0.1,0.9-0.1,1.4c0,0.1,0.2,0.2,0.2,0.3c0.1-0.1,0.2-0.2,0.2-0.3
			C50.9,79.3,50.8,78.8,50.8,78.3z M37.8,68c0.1,0,0.1-0.1,0.2-0.1c-0.2-0.7-1-0.9-1.5-1.4C36.9,66.9,37.4,67.5,37.8,68z"/>
		<path class="st0" d="M58.3,39.2c0.9-0.6,1.8-1.2,2.7-1.7c0.5-0.3,1.2-0.2,1.8-0.2c0.1,0,0.2,0.2,0.3,0.3c-0.1,0.1-0.2,0.2-0.3,0.3
			c-0.1,0.2-0.3,0.4-0.4,0.6c-0.2,0.6-0.4,1.1-1.1,1.4c0-0.3,0-0.6,0-0.8c0-0.7-0.2-0.9-0.9-0.6c-0.4,0.2-0.8,0.5-1.3,0.7
			c-0.3,0.1-0.6,0.2-1,0.3C58.3,39.3,58.3,39.3,58.3,39.2z"/>
		<path class="st0" d="M63.5,43.6c0,0.3-0.1,0.7,0,1c0.1,0.3,0.3,0.5,0.6,0.6c0.1,0,0.3-0.3,0.5-0.3c0.4-0.1,0.8-0.2,1.2-0.3
			c0,0.1,0,0.1,0,0.2c-0.5,0.3-1,0.7-1.6,0.9c-0.7,0.3-1.4-0.4-1.3-1.2c0-0.3,0.2-0.6,0.3-0.8C63.4,43.6,63.4,43.6,63.5,43.6z"/>
	</g>
</g>
</svg>
